<svg width="115" height="84" viewBox="0 0 115 84" fill="none" xmlns="http://www.w3.org/2000/svg">
<path d="M112.484 28.6514L111.901 29.6297C113.745 26.7045 114.77 23.3383 114.869 19.8821C114.968 16.426 114.139 13.0064 112.467 9.98006C110.795 6.95369 108.341 4.43132 105.362 2.67594C102.384 0.920562 98.9883 -0.00353301 95.5307 9.30101e-06L19.3385 5.97054e-06C16.0556 0.00150304 12.8269 0.838387 9.95661 2.43188C7.08628 4.02538 4.66865 6.32307 2.93129 9.10867C1.19393 11.8943 0.193992 15.0762 0.0255882 18.3548C-0.142808 21.6335 0.525863 24.9011 1.96869 27.8501C2.62773 29.1461 3.41946 30.3703 4.33116 31.503C12.7507 41.9104 42.37 76.0673 42.37 76.0673C44.2212 78.367 46.5745 80.2123 49.2493 81.4617C51.9242 82.7111 54.8496 83.3315 57.8013 83.2752C60.753 83.219 63.6527 82.4876 66.278 81.1371C68.9033 79.7867 71.1845 77.8531 72.9468 75.4845L72.4993 76.0673L110.434 31.6591C112.772 28.8315 114.258 25.397 114.717 21.7568C115.176 18.1165 114.59 14.4207 113.027 11.1011C111.464 7.78139 108.99 4.97484 105.891 3.00915C102.793 1.04347 99.1998 -0.000208438 95.5307 9.30101e-06L19.3385 5.97054e-06C15.6859 0.000697084 12.1081 1.03595 9.01942 2.9859C5.93076 4.93585 3.45757 7.72074 1.88619 11.0181C0.314803 14.3155 -0.290505 17.9906 0.140357 21.6178C0.571219 25.245 2.02062 28.6759 4.32075 31.5134" fill="#FFE735"/>
</svg>
