<svg width="36" height="32" viewBox="0 0 36 32" fill="none" xmlns="http://www.w3.org/2000/svg">
<path d="M7.98113 0.666503L8.25364 0.828851C7.43878 0.315382 6.5011 0.029919 5.53835 0.00222627C4.57561 -0.0254665 3.62307 0.205625 2.78004 0.671406C1.93702 1.13719 1.23439 1.8206 0.745409 2.65038C0.256431 3.48017 -0.000983961 4.42594 2.82645e-06 5.38908V26.6131C0.000419891 27.5276 0.233542 28.427 0.677425 29.2266C1.12131 30.0261 1.76135 30.6996 2.53731 31.1835C3.31327 31.6675 4.19961 31.946 5.11292 31.9929C6.02622 32.0399 6.93644 31.8536 7.7579 31.4517C8.11893 31.2681 8.45995 31.0475 8.77547 30.7936C11.6745 28.4482 21.1893 20.1975 21.1893 20.1975C21.8299 19.6818 22.3439 19.0263 22.6919 18.2812C23.04 17.5361 23.2128 16.7212 23.1971 15.899C23.1814 15.0767 22.9777 14.269 22.6015 13.5377C22.2253 12.8064 21.6867 12.1709 21.0269 11.6801L21.1893 11.8047L8.81896 1.23762C8.03129 0.586315 7.07458 0.172549 6.06055 0.0446432C5.04653 -0.083263 4.01703 0.0799697 3.09231 0.515278C2.16758 0.950587 1.38579 1.64 0.838228 2.50302C0.290668 3.36603 -5.78714e-05 4.36702 2.82645e-06 5.38908V26.6131C0.000195387 27.6306 0.288575 28.6273 0.831752 29.4876C1.37493 30.348 2.15069 31.0369 3.06921 31.4747C3.98773 31.9124 5.01145 32.081 6.02184 31.961C7.03222 31.841 7.98795 31.4372 8.77837 30.7965" fill="#EBF0FF"/>
<path d="M31.3898 4.3999H14.9437C12.9499 4.3999 11.3335 5.82387 11.3335 7.58043V24.8859C11.3335 26.6424 12.9499 28.0664 14.9437 28.0664H31.3898C33.3836 28.0664 35 26.6424 35 24.8859V7.58043C35 5.82387 33.3836 4.3999 31.3898 4.3999Z" stroke="#81859C" stroke-width="2" stroke-miterlimit="10"/>
<path d="M16.715 10.7722H30.2299" stroke="#81859C" stroke-width="2" stroke-linecap="round" stroke-linejoin="round"/>
<path d="M16.715 16.3372H30.2299" stroke="#81859C" stroke-width="2" stroke-linecap="round" stroke-linejoin="round"/>
<path d="M16.715 21.9021H30.2299" stroke="#81859C" stroke-width="2" stroke-linecap="round" stroke-linejoin="round"/>
</svg>
