<svg width="35" height="32" viewBox="0 0 35 32" fill="none" xmlns="http://www.w3.org/2000/svg">
<path d="M7.98112 0.666502L8.25363 0.82885C7.43877 0.315382 6.50109 0.029919 5.53835 0.00222627C4.5756 -0.0254664 3.62306 0.205625 2.78004 0.671405C1.93702 1.13719 1.23438 1.8206 0.745408 2.65038C0.256431 3.48016 -0.00098396 4.42593 2.82645e-06 5.38907V26.6131C0.00041989 27.5276 0.233542 28.427 0.677425 29.2265C1.12131 30.0261 1.76135 30.6995 2.53731 31.1835C3.31326 31.6675 4.19961 31.946 5.11291 31.9929C6.02621 32.0398 6.93643 31.8535 7.75789 31.4516C8.11893 31.2681 8.45994 31.0475 8.77546 30.7935C11.6745 28.4482 21.1892 20.1975 21.1892 20.1975C21.8298 19.6818 22.3439 19.0263 22.6919 18.2812C23.0399 17.5361 23.2128 16.7212 23.1971 15.8989C23.1814 15.0767 22.9777 14.269 22.6015 13.5377C22.2253 12.8064 21.6867 12.1709 21.0269 11.68L21.1892 11.8047L8.81895 1.23762C8.03128 0.586314 7.07457 0.172549 6.06055 0.0446431C5.04652 -0.0832629 4.01703 0.0799696 3.0923 0.515278C2.16758 0.950586 1.38579 1.64 0.838227 2.50301C0.290667 3.36603 -5.78714e-05 4.36701 2.82645e-06 5.38907V26.6131C0.000195387 27.6306 0.288574 28.6272 0.831751 29.4876C1.37493 30.348 2.15068 31.0369 3.06921 31.4746C3.98773 31.9123 5.01144 32.081 6.02183 31.9609C7.03221 31.8409 7.98794 31.4372 8.77836 30.7964" fill="#4AE4E4"/>
<path d="M21.5792 27.5084C19.2544 27.5084 16.9818 26.819 15.0489 25.5275C13.1159 24.2359 11.6093 22.4001 10.7197 20.2523C9.83004 18.1045 9.59727 15.7412 10.0508 13.4611C10.5043 11.181 11.6238 9.08658 13.2677 7.44273C14.9115 5.79888 17.0059 4.6794 19.286 4.22586C21.5661 3.77232 23.9295 4.00509 26.0773 4.89474C28.2251 5.78439 30.0608 7.29095 31.3524 9.22392C32.644 11.1569 33.3333 13.4294 33.3333 15.7542" stroke="#1062AA" stroke-width="2" stroke-linecap="round" stroke-linejoin="round"/>
<path d="M21.5803 21.9614C25.0085 21.9614 27.7876 19.1823 27.7876 15.7541C27.7876 12.326 25.0085 9.54688 21.5803 9.54688C18.1521 9.54688 15.373 12.326 15.373 15.7541C15.373 19.1823 18.1521 21.9614 21.5803 21.9614Z" stroke="#1062AA" stroke-width="2" stroke-miterlimit="10"/>
<path d="M33.3338 15.6221C33.3338 17.4103 32.0923 18.665 30.5603 18.665C30.1957 18.665 29.8346 18.593 29.4978 18.4533C29.1609 18.3136 28.8549 18.1089 28.5973 17.8508C28.3397 17.5927 28.1355 17.2863 27.9965 16.9492C27.8574 16.6121 27.7862 16.2509 27.7869 15.8862" stroke="#1062AA" stroke-width="2" stroke-miterlimit="10"/>
</svg>
