<svg width="37" height="32" viewBox="0 0 37 32" fill="none" xmlns="http://www.w3.org/2000/svg">
<path d="M7.98112 0.666502L8.25363 0.82885C7.43877 0.315382 6.50109 0.029919 5.53835 0.00222627C4.5756 -0.0254664 3.62306 0.205625 2.78004 0.671405C1.93702 1.13719 1.23438 1.8206 0.745408 2.65038C0.256431 3.48016 -0.00098396 4.42593 2.82645e-06 5.38907V26.6131C0.00041989 27.5276 0.233542 28.427 0.677425 29.2265C1.12131 30.0261 1.76135 30.6995 2.53731 31.1835C3.31326 31.6675 4.19961 31.946 5.11291 31.9929C6.02621 32.0398 6.93643 31.8535 7.75789 31.4516C8.11893 31.2681 8.45994 31.0475 8.77546 30.7935C11.6745 28.4482 21.1892 20.1975 21.1892 20.1975C21.8298 19.6818 22.3439 19.0263 22.6919 18.2812C23.0399 17.5361 23.2128 16.7212 23.1971 15.8989C23.1814 15.0767 22.9777 14.269 22.6015 13.5377C22.2253 12.8064 21.6867 12.1709 21.0269 11.68L21.1892 11.8047L8.81895 1.23762C8.03128 0.586314 7.07457 0.172549 6.06055 0.0446431C5.04652 -0.0832629 4.01703 0.0799696 3.0923 0.515278C2.16758 0.950586 1.38579 1.64 0.838227 2.50301C0.290667 3.36603 -5.78714e-05 4.36701 2.82645e-06 5.38907V26.6131C0.000195387 27.6306 0.288574 28.6272 0.831751 29.4876C1.37493 30.348 2.15068 31.0369 3.06921 31.4746C3.98773 31.9123 5.01144 32.081 6.02183 31.9609C7.03221 31.8409 7.98794 31.4372 8.77836 30.7964" fill="#EBF0FF"/>
<path d="M27.7141 21.871H18.3586C18.0755 21.8615 17.7979 21.7904 17.5452 21.6625C17.2925 21.5346 17.0708 21.3531 16.8956 21.1306C16.3748 20.4009 16.5909 19.5684 16.7999 19.0052C17.2703 17.7405 18.113 16.6481 19.2168 15.8721C20.3206 15.0961 21.6338 14.6729 22.983 14.6583C24.3322 14.6438 25.6542 15.0385 26.7745 15.7905C27.8948 16.5425 28.7609 17.6164 29.2586 18.8706C29.4166 19.2276 29.4902 19.6163 29.4736 20.0064C29.457 20.3966 29.3507 20.7776 29.1629 21.12C28.9946 21.3473 28.7765 21.5331 28.5254 21.6632C28.2743 21.7934 27.9968 21.8644 27.7141 21.871ZM23.0558 15.7355C21.9156 15.7388 20.8034 16.0894 19.8674 16.7406C18.9315 17.3918 18.2161 18.3127 17.8166 19.3807C17.5651 20.0608 17.6465 20.3194 17.7776 20.5001C17.9317 20.6706 18.1468 20.7737 18.3763 20.787H27.7141C27.8236 20.7829 27.9311 20.7562 28.0298 20.7087C28.1285 20.6611 28.2164 20.5937 28.2879 20.5107C28.3749 20.3156 28.4198 20.1044 28.4198 19.8908C28.4198 19.6772 28.3749 19.466 28.2879 19.2708C27.8771 18.2206 27.1567 17.32 26.2223 16.6886C25.2878 16.0572 24.1835 15.7248 23.0558 15.7355Z" fill="#81859C" stroke="#81859C" stroke-linecap="round" stroke-linejoin="round"/>
<path d="M23.0545 15.7357C22.318 15.7364 21.5978 15.5186 20.9851 15.11C20.3724 14.7013 19.8946 14.1201 19.6123 13.4398C19.33 12.7596 19.2557 12.0109 19.399 11.2885C19.5422 10.566 19.8966 9.9023 20.4171 9.38127C20.9376 8.86023 21.601 8.50529 22.3233 8.36135C23.0456 8.21741 23.7944 8.29093 24.4749 8.57262C25.1554 8.8543 25.7371 9.33149 26.1463 9.94383C26.5556 10.5562 26.774 11.2761 26.774 12.0126C26.7731 12.9991 26.381 13.945 25.6838 14.6429C24.9865 15.3409 24.041 15.7338 23.0545 15.7357ZM23.0545 9.35936C22.5317 9.35866 22.0204 9.51305 21.5854 9.803C21.1503 10.0929 20.8111 10.5054 20.6105 10.9882C20.4099 11.4711 20.3571 12.0025 20.4587 12.5154C20.5602 13.0282 20.8116 13.4994 21.1811 13.8694C21.5505 14.2393 22.0214 14.4913 22.5341 14.5936C23.0468 14.6958 23.5783 14.6437 24.0614 14.4438C24.5445 14.2439 24.9574 13.9052 25.248 13.4705C25.5385 13.0359 25.6936 12.5248 25.6936 12.002C25.688 11.3051 25.4077 10.6385 24.9136 10.1471C24.4195 9.65561 23.7514 9.37891 23.0545 9.37707V9.35936Z" fill="#81859C" stroke="#81859C" stroke-linecap="round" stroke-linejoin="round"/>
<path d="M11.3253 16.0234C11.261 22.6295 16.5642 28.037 23.1704 28.1013C29.7766 28.1656 35.184 22.8624 35.2483 16.2562C35.3126 9.65005 30.0094 4.24256 23.4032 4.17826C16.7971 4.11396 11.3896 9.41722 11.3253 16.0234Z" stroke="#81859C" stroke-width="2" stroke-miterlimit="10"/>
<path d="M14.0159 23.7175L7.4231 29" stroke="#81859C" stroke-width="2" stroke-linecap="round" stroke-linejoin="round"/>
</svg>
