<svg width="37" height="33" viewBox="0 0 37 33" fill="none" xmlns="http://www.w3.org/2000/svg">
<path d="M7.98753 0.667038L8.26026 0.829516C7.44475 0.315635 6.50631 0.029943 5.5428 0.00222806C4.57928 -0.0254869 3.62597 0.20579 2.78227 0.671945C1.93857 1.1381 1.23538 1.82206 0.746007 2.65251C0.256637 3.48296 -0.00098475 4.42949 2.82872e-06 5.3934V26.6345C0.000420228 27.5497 0.233729 28.4498 0.677969 29.25C1.12221 30.0502 1.76277 30.7242 2.53935 31.2085C3.31592 31.6929 4.20298 31.9717 5.11702 32.0186C6.03106 32.0656 6.94201 31.8791 7.76412 31.4769C8.12545 31.2932 8.46674 31.0725 8.78251 30.8183C11.6839 28.4711 21.2063 20.2137 21.2063 20.2137C21.8474 19.6976 22.3618 19.0416 22.7101 18.2959C23.0585 17.5502 23.2314 16.7346 23.2157 15.9117C23.2 15.0888 22.9961 14.2804 22.6197 13.5486C22.2432 12.8167 21.7041 12.1807 21.0438 11.6894L21.2063 11.8142L8.82603 1.23861C8.03773 0.586785 7.08026 0.172688 6.06542 0.044679C5.05057 -0.0833298 4.02026 0.0800338 3.09479 0.515692C2.16932 0.951349 1.3869 1.64132 0.8389 2.50502C0.290901 3.36873 -5.79179e-05 4.37052 2.82872e-06 5.3934V26.6345C0.000195544 27.6528 0.288806 28.6502 0.832419 29.5113C1.37603 30.3723 2.15241 31.0618 3.07167 31.4999C3.99093 31.938 5.01547 32.1067 6.02667 31.9866C7.03786 31.8665 7.99436 31.4624 8.78541 30.8212" fill="#EBF0FF"/>
<path d="M32.5672 4.27002H12.5422C10.6463 4.27002 9.10938 5.80696 9.10938 7.70287V20.8621C9.10938 22.758 10.6463 24.295 12.5422 24.295H32.5672C34.4631 24.295 36 22.758 36 20.8621V7.70287C36 5.80696 34.4631 4.27002 32.5672 4.27002Z" stroke="#81859C" stroke-width="2" stroke-miterlimit="10"/>
<path d="M32.3289 7.13086H12.7788C12.3317 7.13086 11.9692 7.49332 11.9692 7.94044V20.6248C11.9692 21.0719 12.3317 21.4344 12.7788 21.4344H32.3289C32.776 21.4344 33.1385 21.0719 33.1385 20.6248V7.94044C33.1385 7.49332 32.776 7.13086 32.3289 7.13086Z" stroke="#81859C" stroke-width="2" stroke-miterlimit="10"/>
<path d="M15.4839 28.1914H29.9934" stroke="#81859C" stroke-width="2" stroke-linecap="round" stroke-linejoin="round"/>
</svg>
