<svg width="42" height="54" viewBox="0 0 42 54" fill="none" xmlns="http://www.w3.org/2000/svg">
<path d="M25.3636 39.4423L22.3426 37.2436C21.5035 36.5671 20.3287 36.5671 19.4895 37.2436L16.4686 39.4423C15.1259 40.4571 13.112 39.7806 12.7763 38.0893L11.9371 34.3684C11.7693 33.3536 10.7623 32.5079 9.75534 32.5079L6.2309 32.3388C4.55259 32.1697 3.54561 30.4784 4.21693 28.9562L5.89524 25.5736C6.39873 24.5588 6.2309 23.544 5.39174 22.6983L2.70645 20.1614C1.53164 18.9775 1.8673 16.9479 3.37778 16.2714L6.73439 14.7492C7.90921 14.4109 8.4127 13.3961 8.4127 12.3814L7.9092 8.66047C7.74137 6.96916 9.25185 5.61611 10.9302 6.1235L14.4546 7.30742C15.4616 7.64568 16.4686 7.30742 17.1399 6.29263L19.1539 3.07914C20.1608 1.55696 22.1748 1.72609 23.1818 3.07914L25.1958 6.29263C25.6993 7.13829 26.8741 7.64568 27.8811 7.30742L31.4055 6.1235C33.0838 5.61611 34.5943 6.96916 34.4265 8.66047L33.923 12.3814C33.7551 13.3961 34.4265 14.4109 35.2656 14.9183L38.6222 16.4405C40.1327 17.117 40.4684 19.1466 39.2935 20.3305L36.6083 22.8675C35.7691 23.544 35.6013 24.7279 36.1048 25.7427L37.7831 29.1253C38.6222 30.6475 37.4474 32.5079 35.7691 32.5079L32.0768 32.6771C31.0698 32.6771 30.0629 33.5227 29.895 34.5375L29.0559 38.2584C28.7202 39.7806 26.7062 40.6262 25.3636 39.4423Z" stroke="#1062AA" stroke-width="3" stroke-miterlimit="10" stroke-linecap="round" stroke-linejoin="round"/>
<circle cx="21" cy="21" r="8.5" stroke="#1062AA" stroke-width="3"/>
<path d="M12 34.5L8.62338 48.4305L13.4183 45.0752L15.6784 49.646L18.8857 38.4338" stroke="#1062AA" stroke-width="3" stroke-linecap="round" stroke-linejoin="round"/>
<path d="M30.4739 34.5L33.8505 48.4305L29.0555 45.0752L26.7955 49.646L23.5882 38.4338" stroke="#1062AA" stroke-width="3" stroke-linecap="round" stroke-linejoin="round"/>
</svg>
