<svg width="56" height="49" viewBox="0 0 56 49" fill="none" xmlns="http://www.w3.org/2000/svg">
<path d="M48.8529 46.7862H6.76471C4.14412 46.7862 2 44.639 2 42.0146V39.7083C2 37.084 4.14412 34.9368 6.76471 34.9368H48.8529C51.4735 34.9368 53.6176 37.084 53.6176 39.7083V42.0146C53.6176 44.639 51.4735 46.7862 48.8529 46.7862Z" stroke="#1062AA" stroke-width="3" stroke-miterlimit="10" stroke-linecap="round" stroke-linejoin="round"/>
<path d="M7.47937 40.9011H27.8088" stroke="#1062AA" stroke-width="3" stroke-miterlimit="10" stroke-linecap="round" stroke-linejoin="round"/>
<path d="M33.8442 40.9011H40.356" stroke="#1062AA" stroke-width="3" stroke-miterlimit="10" stroke-linecap="round" stroke-linejoin="round"/>
<path d="M46.9472 43.0483C48.1752 43.0483 49.1707 42.0514 49.1707 40.8216C49.1707 39.5918 48.1752 38.5948 46.9472 38.5948C45.7191 38.5948 44.7236 39.5918 44.7236 40.8216C44.7236 42.0514 45.7191 43.0483 46.9472 43.0483Z" fill="#1062AA"/>
<path d="M48.8529 30.4037H6.76471C4.14412 30.4037 2 28.2565 2 25.6322V23.3259C2 20.7015 4.14412 18.5543 6.76471 18.5543H48.8529C51.4735 18.5543 53.6176 20.7015 53.6176 23.3259V25.6322C53.6176 28.2565 51.4735 30.4037 48.8529 30.4037Z" stroke="#1062AA" stroke-width="3" stroke-miterlimit="10" stroke-linecap="round" stroke-linejoin="round"/>
<path d="M7.47937 24.4392H27.8088" stroke="#1062AA" stroke-width="3" stroke-miterlimit="10" stroke-linecap="round" stroke-linejoin="round"/>
<path d="M33.8442 24.4392H40.356" stroke="#1062AA" stroke-width="3" stroke-miterlimit="10" stroke-linecap="round" stroke-linejoin="round"/>
<path d="M46.9472 26.666C48.1752 26.666 49.1707 25.6691 49.1707 24.4393C49.1707 23.2095 48.1752 22.2125 46.9472 22.2125C45.7191 22.2125 44.7236 23.2095 44.7236 24.4393C44.7236 25.6691 45.7191 26.666 46.9472 26.666Z" fill="#1062AA"/>
<path d="M48.8529 14.0213H6.76471C4.14412 14.0213 2 11.8741 2 9.24971V6.94345C2 4.31908 4.14412 2.17188 6.76471 2.17188H48.8529C51.4735 2.17188 53.6176 4.31908 53.6176 6.94345V9.24971C53.6176 11.8741 51.4735 14.0213 48.8529 14.0213Z" stroke="#1062AA" stroke-width="3" stroke-miterlimit="10" stroke-linecap="round" stroke-linejoin="round"/>
<path d="M7.47937 8.05688H27.8088" stroke="#1062AA" stroke-width="3" stroke-miterlimit="10" stroke-linecap="round" stroke-linejoin="round"/>
<path d="M33.8442 8.05688H40.356" stroke="#1062AA" stroke-width="3" stroke-miterlimit="10" stroke-linecap="round" stroke-linejoin="round"/>
<path d="M46.9472 10.2835C48.1752 10.2835 49.1707 9.2866 49.1707 8.05681C49.1707 6.82702 48.1752 5.83008 46.9472 5.83008C45.7191 5.83008 44.7236 6.82702 44.7236 8.05681C44.7236 9.2866 45.7191 10.2835 46.9472 10.2835Z" fill="#1062AA"/>
</svg>
