<svg width="37" height="32" viewBox="0 0 37 32" fill="none" xmlns="http://www.w3.org/2000/svg">
<path d="M7.98112 0.666502L8.25363 0.82885C7.43877 0.315382 6.50109 0.029919 5.53835 0.00222627C4.5756 -0.0254664 3.62306 0.205625 2.78004 0.671405C1.93702 1.13719 1.23438 1.8206 0.745408 2.65038C0.256431 3.48016 -0.00098396 4.42593 2.82645e-06 5.38907V26.6131C0.00041989 27.5276 0.233542 28.427 0.677425 29.2265C1.12131 30.0261 1.76135 30.6995 2.53731 31.1835C3.31326 31.6675 4.19961 31.946 5.11291 31.9929C6.02621 32.0398 6.93643 31.8535 7.75789 31.4516C8.11893 31.2681 8.45994 31.0475 8.77546 30.7935C11.6745 28.4482 21.1892 20.1975 21.1892 20.1975C21.8298 19.6818 22.3439 19.0263 22.6919 18.2812C23.0399 17.5361 23.2128 16.7212 23.1971 15.8989C23.1814 15.0767 22.9777 14.269 22.6015 13.5377C22.2253 12.8064 21.6867 12.1709 21.0269 11.68L21.1892 11.8047L8.81895 1.23762C8.03128 0.586314 7.07457 0.172549 6.06055 0.0446431C5.04652 -0.0832629 4.01703 0.0799696 3.0923 0.515278C2.16758 0.950586 1.38579 1.64 0.838227 2.50301C0.290667 3.36603 -5.78714e-05 4.36701 2.82645e-06 5.38907V26.6131C0.000195387 27.6306 0.288574 28.6272 0.831751 29.4876C1.37493 30.348 2.15068 31.0369 3.06921 31.4746C3.98773 31.9123 5.01144 32.081 6.02183 31.9609C7.03221 31.8409 7.98794 31.4372 8.77836 30.7964" fill="#EBF0FF"/>
<path d="M29.3389 15.8051C29.3389 9.91258 24.562 5.13571 18.6694 5.13571C12.7769 5.13571 8 9.91258 8 15.8051C8 21.6977 12.7769 26.4746 18.6694 26.4746C24.562 26.4746 29.3389 21.6977 29.3389 15.8051Z" stroke="#81859C" stroke-width="2" stroke-miterlimit="10"/>
<path d="M26.8724 8.96606L35.0249 2" stroke="#81859C" stroke-width="2" stroke-linecap="round" stroke-linejoin="round"/>
</svg>
