<svg width="49" height="49" viewBox="0 0 49 49" fill="none" xmlns="http://www.w3.org/2000/svg">
<path d="M31.1825 19.2548L23.7727 28.518L17.3335 23.0701" stroke="#1062AA" stroke-width="3" stroke-miterlimit="10" stroke-linecap="round" stroke-linejoin="round"/>
<path d="M21.6165 43.4797L21.6105 43.4842L17.8005 46.3207L17.7981 46.3225C16.913 46.9843 15.6203 46.4951 15.3842 45.4597L15.3836 45.4571L14.3248 40.8514C14.3244 40.8496 14.324 40.8478 14.3236 40.846C13.8809 38.8716 12.1466 37.4665 10.1701 37.3258L10.1545 37.3247L10.1389 37.3239L5.3799 37.0843C4.37479 37.008 3.68567 35.8432 4.20478 34.8575L4.20854 34.8504L4.21223 34.8432L6.37777 30.6215C6.37863 30.6199 6.37949 30.6182 6.38036 30.6166C7.31043 28.8283 6.95816 26.6492 5.43857 25.2681L1.9767 22.0088L1.97377 22.006C1.19157 21.2735 1.40171 19.9342 2.44872 19.4826L6.82999 17.6588L6.82999 17.6588L6.83643 17.6561C8.70853 16.8665 9.79208 14.9843 9.57759 12.9887L9.57638 12.9774L9.57499 12.9661L8.99744 8.26426C8.87828 7.15283 9.90407 6.31108 10.9604 6.64613L10.9604 6.64618L10.973 6.65006L15.5064 8.04428L15.5144 8.04674L15.5224 8.04912C17.4232 8.61055 19.5286 7.9208 20.6343 6.17013L23.2277 2.19642C23.2283 2.19552 23.2289 2.19463 23.2295 2.19374C23.8554 1.2493 25.2164 1.29515 25.7726 2.17297L25.7726 2.17298L25.7766 2.17927L28.3292 6.16421C29.4339 7.91925 31.5419 8.61118 33.4448 8.04912L33.4448 8.04916L33.4566 8.04558L38.0344 6.65252C38.0349 6.65237 38.0354 6.65221 38.036 6.65206C39.0836 6.3375 40.1152 7.22335 39.973 8.28669L39.972 8.29468L39.971 8.30267L39.3939 13.0007C39.1085 15.046 40.2822 16.9709 42.1275 17.7509C42.1286 17.7513 42.1297 17.7518 42.1308 17.7522L46.5131 19.6245C47.5214 20.0553 47.7604 21.38 46.9506 22.1452L43.4453 25.3524C43.4438 25.3538 43.4422 25.3551 43.4407 25.3565C41.9139 26.7373 41.5586 28.9213 42.4906 30.713C42.4914 30.7145 42.4922 30.7161 42.493 30.7177L44.6511 34.9247C45.1413 35.9445 44.4332 37.0841 43.3707 37.1311L43.3617 37.1316L38.5872 37.372L38.5716 37.3728L38.556 37.3739C36.5822 37.5144 34.8499 38.9159 34.4043 40.8862L33.2977 45.4907L33.2956 45.4992L33.2937 45.5078C33.0579 46.5419 31.768 47.0312 30.883 46.373C30.8819 46.3722 30.8809 46.3714 30.8798 46.3706L27.087 43.499C27.0851 43.4976 27.0831 43.4961 27.0812 43.4946C25.4696 42.2573 23.2408 42.283 21.6165 43.4797Z" stroke="#1062AA" stroke-width="3"/>
</svg>
