<svg width="22" height="20" viewBox="0 0 22 20" fill="none" xmlns="http://www.w3.org/2000/svg">
<path d="M10.0489 2.16312C10.3483 1.24181 11.6517 1.24181 11.9511 2.16312L12.9676 5.2918C13.3692 6.52786 14.5211 7.36475 15.8208 7.36475H19.1105C20.0792 7.36475 20.482 8.60436 19.6983 9.17376L17.0369 11.1074C15.9854 11.8713 15.5454 13.2254 15.947 14.4615L16.9636 17.5902C17.263 18.5115 16.2085 19.2776 15.4248 18.7082L12.7634 16.7746C11.7119 16.0106 10.2881 16.0106 9.23664 16.7746L6.57523 18.7082C5.79152 19.2776 4.73704 18.5115 5.03639 17.5902L6.05296 14.4615C6.45458 13.2254 6.01461 11.8713 4.96315 11.1074L2.30174 9.17376C1.51802 8.60436 1.9208 7.36475 2.88952 7.36475H6.1792C7.47888 7.36475 8.63075 6.52786 9.03237 5.2918L10.0489 2.16312Z" stroke="#1062AA" stroke-width="2"/>
</svg>
