<svg width="45" height="39" viewBox="0 0 45 39" fill="none" xmlns="http://www.w3.org/2000/svg">
<path d="M9.50268 0.8125L9.81367 1.02446C8.84613 0.353261 7.67125 0 6.42726 0C2.86808 0 0 2.93207 0 6.57065V32.4293C0 36.0679 2.86808 39 6.42726 39C7.42936 39 8.39691 38.7527 9.26079 38.3288C9.26079 38.3288 9.84823 38.0462 10.4702 37.5163C13.9257 34.6549 25.2598 24.587 25.2598 24.587C26.7112 23.4212 27.6441 21.5489 27.6441 19.5C27.6441 17.3451 26.642 15.4375 25.0525 14.2364L25.2598 14.3777L10.5048 1.51902C9.39901 0.565217 7.98225 0 6.42726 0C2.86808 0 0 2.93207 0 6.57065V32.4293C0 36.0679 2.86808 39 6.42726 39C7.94769 39 9.36446 38.4348 10.4702 37.5516" fill="#8CC63F"/>
<path d="M17.3047 36.1988H38.3658C40.9127 36.1988 43.0025 34.126 43.0025 31.5997V6.66051C43.0025 4.13421 40.9127 2.06134 38.3658 2.06134H17.3047C14.7578 2.06134 12.668 4.13421 12.668 6.66051V31.6321C12.668 34.1584 14.7578 36.1988 17.3047 36.1988Z" stroke="#1062AA" stroke-width="3" stroke-miterlimit="10"/>
<path d="M19.0352 11.8104H36.733" stroke="#1062AA" stroke-width="3" stroke-miterlimit="10" stroke-linecap="round" stroke-linejoin="round"/>
<path d="M19.0352 19.195H36.733" stroke="#1062AA" stroke-width="3" stroke-miterlimit="10" stroke-linecap="round" stroke-linejoin="round"/>
<path d="M19.0352 26.5472H36.733" stroke="#1062AA" stroke-width="3" stroke-miterlimit="10" stroke-linecap="round" stroke-linejoin="round"/>
</svg>
