<svg width="43" height="39" viewBox="0 0 43 39" fill="none" xmlns="http://www.w3.org/2000/svg">
<path d="M9.81533 0.815454L10.1377 1.02818C9.1347 0.354545 7.91674 0 6.62714 0C2.97326 0 0 2.94273 0 6.55909V32.4055C0 36.0573 2.97326 39 6.62714 39C7.66599 39 8.66901 38.7518 9.56457 38.3264C9.56457 38.3264 10.1736 38.0427 10.8184 37.5109C14.3648 34.6391 26.1145 24.6055 26.1145 24.6055C27.5832 23.4 28.5504 21.5564 28.5504 19.5C28.5504 17.3373 27.5116 15.4227 25.8637 14.2527L26.0787 14.3945L10.8542 1.48909C9.70786 0.567273 8.23914 0 6.62714 0C2.97326 0 0 2.94273 0 6.55909V32.4055C0 36.0573 2.97326 39 6.62714 39C8.20332 39 9.67204 38.4682 10.8184 37.5464" fill="#00ADEE"/>
<path d="M38.7235 35.5607H16.4062C16.1554 35.5607 14.0777 35.4544 12.8956 33.8234C11.6418 32.0862 12.1792 30.1362 12.6807 28.7889C15.0091 22.6198 20.9915 18.5071 27.6544 18.5071C34.2457 18.5071 40.049 22.4071 42.4849 28.4698C43.2372 30.3489 43.1655 32.5116 42.2699 33.788C41.052 35.4898 38.9743 35.5607 38.7235 35.5607ZM27.6186 21.0598C22.0661 21.0598 17.0152 24.5344 15.0808 29.6753C14.4718 31.2707 14.6867 31.9089 14.9733 32.3344C15.4032 32.9371 16.4062 33.008 16.4062 33.008H38.6877C38.6877 33.008 39.6191 32.9725 40.049 32.3344C40.3355 31.9089 40.5147 30.7034 40.0131 29.3916C38.0071 24.3216 33.1352 21.0598 27.6186 21.0598Z" fill="#1062AA"/>
<path d="M27.6151 21.0598C22.7074 21.0598 18.6953 17.1243 18.6953 12.2316C18.6953 7.33884 22.7074 3.43884 27.6151 3.43884C32.5227 3.43884 36.5349 7.3743 36.5349 12.267C36.5349 17.1598 32.5227 21.0598 27.6151 21.0598ZM27.6151 5.99157C24.1403 5.99157 21.3103 8.79248 21.3103 12.2316C21.3103 15.6707 24.1403 18.4716 27.6151 18.4716C31.0899 18.4716 33.9556 15.6707 33.9556 12.2316C33.9556 8.79248 31.1257 5.99157 27.6151 5.99157Z" fill="#1062AA"/>
</svg>
