<svg width="45" height="39" viewBox="0 0 45 39" fill="none" xmlns="http://www.w3.org/2000/svg">
<path d="M9.60429 0.8123L9.93222 1.01016C8.95164 0.384371 7.82326 0.0364637 6.66472 0.00271326C5.50617 -0.0310372 4.35991 0.250605 3.34543 0.818275C2.33096 1.38594 1.48543 2.21885 0.897006 3.23015C0.308583 4.24145 -0.00118407 5.39411 3.40128e-06 6.56793V32.4347C0.000505286 33.5493 0.281039 34.6454 0.815197 35.6198C1.34935 36.5943 2.11957 37.4151 3.05333 38.0049C3.9871 38.5947 5.05371 38.9342 6.15276 38.9914C7.2518 39.0485 8.34714 38.8215 9.33566 38.3317C9.77012 38.1079 10.1805 37.8392 10.5602 37.5296C14.0488 34.6713 25.4986 24.6157 25.4986 24.6157C26.2695 23.9872 26.8881 23.1883 27.3069 22.2802C27.7257 21.3721 27.9337 20.3789 27.9148 19.3768C27.896 18.3747 27.6508 17.3903 27.1981 16.4991C26.7454 15.6078 26.0972 14.8333 25.3033 14.235L25.4986 14.387L10.6125 1.50835C9.66465 0.71457 8.51337 0.210294 7.29312 0.0544088C6.07286 -0.101477 4.834 0.0974629 3.72121 0.627995C2.60841 1.15853 1.66762 1.99875 1.0087 3.05055C0.349782 4.10234 -6.9641e-05 5.3223 3.40128e-06 6.56793V32.4347C0.000235124 33.6748 0.347263 34.8894 1.00091 35.938C1.65456 36.9866 2.58808 37.8262 3.69341 38.3597C4.79874 38.8932 6.03065 39.0987 7.24653 38.9524C8.4624 38.8061 9.6125 38.3141 10.5637 37.5332" fill="#4AE4E4"/>
<path d="M25.9624 36.4506C22.5936 36.4506 19.3005 35.4389 16.4995 33.5434C13.6985 31.6479 11.5154 28.9538 10.2262 25.8017C8.93707 22.6496 8.59976 19.1811 9.25697 15.8349C9.91418 12.4887 11.5364 9.41496 13.9185 7.00246C16.3005 4.58996 19.3355 2.94703 22.6395 2.28142C25.9435 1.61581 29.3682 1.95743 32.4805 3.26306C35.5929 4.5687 38.253 6.77971 40.1246 9.61651C41.9962 12.4533 42.9951 15.7885 42.9951 19.2003" stroke="#1062AA" stroke-width="3" stroke-linecap="round" stroke-linejoin="round"/>
<path d="M25.9675 28.3099C30.9351 28.3099 34.9623 24.2313 34.9623 19.2002C34.9623 14.169 30.9351 10.0905 25.9675 10.0905C20.9998 10.0905 16.9727 14.169 16.9727 19.2002C16.9727 24.2313 20.9998 28.3099 25.9675 28.3099Z" stroke="#1062AA" stroke-width="3" stroke-miterlimit="10"/>
<path d="M42.9989 19.0065C42.9989 21.6308 41.1999 23.4722 38.9799 23.4722C38.4515 23.4722 37.9282 23.3666 37.4401 23.1616C36.952 22.9566 36.5087 22.656 36.1354 22.2773C35.7621 21.8985 35.4662 21.4489 35.2647 20.9541C35.0631 20.4594 34.9599 19.9293 34.9609 19.3941" stroke="#1062AA" stroke-width="3" stroke-miterlimit="10"/>
</svg>
