<svg width="45" height="39" viewBox="0 0 45 39" fill="none" xmlns="http://www.w3.org/2000/svg">
<path d="M9.79838 0.8123L10.1329 1.01016C9.13255 0.384371 7.98136 0.0364637 6.79941 0.00271326C5.61745 -0.0310372 4.44802 0.250605 3.41304 0.818275C2.37807 1.38594 1.51545 2.21885 0.915134 3.23015C0.314819 4.24145 -0.001208 5.39411 3.47001e-06 6.56793V32.4347C0.000515497 33.5493 0.286718 34.6454 0.831671 35.6198C1.37662 36.5943 2.1624 37.4151 3.11504 38.0049C4.06768 38.5947 5.15584 38.9342 6.2771 38.9914C7.39836 39.0485 8.51583 38.8215 9.52433 38.3317C9.96757 38.1079 10.3862 37.8392 10.7736 37.5296C14.3328 34.6713 26.0139 24.6157 26.0139 24.6157C26.8004 23.9872 27.4315 23.1883 27.8588 22.2802C28.286 21.3721 28.4982 20.3789 28.479 19.3768C28.4597 18.3747 28.2096 17.3903 27.7478 16.4991C27.2859 15.6078 26.6247 14.8333 25.8146 14.235L26.0139 14.387L10.827 1.50835C9.85997 0.71457 8.68542 0.210294 7.44051 0.0544088C6.19559 -0.101477 4.93169 0.0974629 3.79641 0.627995C2.66113 1.15853 1.70132 1.99875 1.02909 3.05055C0.356851 4.10234 -7.10484e-05 5.3223 3.47001e-06 6.56793V32.4347C0.000239876 33.6748 0.354281 34.8894 1.02114 35.938C1.68799 36.9866 2.64039 37.8262 3.76805 38.3597C4.89572 38.8932 6.15253 39.0987 7.39297 38.9524C8.63342 38.8061 9.80676 38.3141 10.7772 37.5332" fill="#EF5237"/>
<path d="M36.0219 18.7749C36.0219 11.5933 30.1573 5.77153 22.923 5.77153C15.6888 5.77153 9.82422 11.5933 9.82422 18.7749C9.82422 25.9565 15.6888 31.7783 22.923 31.7783C30.1573 31.7783 36.0219 25.9565 36.0219 18.7749Z" stroke="#1062AA" stroke-width="3" stroke-miterlimit="10"/>
<path d="M32.9961 10.4397L43.0049 1.9498" stroke="#1062AA" stroke-width="3" stroke-linecap="round" stroke-linejoin="round"/>
</svg>
