<svg width="45" height="39" viewBox="0 0 45 39" fill="none" xmlns="http://www.w3.org/2000/svg">
<path d="M9.34454 0.8125L9.65036 1.02446C8.69891 0.353261 7.54359 0 6.3203 0C2.82035 0 0 2.93207 0 6.57065V32.4293C0 36.0679 2.82035 39 6.3203 39C7.30573 39 8.25717 38.7527 9.10668 38.3288C9.10668 38.3288 9.68434 38.0462 10.296 37.5163C13.694 34.6549 24.8395 24.587 24.8395 24.587C26.2666 23.4212 27.1841 21.5489 27.1841 19.5C27.1841 17.3451 26.1987 15.4375 24.6356 14.2364L24.8395 14.3777L10.33 1.51902C9.2426 0.565217 7.84941 0 6.3203 0C2.82035 0 0 2.93207 0 6.57065V32.4293C0 36.0679 2.82035 39 6.3203 39C7.81543 39 9.20862 38.4348 10.296 37.5516" fill="#DDF516"/>
<path d="M38.938 29.4972H15.2381C13.0036 29.4972 11.1753 27.5896 11.1753 25.258V9.00805C11.1753 6.67653 13.0036 4.76892 15.2381 4.76892H38.938C41.1726 4.76892 43.0009 6.67653 43.0009 9.00805V25.258C43.0009 27.5896 41.1726 29.4972 38.938 29.4972Z" stroke="#1062AA" stroke-width="3" stroke-miterlimit="10"/>
<path d="M37.393 24.8181H16.9797C16.5015 24.8181 16.1428 24.4263 16.1428 23.9743V10.5938C16.1428 10.1116 16.5314 9.74994 16.9797 9.74994H37.393C37.8713 9.74994 38.2299 10.1417 38.2299 10.5938V23.9442C38.2299 24.4263 37.8713 24.8181 37.393 24.8181Z" stroke="#1062AA" stroke-width="3" stroke-miterlimit="10"/>
<path d="M18.7222 34.3015H35.8877" stroke="#1062AA" stroke-width="3" stroke-miterlimit="10" stroke-linecap="round" stroke-linejoin="round"/>
</svg>
