<svg width="45" height="39" viewBox="0 0 45 39" fill="none" xmlns="http://www.w3.org/2000/svg">
<path d="M9.69411 0.8123L10.0251 1.01016C9.03536 0.384371 7.89642 0.0364637 6.72704 0.00271327C5.55767 -0.0310372 4.40068 0.250605 3.37672 0.818275C2.35276 1.38594 1.49932 2.21885 0.905394 3.23015C0.311469 4.24145 -0.00119515 5.39411 3.43308e-06 6.56793V32.4347C0.000510011 33.5493 0.283667 34.6454 0.82282 35.6198C1.36197 36.5943 2.13939 37.4151 3.08189 38.0049C4.02439 38.5947 5.10097 38.9342 6.2103 38.9914C7.31962 39.0485 8.4252 38.8215 9.42297 38.3317C9.86149 38.1079 10.2757 37.8392 10.6589 37.5296C14.1802 34.6713 25.7371 24.6157 25.7371 24.6157C26.5152 23.9872 27.1395 23.1883 27.5623 22.2802C27.985 21.3721 28.1949 20.3789 28.1759 19.3768C28.1568 18.3747 27.9094 17.3903 27.4525 16.4991C26.9955 15.6078 26.3413 14.8333 25.5399 14.235L25.7371 14.387L10.7118 1.50835C9.75504 0.71457 8.59299 0.210294 7.36132 0.0544088C6.12965 -0.101477 4.8792 0.097463 3.75601 0.627995C2.63281 1.15853 1.68322 1.99875 1.01814 3.05055C0.353053 4.10234 -7.02923e-05 5.3223 3.43308e-06 6.56793V32.4347C0.000237323 33.6748 0.350511 34.8894 1.01027 35.938C1.67003 36.9866 2.61229 37.8262 3.72795 38.3597C4.84361 38.8932 6.08705 39.0987 7.31429 38.9524C8.54154 38.8061 9.7024 38.3141 10.6625 37.5332" fill="#EB008B"/>
<path fill-rule="evenodd" clip-rule="evenodd" d="M27.9786 5.39996C20.5151 5.39996 14.4561 11.4722 14.4561 18.9735C14.4561 26.4747 20.5151 32.547 27.9786 32.547C35.4421 32.547 41.5012 26.4747 41.5012 18.9735C41.5012 11.4722 35.4421 5.39996 27.9786 5.39996ZM11.4561 18.9735C11.4561 9.82497 18.8487 2.39996 27.9786 2.39996C37.1085 2.39996 44.5012 9.82497 44.5012 18.9735C44.5012 28.122 37.1085 35.547 27.9786 35.547C18.8487 35.547 11.4561 28.122 11.4561 18.9735Z" fill="#1062AA"/>
<path fill-rule="evenodd" clip-rule="evenodd" d="M42.4805 2.70201C43.1421 3.20058 43.2742 4.14109 42.7757 4.80269L29.3835 22.5743C29.1228 22.9203 28.7252 23.1366 28.2932 23.1677C27.8611 23.1988 27.4367 23.0416 27.1292 22.7366L21.5924 17.2447C21.0042 16.6613 21.0003 15.7115 21.5837 15.1234C22.1671 14.5352 23.1168 14.5313 23.705 15.1147L28.0218 19.3965L40.3798 2.99722C40.8784 2.33562 41.8189 2.20345 42.4805 2.70201Z" fill="#1062AA"/>
</svg>
