<svg width="44" height="41" viewBox="0 0 44 41" fill="none" xmlns="http://www.w3.org/2000/svg">
<path d="M9.44659 1.81545L9.75688 2.02818C8.79154 1.35455 7.61933 1 6.37817 1C2.86156 1 0 3.94273 0 7.55909V33.4055C0 37.0573 2.86156 40 6.37817 40C7.378 40 8.34334 39.7518 9.20526 39.3264C9.20526 39.3264 9.79136 39.0427 10.4119 38.5109C13.8251 35.6391 25.1335 25.6055 25.1335 25.6055C26.547 24.4 27.4779 22.5564 27.4779 20.5C27.4779 18.3373 26.478 16.4227 24.8921 15.2527L25.099 15.3945L10.4464 2.48909C9.34316 1.56727 7.92962 1 6.37817 1C2.86156 1 0 3.94273 0 7.55909V33.4055C0 37.0573 2.86156 40 6.37817 40C7.89515 40 9.30869 39.4682 10.4119 38.5464" fill="#FFE735"/>
<path d="M29.6439 37.6757C26.4412 37.6757 23.7863 36.7407 21.6792 34.8708C19.4036 32.8734 18.3079 30.1536 18.3079 26.6262C18.3079 25.0963 18.6451 23.3964 19.3615 21.5265C19.6143 20.804 19.9514 19.9966 20.3728 19.0616L21.4264 16.9367C21.5107 16.8517 21.5528 16.7242 21.5528 16.6392L28.0847 3.0399H36.6814L29.9389 16.4692C30.2339 16.3842 30.571 16.2992 30.9503 16.2567C31.1188 16.2142 31.2874 16.2142 31.4138 16.2142H31.8352C34.1108 16.2142 36.1757 17.1067 37.9457 18.8491C39.9263 20.804 40.8955 23.3964 40.8955 26.5412C40.8955 30.0261 39.7577 32.7884 37.4821 34.7858C35.5015 36.7407 32.8466 37.6757 29.6439 37.6757ZM29.6439 22.7164C27.3261 22.7164 26.1462 24.0339 26.1462 26.6262C26.1462 29.2186 27.3261 30.536 29.6439 30.536C31.9616 30.536 33.1416 29.2186 33.1416 26.6262C33.0994 24.0339 31.9616 22.7164 29.6439 22.7164ZM29.6439 39.7156C33.3523 39.7156 36.4707 38.6106 38.9149 36.4007C41.6119 34.0209 43.0026 30.7485 43.0026 26.6262C43.0026 22.8864 41.8226 19.7841 39.4206 17.4467C37.6085 15.6618 35.5858 14.6418 33.3523 14.3018L38.5356 3.97485C38.8728 3.33738 38.8306 2.57242 38.4514 1.97745C38.0721 1.38248 37.44 1 36.7236 1H28.0847C27.3261 1 26.6097 1.46748 26.2726 2.14744L19.7407 15.7468C19.6986 15.7893 19.6986 15.8318 19.6986 15.8743C19.6564 15.9168 19.6564 15.9593 19.6143 16.0018L18.5608 18.1267C18.5608 18.1692 18.5186 18.1691 18.5186 18.2116C18.0972 19.1891 17.718 20.0391 17.4651 20.804C16.7066 22.8864 16.2852 24.8413 16.2852 26.6262C16.2852 30.706 17.6337 34.0209 20.3307 36.4007C22.7749 38.6106 25.8933 39.7156 29.6439 39.7156ZM29.6439 24.7988C30.4867 24.7988 31.1188 24.7988 31.1188 26.6687C31.1188 28.5386 30.4867 28.5386 29.6439 28.5386C28.8432 28.5386 28.1689 28.5386 28.1689 26.6687C28.1689 24.7988 28.7589 24.7988 29.6439 24.7988Z" fill="#1062AA" stroke="#1062AA"/>
</svg>
