<svg width="45" height="45" viewBox="0 0 45 45" fill="none" xmlns="http://www.w3.org/2000/svg">
<path d="M11.0621 0.927807L11.4572 1.153C10.3266 0.441224 9.02592 0.0454719 7.69048 0.00693107C6.35504 -0.0316097 5.03368 0.28847 3.86392 0.933857C2.69415 1.57925 1.71874 2.52635 1.03919 3.67661C0.359642 4.82686 0.000797507 6.13823 3.54162e-06 7.47422V36.9311C-0.000830792 38.2008 0.321754 39.4497 0.937334 40.5601C1.55291 41.6706 2.4412 42.6059 3.51842 43.2779C4.59563 43.95 5.82628 44.3365 7.09428 44.4012C8.36229 44.4658 9.62586 44.2064 10.7658 43.6474C11.2678 43.3955 11.7408 43.0894 12.1763 42.7348C16.1981 39.4794 29.4016 28.0261 29.4016 28.03C30.2908 27.314 31.0043 26.404 31.4874 25.3696C31.9705 24.3352 32.2103 23.2039 32.1886 22.0625C32.1668 20.9211 31.8841 19.7998 31.362 18.7845C30.8398 17.7693 30.0922 16.887 29.1764 16.2054L29.4016 16.3792L12.2474 1.72191C11.1545 0.815319 9.82609 0.23875 8.4175 0.0596821C7.00891 -0.119385 5.57845 0.106457 4.29355 0.710778C3.00864 1.3151 1.92244 2.2729 1.16207 3.47207C0.401703 4.67125 -0.00137842 6.0622 3.54162e-06 7.48212V36.9311C7.537e-05 38.343 0.40002 39.726 1.15354 40.92C1.90705 42.114 2.98333 43.0702 4.25776 43.6778C5.5322 44.2855 6.95267 44.5198 8.35475 44.3536C9.75682 44.1874 11.0832 43.6275 12.1802 42.7387" fill="#00F3FF"/>
<path d="M38.688 6.28101H16.1686C13.5503 6.28101 11.4277 8.40359 11.4277 11.0219V33.5413C11.4277 36.1596 13.5503 38.2822 16.1686 38.2822H38.688C41.3063 38.2822 43.4289 36.1596 43.4289 33.5413V11.0219C43.4289 8.40359 41.3063 6.28101 38.688 6.28101Z" stroke="#1062AA" stroke-width="3" stroke-miterlimit="10"/>
<path d="M16.1699 30.7759L23.2813 24.4546L26.0468 27.6152L36.3188 17.3433" stroke="#1062AA" stroke-width="3" stroke-linecap="round" stroke-linejoin="round"/>
<path d="M30.3933 17.7381L37.8998 15.3677L36.7145 22.8741" stroke="#1062AA" stroke-width="3" stroke-linecap="round" stroke-linejoin="round"/>
</svg>
