<svg width="166" height="265" viewBox="0 0 166 265" fill="none" xmlns="http://www.w3.org/2000/svg">
<g clip-path="url(#clip0)">
<path d="M0.725583 187.593C0.725582 172.369 7.02608 156.69 19.5358 140.554L44.9204 108.557C49.3033 103.179 51.5861 97.4355 51.5861 91.3278L51.5861 88.046L111.943 88.046L111.943 96.5239C111.943 111.93 106.921 125.604 96.8767 137.364L71.0355 167.355C64.4611 174.922 61.1738 181.85 61.1738 187.958C61.1738 194.612 63.0914 199.991 66.9265 204.093C70.7616 208.195 76.1489 210.383 83.2712 210.383C97.9724 210.383 105.369 202.634 105.369 187.228L165.726 187.228C165.726 211.295 157.781 230.165 141.985 244.021C126.096 257.877 106.556 264.806 83.1799 264.806C60.0781 264.806 40.6287 257.969 24.6492 244.386C8.66969 230.803 0.725584 211.842 0.725583 187.593ZM50.8556 0.805662L112.674 0.805659L112.674 59.9687L50.8556 59.9687L50.8556 0.805662Z" fill="white"/>
</g>
<defs>
<clipPath id="clip0">
<rect width="264" height="165" fill="white" transform="translate(0.725586 264.806) rotate(-90)"/>
</clipPath>
</defs>
</svg>
