<svg width="37" height="36" viewBox="0 0 37 36" fill="none" xmlns="http://www.w3.org/2000/svg">
<path d="M36.9619 18C36.9619 27.941 28.9029 36 18.9619 36C9.02191 36 0.961914 27.941 0.961914 18C0.961914 8.06 9.02191 0 18.9619 0C28.9029 0 36.9619 8.06 36.9619 18Z" fill="#F7B916"/>
<path d="M12.4619 20C13.8426 20 14.9619 18.433 14.9619 16.5C14.9619 14.567 13.8426 13 12.4619 13C11.0812 13 9.96191 14.567 9.96191 16.5C9.96191 18.433 11.0812 20 12.4619 20Z" fill="#333333"/>
<path d="M25.4619 20C26.8426 20 27.9619 18.433 27.9619 16.5C27.9619 14.567 26.8426 13 25.4619 13C24.0812 13 22.9619 14.567 22.9619 16.5C22.9619 18.433 24.0812 20 25.4619 20Z" fill="#333333"/>
<path d="M12.9619 28C14.9619 23 25.9619 23 25.9619 25C25.9619 26 17.9619 24 12.9619 28Z" fill="#333333"/>
</svg>
