<svg width="211" height="389" viewBox="0 0 211 389" fill="none" xmlns="http://www.w3.org/2000/svg">
<ellipse cx="54.5001" cy="22.5" rx="8.32745" ry="20.6376" transform="rotate(-30 54.5001 22.5)" fill="#1062AA"/>
<path d="M79 349C91.1501 349 101 356.351 101 365.419C101 370.542 97.854 375.116 92.9284 378.126C93.5689 380.834 95.0612 384.851 98.5556 388.875C91.518 387.749 87.019 384.464 84.236 381.35C82.5542 381.658 80.8077 381.838 79 381.838C66.8499 381.838 57 374.487 57 365.419C57 356.351 66.8499 349 79 349Z" fill="#EBF0FF"/>
<path d="M79 368.25C77.4812 368.25 76.25 367.019 76.25 365.5C76.25 363.981 77.4812 362.75 79 362.75C80.5188 362.75 81.75 363.981 81.75 365.5C81.75 367.019 80.5188 368.25 79 368.25Z" fill="#1062AA"/>
<path d="M69.375 368.25C67.8562 368.25 66.625 367.019 66.625 365.5C66.625 363.981 67.8562 362.75 69.375 362.75C70.8938 362.75 72.125 363.981 72.125 365.5C72.125 367.019 70.8938 368.25 69.375 368.25Z" fill="#1062AA"/>
<path d="M88.6251 368.25C87.1063 368.25 85.8751 367.019 85.8751 365.5C85.8751 363.981 87.1063 362.75 88.6251 362.75C90.1439 362.75 91.3751 363.981 91.3751 365.5C91.3751 367.019 90.1439 368.25 88.6251 368.25Z" fill="#1062AA"/>
<path d="M192.881 240.068C196.325 242.454 196.325 247.546 192.881 249.932L175.667 261.858C171.688 264.615 166.25 261.767 166.25 256.926L166.25 233.074C166.25 228.233 171.688 225.385 175.667 228.142L192.881 240.068Z" fill="#F7B916"/>
<path d="M209.9 99L193.8 127.8L182.7 117.2L209.9 99Z" stroke="#1A59A3" stroke-miterlimit="10" stroke-linecap="round" stroke-linejoin="round"/>
<path d="M209.9 99L178.9 113.3L172 106.9L209.9 99Z" stroke="#1A59A3" stroke-miterlimit="10" stroke-linecap="round" stroke-linejoin="round"/>
<path d="M178.9 113.3L184.4 125.9L182.7 117.2L209.9 99L178.9 113.3Z" stroke="#1A59A3" stroke-miterlimit="10" stroke-linecap="round" stroke-linejoin="round"/>
<path d="M182.7 117.2L184.4 125.9L188.4 122.5L182.7 117.2Z" stroke="#1A59A3" stroke-miterlimit="10" stroke-linecap="round" stroke-linejoin="round"/>
<g clip-path="url(#clip0)">
<path d="M177 126.717C162.37 127.29 147.596 129.441 134.543 136.036C121.49 142.632 110.302 153.672 106.143 167.58C104.135 174.032 104.421 182.204 109.872 186.219C111.88 187.653 114.462 188.369 116.9 188.513C122.638 189.086 129.092 186.936 132.105 182.061C136.551 174.892 131.818 164.569 124.072 161.271C116.327 157.973 107.147 160.124 99.8314 164.425C81.1848 175.465 72.8655 197.832 58.6653 214.321C44.0348 231.239 22.376 241.993 0 243.283" stroke="#F7B916" stroke-miterlimit="10" stroke-dasharray="3 3"/>
</g>
<defs>
<clipPath id="clip0">
<rect width="177" height="118" fill="white" transform="translate(0 126)"/>
</clipPath>
</defs>
</svg>
