<svg width="272" height="393" viewBox="0 0 272 393" fill="none" xmlns="http://www.w3.org/2000/svg">
<path d="M30.4922 31.4624C48.2115 47.9942 72.9857 54.7051 97.1037 56.3419C108.096 56.9966 119.253 56.833 129.589 53.5593C139.925 50.2857 149.769 43.9022 155.184 34.245C158.629 28.1888 160.106 20.4958 157.481 13.9486C155.184 8.38344 149.934 4.12774 144.027 2.98198C138.285 1.99989 131.722 4.12774 127.62 8.38344C121.55 14.767 121.058 25.2426 124.995 33.2629C128.933 41.2833 136.48 46.8484 144.519 50.4494C152.559 54.0504 161.418 55.8509 169.95 58.1424C187.341 62.5618 204.24 68.4543 220.647 75.8199C233.772 81.7124 246.898 88.7507 255.921 99.881C266.586 112.812 271.016 129.998 271.016 146.857C271.016 152.423 270.687 157.988 269.375 163.389C265.765 178.284 255.593 190.724 245.913 202.509" stroke="#F7B916" stroke-miterlimit="10" stroke-dasharray="3 3"/>
<path d="M169 136C156.85 136 147 143.85 147 153.533C147 159.004 150.146 163.888 155.072 167.103C154.431 169.994 152.939 174.284 149.444 178.581C156.482 177.378 160.981 173.87 163.764 170.545C165.446 170.874 167.192 171.066 169 171.066C181.15 171.066 191 163.217 191 153.533C191 143.85 181.15 136 169 136Z" fill="#1062AA"/>
<path d="M169 155.871C170.176 155.871 171.129 154.918 171.129 153.742C171.129 152.566 170.176 151.613 169 151.613C167.824 151.613 166.871 152.566 166.871 153.742C166.871 154.918 167.824 155.871 169 155.871Z" fill="white"/>
<path d="M178.935 155.871C180.111 155.871 181.064 154.918 181.064 153.742C181.064 152.566 180.111 151.613 178.935 151.613C177.76 151.613 176.806 152.566 176.806 153.742C176.806 154.918 177.76 155.871 178.935 155.871Z" fill="white"/>
<path d="M159.064 155.871C160.24 155.871 161.193 154.918 161.193 153.742C161.193 152.566 160.24 151.613 159.064 151.613C157.889 151.613 156.935 152.566 156.935 153.742C156.935 154.918 157.889 155.871 159.064 155.871Z" fill="white"/>
<path fill-rule="evenodd" clip-rule="evenodd" d="M66.2222 267C66.2222 271.296 69.7045 274.778 74 274.778C78.2955 274.778 81.7778 271.296 81.7778 267C81.7778 262.704 78.2955 259.222 74 259.222C69.7045 259.222 66.2222 262.704 66.2222 267ZM74 257C68.4772 257 64 261.477 64 267C64 272.523 68.4772 277 74 277C79.5228 277 84 272.523 84 267C84 261.477 79.5228 257 74 257Z" fill="#00ADEE"/>
<path fill-rule="evenodd" clip-rule="evenodd" d="M78.5822 263.545C79.0788 263.99 79.1417 264.778 78.7227 265.306L74.7521 270.306C74.3408 270.824 73.616 270.899 73.118 270.476L69.4416 267.351C68.9342 266.92 68.852 266.133 69.2578 265.594C69.6637 265.055 70.4041 264.968 70.9114 265.399L73.6929 267.763L76.9244 263.694C77.3434 263.166 78.0856 263.099 78.5822 263.545Z" fill="#00ADEE"/>
<path d="M166.632 383.644H153.811C153.668 383.644 152.476 383.583 151.798 382.64C151.079 381.635 151.387 380.507 151.675 379.728C153.01 376.161 156.441 373.783 160.263 373.783C164.043 373.783 167.371 376.038 168.768 379.544C169.2 380.63 169.159 381.881 168.645 382.619C167.947 383.624 166.755 383.644 166.632 383.644ZM160.263 375.259C157.078 375.259 154.181 377.268 153.072 380.241C152.723 381.164 152.846 381.533 153.01 381.779C153.257 382.127 153.832 382.168 153.832 382.168H166.611C166.611 382.168 167.145 382.148 167.392 381.779C167.556 381.533 167.659 380.835 167.371 380.077C166.221 377.166 163.427 375.259 160.263 375.259Z" fill="#F7B916"/>
<path fill-rule="evenodd" clip-rule="evenodd" d="M160.263 374.139C156.59 374.139 153.292 376.425 152.008 379.852C151.723 380.626 151.484 381.589 152.087 382.432C152.369 382.824 152.762 383.04 153.117 383.158C153.474 383.277 153.769 383.288 153.811 383.288H166.632C166.741 383.288 167.764 383.264 168.353 382.416C168.776 381.808 168.841 380.692 168.438 379.676C167.095 376.305 163.898 374.139 160.263 374.139ZM151.341 379.604C152.729 375.897 156.293 373.427 160.263 373.427C164.188 373.427 167.648 375.771 169.099 379.412C169.558 380.568 169.541 381.955 168.937 382.822C168.13 383.984 166.769 384 166.632 384H153.811C153.71 384 153.337 383.981 152.893 383.833C152.446 383.685 151.905 383.398 151.509 382.847C150.675 381.682 151.051 380.39 151.341 379.605L151.341 379.604ZM152.739 380.116C153.9 377.004 156.93 374.903 160.263 374.903C163.572 374.903 166.498 376.899 167.702 379.946L167.704 379.951C167.866 380.376 167.919 380.788 167.907 381.132C167.895 381.463 167.822 381.775 167.688 381.976C167.5 382.257 167.217 382.389 167.015 382.451C166.911 382.484 166.817 382.502 166.749 382.511C166.714 382.516 166.686 382.519 166.665 382.521L166.639 382.523L166.63 382.523L166.627 382.524L166.625 382.524C166.625 382.524 166.625 382.524 166.611 382.168L166.625 382.524L166.611 382.524L153.819 382.524L153.807 382.523L153.832 382.168C153.807 382.523 153.807 382.523 153.807 382.523L153.805 382.523L153.802 382.523L153.793 382.522L153.767 382.519C153.746 382.517 153.717 382.513 153.682 382.508C153.612 382.496 153.515 382.477 153.409 382.444C153.207 382.382 152.911 382.254 152.72 381.984L152.714 381.976C152.602 381.809 152.503 381.592 152.493 381.275C152.483 380.972 152.555 380.6 152.739 380.116ZM153.849 381.812H166.6L166.605 381.812C166.614 381.811 166.629 381.81 166.648 381.807C166.688 381.801 166.743 381.791 166.803 381.772C166.93 381.732 167.037 381.669 167.096 381.581C167.126 381.536 167.186 381.377 167.195 381.108C167.204 380.853 167.165 380.538 167.039 380.205C165.942 377.432 163.28 375.615 160.263 375.615C157.226 375.615 154.463 377.532 153.405 380.365L153.405 380.367C153.239 380.804 153.198 381.078 153.204 381.252C153.209 381.409 153.252 381.499 153.303 381.576C153.359 381.653 153.473 381.719 153.618 381.764C153.686 381.785 153.749 381.798 153.795 381.805C153.817 381.809 153.835 381.811 153.846 381.812L153.849 381.812Z" fill="#F7B916"/>
<path d="M160.263 375.259C157.448 375.259 155.147 372.984 155.147 370.154C155.147 367.325 157.448 365.07 160.263 365.07C163.078 365.07 165.379 367.346 165.379 370.175C165.379 373.004 163.078 375.259 160.263 375.259ZM160.263 366.546C158.27 366.546 156.647 368.166 156.647 370.154C156.647 372.143 158.27 373.763 160.263 373.763C162.256 373.763 163.879 372.143 163.879 370.154C163.879 368.166 162.256 366.546 160.263 366.546Z" fill="#F7B916"/>
<path fill-rule="evenodd" clip-rule="evenodd" d="M160.263 365.426C157.641 365.426 155.503 367.525 155.503 370.154C155.503 372.785 157.643 374.903 160.263 374.903C162.885 374.903 165.023 372.804 165.023 370.175C165.023 367.544 162.883 365.426 160.263 365.426ZM154.791 370.154C154.791 367.125 157.255 364.714 160.263 364.714C163.273 364.714 165.735 367.148 165.735 370.175C165.735 373.204 163.271 375.615 160.263 375.615C157.253 375.615 154.791 373.182 154.791 370.154ZM156.291 370.154C156.291 367.969 158.074 366.19 160.263 366.19C162.452 366.19 164.235 367.969 164.235 370.154C164.235 372.34 162.452 374.118 160.263 374.118C158.074 374.118 156.291 372.34 156.291 370.154ZM160.263 366.902C158.466 366.902 157.003 368.363 157.003 370.154C157.003 371.946 158.466 373.407 160.263 373.407C162.06 373.407 163.523 371.946 163.523 370.154C163.523 368.363 162.06 366.902 160.263 366.902Z" fill="#F7B916"/>
<circle cx="160" cy="375" r="17" stroke="#F7B916" stroke-width="2"/>
<path d="M0.999954 1L17.1 29.8L28.2 19.2L0.999954 1Z" stroke="#1A59A3" stroke-miterlimit="10" stroke-linecap="round" stroke-linejoin="round"/>
<path d="M0.999905 1L31.9999 15.3L38.8999 8.9L0.999905 1Z" stroke="#1A59A3" stroke-miterlimit="10" stroke-linecap="round" stroke-linejoin="round"/>
<path d="M32 15.3L26.5 27.9L28.2 19.2L1 1L32 15.3Z" stroke="#1A59A3" stroke-miterlimit="10" stroke-linecap="round" stroke-linejoin="round"/>
<path d="M28.2 19.2L26.5 27.9L22.5 24.5L28.2 19.2Z" stroke="#1A59A3" stroke-miterlimit="10" stroke-linecap="round" stroke-linejoin="round"/>
</svg>
