<svg width="30" height="21" viewBox="0 0 30 21" fill="none" xmlns="http://www.w3.org/2000/svg">
<path d="M29.9359 19.3494C29.9359 19.8823 29.5039 20.3145 28.971 20.3145H0.964837C0.431932 20.3145 0 19.8825 0 19.3494V1.27929C0 0.746622 0.431932 0.314453 0.964837 0.314453H28.9713C29.5039 0.314453 29.9361 0.746384 29.9361 1.27929V19.3494H29.9359Z" fill="#EBF0FF"/>
<path fill-rule="evenodd" clip-rule="evenodd" d="M1.49414 8.20911C2.25299 8.25496 3.00139 8.10457 3.71818 8.3968C4.62172 8.76482 5.12018 9.6237 5.00305 10.6161C4.8902 11.5717 4.16081 12.3659 3.22163 12.4645C2.65808 12.5234 2.08335 12.4752 1.49414 12.4752C1.49414 11.0858 1.49414 9.66812 1.49414 8.20911ZM2.33591 11.7677C2.98713 11.7993 3.58038 11.7396 3.93463 11.1248C4.248 10.5809 4.23327 10.0283 3.87167 9.50942C3.49699 8.97152 2.93629 8.92543 2.33567 8.95394C2.33591 9.89739 2.33591 10.818 2.33591 11.7677Z" fill="#1062AA"/>
<path fill-rule="evenodd" clip-rule="evenodd" d="M27.0746 10.7185C27.5174 11.312 27.9503 11.8922 28.415 12.5154C28.0591 12.5154 27.75 12.5242 27.4426 12.5078C27.3789 12.5045 27.3067 12.4163 27.262 12.3512C26.9479 11.8927 26.6402 11.4296 26.3292 10.9692C26.2841 10.9019 26.2318 10.8395 26.1829 10.7751C26.1632 10.781 26.143 10.7869 26.123 10.7934C26.123 11.3581 26.123 11.9233 26.123 12.5023C25.8258 12.5023 25.5628 12.5023 25.2812 12.5023C25.2812 11.083 25.2812 9.66316 25.2812 8.19037C25.8776 8.21722 26.4666 8.19963 27.0418 8.28136C27.6642 8.36998 28.0007 8.79693 28.0313 9.38661C28.0662 10.0533 27.7982 10.4593 27.1789 10.6784C27.1515 10.6879 27.1249 10.6993 27.0746 10.7185ZM26.1282 10.1737C26.492 10.1861 26.8429 10.2208 27.0639 9.88863C27.2131 9.66364 27.2228 9.40111 27.0636 9.1792C26.8346 8.8606 26.4839 8.89267 26.1282 8.9055C26.1282 9.32888 26.1282 9.73967 26.1282 10.1737Z" fill="#1062AA"/>
<path fill-rule="evenodd" clip-rule="evenodd" d="M23.1898 8.93498C23.1898 9.27283 23.1898 9.56696 23.1898 9.8801C23.6742 9.8801 24.1489 9.8801 24.6445 9.8801C24.6445 10.1343 24.6445 10.3693 24.6445 10.6268C24.1584 10.6268 23.6844 10.6268 23.1948 10.6268C23.1948 11.0127 23.1948 11.3764 23.1948 11.7684C23.6908 11.7684 24.1869 11.7684 24.702 11.7684C24.702 12.0246 24.702 12.2541 24.702 12.5002C23.9249 12.5002 23.147 12.5002 22.3516 12.5002C22.3516 11.0863 22.3516 9.67316 22.3516 8.23743C23.1247 8.23743 23.9089 8.23743 24.7079 8.23743C24.7079 8.46218 24.7079 8.68504 24.7079 8.93545C24.2062 8.93498 23.7101 8.93498 23.1898 8.93498Z" fill="#1062AA"/>
<path fill-rule="evenodd" clip-rule="evenodd" d="M9.38307 8.61866C9.22983 8.81919 9.09345 8.99809 8.94876 9.18745C8.86038 9.11807 8.78483 9.05273 8.70357 8.99548C8.49901 8.8515 8.27568 8.81705 8.03453 8.88642C7.83021 8.94558 7.67815 9.06176 7.64679 9.27939C7.61424 9.50344 7.76558 9.62698 7.9433 9.70847C8.19894 9.82584 8.4667 9.91707 8.72139 10.0368C9.37903 10.3459 9.60141 10.7329 9.51541 11.3911C9.43178 12.0309 9.01529 12.4687 8.37285 12.5918C7.62873 12.7344 6.92287 12.4224 6.56055 11.7821C6.73161 11.6189 6.90505 11.4533 7.09036 11.2765C7.28566 11.5788 7.52111 11.8104 7.87939 11.8273C8.04332 11.8346 8.23054 11.8085 8.37262 11.7325C8.7518 11.5296 8.75157 11.0121 8.38212 10.7947C8.24194 10.7118 8.08324 10.66 7.93166 10.5975C7.8017 10.5438 7.66699 10.5008 7.53869 10.4433C6.94187 10.1765 6.7164 9.818 6.77604 9.23948C6.83044 8.71275 7.21866 8.2908 7.78815 8.17794C8.37618 8.06081 8.90006 8.21643 9.38307 8.61866Z" fill="#1062AA"/>
<path fill-rule="evenodd" clip-rule="evenodd" d="M17.8516 8.21664C18.126 8.21664 18.3828 8.20524 18.6377 8.22472C18.7026 8.22947 18.7881 8.32071 18.8169 8.39151C19.1412 9.18861 19.4562 9.98951 19.7748 10.7892C19.8052 10.8653 19.8423 10.9391 19.8931 11.052C19.9442 10.9384 19.9803 10.8645 20.011 10.7887C20.3296 9.99759 20.6506 9.20738 20.9618 8.4136C21.0186 8.26891 21.0865 8.20049 21.2505 8.21094C21.475 8.22567 21.7012 8.2145 21.9644 8.2145C21.8145 8.57041 21.6762 8.89804 21.5384 9.22591C21.0832 10.3076 20.6237 11.3879 20.1778 12.4732C20.1108 12.6367 20.0034 12.6215 19.8801 12.6189C19.7584 12.6163 19.6487 12.6403 19.5807 12.4737C19.0238 11.1038 18.4546 9.73933 17.8901 8.37297C17.8732 8.33211 17.8684 8.28649 17.8516 8.21664Z" fill="#1062AA"/>
<path fill-rule="evenodd" clip-rule="evenodd" d="M13.1123 11.4089C13.1123 11.7002 13.1196 11.9791 13.1061 12.2571C13.1032 12.3139 13.0322 12.3937 12.9742 12.4173C12.1106 12.7656 11.2869 12.6795 10.5736 12.0782C9.84045 11.4595 9.61237 10.6389 9.88417 9.72326C10.1515 8.82305 10.7944 8.3063 11.7155 8.14379C12.142 8.06871 12.5613 8.11694 12.9509 8.31058C13.0262 8.34788 13.0997 8.46477 13.1066 8.55054C13.127 8.80404 13.1139 9.06064 13.1139 9.39017C12.7131 8.98603 12.2874 8.81545 11.7799 8.9188C11.4522 8.98556 11.1864 9.15591 10.9785 9.41559C10.543 9.95919 10.5496 10.8333 10.998 11.3529C11.2686 11.6665 11.6178 11.8209 12.031 11.8309C12.3501 11.8387 12.3959 11.8202 13.1123 11.4089Z" fill="#1062AA"/>
<path fill-rule="evenodd" clip-rule="evenodd" d="M5.42188 8.229C5.68726 8.229 5.95003 8.229 6.23157 8.229C6.23157 9.65452 6.23157 11.0715 6.23157 12.5025C5.96191 12.5025 5.70009 12.5025 5.42188 12.5025C5.42188 11.0815 5.42188 9.66284 5.42188 8.229Z" fill="#1062AA"/>
<path d="M15.7369 12.3979C16.8051 12.3979 17.6711 11.5319 17.6711 10.4637C17.6711 9.39544 16.8051 8.52948 15.7369 8.52948C14.6687 8.52948 13.8027 9.39544 13.8027 10.4637C13.8027 11.5319 14.6687 12.3979 15.7369 12.3979Z" fill="#1062AA"/>
</svg>
