<svg width="47" height="48" viewBox="0 0 47 48" fill="none" xmlns="http://www.w3.org/2000/svg">
<g clip-path="url(#clip0)">
<path d="M23.3106 47.8633C18.6987 47.8669 14.1894 46.4654 10.3533 43.8362C6.51725 41.207 3.52674 37.4682 1.76023 33.0929C-0.00628007 28.7176 -0.469401 23.9025 0.42947 19.2568C1.32834 14.6111 3.5488 10.3436 6.80989 6.99442C10.071 3.64519 14.2261 1.36472 18.7496 0.441552C23.273 -0.481613 27.9614 -0.00597472 32.2216 1.80828C36.4817 3.62254 40.1221 6.69387 42.6821 10.6336C45.2422 14.5734 46.6068 19.2046 46.6032 23.9411C46.5938 30.2827 44.1368 36.3618 39.7706 40.846C35.4044 45.3301 29.4853 47.8536 23.3106 47.8633ZM23.3106 2.57354C19.195 2.56993 15.1707 3.82004 11.747 6.16575C8.32325 8.51145 5.65382 11.8473 4.07639 15.7514C2.49897 19.6555 2.08442 23.9524 2.88519 28.0985C3.68595 32.2446 5.66606 36.0536 8.57502 39.0438C11.484 42.0339 15.1911 44.0708 19.2274 44.8967C23.2637 45.7227 27.4479 45.3006 31.2506 43.6839C35.0532 42.0672 38.3036 39.3284 40.5905 35.8142C42.8774 32.2999 44.0981 28.168 44.0981 23.9411C44.0934 18.2787 41.9023 12.8493 38.0055 8.84372C34.1086 4.8381 28.824 2.5832 23.3106 2.57354Z" fill="#F7B916"/>
<path d="M36.6888 15.2002C35.8136 15.5861 34.8942 15.8559 33.9526 16.003C34.3968 16.003 35.0542 15.1089 35.3029 14.7805C35.7126 14.2731 36.0259 13.6913 36.2268 13.0652C36.2268 13.0652 36.2268 12.9558 36.2268 12.9193C36.2052 12.9064 36.1807 12.8997 36.1557 12.8997C36.1308 12.8997 36.1063 12.9064 36.0847 12.9193C35.0559 13.4802 33.964 13.9092 32.8333 14.1966C32.7989 14.2194 32.7588 14.2315 32.7178 14.2315C32.6769 14.2315 32.6368 14.2194 32.6023 14.1966L32.3181 13.9046C31.8484 13.4875 31.3139 13.1544 30.7368 12.9193C29.9726 12.5947 29.1453 12.4573 28.3205 12.5178C27.5203 12.5705 26.7396 12.7942 26.0285 13.1747C25.3071 13.555 24.6727 14.0884 24.1673 14.7396C23.6619 15.3908 23.297 16.1449 23.0969 16.9519C22.937 17.7464 22.937 18.5661 23.0969 19.3605C23.0969 19.4883 23.0969 19.5065 22.9726 19.4883C18.6588 19.0447 14.6643 16.9544 11.7793 13.6309C11.6549 13.4849 11.5839 13.4849 11.4773 13.6309C10.8885 14.7323 10.6638 16.0002 10.8368 17.244C11.0098 18.4878 11.5712 19.6403 12.4367 20.5284C12.6499 20.7291 12.8809 20.9481 13.1296 21.1488C12.3749 21.0872 11.6389 20.8765 10.962 20.5284C10.8377 20.5284 10.7666 20.5284 10.7666 20.6379C10.7406 20.856 10.7406 21.0766 10.7666 21.2948C10.8984 22.3329 11.2971 23.3162 11.9216 24.1436C12.5461 24.971 13.374 25.6127 14.32 26.0025C14.5472 26.1054 14.7859 26.179 15.0307 26.2215C14.3303 26.3362 13.6167 26.3362 12.9164 26.2215C12.7565 26.2215 12.7032 26.2215 12.7565 26.4222C13.1231 27.3965 13.7246 28.2592 14.5046 28.9295C15.2846 29.5997 16.2176 30.0555 17.216 30.2542H17.8201C16.9552 31.0549 15.9118 31.6252 14.7819 31.9147C13.3032 32.4585 11.7266 32.664 10.1625 32.5168C9.91377 32.5168 9.86047 32.5168 9.7894 32.5168C9.71833 32.5168 9.7894 32.6263 9.7894 32.6993L10.7488 33.2832C11.7097 33.8571 12.7284 34.3221 13.787 34.67C16.5455 35.5273 19.4749 35.6246 22.2815 34.952C25.0881 34.2794 27.6732 32.8607 29.7774 30.8381C31.2888 29.1523 32.4571 27.1734 33.2137 25.0176C33.9704 22.8618 34.3001 20.5724 34.1836 18.284C34.1836 18.1015 34.3968 18.0102 34.5212 17.919C35.3487 17.2579 36.0788 16.4774 36.6888 15.6016C36.7825 15.47 36.8267 15.3079 36.8131 15.1454C36.8131 15.1454 36.8131 15.1454 36.6888 15.2002Z" fill="#F7B916"/>
<path fill-rule="evenodd" clip-rule="evenodd" d="M18.6201 35.345C18.6201 35.345 19.0982 35.345 18.6201 35.345C18.6201 35.3268 18.6732 35.345 18.6201 35.345Z" fill="#F7B916"/>
</g>
<defs>
<clipPath id="clip0">
<rect width="46.603" height="47.8626" fill="white"/>
</clipPath>
</defs>
</svg>
