<svg width="48" height="48" viewBox="0 0 48 48" fill="none" xmlns="http://www.w3.org/2000/svg">
<path d="M23.5632 47.7476C18.9029 47.7476 14.3472 46.3656 10.4722 43.7764C6.59726 41.1873 3.5771 37.5072 1.79365 33.2016C0.0102096 28.896 -0.456421 24.1582 0.452771 19.5874C1.36196 15.0166 3.60614 10.818 6.90152 7.52262C10.1969 4.22724 14.3955 1.98306 18.9663 1.07387C23.5371 0.164673 28.2749 0.631303 32.5805 2.41475C36.8861 4.19819 40.5662 7.21835 43.1554 11.0933C45.7445 14.9683 47.1265 19.524 47.1265 24.1843C47.1219 30.4323 44.6378 36.423 40.2199 40.841C35.8019 45.2589 29.8112 47.743 23.5632 47.7476ZM23.5632 2.87143C19.3459 2.87143 15.2232 4.12214 11.7167 6.46537C8.21019 8.8086 5.47735 12.1391 3.86383 16.0356C2.2503 19.9321 1.82857 24.2196 2.65197 28.3559C3.47537 32.4921 5.50692 36.2912 8.48967 39.2727C11.4724 42.2543 15.2724 44.2843 19.4089 45.106C23.5455 45.9277 27.8328 45.5042 31.7287 43.8891C35.6245 42.274 38.9539 39.5398 41.2957 36.0324C43.6375 32.5249 44.8866 28.4017 44.8848 24.1843C44.8802 18.5317 42.6321 13.112 38.6343 9.11585C34.6365 5.11965 29.2159 2.87373 23.5632 2.87143ZM31.5132 14.627C31.1695 14.627 30.8336 14.7289 30.5478 14.9198C30.2621 15.1108 30.0393 15.3822 29.9078 15.6997C29.7763 16.0172 29.7419 16.3666 29.8089 16.7037C29.876 17.0408 30.0415 17.3504 30.2845 17.5934C30.5275 17.8364 30.8371 18.0019 31.1742 18.069C31.5113 18.136 31.8607 18.1016 32.1782 17.9701C32.4957 17.8386 32.7671 17.6159 32.9581 17.3301C33.149 17.0443 33.2509 16.7084 33.2509 16.3647C33.2509 15.9038 33.0679 15.4618 32.742 15.1359C32.4161 14.8101 31.9741 14.627 31.5132 14.627ZM23.7631 16.8686C22.3141 16.8686 20.8976 17.2984 19.693 18.1036C18.4883 18.9088 17.5495 20.0532 16.9954 21.3921C16.4413 22.731 16.2967 24.2041 16.58 25.6251C16.8634 27.0462 17.5618 28.3512 18.587 29.3752C19.6122 30.3992 20.9181 31.0961 22.3395 31.3778C23.7609 31.6594 25.2338 31.5131 26.572 30.9574C27.9102 30.4017 29.0536 29.4616 29.8573 28.2559C30.6611 27.0503 31.0892 25.6333 31.0875 24.1843C31.0829 22.244 30.3095 20.3846 28.9366 19.0133C27.5638 17.6421 25.7034 16.8709 23.7631 16.8686ZM23.7631 28.8761C22.8351 28.8761 21.928 28.601 21.1565 28.0854C20.3849 27.5699 19.7835 26.8371 19.4284 25.9798C19.0733 25.1225 18.9804 24.1791 19.1614 23.269C19.3425 22.3589 19.7893 21.5229 20.4455 20.8667C21.1016 20.2106 21.9376 19.7637 22.8478 19.5827C23.7579 19.4017 24.7012 19.4946 25.5585 19.8497C26.4159 20.2048 27.1486 20.8062 27.6642 21.5777C28.1797 22.3493 28.4549 23.2564 28.4549 24.1843C28.4549 25.4287 27.9606 26.6221 27.0807 27.5019C26.2008 28.3818 25.0074 28.8761 23.7631 28.8761ZM38.5335 18.1024C38.5335 15.7335 37.5925 13.4617 35.9175 11.7867C34.2425 10.1116 31.9706 9.1706 29.6018 9.1706H17.8201C15.4505 9.1706 13.1778 10.1113 11.5013 11.7861C9.82493 13.4609 8.88197 15.7327 8.87967 18.1024V29.8927C8.87624 31.069 9.10496 32.2343 9.55272 33.3221C10.0005 34.4098 10.6585 35.3985 11.489 36.2314C12.3196 37.0644 13.3063 37.7253 14.3927 38.1762C15.4791 38.6271 16.6439 38.8592 17.8201 38.8592H29.6018C30.7776 38.8592 31.9419 38.6271 33.0279 38.176C34.1138 37.725 35.1 37.064 35.9298 36.2309C36.7597 35.3978 37.4168 34.4091 37.8637 33.3214C38.3105 32.2337 38.5381 31.0685 38.5335 29.8927V18.1024ZM35.7358 29.8927C35.7358 31.5195 35.0896 33.0798 33.9392 34.2301C32.7888 35.3805 31.2286 36.0268 29.6018 36.0268H17.8201C16.1925 36.0268 14.6314 35.3808 13.4796 34.2307C12.3279 33.0806 11.6797 31.5203 11.6774 29.8927V18.1024C11.6797 16.4747 12.3279 14.9145 13.4796 13.7644C14.6314 12.6143 16.1925 11.9683 17.8201 11.9683H29.6018C31.2286 11.9683 32.7888 12.6146 33.9392 13.7649C35.0896 14.9153 35.7358 16.4755 35.7358 18.1024V29.8927Z" fill="#F7B916"/>
</svg>
