<svg width="31" height="21" viewBox="0 0 31 21" fill="none" xmlns="http://www.w3.org/2000/svg">
<path d="M23.7167 8.67303C23.4008 9.54504 23.0851 10.4167 22.7637 11.3034C23.2818 11.3034 23.7726 11.3034 24.2927 11.3034C24.1075 10.416 23.9263 9.54621 23.7449 8.67682C23.7354 8.67554 23.7261 8.67431 23.7167 8.67303Z" fill="#EBF0FF"/>
<path d="M27.875 0.314453H2.40625C1.07959 0.314453 0 1.39404 0 2.72119V17.7935C0 19.1206 1.07959 20.2002 2.40625 20.2002H27.875C29.2022 20.2002 30.2817 19.1206 30.2817 17.7935V2.72119C30.2817 1.39404 29.2022 0.314453 27.875 0.314453ZM17.8434 11.2894C17.654 11.1392 17.4363 11.0212 17.2206 10.909C16.8615 10.7221 16.5064 10.5327 16.1942 10.2702C15.3035 9.52203 15.4173 8.47613 15.8993 7.7724C16.2959 7.19385 16.879 6.8877 17.5418 6.72021C17.7529 6.66674 17.9724 6.64703 18.1875 6.61071C18.2195 6.60534 18.2505 6.59429 18.282 6.58581C18.5179 6.58581 18.7539 6.58581 18.9898 6.58581C19.196 6.61975 19.4036 6.64623 19.6076 6.69024C19.8085 6.73351 20.0062 6.79339 20.2046 6.84844C20.2526 6.86168 20.2981 6.88341 20.3543 6.90514C20.2478 7.40154 20.1427 7.8933 20.0374 8.38512C19.7957 8.30889 19.5646 8.22222 19.3262 8.16423C18.8973 8.05998 18.4595 8.0153 18.0274 8.13152C17.8712 8.1737 17.714 8.26171 17.5918 8.3684C17.3846 8.54913 17.3843 8.81322 17.5843 9.00194C17.7205 9.13042 17.8804 9.23784 18.0421 9.33361C18.3642 9.52404 18.7026 9.68743 19.0203 9.88464C19.4476 10.1498 19.8032 10.4882 19.9457 10.9927C20.1527 11.7255 19.9265 12.7025 19.1105 13.2915C18.6409 13.6303 18.1096 13.8078 17.544 13.8803C16.6543 13.9945 15.7811 13.9072 14.9307 13.6153C14.8834 13.5991 14.8379 13.578 14.7777 13.5534C14.8877 13.038 14.9966 12.5266 15.1084 12.0034C15.1803 12.0346 15.2421 12.0595 15.302 12.088C15.8281 12.3375 16.3828 12.457 16.9641 12.4502C17.2309 12.4472 17.4923 12.406 17.733 12.2788C18.1726 12.0466 18.2308 11.596 17.8434 11.2894ZM14.8845 7.40753C14.4398 9.48785 13.9935 11.5678 13.5534 13.6494C13.5252 13.7825 13.4777 13.8215 13.3417 13.819C12.8406 13.8098 12.3393 13.8156 11.838 13.8156C11.792 13.8156 11.7463 13.8156 11.677 13.8156C12.1861 11.4378 12.6909 9.07922 13.1958 6.72223C13.8098 6.72223 14.4111 6.72223 15.0276 6.72223C14.9787 6.9566 14.9324 7.18231 14.8845 7.40753ZM12.3031 6.96411C11.3624 9.20941 10.4207 11.4547 9.48199 13.7008C9.4461 13.7865 9.40332 13.819 9.30731 13.8183C8.73883 13.8134 8.17004 13.8143 7.60138 13.8178C7.51569 13.8185 7.47949 13.7973 7.45648 13.7081C6.98163 11.8592 6.49859 10.0123 6.02801 8.16253C5.94348 7.83062 5.77679 7.60119 5.4602 7.4602C4.93859 7.22833 4.39648 7.06665 3.84271 6.93743C3.81848 6.93163 3.79504 6.92211 3.7713 6.91442C3.7713 6.89739 3.7713 6.88073 3.7713 6.8637C3.78833 6.72423 3.87622 6.71154 3.99872 6.71203C4.96332 6.71722 5.92804 6.71502 6.8927 6.7152C7.37183 6.7152 7.70038 6.98211 7.78961 7.45299C8.0365 8.7545 8.28052 10.0566 8.52557 11.3586C8.53411 11.4039 8.54541 11.4486 8.58178 11.5028C9.21307 9.90844 9.84417 8.3142 10.4744 6.72222C11.1152 6.72222 11.7493 6.72222 12.3988 6.72222C12.364 6.81024 12.3351 6.88769 12.3031 6.96411ZM24.8183 13.8093C24.7648 13.5566 24.7093 13.3037 24.6578 13.05C24.5976 12.7521 24.5991 12.7519 24.2905 12.7519C23.6462 12.7519 23.0019 12.7536 22.3574 12.7501C22.2676 12.7496 22.2239 12.7754 22.1945 12.8629C22.0975 13.1495 21.9937 13.4339 21.8858 13.7166C21.8705 13.7565 21.8168 13.8093 21.7803 13.8098C21.17 13.8155 20.5597 13.8138 19.9359 13.8138C19.9517 13.7693 19.9617 13.7341 19.9759 13.7006C20.8734 11.5566 21.7713 9.41252 22.6698 7.26854C22.822 6.90514 23.1036 6.7177 23.4947 6.71721C23.9998 6.71672 24.5049 6.71703 25.0285 6.71703C25.5218 9.07824 26.0146 11.4366 26.5102 13.8093C25.9351 13.8093 25.3841 13.8093 24.8183 13.8093Z" fill="#EBF0FF"/>
</svg>
