<svg width="18" height="21" viewBox="0 0 18 21" fill="none" xmlns="http://www.w3.org/2000/svg">
<path d="M4.91207 19.9427L5.27283 17.6819L4.47915 17.6578H0.703125L3.32469 1.01449C3.32469 0.966385 3.34874 0.918283 3.39685 0.894232C3.44495 0.870181 3.49305 0.84613 3.54115 0.84613H9.91469C12.0312 0.84613 13.4983 1.27905 14.2439 2.14489C14.6047 2.55376 14.8211 2.98668 14.9414 3.44365C15.0616 3.92467 15.0616 4.52595 14.9414 5.24748V5.29558V5.75255L15.3021 5.94496C15.6148 6.11332 15.8313 6.28168 16.0237 6.49814C16.3363 6.8589 16.5287 7.29182 16.6009 7.82095C16.6971 8.35007 16.649 8.99945 16.5287 9.72098C16.3604 10.5628 16.0958 11.2843 15.7351 11.8856C15.3983 12.4388 14.9895 12.8957 14.4844 13.2565C14.0034 13.5932 13.4502 13.8578 12.8249 14.0021C12.1995 14.1704 11.5021 14.2426 10.7324 14.2426H10.2274C9.86659 14.2426 9.52988 14.3628 9.26531 14.6034C9.00075 14.8439 8.80834 15.1565 8.76024 15.5173L8.71214 15.7097L8.08681 19.6781L8.06276 19.8224C8.06276 19.8705 8.03871 19.8946 8.01466 19.9186C7.99061 19.9427 7.96655 19.9427 7.9425 19.9427H4.91207Z" fill="#EBF0FF"/>
<path d="M15.6386 5.34369C15.6146 5.46394 15.5905 5.5842 15.5665 5.72851C14.7247 10.0337 11.8385 11.5248 8.18277 11.5248H6.30678C5.84981 11.5248 5.48904 11.8615 5.41689 12.2945L4.45485 18.3794L4.19029 20.1111C4.14218 20.3997 4.35864 20.6642 4.67131 20.6642H7.99036C8.37518 20.6642 8.71189 20.3756 8.78405 19.9908L8.8081 19.8225L9.43343 15.854L9.48153 15.6376C9.55368 15.2527 9.86635 14.9641 10.2752 14.9641H10.7803C14.0031 14.9641 16.5045 13.6654 17.25 9.88935C17.5627 8.30197 17.3943 7.00321 16.5766 6.06522C16.312 5.77661 15.9994 5.5361 15.6386 5.34369Z" fill="#EBF0FF"/>
<path d="M14.7498 5.00688C14.6295 4.95878 14.4852 4.93472 14.3409 4.91067C14.1966 4.88662 14.0523 4.86257 13.9321 4.83852C13.427 4.76636 12.8738 4.71826 12.2725 4.71826H7.2699C7.14965 4.71826 7.02939 4.74231 6.93319 4.79042C6.69268 4.91067 6.52432 5.12713 6.50027 5.39169L5.44202 12.126L5.41797 12.3184C5.49012 11.8855 5.87494 11.5488 6.30786 11.5488H8.18385C11.8637 11.5488 14.7257 10.0576 15.5675 5.75246C15.5916 5.6322 15.6156 5.51195 15.6397 5.36764C15.4232 5.24739 15.2068 5.15118 14.9422 5.07903C14.8941 5.03093 14.8219 5.00688 14.7498 5.00688Z" fill="#1062AA"/>
<path d="M6.49993 5.36766C6.54803 5.10309 6.71639 4.88663 6.93285 4.76638C7.02905 4.71828 7.14931 4.69422 7.26956 4.69422H12.2722C12.8735 4.69422 13.4266 4.74233 13.9317 4.81448C14.076 4.83853 14.2203 4.86258 14.3406 4.88663C14.4849 4.91068 14.6051 4.95879 14.7495 4.98284C14.8216 5.00689 14.8697 5.03094 14.9419 5.03094C15.1824 5.10309 15.4229 5.1993 15.6393 5.31955C15.8799 3.73218 15.6393 2.64988 14.7735 1.66378C13.8115 0.581481 12.1038 0.124512 9.91518 0.124512H3.54164C3.08467 0.124512 2.69985 0.461227 2.65175 0.894147L0.00612905 17.7299C-0.0419732 18.0666 0.198537 18.3553 0.535253 18.3553H4.45558L5.44168 12.0779L6.49993 5.36766Z" fill="#EBF0FF"/>
</svg>
