<svg width="27" height="21" viewBox="0 0 27 21" fill="none" xmlns="http://www.w3.org/2000/svg">
<path d="M24.75 0.314453H2.25C1.00964 0.314453 0 1.31109 0 2.53668V18.0922C0 19.3178 1.00964 20.3145 2.25 20.3145H24.75C25.9904 20.3145 27 19.3178 27 18.0922V2.53668C27 1.31109 25.9904 0.314453 24.75 0.314453ZM19.6968 16.9568C19.5979 16.9712 19.618 16.8681 19.5772 16.8253C19.5451 16.7739 19.5052 16.7295 19.4835 16.6677C19.3278 16.5061 19.1883 16.3284 19.0177 16.1813C18.8491 16.0367 18.6832 15.889 18.4853 15.7737C18.1134 15.514 17.6824 15.3132 17.1805 15.1817C16.6864 15.0405 16.1323 14.9838 15.49 15.0241C15.208 15.0607 14.9387 15.1111 14.7044 15.1948C14.4522 15.2568 14.1713 15.2907 13.8924 15.3263C12.8028 15.3927 11.5894 15.1358 10.7771 14.748C10.3436 14.5498 9.94469 14.3168 9.60576 14.0248C9.42043 13.8925 9.2691 13.7261 9.11323 13.5646C8.97068 13.3942 8.82085 13.2308 8.71374 13.0255C8.5714 12.8505 8.48721 12.618 8.36753 12.4206C8.28967 12.1866 8.17946 11.9842 8.12796 11.7239C8.04652 11.4889 7.9966 11.2226 7.96838 10.935C7.96365 10.8558 7.9278 10.7035 7.92815 10.5799C7.92815 10.5689 7.94257 10.5591 7.9416 10.5405C7.9357 10.4284 7.90865 10.2556 7.9416 10.1592C7.9357 9.89867 7.98308 9.57823 8.03492 9.33077C8.08264 9.06689 8.15371 8.82587 8.23473 8.59441C8.31384 8.3574 8.41875 8.1454 8.51399 7.92391C8.57806 7.82931 8.62667 7.71971 8.68703 7.62158C8.73791 7.51843 8.81426 7.44058 8.8604 7.33228C8.91156 7.30386 8.92069 7.23421 8.96656 7.20085C8.9873 7.14225 9.04257 7.11784 9.05988 7.05619C9.10348 7.02032 9.13808 6.97549 9.16631 6.92463C9.20689 6.8857 9.24932 6.84861 9.2728 6.79313C9.43142 6.63865 9.57342 6.46754 9.73869 6.31984C9.90356 6.16705 10.0879 6.03365 10.2582 5.88595C10.3662 5.83508 10.4442 5.75425 10.5509 5.70189C10.632 5.62865 10.7501 5.59162 10.8305 5.5177C11.0525 5.4214 11.2416 5.29268 11.4828 5.21524C11.6908 5.10951 11.9399 5.04434 12.1752 4.96554C12.6863 4.83601 13.202 4.74696 13.8391 4.76826C13.8619 4.77097 13.8735 4.74588 13.879 4.76826C15.0853 4.8042 15.9646 5.16315 16.7147 5.64927C17.4579 6.13802 18.0333 6.79252 18.4454 7.60836C18.8484 8.41653 19.0751 9.51489 18.8848 10.6721C18.7894 11.1915 18.6354 11.6529 18.4454 12.0788C18.3365 12.2782 18.2394 12.4891 18.1125 12.6705C18.0569 12.7686 17.9973 12.8633 17.9261 12.9467C17.9023 12.9974 17.8684 13.0385 17.8332 13.0782C17.8176 13.1023 17.7981 13.1225 17.7799 13.144C17.7738 13.1556 17.7683 13.1675 17.7531 13.1704C17.7569 13.1938 17.7409 13.1972 17.74 13.1834C17.6359 12.7074 17.4129 12.3493 17.1007 12.0788C16.993 11.9665 16.8626 11.8871 16.7147 11.8027C16.6402 11.7602 16.5859 11.7341 16.4886 11.6977C16.3265 11.6368 16.1138 11.5661 15.8494 11.5925C15.9819 11.5263 16.1792 11.5235 16.3821 11.5266C16.5504 11.5444 16.6899 11.5905 16.8344 11.6317C16.9553 11.6966 17.075 11.7625 17.1939 11.829C17.4858 10.9674 17.374 9.78833 17.0477 9.02844C16.732 8.23132 16.2734 7.5752 15.6766 7.05619C15.0898 6.52675 14.3849 6.11381 13.4533 5.92535C12.9922 5.82701 12.412 5.84281 11.9886 5.93857C11.5464 6.05366 11.1785 6.24273 10.8572 6.47758C10.5585 6.73915 10.2686 7.00967 10.0716 7.37168C10.0006 7.44194 9.97016 7.55221 9.91173 7.63474C9.87087 7.7345 9.825 7.82944 9.77886 7.92391C9.71006 8.13204 9.63123 8.33027 9.59223 8.56824C9.4858 8.99867 9.46664 9.5901 9.53922 10.0541C9.59388 10.5523 9.74178 10.9584 9.89889 11.3556C9.99557 11.5406 10.0839 11.7338 10.1913 11.9079C10.2934 12.0835 10.4196 12.2347 10.5377 12.3945C10.806 12.6817 11.0941 12.9493 11.4295 13.1704C12.1095 13.6078 12.8901 13.9454 13.959 13.9985C13.98 13.9555 13.9301 13.8698 13.9191 13.8145C13.9031 13.7513 13.8969 13.6786 13.879 13.6174C13.8638 13.4758 13.8591 13.3106 13.879 13.1704C13.9213 13.1812 13.9201 13.2348 13.9458 13.2623C13.9684 13.2881 13.9769 13.328 14.0124 13.3411C14.0392 13.4153 14.0972 13.4587 14.1321 13.5252C14.2326 13.6276 14.3108 13.7519 14.4384 13.8276C14.5398 13.9292 14.6755 13.9965 14.7977 14.0775C14.9296 14.1446 15.0427 14.2301 15.1973 14.2746C15.4617 14.4121 15.8163 14.4606 16.1691 14.5114C16.5246 14.5589 16.8677 14.6188 17.1939 14.6954C17.4946 14.7973 17.8009 14.8934 18.0461 15.0502C18.1756 15.124 18.3031 15.1996 18.4187 15.2872C18.4752 15.3319 18.5466 15.3623 18.5918 15.4185C18.6619 15.446 18.6926 15.5118 18.7649 15.5367C18.9715 15.7314 19.1757 15.9287 19.351 16.1546C19.4232 16.2848 19.5219 16.3889 19.5772 16.5362C19.6258 16.5889 19.64 16.6755 19.6836 16.7332C19.6864 16.8079 19.7597 16.8976 19.6968 16.9568ZM17.3826 13.2886C17.3854 13.392 17.3932 13.5008 17.3162 13.5252C17.1601 13.4646 17.1338 13.2758 17.0631 13.1308C17.0504 13.0776 17.0395 12.9976 17.0631 12.9467C17.0738 12.9442 17.0763 12.9335 17.0897 12.9335C17.129 12.9085 17.1664 12.9401 17.2226 12.9599C17.2993 13.0464 17.348 13.1606 17.3826 13.2886ZM16.5175 13.7356C16.4964 13.8729 16.4185 13.9537 16.2909 13.9854C15.9732 13.9907 15.7922 13.7018 15.905 13.4069C15.9684 13.3558 16.0133 13.2863 16.1446 13.3017C16.1472 13.2867 16.1581 13.2945 16.1581 13.3017C16.3941 13.3314 16.5024 13.4874 16.5175 13.7356Z" fill="#EBF0FF"/>
</svg>
