<svg width="32" height="21" viewBox="0 0 32 21" fill="none" xmlns="http://www.w3.org/2000/svg">
<path d="M13.5225 9.24344C13.5225 9.24344 13.4478 9.27078 13.3565 9.37078L13.3545 9.36945C13.3545 9.36945 13.3451 9.38278 13.3411 9.38678C13.3205 9.41144 13.2998 9.44411 13.2778 9.47811C13.2505 9.51945 13.2205 9.57211 13.1851 9.63745C13.1711 9.65878 13.1558 9.68078 13.1491 9.69545C13.1405 9.71345 13.1325 9.73544 13.1231 9.75478C13.1178 9.76611 13.1138 9.77811 13.1085 9.78944C13.0785 9.85745 13.0518 9.92878 13.0251 10.0068C13.0185 10.0254 13.0111 10.0394 13.0051 10.0594C13.0025 10.0681 13.0031 10.0728 13.0011 10.0814C12.9458 10.2681 12.9071 10.4768 12.9178 10.6954C12.9531 11.4001 13.3998 10.9654 13.4931 10.7894C13.5871 10.6128 13.8691 10.1081 13.8571 9.62611C13.8498 9.25945 13.7078 9.15878 13.5225 9.24344Z" fill="#EBF0FF"/>
<path d="M25.2816 9.26483C25.2736 9.27083 25.1969 9.32949 25.1076 9.41682C25.0896 9.43749 24.6836 9.90216 24.6149 10.5022C24.6076 10.5788 24.6029 10.6588 24.6069 10.7422C24.6189 11.3882 25.1589 11.2242 25.3589 10.7422C25.5423 10.2982 25.8629 9.03349 25.2816 9.26483Z" fill="#EBF0FF"/>
<path d="M21.5722 7.03225C21.5716 7.03225 21.5709 7.03225 21.5709 7.03225C21.5456 7.03558 21.5362 7.03691 21.5302 7.03825C21.4876 7.04491 21.4582 7.05091 21.4582 7.05091L21.0742 8.82225C21.0742 8.82225 21.9882 8.93758 22.3956 8.49825C22.6269 8.24891 22.7369 7.87225 22.7269 7.56091C22.7176 6.92025 21.8049 7.00091 21.5722 7.03225Z" fill="#EBF0FF"/>
<path d="M3 0.314453C1.34315 0.314453 0 1.6576 0 3.31445V17.3145C0 18.9713 1.34315 20.3145 3 20.3145H29C30.6569 20.3145 32 18.9713 32 17.3145V14.2731V11.4811V3.31446C32 1.6576 30.6569 0.314453 29 0.314453H3ZM5.672 9.08979C5.578 9.45245 5.47467 9.75379 5.374 10.0098C5.372 10.0165 5.37133 10.0198 5.36867 10.0271C5.252 10.3891 5.09333 10.6698 4.94133 10.8818C4.90467 10.9391 4.87667 10.9778 4.87067 10.9851C4.81067 11.0578 4.74533 11.1285 4.67533 11.1971C4.55067 11.3225 4.46267 11.3818 4.46267 11.3818L4.46333 11.3791C4.326 11.4825 4.17467 11.5711 4.00733 11.6311C3.94133 11.6545 3.88 11.6691 3.818 11.6871C3.72533 11.7271 3.57933 11.7638 3.356 11.7945C3.19267 11.8185 3.05067 11.8265 2.924 11.8265C1.91667 11.8625 1.42467 11.5005 1.24933 11.3198C1.24333 11.3165 1.23667 11.3125 1.23067 11.3078C1.224 11.3005 1.21 11.2805 1.20133 11.2691C1.17867 11.2418 1.16467 11.2231 1.16467 11.2231H1.16667C1.048 11.0598 0.854 10.7025 0.941333 10.1445C1.13867 8.78179 1.68933 6.19512 1.68933 6.19512H3.34933L2.746 8.61979C2.60667 9.18445 2.54533 9.71312 2.51933 10.0131C2.51933 10.0151 2.504 10.5725 2.772 10.7138C2.78067 10.7185 2.788 10.7245 2.79667 10.7285C3.08867 10.8451 3.71267 10.7178 4.01867 10.2811C4.13733 10.1011 4.26667 9.84645 4.35467 9.47779C4.672 8.26445 5.026 6.19512 5.026 6.19512H6.41933L5.676 9.07179C5.67467 9.07912 5.67333 9.08245 5.672 9.08979ZM8.984 11.8285H7.75067C7.75067 11.8285 8.10333 9.89579 8.11467 9.79045C8.12667 9.68445 8.15 9.35579 7.89133 9.34379C7.83533 9.34112 7.79 9.35312 7.748 9.36845C7.56733 9.48445 7.492 9.79179 7.49067 9.79579L7.08533 11.8285H5.80067L6.41933 8.68579L7.75067 8.49779L7.688 8.80912L8.26733 8.56779C8.26733 8.56779 9.41867 8.14512 9.442 8.87312C9.46533 9.60245 8.984 11.8285 8.984 11.8285ZM10.8873 11.8285H9.51267L10.0767 9.33179L11.4393 9.20245L10.8873 11.8285ZM10.684 9.08312C10.6553 9.08445 10.6267 9.08579 10.5993 9.08579C10.5927 9.08512 10.588 9.08645 10.5813 9.08579C10.578 9.08579 10.5773 9.08445 10.5733 9.08445C10.306 9.07912 10.0953 8.99779 10.082 8.74512L10.0767 8.74579C10.0767 8.74579 10.008 8.40645 10.506 8.20712C10.5287 8.19579 10.5553 8.18912 10.58 8.17979C10.606 8.17112 10.6247 8.16112 10.6533 8.15312C10.6573 8.15245 10.6593 8.15245 10.6627 8.15179C10.676 8.14912 10.6893 8.14712 10.7027 8.14512C10.7027 8.14512 10.9907 8.08445 11.2167 8.15112L11.224 8.15312C11.2773 8.16979 11.326 8.19245 11.3673 8.22579C11.4333 8.26845 11.4887 8.33512 11.516 8.41845C11.5227 8.43379 11.5313 8.46312 11.5387 8.49912C11.544 9.01579 10.684 9.08312 10.684 9.08312ZM14.892 10.7038C14.7493 11.0005 14.5927 11.2151 14.4313 11.3811C14.4253 11.3878 14.4193 11.3945 14.4133 11.4018C14.3933 11.4211 14.3733 11.4398 14.354 11.4578C14.3373 11.4731 14.3253 11.4865 14.3047 11.5038C14.2787 11.5251 14.2527 11.5378 14.2267 11.5571C14.1707 11.5985 14.1153 11.6378 14.06 11.6685C13.3133 12.1058 12.4967 11.8591 12.4967 11.8591L12.5 11.8558C11.9807 11.7658 11.4 11.3925 11.7553 10.0458C12.2013 8.35379 13.7527 8.50179 13.7527 8.50179C14.8453 8.43845 15.5147 9.41179 14.892 10.7038ZM18.3147 11.8285H17.0807C17.0807 11.8285 17.4327 9.89579 17.4447 9.79045C17.4567 9.68445 17.4807 9.35579 17.222 9.34379C17.1267 9.33979 17.0613 9.36979 17.0073 9.40579C16.9707 9.43912 16.8693 9.55312 16.8167 9.82112L16.416 11.8285H15.1307L15.75 8.68579L17.0813 8.49779L17.0187 8.80912L17.08 8.78379C17.08 8.78379 17.502 8.52312 18.0653 8.44579C18.1447 8.43445 18.1973 8.43845 18.2373 8.44979C18.5067 8.44912 18.762 8.53445 18.7733 8.87312C18.7953 9.60245 18.3147 11.8285 18.3147 11.8285ZM21.44 9.75112H20.872L20.4207 11.8285H18.9807L20.2487 6.19579H21.4393H21.6427H22.4027C22.564 6.19712 23.214 6.22579 23.7353 6.56045C23.9607 6.74445 24.2353 7.08512 24.1833 7.63379C24.0613 8.41112 23.7107 9.08445 22.8347 9.51579C22.2073 9.76712 21.44 9.75112 21.44 9.75112ZM25.1833 11.8285L25.2307 11.6331C24.8067 11.9098 24.1427 11.9558 23.726 11.6225C23.2567 11.2471 23.174 9.93112 24.1607 8.95579C24.7947 8.32912 25.2593 8.44245 25.5127 8.60245H25.5147C25.6853 8.68445 25.8567 8.94845 25.8567 8.94845C25.874 8.87979 25.8913 8.81245 25.9053 8.75979L25.9407 8.75245L27.1873 8.49779L26.514 11.8278H25.9227L25.1833 11.8285ZM29.1387 11.7905L28.132 13.5731C28.132 13.5731 27.6853 14.5598 26.3813 14.4198C26.558 13.7618 26.558 13.7618 26.558 13.7618C26.558 13.7618 27.0747 13.7551 27.392 13.1125C27.5687 12.7558 27.746 12.4118 27.8707 12.1745C28.024 11.8798 27.9947 11.4798 27.984 11.3805L27.982 11.3611L27.9813 11.3571L27.674 8.66379L28.99 8.44779L29.06 10.0858L29.7887 8.61245L31.0807 8.44779L29.1387 11.7905Z" fill="#EBF0FF"/>
</svg>
