<svg width="31" height="21" viewBox="0 0 31 21" fill="none" xmlns="http://www.w3.org/2000/svg">
<path d="M28.9623 20.0867H2.03766C0.912316 20.0867 0 19.1744 0 18.0491V2.03766C0 0.912215 0.912316 0 2.03766 0H28.9623C30.0877 0 31 0.912215 31 2.03766V18.0491C31 19.1744 30.0877 20.0867 28.9623 20.0867Z" fill="#EBF0FF"/>
<path d="M14.6846 6.96417L12.8505 11.1524L10.9297 6.96417H8.46003V12.7554L5.91827 6.96417H3.73748L1.08008 13.1166L2.69759 13.1229L3.20319 11.8023H6.35145L6.92927 13.1229H9.96208V8.30728L12.0995 13.1166C12.0995 13.1166 13.3993 13.1309 13.5003 13.1166C13.6014 13.102 15.6089 8.35061 15.6089 8.35061V13.1166H17.0676V6.96418H14.6846V6.96417ZM3.79405 10.4989L4.80376 8.09383L5.81347 10.4989H3.79405Z" fill="#1062AA"/>
<path d="M29.9204 6.96399H28.1544L26.2758 8.99974L24.4598 6.96399H18.4355V13.1227H24.3845L26.2507 11.1289L28.0792 13.1227H29.8701L27.2025 10.0434L29.9204 6.96399ZM23.5581 11.9054H19.9134V10.653C19.9134 10.653 23.107 10.653 23.1823 10.653C23.2574 10.653 23.1823 9.37547 23.1823 9.37547H19.9134V8.22334H23.6331L25.3238 10.0644L23.5581 11.9054Z" fill="#1062AA"/>
</svg>
