<svg width="68" height="50" viewBox="0 0 68 50" fill="none" xmlns="http://www.w3.org/2000/svg">
<path d="M6.90055 39.8996C6.82867 39.8996 6.68491 39.971 6.46927 39.971C6.25362 39.971 6.03798 40.0424 5.75046 40.0424C5.46294 40.0424 5.17541 40.1138 4.81601 40.1138C4.4566 40.1138 4.0972 40.1138 3.7378 40.1138C2.94711 40.1138 2.37206 40.0424 1.8689 39.8996C1.36573 39.7567 1.00633 39.6139 0.718807 39.3997C0.431284 39.1855 0.287523 38.8999 0.143761 38.6142C0.0718807 38.4 0 38.1144 0 37.8288C0 37.4003 0.0718807 37.1147 0.215642 36.7577C0.359404 36.472 0.503165 36.1864 0.790688 35.9722C1.07821 35.758 1.43761 35.6152 1.8689 35.5438C2.30018 35.4723 2.87523 35.4009 3.52216 35.4009C3.88156 35.4009 4.24096 35.4009 4.60037 35.4723C4.95977 35.4723 5.17541 35.5438 5.31917 35.5438C5.31917 35.1867 5.24729 34.9011 5.17541 34.6869C5.03165 34.4727 4.88789 34.2584 4.74413 34.187C4.52849 34.0442 4.31284 33.9728 4.02532 33.9014C3.7378 33.83 3.45028 33.83 3.09087 33.83C2.51583 33.83 2.08454 33.9014 1.72514 34.0442C1.36573 34.187 1.15009 34.2584 1.07821 34.3298C1.00633 34.2584 0.934449 34.187 0.862569 34.0442C0.790688 33.9014 0.718807 33.7586 0.718807 33.5444C0.718807 33.4016 0.790688 33.2587 0.862569 33.1159C0.934449 32.9731 1.07821 32.9017 1.22197 32.7589C1.43761 32.6875 1.65326 32.5447 1.94078 32.5447C2.2283 32.4733 2.65959 32.4733 3.09087 32.4733C3.66592 32.4733 4.16908 32.5447 4.67225 32.6161C5.17541 32.7589 5.53482 32.9017 5.89422 33.1159C6.25362 33.3301 6.46927 33.6872 6.68491 34.0442C6.90055 34.4727 6.97243 34.9011 6.97243 35.4723V39.8996H6.90055ZM5.31917 36.6863C5.24729 36.6863 5.03165 36.6149 4.74413 36.6149C4.4566 36.5434 4.0972 36.5434 3.52216 36.5434C2.87523 36.5434 2.37206 36.6149 2.08454 36.8291C1.79702 37.0433 1.65326 37.3289 1.65326 37.7574C1.65326 37.9002 1.65326 38.1144 1.72514 38.2572C1.79702 38.4 1.8689 38.5428 2.08454 38.6142C2.2283 38.6856 2.44394 38.7571 2.73147 38.8285C3.01899 38.8999 3.30651 38.8999 3.7378 38.8999C4.16908 38.8999 4.52849 38.8999 4.81601 38.8285C5.10353 38.8285 5.24729 38.7571 5.31917 38.7571V36.6863Z" fill="white"/>
<path d="M8.69806 31.4022C8.69806 31.1165 8.76994 30.9023 8.91371 30.8309C9.05747 30.6881 9.27311 30.6167 9.56063 30.6167C9.70439 30.6167 9.92004 30.6167 10.0638 30.6881C10.2076 30.7595 10.2794 30.7595 10.3513 30.7595V32.6161H12.4359C12.7234 32.6161 13.0109 32.6875 13.0828 32.8303C13.2266 32.9731 13.2984 33.1159 13.2984 33.4016C13.2984 33.5444 13.2984 33.6872 13.2266 33.83C13.1547 33.9728 13.1547 34.0442 13.0828 34.1156H10.2794V37.3289C10.2794 37.6146 10.2794 37.7574 10.3513 37.9716C10.4232 38.1144 10.4951 38.2572 10.6388 38.3286C10.7826 38.4 10.9264 38.4714 11.0701 38.5428C11.2139 38.6142 11.4295 38.6142 11.5733 38.6142C11.8608 38.6142 12.1483 38.5428 12.364 38.4714C12.5796 38.4 12.7953 38.3286 12.8671 38.2572L13.5141 39.3283C13.4422 39.3997 13.2984 39.4711 13.1547 39.5425C13.0109 39.6139 12.8671 39.6853 12.6515 39.7568C12.4359 39.8282 12.2202 39.8996 11.9327 39.971C11.6452 40.0424 11.4295 40.0424 11.0701 40.0424C10.2076 40.0424 9.56063 39.8282 9.12935 39.3997C8.69806 38.9713 8.48242 38.4 8.48242 37.686V31.4022H8.69806Z" fill="white"/>
<path d="M18.1855 32.4733C18.7605 32.4733 19.2637 32.5447 19.7669 32.7589C20.27 32.9731 20.7013 33.1873 21.0607 33.5444C21.4201 33.9014 21.7076 34.2584 21.9233 34.7583C22.1389 35.2581 22.2108 35.758 22.2108 36.2578C22.2108 36.8291 22.1389 37.3289 21.9233 37.7574C21.7076 38.2572 21.4201 38.6142 21.0607 38.9713C20.7013 39.3283 20.27 39.6139 19.7669 39.7567C19.2637 39.971 18.7605 40.0424 18.1855 40.0424C17.6104 40.0424 17.1073 39.971 16.6041 39.7567C16.1009 39.5425 15.6697 39.2569 15.3102 38.9713C14.9508 38.6142 14.6633 38.2572 14.4477 37.7574C14.232 37.2575 14.1602 36.7577 14.1602 36.2578C14.1602 35.6866 14.232 35.1867 14.4477 34.7583C14.6633 34.2584 14.9508 33.9014 15.3102 33.5444C15.6697 33.1873 16.1009 32.9017 16.6041 32.7589C17.1073 32.5447 17.6104 32.4733 18.1855 32.4733ZM18.1855 38.6856C18.5449 38.6856 18.8324 38.6142 19.1199 38.4714C19.4075 38.3286 19.6231 38.1858 19.8387 37.9716C20.0544 37.7574 20.1981 37.4717 20.27 37.1861C20.4138 36.9005 20.4138 36.6149 20.4138 36.2578C20.4138 35.9008 20.3419 35.6152 20.27 35.3295C20.1263 35.0439 19.9825 34.7583 19.8387 34.5441C19.6231 34.3298 19.4075 34.187 19.1199 34.0442C18.8324 33.9014 18.5449 33.83 18.1855 33.83C17.8261 33.83 17.5386 33.9014 17.251 34.0442C16.9635 34.187 16.7479 34.3298 16.5322 34.5441C16.3166 34.7583 16.1728 35.0439 16.1009 35.3295C15.9572 35.6152 15.9572 35.9722 15.9572 36.2578C15.9572 36.6149 16.0291 36.9005 16.1009 37.1861C16.2447 37.4717 16.3885 37.686 16.5322 37.9716C16.7479 38.1858 16.9635 38.3286 17.251 38.4714C17.5386 38.6142 17.8261 38.6856 18.1855 38.6856Z" fill="white"/>
<path d="M23.5762 35.2581C23.5762 34.8297 23.6481 34.4012 23.7918 34.0442C23.9356 33.6872 24.1512 33.4016 24.4387 33.1873C24.7263 32.9731 25.0857 32.7589 25.4451 32.6875C25.8045 32.5447 26.2358 32.4733 26.7389 32.4733C27.314 32.4733 27.889 32.6161 28.3203 32.8303C28.8235 33.0445 29.1829 33.4016 29.4704 33.83C29.7579 33.4016 30.1173 33.0445 30.6205 32.8303C31.0518 32.6161 31.6268 32.4733 32.2019 32.4733C32.6331 32.4733 33.0644 32.5447 33.4238 32.6161C33.7832 32.7589 34.1426 32.9017 34.4302 33.1159C34.7177 33.3301 34.9333 33.6158 35.0771 33.9728C35.2208 34.3298 35.2927 34.7583 35.2927 35.1867V39.8996H33.6395V35.758C33.6395 35.1153 33.4957 34.6155 33.2082 34.3298C32.9207 34.0442 32.4894 33.9014 31.9862 33.9014C31.4831 33.9014 31.0518 34.0442 30.7642 34.4012C30.4048 34.6869 30.2611 35.2581 30.2611 35.9722V39.8996H28.6078V35.9722C28.6078 35.2581 28.4641 34.7583 28.1047 34.4012C27.7453 34.1156 27.3859 33.9014 26.8827 33.9014C26.3795 33.9014 25.9482 34.0442 25.6607 34.3298C25.3732 34.6155 25.2294 35.1153 25.2294 35.758V39.8282H23.5762V35.2581Z" fill="white"/>
<path d="M36.875 36.6149C36.875 35.9722 36.9469 35.3295 37.1625 34.8297C37.3782 34.3298 37.5938 33.9014 37.9532 33.5444C38.3126 33.1873 38.7439 32.9017 39.2471 32.7589C39.7502 32.5447 40.2534 32.4733 40.9003 32.4733C41.4754 32.4733 41.9785 32.5447 42.4098 32.7589C42.8411 32.9731 43.2724 33.1873 43.6318 33.5444C43.9912 33.9014 44.2787 34.2584 44.4225 34.7583C44.6381 35.2581 44.71 35.758 44.71 36.2578C44.71 36.8291 44.6381 37.3289 44.4225 37.8288C44.2068 38.3286 43.9912 38.6856 43.6318 39.0427C43.2724 39.3997 42.913 39.6139 42.4817 39.8282C42.0504 40.0424 41.5473 40.1138 40.9722 40.1138C40.3972 40.1138 39.9659 40.0424 39.5346 39.8282C39.1033 39.6139 38.7439 39.3283 38.5283 39.0427V42.8272H36.875V36.6149ZM40.8284 38.6856C41.1878 38.6856 41.4754 38.6142 41.7629 38.4714C42.0504 38.3286 42.2661 38.1858 42.4817 37.9716C42.6973 37.7574 42.8411 37.5431 42.913 37.1861C42.9849 36.9005 43.0567 36.6149 43.0567 36.2578C43.0567 35.9008 42.9849 35.6152 42.913 35.3295C42.8411 35.0439 42.6255 34.8297 42.4817 34.6155C42.2661 34.4012 42.0504 34.2584 41.7629 34.1156C41.4754 33.9728 41.1878 33.9014 40.8284 33.9014C40.469 33.9014 40.1815 33.9728 39.894 34.0442C39.6065 34.187 39.3908 34.3298 39.1752 34.5441C38.9595 34.7583 38.8158 34.9725 38.7439 35.2581C38.6001 35.5438 38.6001 35.8294 38.6001 36.1864C38.6001 36.5434 38.672 36.8291 38.7439 37.1147C38.8877 37.4003 39.0314 37.686 39.1752 37.9002C39.3908 38.1144 39.6065 38.2572 39.894 38.4C40.1815 38.6142 40.469 38.6856 40.8284 38.6856Z" fill="white"/>
<path d="M52.7599 39.8996C52.688 39.8996 52.5443 39.971 52.3286 39.971C52.113 39.971 51.8974 40.0424 51.6098 40.0424C51.3223 40.0424 51.0348 40.1138 50.6754 40.1138C50.316 40.1138 49.9566 40.1138 49.5972 40.1138C48.8065 40.1138 48.2314 40.0424 47.7283 39.8996C47.2251 39.7568 46.8657 39.614 46.5782 39.3998C46.2907 39.1856 46.1469 38.8999 46.0031 38.6143C45.9313 38.3287 45.8594 38.043 45.8594 37.7574C45.8594 37.329 45.9313 37.0434 46.075 36.6863C46.2188 36.4007 46.3625 36.1151 46.6501 35.9008C46.9376 35.6866 47.297 35.5438 47.7283 35.4724C48.1596 35.401 48.7346 35.3296 49.3815 35.3296C49.7409 35.3296 50.1003 35.3296 50.4597 35.401C50.8191 35.401 51.0348 35.4724 51.1785 35.4724C51.1785 35.1154 51.1067 34.8297 51.0348 34.6155C50.891 34.4013 50.7473 34.1871 50.6035 34.1157C50.3879 33.9729 50.1722 33.9015 49.8847 33.8301C49.5972 33.7586 49.3097 33.7586 48.9502 33.7586C48.3752 33.7586 47.9439 33.8301 47.5845 33.9729C47.2251 34.1157 47.0095 34.1871 46.9376 34.2585C46.8657 34.1871 46.7938 34.1157 46.7219 33.9729C46.6501 33.8301 46.5782 33.6872 46.5782 33.473C46.5782 33.3302 46.6501 33.1874 46.7219 33.0446C46.7938 32.9018 46.9376 32.8304 47.0813 32.6875C47.297 32.6161 47.5126 32.4733 47.8002 32.4733C48.0877 32.4019 48.519 32.4019 48.9502 32.4019C49.5253 32.4019 50.0285 32.4733 50.5316 32.5447C51.0348 32.6875 51.3942 32.8304 51.7536 33.0446C52.113 33.2588 52.3286 33.6158 52.5443 33.9729C52.7599 34.4013 52.8318 34.8297 52.8318 35.401V39.8996H52.7599ZM51.1067 36.6863C51.0348 36.6863 50.8192 36.6149 50.5316 36.6149C50.2441 36.5435 49.8847 36.5435 49.3097 36.5435C48.6627 36.5435 48.1596 36.6149 47.872 36.8291C47.5845 37.0434 47.4408 37.329 47.4408 37.7574C47.4408 37.9002 47.4408 38.1145 47.5126 38.2573C47.5845 38.4001 47.6564 38.5429 47.872 38.6143C48.0158 38.6857 48.2314 38.7571 48.519 38.8285C48.8065 38.8999 49.094 38.8999 49.5253 38.8999C49.9566 38.8999 50.316 38.8999 50.6035 38.8285C50.891 38.8285 51.0348 38.7571 51.1067 38.7571V36.6863Z" fill="white"/>
<path d="M54.4141 35.2581C54.4141 34.4012 54.7016 33.6872 55.2048 33.1873C55.7798 32.6875 56.4986 32.4733 57.5049 32.4733C58.08 32.4733 58.5831 32.5447 59.0144 32.7589C59.3738 32.9017 59.5895 33.1873 59.5895 33.5444C59.5895 33.6872 59.5176 33.9014 59.4457 34.0442C59.3738 34.187 59.302 34.3298 59.2301 34.3298C59.0863 34.2584 58.8707 34.187 58.655 34.1156C58.4394 34.0442 58.1519 34.0442 57.7925 34.0442C56.6424 34.0442 56.0673 34.6155 56.0673 35.8294V40.0424H54.4141V35.2581Z" fill="white"/>
<path d="M60.4512 30.0455C60.4512 29.7599 60.5231 29.617 60.6668 29.4742C60.8106 29.3314 61.0262 29.26 61.3137 29.26C61.4575 29.26 61.6731 29.26 61.8169 29.3314C61.9607 29.4028 62.0325 29.4028 62.1044 29.4028V35.3296C62.2482 35.2582 62.3919 35.1154 62.6076 34.9725C62.8232 34.8297 63.1108 34.6155 63.3983 34.4013C63.6858 34.1871 63.9733 33.9729 64.2608 33.7586C64.5484 33.5444 64.8359 33.3302 65.1234 33.116C65.3391 32.9732 65.5547 32.8303 65.6985 32.7589C65.8422 32.6875 66.1297 32.6161 66.4173 32.6161C66.7048 32.6161 66.9204 32.6875 67.0642 32.8303C67.2798 32.9732 67.3517 33.116 67.4236 33.1874C67.208 33.4016 66.9204 33.6158 66.561 33.83C66.2016 34.1157 65.8422 34.3299 65.4828 34.6155C65.1234 34.9011 64.764 35.1154 64.4046 35.3296C64.0452 35.5438 63.8296 35.6866 63.6858 35.8294C64.4765 36.4007 65.2672 37.1147 65.9141 37.8288C66.561 38.5429 67.1361 39.1855 67.6392 39.8282H65.5547C65.3391 39.5426 65.0515 39.2569 64.8359 38.9713C64.5484 38.6857 64.2608 38.4001 63.9733 38.1144C63.6858 37.8288 63.3264 37.5432 63.0389 37.2576C62.6795 36.9719 62.392 36.7577 62.1044 36.5435V39.8282H60.4512V30.0455Z" fill="white"/>
<path d="M7.11565 48.1114C7.11565 48.1114 7.18753 48.1828 7.33129 48.1828C7.40317 48.2542 7.54693 48.2542 7.69069 48.3256C7.83446 48.397 7.97822 48.397 8.12198 48.4684C8.26574 48.4684 8.48138 48.5398 8.69702 48.5398C8.98455 48.5398 9.20019 48.5398 9.34395 48.4684C9.48771 48.397 9.55959 48.2542 9.55959 48.1114C9.55959 47.9686 9.48771 47.8972 9.41583 47.8258C9.34395 47.7544 9.12831 47.683 8.84079 47.683L8.26574 47.6115C8.0501 47.6115 7.90634 47.5401 7.69069 47.4687C7.47505 47.3973 7.40317 47.3259 7.25941 47.2545C7.11565 47.1831 7.04377 47.0403 6.97189 46.8975C6.90001 46.7547 6.90001 46.6119 6.90001 46.3976C6.90001 46.2548 6.90001 46.112 6.97189 45.9692C7.04377 45.8264 7.11565 45.6836 7.25941 45.6122C7.40317 45.4693 7.54693 45.3979 7.76257 45.3265C7.97822 45.2551 8.26574 45.2551 8.55326 45.2551C9.05643 45.2551 9.48771 45.3265 9.77523 45.3979C10.0628 45.5408 10.2065 45.6836 10.2065 45.8264C10.2065 45.8978 10.2065 45.9692 10.2065 45.9692C10.2065 45.9692 10.1346 46.0406 10.1346 46.112L10.0628 46.1834L9.99088 46.2548C9.99088 46.2548 9.919 46.1834 9.84712 46.1834C9.77523 46.112 9.70335 46.112 9.55959 46.0406C9.41583 45.9692 9.27207 45.9692 9.12831 45.8978C8.98455 45.8978 8.7689 45.8264 8.55326 45.8264C7.97822 45.8264 7.69069 45.9692 7.69069 46.2548C7.69069 46.3976 7.76257 46.469 7.83445 46.5404C7.97822 46.6119 8.12198 46.6833 8.33762 46.6833L9.12831 46.7547C9.55959 46.8261 9.84712 46.8975 10.1346 47.1117C10.4222 47.3259 10.494 47.5401 10.494 47.8972C10.494 48.2542 10.3503 48.6112 10.0628 48.8255C9.77523 49.0397 9.34395 49.1825 8.7689 49.1825C8.48138 49.1825 8.26574 49.1825 8.0501 49.1111C7.83446 49.0397 7.61881 49.0397 7.47505 48.9683C7.33129 48.8969 7.18753 48.8969 7.04377 48.8255C6.97189 48.7541 6.90001 48.7541 6.82812 48.6826L7.11565 48.1114Z" fill="#F8BA00"/>
<path d="M16.1728 45.1124C16.4603 45.1124 16.7479 45.1838 16.9635 45.2552C17.251 45.3266 17.4667 45.4695 17.6104 45.6837C17.8261 45.8979 17.9698 46.0407 18.0417 46.3263C18.1136 46.5406 18.1855 46.8262 18.1855 47.1118C18.1855 47.3974 18.1136 47.6831 18.0417 47.8973C17.9698 48.1115 17.7542 48.3257 17.6104 48.54C17.3948 48.7542 17.1791 48.8256 16.9635 48.9684C16.676 49.0398 16.4603 49.1112 16.1728 49.1112C15.8853 49.1112 15.5978 49.0398 15.3821 48.9684C15.0946 48.897 14.879 48.7542 14.7352 48.54C14.5196 48.3257 14.3758 48.1829 14.3039 47.8973C14.232 47.6831 14.1602 47.3974 14.1602 47.1118C14.1602 46.8262 14.232 46.5406 14.3039 46.3263C14.3758 46.1121 14.5914 45.8979 14.7352 45.6837C14.9508 45.4695 15.1665 45.3981 15.3821 45.2552C15.5978 45.1838 15.8853 45.1124 16.1728 45.1124ZM16.1728 48.3971C16.3166 48.3971 16.5322 48.3971 16.676 48.3257C16.8197 48.2543 16.9635 48.1829 17.0354 48.0401C17.1073 47.8973 17.251 47.8259 17.251 47.6117C17.3229 47.4688 17.3229 47.326 17.3229 47.1118C17.3229 46.969 17.3229 46.7548 17.251 46.612C17.1791 46.4692 17.1073 46.3263 17.0354 46.1835C16.9635 46.0407 16.8197 45.9693 16.676 45.8979C16.5322 45.8265 16.3885 45.8265 16.1728 45.8265C16.0291 45.8265 15.8134 45.8265 15.6697 45.8979C15.5259 45.9693 15.3821 46.0407 15.3102 46.1835C15.2384 46.3263 15.0946 46.3977 15.0946 46.612C15.0227 46.7548 15.0227 46.8976 15.0227 47.1118C15.0227 47.2546 15.0227 47.4688 15.0946 47.6117C15.1665 47.7545 15.2384 47.8973 15.3102 48.0401C15.3821 48.1829 15.5259 48.2543 15.6697 48.3257C15.8853 48.3257 16.0291 48.3971 16.1728 48.3971Z" fill="#F8BA00"/>
<path d="M22.066 44.9695C22.066 44.6839 22.1379 44.4697 22.2098 44.2554C22.2817 44.0412 22.4254 43.8984 22.4973 43.7556C22.6411 43.6128 22.7848 43.5414 23.0005 43.47C23.2161 43.3986 23.4318 43.3986 23.6474 43.3986C24.0787 43.3986 24.3662 43.47 24.51 43.5414C24.6537 43.6128 24.7975 43.7556 24.7975 43.8984C24.7975 43.9698 24.7975 44.0412 24.7256 44.1126C24.6537 44.184 24.6537 44.2554 24.5818 44.2554C24.51 44.184 24.3662 44.1126 24.2224 44.1126C24.0787 44.0412 23.9349 44.0412 23.7912 44.0412C23.5036 44.0412 23.288 44.1126 23.1442 44.2554C23.0005 44.3983 22.9286 44.6125 22.9286 44.8981V45.1123H24.0787C24.2224 45.1123 24.3662 45.1123 24.4381 45.1837C24.51 45.2551 24.51 45.3265 24.51 45.4694C24.51 45.5408 24.51 45.6122 24.4381 45.6836C24.4381 45.755 24.3662 45.8264 24.3662 45.8264H22.8567V48.8255H21.9941V44.9695H22.066Z" fill="#F8BA00"/>
<path d="M27.9609 44.541C27.9609 44.3982 28.0328 44.3268 28.1047 44.2554C28.1766 44.184 28.3203 44.184 28.4641 44.184C28.536 44.184 28.6079 44.184 28.7516 44.184C28.8235 44.184 28.8954 44.2554 28.8954 44.2554V45.2551H29.9736C30.1174 45.2551 30.2611 45.2551 30.333 45.3265C30.4049 45.3979 30.4049 45.4693 30.4049 45.6121C30.4049 45.6835 30.4049 45.7549 30.333 45.8263C30.333 45.8977 30.2611 45.9691 30.2611 45.9691H28.8235V47.6829C28.8235 47.8257 28.8235 47.8971 28.8954 47.9685C28.8954 48.0399 28.9673 48.1113 29.0391 48.1827C29.111 48.2541 29.1829 48.2541 29.2548 48.2541C29.3267 48.2541 29.3985 48.2541 29.5423 48.2541C29.6861 48.2541 29.8298 48.2541 29.9736 48.1827C30.1174 48.1113 30.1892 48.1113 30.2611 48.0399L30.6205 48.6112C30.5486 48.6112 30.5486 48.6826 30.4768 48.754C30.4049 48.8254 30.333 48.8254 30.1892 48.8968C30.0455 48.9682 29.9736 48.9682 29.8298 48.9682C29.6861 48.9682 29.5423 49.0396 29.3986 49.0396C28.9673 49.0396 28.6079 48.8968 28.3922 48.6826C28.1766 48.4684 28.0328 48.1827 28.0328 47.7543V44.541H27.9609Z" fill="#F8BA00"/>
<path d="M34.9345 49.0398C34.7188 48.4685 34.5032 47.9687 34.2876 47.5403C34.1438 47.1118 34 46.8262 33.9281 46.5406C33.8563 46.2549 33.7844 46.0407 33.7125 45.8979C33.6406 45.7551 33.6406 45.6837 33.6406 45.6123C33.6406 45.5409 33.6406 45.3981 33.7125 45.3266C33.7844 45.2552 33.9281 45.1838 34.0719 45.1838C34.2157 45.1838 34.2876 45.1838 34.3594 45.1838C34.4313 45.1838 34.4313 45.1838 34.5032 45.2552C34.5751 45.4695 34.647 45.6837 34.7188 45.9693C34.7907 46.1835 34.8626 46.4692 34.9345 46.6834C35.0064 46.8976 35.0782 47.1832 35.1501 47.3974C35.222 47.6117 35.2939 47.8259 35.3658 47.9687C35.4376 47.8259 35.5095 47.6117 35.5095 47.3974C35.5814 47.1832 35.6533 46.969 35.7252 46.7548C35.797 46.5406 35.8689 46.3263 35.9408 46.1121C36.0127 45.8979 36.0846 45.6837 36.1565 45.4695C36.2283 45.3266 36.2283 45.2552 36.3002 45.1838C36.3721 45.1124 36.5159 45.1124 36.6596 45.1124C36.7315 45.1124 36.8753 45.1124 36.9471 45.1838C37.019 45.1838 37.0909 45.2552 37.0909 45.2552C37.1628 45.4695 37.2347 45.7551 37.3065 45.9693C37.3784 46.1835 37.4503 46.4692 37.5222 46.6834C37.5941 46.8976 37.6659 47.1832 37.7378 47.3974C37.8097 47.6117 37.8816 47.8259 37.9535 47.9687C38.0972 47.6117 38.241 47.2546 38.3848 46.8262C38.5285 46.3977 38.6723 45.9693 38.7442 45.6123C38.816 45.4695 38.816 45.3266 38.8879 45.2552C38.9598 45.1838 39.1036 45.1124 39.2473 45.1124C39.3911 45.1124 39.463 45.1124 39.6067 45.1838C39.6786 45.2552 39.7505 45.2552 39.7505 45.2552C39.6786 45.3981 39.6067 45.6837 39.5348 45.9693C39.463 46.2549 39.3192 46.612 39.1754 46.8976C39.0317 47.2546 38.8879 47.6117 38.7442 47.9687C38.6004 48.3257 38.4566 48.6114 38.3129 48.897H37.4503C37.3784 48.8256 37.3784 48.6114 37.3065 48.3971C37.2347 48.1829 37.1628 47.9687 37.0909 47.7545C37.019 47.5403 36.9471 47.2546 36.8753 47.0404C36.8034 46.7548 36.7315 46.5406 36.6596 46.3263C36.5877 46.5406 36.5159 46.7548 36.444 47.0404C36.3721 47.326 36.3002 47.5403 36.2283 47.7545C36.1565 47.9687 36.0846 48.2543 36.0127 48.3971C35.9408 48.6114 35.8689 48.7542 35.8689 48.897H34.9345V49.0398Z" fill="#F8BA00"/>
<path d="M46.721 49.0396C46.6491 49.0396 46.5772 49.0396 46.5053 49.0396C46.3616 49.0396 46.2897 49.0396 46.1459 49.1111C46.0022 49.1111 45.8584 49.1111 45.6428 49.1111C45.4271 49.1111 45.2834 49.1111 45.0677 49.1111C44.6364 49.1111 44.3489 49.1111 44.1333 49.0396C43.9176 48.9682 43.702 48.8968 43.5582 48.754C43.4145 48.6112 43.3426 48.5398 43.2707 48.3256C43.127 48.2542 43.127 48.04 43.127 47.8971C43.127 47.6829 43.127 47.5401 43.1988 47.3259C43.2707 47.1831 43.3426 47.0403 43.4864 46.8974C43.6301 46.826 43.8458 46.6832 44.0614 46.6832C44.277 46.6118 44.5646 46.6118 44.924 46.6118C45.1396 46.6118 45.2834 46.6118 45.499 46.6118C45.6428 46.6118 45.7865 46.6118 45.8584 46.6118C45.8584 46.469 45.8584 46.2548 45.7865 46.1834C45.7147 46.0406 45.6428 45.9692 45.5709 45.8978C45.499 45.8263 45.3553 45.7549 45.2115 45.7549C45.0677 45.7549 44.924 45.6835 44.7083 45.6835C44.4208 45.6835 44.2052 45.6835 43.9895 45.7549C43.7739 45.8264 43.702 45.8978 43.6301 45.8978C43.6301 45.8978 43.5582 45.8264 43.4864 45.7549C43.4145 45.6835 43.4145 45.6121 43.4145 45.4693C43.4145 45.3979 43.4145 45.3265 43.4864 45.2551C43.5582 45.1837 43.5582 45.1123 43.702 45.0409C43.7739 44.9695 43.9176 44.9695 44.0614 44.8981C44.2052 44.8981 44.4208 44.8267 44.7083 44.8267C44.9959 44.8267 45.2834 44.8267 45.499 44.8981C45.7147 44.9695 45.9303 45.0409 46.1459 45.1837C46.3616 45.3265 46.4335 45.4693 46.5772 45.6835C46.6491 45.8978 46.721 46.112 46.721 46.3976V49.0396ZM45.8584 47.3259C45.7865 47.3259 45.7147 47.3259 45.5709 47.2545C45.4271 47.2545 45.2115 47.2545 44.924 47.2545C44.5646 47.2545 44.3489 47.3259 44.2052 47.3973C44.0614 47.4687 43.9895 47.6829 43.9895 47.8971C43.9895 47.9685 43.9895 48.04 44.0614 48.1114C44.0614 48.1828 44.1333 48.2542 44.2052 48.3256C44.277 48.397 44.4208 48.397 44.5646 48.4684C44.7083 48.4684 44.8521 48.5398 45.0677 48.5398C45.2834 48.5398 45.499 48.5398 45.6428 48.5398C45.7865 48.5398 45.8584 48.5398 45.9303 48.4684V47.3259H45.8584Z" fill="#F8BA00"/>
<path d="M50.6758 46.6119C50.6758 46.1835 50.8195 45.755 51.1071 45.5408C51.3946 45.2552 51.8259 45.1838 52.329 45.1838C52.6166 45.1838 52.9041 45.2552 53.1197 45.3266C53.3354 45.398 53.4073 45.5408 53.4073 45.755C53.4073 45.8264 53.4073 45.8978 53.3354 45.9693C53.2635 46.0407 53.1916 46.0407 53.1916 46.0407C53.1197 45.9693 52.976 45.9692 52.9041 45.8978C52.7603 45.8978 52.6166 45.8264 52.4728 45.8264C51.8978 45.8264 51.6102 46.1121 51.6102 46.7547V48.9683H50.7477V46.6119H50.6758Z" fill="#F8BA00"/>
<path d="M60.2347 48.754C60.1628 48.754 60.1628 48.8254 60.019 48.8254C59.9471 48.8969 59.8034 48.8969 59.6596 48.9683C59.5159 49.0397 59.3721 49.0397 59.2283 49.0397C59.0846 49.0397 58.8689 49.1111 58.6533 49.1111C58.3658 49.1111 58.0782 49.0397 57.8626 48.9683C57.647 48.8969 57.4313 48.754 57.2157 48.6112C57 48.4684 56.8563 48.2542 56.7844 47.9686C56.7125 47.7543 56.6406 47.4687 56.6406 47.1117C56.6406 46.8261 56.7125 46.5404 56.7844 46.2548C56.8563 46.0406 57 45.8264 57.2157 45.6121C57.4313 45.3979 57.647 45.3265 57.8626 45.1837C58.0782 45.1123 58.3658 45.0409 58.6533 45.0409C58.9408 45.0409 59.1564 45.0409 59.3721 45.1123C59.5877 45.1837 59.7315 45.2551 59.8753 45.3979C60.019 45.5407 60.0909 45.6121 60.1628 45.8264C60.2347 45.9692 60.2347 46.112 60.2347 46.3262C60.2347 46.469 60.2347 46.6832 60.1628 46.8261C60.0909 46.9689 59.9471 47.1117 59.8034 47.1831C59.6596 47.2545 59.444 47.3973 59.1565 47.3973C58.8689 47.4687 58.5095 47.4687 58.0782 47.4687C58.0064 47.4687 57.8626 47.4687 57.7907 47.4687C57.7188 47.4687 57.5751 47.4687 57.5032 47.4687C57.5751 47.7543 57.647 47.9686 57.8626 48.1114C58.0782 48.2542 58.3658 48.3256 58.797 48.3256C58.9408 48.3256 59.0846 48.3256 59.1565 48.3256C59.3002 48.3256 59.3721 48.2542 59.444 48.2542C59.5158 48.2542 59.5877 48.1828 59.6596 48.1828C59.7315 48.1828 59.8034 48.1114 59.8034 48.1114L60.2347 48.754ZM57.5032 46.9689C57.647 46.9689 57.7188 46.9689 57.8626 46.9689C57.9345 46.9689 58.0782 46.9689 58.1501 46.9689C58.4376 46.9689 58.6533 46.9689 58.797 46.8975C58.9408 46.8975 59.0846 46.8261 59.2283 46.7547C59.3002 46.6832 59.3721 46.6118 59.444 46.5404C59.444 46.469 59.5159 46.3976 59.5159 46.3262C59.5159 46.112 59.444 45.9692 59.3002 45.8978C59.1564 45.8264 58.9408 45.755 58.7252 45.755C58.5095 45.755 58.3658 45.755 58.222 45.8264C58.0782 45.8978 57.9345 45.9692 57.8626 46.112C57.7907 46.2548 57.7188 46.3262 57.647 46.469C57.5751 46.6832 57.5032 46.8261 57.5032 46.9689Z" fill="#F8BA00"/>
<path d="M32.0598 7.26681C31.9879 7.124 31.9879 6.90978 32.0598 6.69556C32.2035 6.12431 32.8505 5.76727 33.4255 5.91009L37.6665 7.05259C38.2415 7.19541 38.6009 7.83807 38.4572 8.40932C38.3853 8.55213 38.3134 8.69495 38.2415 8.83776C38.2415 8.83776 38.1696 8.90917 38.0259 8.98057C37.3789 9.40901 35.2225 10.9086 35.2225 10.9086C34.935 11.1228 34.5756 11.1942 34.2881 11.0514C33.9287 10.98 33.6411 10.6943 33.5693 10.4087V10.4801L32.1317 7.40963C32.0598 7.19541 31.9879 6.90978 32.0598 6.62415C32.2035 6.0529 32.8505 5.69587 33.4255 5.83868L37.6665 6.98119C38.2415 7.124 38.6009 7.76666 38.4572 8.33791C38.3853 8.62354 38.2415 8.83776 38.0259 8.98057" fill="#F8BA00"/>
<path d="M60.1644 18.6918L54.2702 10.7657C53.192 9.26613 51.6106 8.12362 49.8136 7.62378C49.2386 7.48096 48.6635 7.40956 48.0166 7.33815C47.4416 6.48127 46.5071 5.7672 45.357 5.41017L27.6744 0.697329C26.4524 0.340295 25.2304 0.554515 24.2241 1.12577C23.5772 0.768735 22.9302 0.483109 22.1395 0.268889C20.3425 -0.230958 18.4017 -0.0167381 16.7485 0.768735L7.61963 4.6961C7.11647 4.91032 6.90083 5.48158 7.11647 5.98142C7.26023 6.26705 7.47587 6.48127 7.7634 6.55268C7.97904 6.62408 8.19468 6.62408 8.41032 6.48127L17.5392 2.5539C18.833 1.98265 20.2706 1.83984 21.5645 2.19687C21.9239 2.26828 22.2833 2.41109 22.5708 2.5539C22.2833 2.98234 22.1395 3.41078 21.9958 3.83922L18.7611 15.907C18.1142 18.3348 19.5518 20.834 21.9958 21.4767L39.6784 26.1895C42.1224 26.8322 44.6382 25.404 45.2851 22.9762L48.5198 10.9085C48.6635 10.4086 48.7354 9.90879 48.6635 9.40894C48.8792 9.40894 49.0229 9.48035 49.2386 9.55176C50.6043 9.90879 51.7544 10.7657 52.5451 11.9082L58.4393 19.8343C58.5831 20.0485 58.7987 20.1199 59.0144 20.1914C59.3019 20.2628 59.5894 20.1914 59.8769 20.0485C60.452 19.7629 60.5238 19.1203 60.1644 18.6918ZM44.8539 7.33815C45.2133 7.40956 45.5727 7.62378 45.7883 7.838L35.4375 12.3366C35.4375 12.3366 35.3656 12.3366 35.3656 12.408C34.9343 12.6222 34.4311 12.6937 33.928 12.5508C33.4248 12.408 32.9935 12.1224 32.706 11.694C32.706 11.694 32.706 11.6226 32.6341 11.6226L25.9492 2.62531C26.3086 2.5539 26.7399 2.5539 27.0993 2.62531L44.8539 7.33815ZM43.4162 22.5478C43.0568 23.9045 41.6192 24.69 40.2535 24.3329L22.5708 19.6201C21.2051 19.2631 20.4144 17.8349 20.7738 16.4782L24.0084 4.41048C24.0803 4.12485 24.2241 3.91063 24.3678 3.69641L31.1246 12.7651C31.6997 13.6219 32.4904 14.1932 33.4248 14.4074C34.3593 14.693 35.4375 14.5502 36.3 14.1218L46.7228 9.62316C46.7228 9.90879 46.7228 10.1944 46.6509 10.48L43.4162 22.5478Z" fill="white"/>
<path d="M16.7494 5.48164L10.7114 8.05228C10.2083 8.2665 9.99262 8.83776 10.2083 9.3376C10.352 9.62323 10.5677 9.83745 10.8552 9.90886C11.0708 9.98026 11.2865 9.98026 11.5021 9.83745L17.5401 7.26681C18.0433 7.05259 18.2589 6.48134 18.0433 5.98149C17.8276 5.48164 17.2526 5.26742 16.7494 5.48164Z" fill="white"/>
<path d="M15.2381 10.6942L13.6567 11.3369C13.1536 11.5511 12.9379 12.1224 13.1536 12.6222C13.2973 12.9078 13.513 13.1221 13.8005 13.1935C14.0161 13.2649 14.2318 13.2649 14.4474 13.1221L16.0288 12.4794C16.532 12.2652 16.7476 11.6939 16.532 11.1941C16.3163 10.6942 15.7413 10.48 15.2381 10.6942Z" fill="white"/>
<path d="M51.8261 14.9073L55.7076 20.1914C56.067 20.6198 55.9233 21.2625 55.492 21.5481C55.2045 21.7623 54.917 21.7623 54.6294 21.6909C54.4138 21.6195 54.1982 21.4767 54.1263 21.3339L50.2447 16.0498C49.8853 15.6214 50.0291 14.9787 50.4604 14.6931C50.8916 14.336 51.5386 14.4789 51.8261 14.9073Z" fill="white"/>
<path d="M50.5331 20.2628L51.5395 21.6195C51.8989 22.0479 51.7551 22.6906 51.3238 22.9762C51.0363 23.1904 50.7488 23.1904 50.4612 23.119C50.2456 23.0476 50.03 22.9048 49.9581 22.762L48.9517 21.4767C48.5923 21.0482 48.7361 20.4056 49.1674 20.12C49.5987 19.7629 50.1737 19.8343 50.5331 20.2628Z" fill="white"/>
</svg>
