<svg width="48" height="48" viewBox="0 0 48 48" fill="none" xmlns="http://www.w3.org/2000/svg">
<g clip-path="url(#clip0)">
<path d="M23.9411 47.8633C19.2046 47.8669 14.5734 46.4654 10.6336 43.8362C6.69387 41.207 3.62254 37.4682 1.80828 33.0929C-0.00597472 28.7176 -0.481613 23.9025 0.441552 19.2568C1.36472 14.6111 3.64519 10.3436 6.99442 6.99442C10.3436 3.64519 14.6111 1.36472 19.2568 0.441552C23.9025 -0.481613 28.7176 -0.00597472 33.0929 1.80828C37.4682 3.62254 41.207 6.69387 43.8362 10.6336C46.4654 14.5734 47.8669 19.2046 47.8633 23.9411C47.8536 30.2827 45.3302 36.3618 40.846 40.846C36.3618 45.3301 30.2827 47.8536 23.9411 47.8633ZM23.9411 2.57354C19.7142 2.56993 15.5812 3.82004 12.0649 6.16575C8.54867 8.51145 5.8071 11.8473 4.18704 15.7514C2.56698 19.6555 2.14123 23.9524 2.96364 28.0985C3.78605 32.2446 5.81967 36.0536 8.80725 39.0438C11.7948 42.0339 15.6021 44.0708 19.7475 44.8967C23.8929 45.7227 28.1902 45.3006 32.0956 43.6839C36.0011 42.0672 39.3393 39.3284 41.688 35.8142C44.0368 32.2999 45.2904 28.168 45.2904 23.9411C45.2856 18.2787 43.0353 12.8493 39.0331 8.84372C35.0309 4.8381 29.6035 2.5832 23.9411 2.57354Z" fill="#F7B916"/>
<path fill-rule="evenodd" clip-rule="evenodd" d="M20.182 24.0499V37.9179C20.182 38.0146 20.2204 38.1075 20.2888 38.1759C20.3573 38.2443 20.4501 38.2828 20.5469 38.2828H25.6926C25.7894 38.2828 25.8822 38.2443 25.9507 38.1759C26.0191 38.1075 26.0576 38.0146 26.0576 37.9179V23.8127H29.707C29.7526 23.8152 29.7981 23.8086 29.8412 23.7934C29.8842 23.7782 29.9238 23.7547 29.9577 23.7242C29.9916 23.6937 30.0191 23.6568 30.0387 23.6156C30.0583 23.5744 30.0696 23.5298 30.072 23.4843L30.4369 19.2326C30.4394 19.1832 30.4318 19.1338 30.4146 19.0874C30.3973 19.041 30.3708 18.9986 30.3367 18.9627C30.3026 18.9269 30.2615 18.8983 30.216 18.8789C30.1705 18.8594 30.1215 18.8494 30.072 18.8494H26.0576V15.8386C26.0623 15.6709 26.1 15.5057 26.1686 15.3525C26.2372 15.1994 26.3353 15.0612 26.4573 14.946C26.5794 14.8308 26.7229 14.7407 26.8797 14.681C27.0366 14.6212 27.2036 14.593 27.3714 14.5978H30.2544C30.3015 14.5979 30.3482 14.5884 30.3915 14.5698C30.4348 14.5513 30.4738 14.5241 30.5063 14.4899C30.5387 14.4558 30.5639 14.4154 30.5802 14.3712C30.5965 14.327 30.6036 14.2799 30.6011 14.2329V9.94478C30.6036 9.89774 30.5965 9.85069 30.5802 9.80649C30.5639 9.7623 30.5387 9.7219 30.5063 9.68774C30.4738 9.65359 30.4348 9.62641 30.3915 9.60786C30.3482 9.5893 30.3015 9.57977 30.2544 9.57983H25.3459C23.9747 9.58466 22.6612 10.1328 21.6933 11.1041C20.7254 12.0754 20.1819 13.3908 20.182 14.7621V18.8494H17.6091C17.5123 18.8494 17.4195 18.8879 17.351 18.9563C17.2826 19.0248 17.2441 19.1176 17.2441 19.2144V23.466C17.2441 23.5131 17.2536 23.5597 17.2722 23.603C17.2907 23.6463 17.3179 23.6854 17.3521 23.7178C17.3862 23.7503 17.4266 23.7754 17.4708 23.7917C17.515 23.8081 17.562 23.8152 17.6091 23.8127H20.182V24.0499Z" fill="#F7B916"/>
</g>
<defs>
<clipPath id="clip0">
<rect width="47.8626" height="47.8626" fill="white"/>
</clipPath>
</defs>
</svg>
