<svg width="25" height="21" viewBox="0 0 25 21" fill="none" xmlns="http://www.w3.org/2000/svg">
<path d="M22.4543 0.314453H2.09086C0.936542 0.314453 0 1.25105 0 2.40537V18.2234C0 19.3778 0.936542 20.3144 2.09086 20.3144H22.4543C23.6087 20.3144 24.5452 19.3778 24.5452 18.2234V2.40537C24.5452 1.25099 23.6086 0.314453 22.4543 0.314453Z" fill="#EBF0FF"/>
<path d="M14.1434 17.678H10.21C5.58389 17.678 2.18164 14.7055 2.18164 10.4423C2.18164 5.77593 5.58389 2.95093 10.21 2.95093H14.1434C18.7172 2.95093 22.3632 5.77593 22.3632 10.4423C22.3632 14.7056 18.7172 17.678 14.1434 17.678Z" fill="#1062AA"/>
<path d="M10.2241 4.87976C7.20574 4.87976 4.74805 7.32811 4.74805 10.3558C4.74805 13.3741 7.20574 15.8318 10.2241 15.8318C13.2519 15.8318 15.7001 13.3741 15.7001 10.3558C15.7001 7.32811 13.2518 4.87976 10.2241 4.87976Z" fill="#EBF0FF"/>
<path d="M8.97988 13.5892C7.68097 13.0939 6.75586 11.8323 6.75586 10.3559C6.75586 8.87942 7.68097 7.61788 8.97988 7.11328V13.5892Z" fill="#1062AA"/>
<path d="M11.4668 13.5986V7.11328C12.7658 7.61793 13.6909 8.87942 13.6909 10.3559C13.6909 11.8323 12.7657 13.0939 11.4668 13.5986Z" fill="#1062AA"/>
</svg>
