<svg width="47" height="48" viewBox="0 0 47 48" fill="none" xmlns="http://www.w3.org/2000/svg">
<g clip-path="url(#clip0)">
<path d="M23.3106 47.8633C18.6987 47.8669 14.1894 46.4654 10.3533 43.8362C6.51725 41.207 3.52674 37.4682 1.76023 33.0929C-0.00628007 28.7176 -0.469401 23.9025 0.42947 19.2568C1.32834 14.6111 3.5488 10.3436 6.80989 6.99442C10.071 3.64519 14.2261 1.36472 18.7496 0.441552C23.273 -0.481613 27.9614 -0.00597472 32.2216 1.80828C36.4817 3.62254 40.1221 6.69387 42.6821 10.6336C45.2422 14.5734 46.6068 19.2046 46.6032 23.9411C46.5938 30.2827 44.1368 36.3618 39.7706 40.846C35.4044 45.3301 29.4853 47.8536 23.3106 47.8633ZM23.3106 2.57354C19.195 2.56993 15.1707 3.82004 11.747 6.16575C8.32325 8.51145 5.65382 11.8473 4.07639 15.7514C2.49897 19.6555 2.08442 23.9524 2.88519 28.0985C3.68595 32.2446 5.66606 36.0536 8.57502 39.0438C11.484 42.0339 15.1911 44.0708 19.2274 44.8967C23.2637 45.7227 27.4479 45.3006 31.2506 43.6839C35.0532 42.0672 38.3036 39.3284 40.5905 35.8142C42.8774 32.2999 44.0981 28.168 44.0981 23.9411C44.0934 18.2787 41.9023 12.8493 38.0055 8.84372C34.1086 4.8381 28.824 2.5832 23.3106 2.57354Z" fill="#F7B916"/>
<path d="M37.3105 20.3095C37.3105 19.4973 37.1539 18.6932 36.8497 17.9435C36.5454 17.1939 36.0996 16.5135 35.538 15.9418C34.9763 15.37 34.31 14.9182 33.5774 14.6124C32.8448 14.3066 32.0604 14.1529 31.2697 14.1602H15.7412C14.9558 14.1602 14.1781 14.3193 13.4526 14.6286C12.7272 14.9379 12.0683 15.3911 11.5137 15.9624C10.9591 16.5336 10.5198 17.2117 10.2208 17.9576C9.92186 18.7036 9.76917 19.5028 9.77151 20.3095V27.7726C9.76917 28.5793 9.92186 29.3785 10.2208 30.1245C10.5198 30.8704 10.9591 31.5485 11.5137 32.1197C12.0683 32.691 12.7272 33.1443 13.4526 33.4535C14.1781 33.7628 14.9558 33.9219 15.7412 33.9219H31.2697C32.0604 33.9292 32.8448 33.7755 33.5774 33.4697C34.31 33.1639 34.9763 32.7121 35.538 32.1403C36.0996 31.5686 36.5454 30.8882 36.8497 30.1386C37.1539 29.3889 37.3105 28.5848 37.3105 27.7726V20.3095ZM27.5208 24.4151L21.3201 27.9003C21.0536 28.0463 20.8226 27.9003 20.8226 27.5354V20.3825C20.8226 20.054 21.0714 19.8716 21.3379 20.0175L27.5741 23.667C27.6323 23.7147 27.6772 23.7773 27.7046 23.8484C27.7319 23.9196 27.7406 23.9968 27.7298 24.0725C27.719 24.1481 27.6891 24.2196 27.6431 24.2797C27.5971 24.3398 27.5366 24.3865 27.4675 24.4151H27.5208Z" fill="#F7B916"/>
</g>
<defs>
<clipPath id="clip0">
<rect width="46.603" height="47.8626" fill="white"/>
</clipPath>
</defs>
</svg>
