<svg width="33" height="21" viewBox="0 0 33 21" fill="none" xmlns="http://www.w3.org/2000/svg">
<path d="M6.70703 11.6149C6.70703 11.8805 6.83985 12.0133 7.10545 12.0133C7.57023 12.0133 7.83584 11.6149 7.90223 11.0173C7.76944 11.0173 7.76942 11.0173 7.63662 11.0173C7.03904 11.0173 6.70703 11.2165 6.70703 11.6149Z" fill="#EBF0FF"/>
<path d="M23.7051 11.6149C23.7051 11.8805 23.8379 12.0133 24.1035 12.0133C24.5682 12.0133 24.8338 11.6149 24.9002 11.0173C24.7674 11.0173 24.7674 11.0173 24.6346 11.0173C23.9706 11.0173 23.7051 11.2165 23.7051 11.6149Z" fill="#EBF0FF"/>
<path d="M15.6034 9.62292C15.2714 9.62292 15.0059 9.8885 14.9395 10.3533H16.1346C16.1346 10.2205 16.2674 9.62292 15.6034 9.62292Z" fill="#EBF0FF"/>
<path d="M30.0116 9.75568C29.5468 9.75568 29.1484 10.3532 29.1484 11.15C29.1484 11.6812 29.3476 11.9468 29.6796 11.9468C30.2108 11.9468 30.5428 11.3492 30.5428 10.5525C30.6092 10.0213 30.41 9.75568 30.0116 9.75568Z" fill="#EBF0FF"/>
<path d="M23.1066 0.327148C20.5835 0.327148 18.2595 1.25672 16.4668 2.85028C14.7404 1.25672 12.4165 0.327148 9.89337 0.327148C4.44871 0.327148 0 4.77586 0 10.2205C0 15.6652 4.44871 20.1139 9.89337 20.1139C12.4165 20.1139 14.7404 19.1843 16.4668 17.5907C18.1931 19.1843 20.5171 20.1139 23.1066 20.1139C28.5513 20.1139 33 15.6652 33 10.2205C33 4.77586 28.5513 0.327148 23.1066 0.327148ZM4.18309 12.8765L4.78069 9.02532L3.3863 12.8765H2.65594L2.58955 9.02532L1.92557 12.8765H0.929594L1.79276 7.83016H3.31992L3.3863 10.9509L4.4487 7.83016H6.10866L5.24549 12.8765H4.18309ZM7.76862 12.8765V12.478C7.50302 12.81 7.10463 12.9428 6.63984 12.9428C6.04225 12.9428 5.64386 12.478 5.64386 11.8141C5.64386 10.8181 6.30784 10.2205 7.50301 10.2205C7.63581 10.2205 7.76861 10.2205 7.9678 10.2205C8.0342 10.0877 8.03419 10.0213 8.03419 9.95491C8.03419 9.68932 7.83499 9.55654 7.3702 9.55654C6.83902 9.55654 6.44066 9.68933 6.24146 9.75572C6.24146 9.68933 6.37423 8.82613 6.37423 8.82613C6.90542 8.69333 7.23742 8.62694 7.63581 8.62694C8.56539 8.62694 9.03016 9.02533 9.03016 9.82211C9.03016 10.0213 9.03018 10.2869 8.96378 10.6189C8.89738 11.2165 8.69819 12.478 8.63179 12.81C8.49899 12.8764 7.76862 12.8765 7.76862 12.8765ZM10.9557 10.4197C11.4869 10.6853 11.6861 11.0173 11.6861 11.5485C11.6861 12.4781 11.1549 12.9428 10.0261 12.9428C9.36215 12.9428 9.16299 12.8764 8.8974 12.81C8.8974 12.7436 9.03016 11.8805 9.03016 11.8805C9.36215 12.0133 9.69415 12.0132 10.0261 12.0132C10.4245 12.0132 10.6237 11.8805 10.6237 11.6149C10.6237 11.4157 10.5574 11.3493 10.0926 11.1501C9.49498 10.8845 9.29577 10.5525 9.29577 10.0213C9.29577 9.29091 9.69418 8.62694 10.8893 8.62694C11.1549 8.62694 11.5533 8.69333 11.8189 8.69333L11.6861 9.62292C11.4205 9.55652 11.1549 9.55654 10.8893 9.55654C10.5574 9.55654 10.3581 9.68933 10.3581 9.88853C10.4245 10.1541 10.4909 10.2205 10.9557 10.4197ZM13.2797 11.9469C13.4125 11.9469 13.4789 11.9469 13.5453 11.8805L13.4125 12.81C13.1469 12.8764 12.8813 12.9428 12.6157 12.9428C12.0845 12.9428 11.7525 12.6108 11.7525 12.0132C11.7525 11.8141 11.8189 11.3493 11.8853 10.9509C11.9517 10.5525 12.3501 8.16215 12.3501 8.16215H13.4125L13.2797 8.75975H13.8109L13.678 9.75572H13.1469C13.0141 10.5525 12.8149 11.4821 12.8149 11.6149C12.9477 11.8141 13.0805 11.9469 13.2797 11.9469ZM15.8028 12.0132C16.2012 12.0132 16.5332 11.9469 16.9316 11.7477L16.7324 12.7437C16.334 12.8764 16.002 12.8765 15.6036 12.8765C14.4084 12.8765 13.8109 12.2789 13.8109 11.0837C13.8109 9.68933 14.6076 8.62694 15.67 8.62694C16.5332 8.62694 17.1308 9.22454 17.1308 10.0877C17.1308 10.4197 17.0644 10.6853 16.998 11.0837H14.8733C14.8069 11.7477 15.2052 12.0132 15.8028 12.0132ZM18.1932 12.8765H17.1308L17.1972 12.6108C17.3964 11.3493 17.5956 10.0877 17.7284 8.82613H18.7243C18.7243 9.02533 18.6579 9.22454 18.6579 9.42373C18.9899 8.95894 19.2555 8.69335 19.7203 8.75975C19.5875 8.95894 19.3883 9.42373 19.3219 9.95491C18.6579 9.88851 18.5916 10.3533 18.1932 12.8765ZM22.3098 12.81C21.9114 12.9428 21.6459 12.9428 21.3803 12.9428C20.2515 12.9428 19.5211 12.0797 19.5211 10.7517C19.5211 8.95894 20.5171 7.69735 21.9778 7.69735C22.4426 7.69735 22.9739 7.89656 23.173 7.96296L22.9738 9.02532C22.5754 8.82612 22.3099 8.75975 22.0443 8.75975C21.2475 8.75975 20.6499 9.55652 20.6499 10.6189C20.6499 11.3493 21.0483 11.8141 21.6459 11.8141C21.9114 11.8141 22.1771 11.7477 22.5754 11.5485L22.3098 12.81ZM25.6298 12.8765C25.497 12.8765 24.7666 12.8765 24.7666 12.8765V12.478C24.501 12.81 24.1026 12.9428 23.6378 12.9428C23.0402 12.9428 22.6418 12.478 22.6418 11.8141C22.6418 10.8181 23.3058 10.2205 24.501 10.2205C24.6338 10.2205 24.7666 10.2205 24.9658 10.2205C25.0322 10.0877 25.0322 10.0213 25.0322 9.95491C25.0322 9.68932 24.833 9.55654 24.3682 9.55654C23.837 9.55654 23.4386 9.68933 23.2394 9.75572C23.2394 9.68933 23.3722 8.82613 23.3722 8.82613C23.9034 8.69333 24.2354 8.62694 24.6338 8.62694C25.5634 8.62694 26.0282 9.02533 26.0282 9.82211C26.0282 10.0213 26.0281 10.2869 25.9617 10.6189C25.829 11.2829 25.6298 12.5445 25.6298 12.8765ZM27.0905 12.8765H26.0282L26.0946 12.6108C26.2937 11.3493 26.4929 10.0877 26.6257 8.82613H27.6217C27.6217 9.02533 27.5553 9.22454 27.5553 9.42373C27.8873 8.95894 28.1529 8.69335 28.6177 8.75975C28.4849 8.95894 28.2857 9.42373 28.2193 9.95491C27.5553 9.88851 27.4225 10.3533 27.0905 12.8765ZM30.2776 12.8765L30.3441 12.478C30.0785 12.81 29.7465 12.9428 29.3481 12.9428C28.5513 12.9428 28.0201 12.2789 28.0201 11.2165C28.0201 9.88853 28.8169 8.69333 29.7465 8.69333C30.1449 8.69333 30.4768 8.89255 30.7424 9.22455L31.008 7.76377H32.0704L31.2736 12.81H30.2776V12.8765Z" fill="#EBF0FF"/>
</svg>
