<svg width="87" height="44" viewBox="0 0 87 44" fill="none" xmlns="http://www.w3.org/2000/svg">
<path d="M40.4118 12.7004V12.7911C40.3211 12.519 40.3211 12.1562 40.4118 11.7934C40.6839 10.7957 41.6816 10.2514 42.6794 10.5235L49.5728 12.3376C50.5705 12.6097 51.1147 13.6074 50.8426 14.6052C50.7519 14.8773 50.6612 15.1494 50.4798 15.3308C50.4798 15.3308 50.3891 15.5122 50.2077 15.6029C49.21 16.3285 45.6726 18.6868 45.6726 18.6868C45.219 18.9589 44.6748 19.1403 44.1306 18.9589C43.5864 18.7775 43.1329 18.4147 42.9515 17.8705V17.9612L40.5932 12.9725C40.4118 12.6097 40.4118 12.1562 40.5025 11.7027C40.7746 10.705 41.7723 10.1607 42.7701 10.4328L49.6635 12.2469C50.6612 12.519 51.2054 13.5167 50.9333 14.5145C50.8426 14.968 50.5705 15.2401 50.2077 15.5122" fill="#F8BA00"/>
<path d="M86.0363 31.3853L76.4218 18.5055C74.6985 16.0565 72.1588 14.2425 69.2563 13.4261C68.3493 13.154 67.3515 13.0633 66.3538 12.9726C65.3561 11.4307 63.9048 10.2515 62 9.70731L33.3379 2.08827C31.3425 1.54405 29.347 1.90686 27.7143 2.81389C26.7166 2.17897 25.5375 1.72545 24.3583 1.36264C21.4558 0.546315 18.3719 0.909127 15.6508 2.17897L0.956963 8.52817C0.140636 8.89099 -0.222175 9.79802 0.140637 10.6143C0.322043 11.0679 0.775557 11.4307 1.22907 11.5214C1.59188 11.6121 1.9547 11.6121 2.31751 11.4307L17.0114 5.08146C19.0976 4.08373 21.3651 3.90232 23.542 4.44654C24.0862 4.62795 24.7211 4.80935 25.2654 5.08146C24.8118 5.80709 24.5397 6.53271 24.2676 7.34904L19.0068 27.0316C17.9184 30.9318 20.2767 35.0134 24.2676 36.1019L52.9298 43.7209C56.83 44.8094 60.9116 42.4511 62 38.4601L67.2608 18.7776C67.4422 17.9613 67.5329 17.145 67.5329 16.3286C67.805 16.4193 68.1678 16.4193 68.44 16.51C70.6168 17.0543 72.5216 18.4148 73.7914 20.3196L83.4059 33.1994C83.5874 33.4715 83.9502 33.7436 84.313 33.8343C84.7665 33.925 85.3107 33.8343 85.6735 33.5622C86.3991 33.1087 86.5806 32.1109 86.0363 31.3853ZM61.1837 12.8819C61.7279 13.0633 62.2722 13.3354 62.7257 13.6982L45.9456 21.0452C45.8549 21.0452 45.8549 21.1359 45.7642 21.1359C45.0386 21.4987 44.2223 21.5894 43.4967 21.3173C42.6803 21.1359 42.0454 20.5917 41.5919 19.9567C41.5919 19.9567 41.5919 19.866 41.5012 19.866L30.6168 5.17217C31.2518 5.08146 31.8867 5.08146 32.5216 5.26287L61.1837 12.8819ZM58.8254 37.7345C58.1905 39.9114 55.923 41.2719 53.7461 40.637L25.0839 32.9273C22.9071 32.2923 21.5465 30.0248 22.1815 27.8479L27.4422 8.16536C27.5329 7.71185 27.7143 7.34904 27.8957 6.98622L38.8708 21.7708C39.7778 23.1313 41.0477 24.0384 42.6803 24.4919C44.2223 24.9454 45.9456 24.764 47.3969 24.0384L64.2676 16.6007C64.2676 17.0543 64.2676 17.5078 64.1769 18.052L58.8254 37.7345Z" fill="#1A59A3"/>
<path d="M15.6513 9.79821L5.8554 14.0613C5.03907 14.4241 4.67626 15.3311 5.03907 16.1474C5.22048 16.6009 5.67399 16.9637 6.12751 17.0544C6.49032 17.1452 6.85313 17.1452 7.21594 16.9637L16.9212 12.7914C17.7375 12.4286 18.1003 11.5216 17.7375 10.7052C17.4654 9.79821 16.4676 9.4354 15.6513 9.79821Z" fill="#1A59A3"/>
<path d="M13.2017 18.3242L10.662 19.4127C9.84571 19.7755 9.4829 20.6825 9.84571 21.4988C10.0271 21.9523 10.4806 22.3152 10.9342 22.4059C11.297 22.4966 11.6598 22.4966 12.0226 22.3152L14.5623 21.2267C15.3786 20.8639 15.7414 19.9569 15.3786 19.1406C14.9251 18.3242 14.0181 17.9614 13.2017 18.3242Z" fill="#1A59A3"/>
<path d="M72.521 25.2173L78.8703 33.8341C79.4145 34.5597 79.2331 35.5575 78.5074 36.1017C78.0539 36.3738 77.6004 36.4645 77.1469 36.3738C76.7841 36.2831 76.512 36.1017 76.2399 35.7389L69.8907 27.1221C69.3464 26.3965 69.5278 25.3987 70.2535 24.8545C70.9791 24.3103 71.9768 24.4917 72.521 25.2173Z" fill="#1A59A3"/>
<path d="M70.3453 33.925L71.9779 36.1019C72.5221 36.8275 72.3407 37.8253 71.6151 38.3695C71.1616 38.6416 70.7081 38.7323 70.2546 38.6416C69.8917 38.5509 69.6196 38.3695 69.3475 38.0067L67.7149 35.8298C67.1707 35.1042 67.3521 34.1064 68.0777 33.5622C68.8033 33.1087 69.8917 33.2901 70.3453 33.925Z" fill="#1A59A3"/>
</svg>
