<svg width="40" height="40" viewBox="0 0 40 40" fill="none" xmlns="http://www.w3.org/2000/svg">
<path d="M17.8391 7.33522C18.4739 5.18034 21.5261 5.18034 22.1609 7.33522V7.33522C22.6083 8.85385 24.4414 9.44944 25.6959 8.4838V8.4838C27.4761 7.11362 29.9454 8.90768 29.1924 11.0241V11.0241C28.6617 12.5157 29.7946 14.075 31.3772 14.0312V14.0312C33.6227 13.969 34.5659 16.8719 32.7127 18.1415V18.1415C31.4066 19.0363 31.4066 20.9637 32.7127 21.8585V21.8585C34.5659 23.1281 33.6227 26.031 31.3772 25.9688V25.9688C29.7946 25.925 28.6617 27.4843 29.1924 28.9759V28.9759C29.9454 31.0923 27.4761 32.8864 25.6959 31.5162V31.5162C24.4414 30.5506 22.6083 31.1461 22.1609 32.6648V32.6648C21.5261 34.8197 18.4739 34.8197 17.8391 32.6648V32.6648C17.3917 31.1461 15.5586 30.5506 14.3041 31.5162V31.5162C12.5239 32.8864 10.0546 31.0923 10.8076 28.9759V28.9759C11.3383 27.4843 10.2054 25.925 8.62284 25.9688V25.9688C6.37727 26.031 5.43407 23.1281 7.28731 21.8585V21.8585C8.59337 20.9637 8.59337 19.0363 7.28731 18.1415V18.1415C5.43407 16.8719 6.37727 13.969 8.62284 14.0312V14.0312C10.2054 14.075 11.3383 12.5157 10.8076 11.0241V11.0241C10.0546 8.90768 12.5239 7.11362 14.3041 8.4838V8.4838C15.5586 9.44944 17.3917 8.85385 17.8391 7.33522V7.33522Z" stroke="#1062AA" stroke-width="2"/>
<path d="M15.7485 20.9302C14.9376 20.9302 14.2742 20.6639 13.7582 20.1313C13.2527 19.5885 13 18.8664 13 17.9651C13 17.0638 13.2527 16.3468 13.7582 15.8142C14.2742 15.2714 14.9376 15 15.7485 15C16.5593 15 17.2175 15.2714 17.723 15.8142C18.2284 16.3468 18.4812 17.0638 18.4812 17.9651C18.4812 18.8664 18.2284 19.5885 17.723 20.1313C17.2175 20.6639 16.5593 20.9302 15.7485 20.9302ZM22.3354 15.1229H24.2151L16.6646 25.8771H14.7849L22.3354 15.1229ZM15.7485 19.6704C16.1065 19.6704 16.3856 19.527 16.5857 19.2402C16.7963 18.9534 16.9016 18.5284 16.9016 17.9651C16.9016 17.4018 16.7963 16.9767 16.5857 16.6899C16.3856 16.4032 16.1065 16.2598 15.7485 16.2598C15.401 16.2598 15.1219 16.4083 14.9113 16.7053C14.7007 16.9921 14.5954 17.412 14.5954 17.9651C14.5954 18.5182 14.7007 18.9432 14.9113 19.2402C15.1219 19.527 15.401 19.6704 15.7485 19.6704ZM23.2515 26C22.725 26 22.2511 25.8822 21.8299 25.6466C21.4192 25.4008 21.098 25.0526 20.8663 24.602C20.6347 24.1513 20.5188 23.629 20.5188 23.0349C20.5188 22.4409 20.6347 21.9185 20.8663 21.4679C21.098 21.0172 21.4192 20.6741 21.8299 20.4385C22.2511 20.1927 22.725 20.0698 23.2515 20.0698C24.0624 20.0698 24.7205 20.3412 25.226 20.8841C25.742 21.4167 26 22.1336 26 23.0349C26 23.9362 25.742 24.6583 25.226 25.2011C24.7205 25.7337 24.0624 26 23.2515 26ZM23.2515 24.7402C23.6096 24.7402 23.8886 24.5968 24.0887 24.3101C24.2993 24.013 24.4046 23.588 24.4046 23.0349C24.4046 22.4818 24.2993 22.0619 24.0887 21.7751C23.8886 21.4781 23.6096 21.3296 23.2515 21.3296C22.904 21.3296 22.6249 21.473 22.4143 21.7598C22.2037 22.0466 22.0984 22.4716 22.0984 23.0349C22.0984 23.5982 22.2037 24.0233 22.4143 24.3101C22.6249 24.5968 22.904 24.7402 23.2515 24.7402Z" fill="#1062AA"/>
</svg>
