<svg width="26" height="27" viewBox="0 0 26 27" fill="none" xmlns="http://www.w3.org/2000/svg">
<rect x="1" y="7.75" width="23.3125" height="4.75" stroke="#1062AA" stroke-width="2"/>
<rect x="3.53125" y="12.8125" width="18.25" height="13.1875" stroke="#1062AA" stroke-width="2"/>
<rect x="10.2812" y="7.75" width="4.75" height="18.25" fill="#EBF0FF" stroke="#1062AA" stroke-width="2"/>
<path d="M12.1095 6.00719C11.9984 6.29891 11.6225 6.656 10.7517 6.8003C9.90894 6.93995 8.78858 6.83251 7.61785 6.38668C6.44712 5.94086 5.53908 5.27587 5.0027 4.61103C4.44847 3.92408 4.4053 3.40739 4.51639 3.11567C4.62748 2.82395 5.0034 2.46686 5.87418 2.32256C6.71691 2.18291 7.83727 2.29034 9.008 2.73617C10.1787 3.18199 11.0868 3.84699 11.6231 4.51182C12.1774 5.19878 12.2206 5.71546 12.1095 6.00719Z" stroke="#1062AA" stroke-width="2"/>
<path d="M12.955 6.00719C13.0661 6.29891 13.442 6.656 14.3128 6.8003C15.1555 6.93995 16.2759 6.83251 17.4466 6.38668C18.6173 5.94086 19.5254 5.27587 20.0618 4.61103C20.616 3.92408 20.6592 3.40739 20.5481 3.11567C20.437 2.82395 20.0611 2.46686 19.1903 2.32256C18.3475 2.18291 17.2272 2.29034 16.0565 2.73617C14.8857 3.18199 13.9777 3.84699 13.4413 4.51182C12.8871 5.19878 12.8439 5.71546 12.955 6.00719Z" stroke="#1062AA" stroke-width="2"/>
</svg>
