<svg width="30" height="30" viewBox="0 0 30 30" fill="none" xmlns="http://www.w3.org/2000/svg">
<path d="M14.9395 21.061C18.2532 21.061 20.9395 18.3747 20.9395 15.061C20.9395 11.7473 18.2532 9.06104 14.9395 9.06104C11.6257 9.06104 8.93945 11.7473 8.93945 15.061C8.93945 18.3747 11.6257 21.061 14.9395 21.061Z" stroke="#1062AA" stroke-width="2" stroke-miterlimit="10" stroke-linecap="round" stroke-linejoin="round"/>
<path d="M13.2348 1.06087C12.9304 1.06087 12.687 1.30435 12.6261 1.54783L12.0174 5.2C11.287 5.38261 10.6174 5.68696 10.0087 6.05217L7.02609 3.92174C6.78261 3.73913 6.47826 3.73913 6.23478 3.98261L3.86087 6.29565C3.67826 6.53913 3.61739 6.84348 3.8 7.08696L5.93043 10.0696C5.56522 10.7391 5.32174 11.4087 5.07826 12.1391L1.48696 12.7478C1.18261 12.8087 1 13.0522 1 13.3565V16.7043C1 17.0087 1.18261 17.2522 1.48696 17.313L5.07826 17.9826C5.26087 18.713 5.56522 19.3826 5.93043 20.0522L3.8 22.9739C3.61739 23.2174 3.67826 23.5217 3.86087 23.7652L6.23478 26.1391C6.41739 26.3217 6.78261 26.3826 7.02609 26.2L10.0696 24.0696C10.7391 24.4348 11.4087 24.6783 12.0783 24.9217L12.687 28.5739C12.7478 28.8783 12.9913 29.0609 13.2957 29.0609H16.6435C16.9478 29.0609 17.1913 28.8783 17.2522 28.5739L17.9217 24.9217C18.6522 24.7391 19.3217 24.4348 19.9304 24.0696L22.9739 26.2C23.2174 26.3826 23.5217 26.3217 23.7652 26.1391L26.1391 23.7652C26.3217 23.5826 26.3826 23.2174 26.2 22.9739L24.0087 19.9913C24.3739 19.3826 24.6174 18.713 24.8609 17.9826L28.513 17.313C28.8174 17.2522 29 17.0087 29 16.7043V13.3565C29 13.0522 28.7565 12.8087 28.513 12.7478L24.8609 12.1391C24.6783 11.4087 24.3739 10.7391 24.0087 10.1304L26.1391 7.08696C26.3217 6.84348 26.2609 6.53913 26.0783 6.29565L23.7043 3.92174C23.5217 3.73913 23.1565 3.67826 22.913 3.86087L19.9304 5.9913C19.3217 5.62609 18.5913 5.38261 17.9217 5.13913L17.313 1.48696C17.2522 1.18261 17.0087 1 16.7043 1H13.2348V1.06087ZM13.7826 2.27826H16.0957L16.7043 5.74783C16.7652 5.9913 16.9478 6.17391 17.1304 6.23478C18.0435 6.47826 18.8348 6.78261 19.6261 7.26957C19.8087 7.3913 20.113 7.3913 20.2957 7.26957L23.1565 5.2L24.8 6.84348L22.7913 9.70435C22.6696 9.88696 22.6696 10.1913 22.7913 10.3739C23.2783 11.1652 23.5826 11.9565 23.8261 12.8696C23.887 13.113 24.0696 13.2957 24.313 13.2957L27.7826 13.8435V16.1565L24.313 16.7652C24.0696 16.8261 23.887 17.0087 23.8261 17.1913C23.5826 18.1043 23.2783 18.8957 22.7913 19.687C22.6696 19.8696 22.6696 20.1739 22.7913 20.3565L24.8609 23.2174L23.2174 24.8609L20.3565 22.8522C20.1739 22.7304 19.8696 22.7304 19.687 22.8522C18.9565 23.3391 18.1043 23.6435 17.1913 23.887C16.9478 23.9478 16.7652 24.1304 16.7652 24.3739L16.1565 27.8435H13.8435L13.2957 24.3739C13.2348 24.1304 13.0522 23.9478 12.8696 23.887C11.9565 23.6435 11.1652 23.3391 10.3739 22.8522C10.1913 22.7304 9.88696 22.7304 9.70435 22.8522L6.84348 24.8609L5.2 23.2174L7.2087 20.4174C7.33043 20.2348 7.33043 19.9304 7.2087 19.7478C6.72174 18.9565 6.41739 18.1652 6.17391 17.2522C6.11304 17.0087 5.93043 16.8261 5.68696 16.8261L2.27826 16.2174V13.9043L5.68696 13.3565C5.93043 13.2957 6.11304 13.113 6.17391 12.9304C6.41739 12.0174 6.72174 11.1652 7.2087 10.4348C7.33043 10.2522 7.33043 9.94783 7.2087 9.76522L5.07826 6.84348L6.72174 5.2L9.58261 7.2087C9.76522 7.33044 10.0696 7.33044 10.2522 7.2087C11.0435 6.72174 11.8348 6.41739 12.7478 6.17391C12.9913 6.11304 13.1739 5.93044 13.1739 5.68696L13.7826 2.27826Z" fill="#1062AA" stroke="#1062AA" stroke-width="0.5"/>
</svg>
