<svg width="21" height="20" viewBox="0 0 21 20" fill="none" xmlns="http://www.w3.org/2000/svg">
<path d="M11.7296 2.2556L12.6975 5.27932C13.0952 6.52173 14.2502 7.36475 15.5547 7.36475H18.7497C19.7148 7.36475 20.12 8.59672 19.3433 9.16955L16.7072 11.1136C15.6714 11.8775 15.2383 13.2169 15.6306 14.4426L16.6253 17.5501C16.9211 18.4741 15.8601 19.2356 15.0794 18.6598L12.5578 16.8002C11.4992 16.0194 10.0553 16.0194 8.99661 16.8002L6.47508 18.6598C5.69432 19.2356 4.6334 18.4741 4.92915 17.5501L5.92383 14.4426C6.31618 13.2169 5.88302 11.8775 4.84726 11.1136L2.2112 9.16955C1.43449 8.59673 1.83965 7.36475 2.80474 7.36475H5.99976C7.30427 7.36475 8.45926 6.52173 8.85695 5.27932L9.82483 2.2556C10.1215 1.32874 11.4329 1.32874 11.7296 2.2556Z" stroke="#1062AA" stroke-width="2"/>
</svg>
