<svg width="35" height="35" viewBox="0 0 35 35" fill="none" xmlns="http://www.w3.org/2000/svg">
<path d="M16.2929 23.588C16.6834 23.9785 17.3166 23.9785 17.7071 23.588L24.0711 17.224C24.4616 16.8335 24.4616 16.2003 24.0711 15.8098C23.6805 15.4193 23.0474 15.4193 22.6569 15.8098L17 21.4666L11.3431 15.8098C10.9526 15.4193 10.3195 15.4193 9.92893 15.8098C9.53841 16.2003 9.53841 16.8335 9.92893 17.224L16.2929 23.588ZM16 11.8809L16 22.8809L18 22.8809L18 11.8809L16 11.8809Z" fill="#1062AA"/>
<path d="M15.5087 31.6127L15.5047 31.6156L12.7797 33.6176L12.7781 33.6188C12.0917 34.1253 11.1077 33.7404 10.9313 32.9768L10.9309 32.975L10.1736 29.724C10.1733 29.7228 10.173 29.7216 10.1727 29.7204C9.86073 28.347 8.64236 27.3807 7.26765 27.2841L7.25742 27.2834L7.24717 27.2829L3.84243 27.1137C3.05323 27.0556 2.55881 26.1758 2.94031 25.461L2.94036 25.461L2.94537 25.4514L4.49436 22.4714C4.49497 22.4702 4.49557 22.4691 4.49618 22.4679C5.1521 21.2234 4.90095 19.7092 3.83538 18.7538L1.35902 16.453L1.35706 16.4512C0.771241 15.9098 0.920548 14.9188 1.7186 14.5796L4.85258 13.2921L4.85259 13.2921L4.85685 13.2904C6.16237 12.747 6.92908 11.4454 6.77746 10.0532L6.77662 10.0456L6.77568 10.038L6.36257 6.71904C6.275 5.91442 7.03618 5.2576 7.86464 5.51692L7.86462 5.51695L7.87294 5.51947L11.1153 6.50353L11.1153 6.50359L11.1259 6.50668C12.4485 6.8922 13.9181 6.42087 14.6934 5.20909L16.5486 2.40385C16.549 2.40325 16.5494 2.40265 16.5498 2.40206C17.0249 1.69428 18.0716 1.7246 18.4976 2.3882L18.5003 2.3924L20.326 5.20501C21.1006 6.41982 22.572 6.89263 23.8961 6.50668L23.8961 6.50671L23.9039 6.50437L27.1782 5.52108C27.1786 5.52097 27.1789 5.52085 27.1793 5.52074C28.0002 5.27745 28.7663 5.96343 28.6616 6.7357L28.6615 6.73569L28.6602 6.74649L28.2474 10.0628C28.0457 11.4883 28.8757 12.8203 30.1627 13.3572C30.1635 13.3576 30.1643 13.3579 30.1651 13.3582L33.2997 14.6798C34.0712 15.0051 34.2388 15.9862 33.6341 16.5496L31.1263 18.8139C31.1253 18.8148 31.1244 18.8156 31.1234 18.8164C30.0529 19.7715 29.7997 21.289 30.4568 22.5359C30.4574 22.537 30.458 22.5381 30.4586 22.5392L32.0026 25.5095C32.3628 26.2484 31.8537 27.1106 31.0231 27.1469L31.0231 27.1469L31.0171 27.1471L27.6023 27.3168L27.5921 27.3173L27.5819 27.318C26.2089 27.4145 24.9919 28.3784 24.678 29.749L23.8864 32.9992L23.8863 32.9992L23.8837 33.0107C23.7074 33.7736 22.7252 34.1585 22.0389 33.6542C22.0382 33.6537 22.0376 33.6532 22.0369 33.6527L19.3234 31.6254C19.3222 31.6245 19.321 31.6236 19.3199 31.6227C18.196 30.7708 16.6434 30.7876 15.5087 31.6127Z" stroke="#1062AA" stroke-width="2"/>
</svg>
