<svg width="40" height="44" viewBox="0 0 40 44" fill="none" xmlns="http://www.w3.org/2000/svg">
<path d="M10.8065 0.989865L11.1925 1.20986C10.088 0.514525 8.81736 0.127917 7.51278 0.090267C6.2082 0.0526167 4.91737 0.3653 3.77464 0.995776C2.6319 1.62625 1.67903 2.55147 1.01518 3.67515C0.351332 4.79883 0.00077908 6.07989 3.45979e-06 7.38502V36.1613C-0.000811596 37.4016 0.314319 38.6217 0.915676 39.7064C1.51703 40.7912 2.38479 41.705 3.43712 42.3615C4.48945 43.0179 5.69166 43.3956 6.93036 43.4587C8.16907 43.5219 9.40344 43.2685 10.5171 42.7224C11.0074 42.4763 11.4695 42.1773 11.8949 41.8308C15.8239 38.6506 28.7222 27.462 28.7222 27.4659C29.5909 26.7664 30.2879 25.8774 30.7598 24.8669C31.2317 23.8564 31.4661 22.7513 31.4448 21.6362C31.4236 20.5212 31.1474 19.4258 30.6373 18.434C30.1272 17.4422 29.3969 16.5803 28.5022 15.9145L28.7222 16.0843L11.9644 1.76562C10.8968 0.879976 9.59905 0.316729 8.22301 0.141799C6.84696 -0.0331308 5.44956 0.187493 4.19434 0.77785C2.93912 1.36821 1.87802 2.30387 1.13522 3.47534C0.392421 4.64681 -0.00134657 6.00562 3.45979e-06 7.39274V36.1613C7.36285e-05 37.5405 0.390777 38.8916 1.12688 40.058C1.86299 41.2244 2.9144 42.1585 4.15938 42.7521C5.40437 43.3457 6.79203 43.5746 8.1617 43.4123C9.53138 43.2499 10.8271 42.7029 11.8988 41.8347" fill="#EB008B"/>
<path d="M24.3601 37.7782C21.3141 37.7798 18.336 36.8779 15.8026 35.1867C13.2692 33.4956 11.2942 31.0911 10.1275 28.2773C8.96075 25.4636 8.65469 22.3671 9.24801 19.3794C9.84132 16.3917 11.3074 13.6471 13.4607 11.4927C15.614 9.3383 18.3579 7.87089 21.3453 7.27608C24.3327 6.68127 27.4293 6.98577 30.2436 8.15108C33.0579 9.3164 35.4634 11.2902 37.1559 13.8227C38.8483 16.3553 39.7517 19.3329 39.7517 22.3789C39.7466 26.4602 38.1236 30.3729 35.2384 33.2595C32.3533 36.1461 28.4413 37.7711 24.3601 37.7782ZM24.3601 9.83177C21.8774 9.83101 19.4503 10.5666 17.3857 11.9454C15.3211 13.3242 13.7118 15.2844 12.7613 17.5779C11.8109 19.8715 11.562 22.3954 12.0462 24.8304C12.5303 27.2654 13.7258 29.5022 15.4813 31.2577C17.2368 33.0132 19.4736 34.2087 21.9086 34.6928C24.3436 35.177 26.8675 34.9281 29.1611 33.9777C31.4546 33.0272 33.4148 31.4179 34.7936 29.3534C36.1725 27.2888 36.908 24.8616 36.9072 22.3789C36.9042 19.0522 35.5813 15.8625 33.2289 13.5101C30.8765 11.1578 27.6869 9.83484 24.3601 9.83177Z" fill="#1062AA"/>
<path d="M24.361 26.2425C24.1736 26.2427 23.988 26.2056 23.8151 26.1334C23.6422 26.0611 23.4853 25.9552 23.3537 25.8218L18.3982 20.8662C18.131 20.599 17.9809 20.2367 17.9809 19.8589C17.9809 19.4811 18.131 19.1187 18.3982 18.8516C18.6653 18.5844 19.0277 18.4343 19.4055 18.4343C19.7833 18.4343 20.1456 18.5844 20.4128 18.8516L24.2144 22.6531L35.6809 7.54715C35.9092 7.24621 36.2476 7.04828 36.6218 6.99689C36.996 6.9455 37.3753 7.04487 37.6762 7.27313C37.9772 7.50139 38.1751 7.83985 38.2265 8.21405C38.2779 8.58825 38.1785 8.96754 37.9503 9.26848L25.4957 25.679C25.372 25.8403 25.2155 25.9735 25.0366 26.07C24.8576 26.1664 24.6603 26.2239 24.4575 26.2386L24.361 26.2425Z" fill="#1062AA"/>
</svg>
