<svg width="37" height="36" viewBox="0 0 37 36" fill="none" xmlns="http://www.w3.org/2000/svg">
<path fill-rule="evenodd" clip-rule="evenodd" d="M15.647 2.42647C16.545 -0.337459 20.4552 -0.337476 21.3533 2.42646L24.0537 10.7375C24.1876 11.1495 24.5716 11.4285 25.0048 11.4285H33.7435C36.6497 11.4285 37.858 15.1473 35.5069 16.8555L28.4371 21.9921C28.0866 22.2467 27.9399 22.6981 28.0738 23.1101L30.7742 31.4211C31.6723 34.1851 28.5089 36.4834 26.1577 34.7752L19.0879 29.6387C18.7374 29.3841 18.2628 29.3841 17.9123 29.6387L10.8425 34.7752C8.49141 36.4834 5.32796 34.1851 6.22602 31.4211L8.92644 23.1101C9.06032 22.6981 8.91366 22.2467 8.56317 21.9921L1.49337 16.8555C-0.857766 15.1473 0.35055 11.4285 3.25672 11.4285H11.9955C12.4287 11.4285 12.8127 11.1495 12.9465 10.7375L15.647 2.42647ZM19.4512 3.0445C19.1518 2.12319 17.8484 2.12318 17.5491 3.0445L14.8486 11.3555C14.447 12.5916 13.2952 13.4285 11.9955 13.4285H3.25672C2.28801 13.4285 1.88522 14.6681 2.66894 15.2375L9.73874 20.374C10.7902 21.138 11.2302 22.4921 10.8286 23.7281L8.12813 32.0392C7.82878 32.9605 8.88326 33.7266 9.66698 33.1572L16.7368 28.0207C17.7882 27.2568 19.212 27.2568 20.2635 28.0207L27.3333 33.1572C28.117 33.7266 29.1715 32.9605 28.8721 32.0392L26.1717 23.7281C25.7701 22.4921 26.2101 21.138 27.2615 20.374L34.3313 15.2375C35.115 14.6681 34.7123 13.4285 33.7435 13.4285H25.0048C23.7051 13.4285 22.5532 12.5916 22.1516 11.3555L19.4512 3.0445Z" fill="#1062AA"/>
<path d="M15.3076 18.8984L15.8477 13.8809H21.1934V15.3164H17.2285L16.9551 17.6953C17.4154 17.431 17.9349 17.2988 18.5137 17.2988C19.4616 17.2988 20.1976 17.6019 20.7217 18.208C21.2503 18.8141 21.5146 19.6299 21.5146 20.6553C21.5146 21.667 21.223 22.4736 20.6396 23.0752C20.0563 23.6722 19.2565 23.9707 18.2402 23.9707C17.3288 23.9707 16.5723 23.7132 15.9707 23.1982C15.3737 22.6787 15.0501 21.9951 15 21.1475H16.6064C16.6702 21.6305 16.8434 22.002 17.126 22.2617C17.4085 22.5169 17.7777 22.6445 18.2334 22.6445C18.7438 22.6445 19.1403 22.4622 19.4229 22.0977C19.71 21.7331 19.8535 21.2363 19.8535 20.6074C19.8535 20.0013 19.6963 19.5228 19.3818 19.1719C19.0674 18.8164 18.6344 18.6387 18.083 18.6387C17.7822 18.6387 17.527 18.6797 17.3174 18.7617C17.1077 18.8392 16.8799 18.9941 16.6338 19.2266L15.3076 18.8984Z" fill="#1062AA"/>
</svg>
