<svg width="58" height="56" viewBox="0 0 58 56" fill="none" xmlns="http://www.w3.org/2000/svg">
<rect x="-1.5" y="1.5" width="55" height="42" rx="8.5" transform="matrix(-1 0 0 1 55 0)" stroke="#EBF0FF" stroke-width="3"/>
<path d="M41.4121 54.4161H16" stroke="#EBF0FF" stroke-width="3" stroke-linecap="round" stroke-linejoin="round"/>
<path d="M24.0362 33.1014C18.1738 30.6473 15.4471 23.8987 17.9011 18.0362C20.3552 12.1738 27.1038 9.44706 32.9663 11.9011C38.8287 14.3552 41.5555 21.1038 39.1014 26.9663C38.9651 27.2389 38.6924 27.3071 38.4879 27.2389C38.2152 27.1026 38.147 26.8299 38.2152 26.6254C40.4648 21.2401 37.9425 15.105 32.5573 12.8555C27.172 10.6059 21.0368 13.06 18.7873 18.4453C16.5377 23.8305 19.06 29.9657 24.4452 32.2152C24.7179 32.3515 24.7861 32.6242 24.7179 32.8287C24.5816 33.1014 24.3089 33.2377 24.0362 33.1014Z" fill="#1062AA" stroke="#1062AA" stroke-miterlimit="10"/>
<path d="M26.0813 28.3296C22.8774 26.9663 21.3777 23.2852 22.6729 20.0813C23.9681 16.8774 27.7173 15.3777 30.9212 16.6729C34.1251 17.9681 35.6248 21.7173 34.3296 24.9212C33.0344 28.1251 29.2852 29.6248 26.0813 28.3296ZM30.5804 17.5591C27.8537 16.4002 24.7179 17.6954 23.6272 20.4221C22.4684 23.1488 23.7636 26.2846 26.4903 27.3753C29.217 28.466 32.3528 27.2389 33.4434 24.5122C34.5341 21.8536 33.2389 18.7179 30.5804 17.5591Z" fill="#1062AA" stroke="#1062AA" stroke-miterlimit="10"/>
<path d="M35.0113 28.7387C33.4435 28.057 32.6936 26.2846 33.3753 24.7167L34.2615 25.0576C33.7843 26.1483 34.3297 27.3753 35.4204 27.8525C36.511 28.3296 37.7381 27.7161 38.2834 26.4891L39.1696 26.8299C38.4198 28.6023 36.6474 29.4203 35.0113 28.7387Z" fill="#1062AA" stroke="#1062AA" stroke-miterlimit="10"/>
</svg>
