<svg width="89" height="100" viewBox="0 0 89 100" fill="none" xmlns="http://www.w3.org/2000/svg">
<path d="M82.2714 22.9968L82.2754 22.9889L82.2789 22.9806C83.5366 19.9617 82.1262 16.4528 79.0557 15.2015C75.9922 13.953 72.4643 15.3821 71.2048 18.4051C69.9473 21.4233 71.3863 24.9279 74.4206 26.1812C74.6475 26.2872 74.9643 26.1972 75.0511 25.9238C75.1603 25.6733 75.0277 25.3988 74.81 25.2906L74.8024 25.2868L74.7946 25.2835C72.2467 24.226 71.0438 21.3043 72.1071 18.7734C73.1709 16.2411 76.1412 15.0154 78.6891 16.073C81.2349 17.1297 82.4378 20.0473 81.3793 22.5767C81.2578 22.8312 81.3913 23.1148 81.6134 23.2253C81.8688 23.3521 82.1583 23.2217 82.2714 22.9968Z" fill="#81859C" stroke="#81859C" stroke-width="0.5"/>
<path d="M73.6157 19.3959C72.8837 21.1044 73.712 23.0909 75.4237 23.8156C77.1394 24.5419 79.1369 23.7212 79.8666 22.0182C80.5987 20.3097 79.7704 18.3232 78.0586 17.5985C76.343 16.8721 74.3455 17.6928 73.6157 19.3959ZM74.4861 19.7991C75.0206 18.5772 76.436 17.9956 77.6604 18.4983C78.8855 19.0013 79.4701 20.4038 78.965 21.6192C78.4604 22.8336 77.0202 23.4198 75.7925 22.9158C74.5628 22.4109 73.9575 21.0077 74.4861 19.7991Z" fill="#81859C" stroke="#81859C" stroke-width="0.5"/>
<path d="M79.8957 24.0215L79.8957 24.0215L79.8986 24.0227C80.8599 24.398 81.8781 23.912 82.2782 22.9508L82.3758 22.7163L82.1398 22.6224L81.6988 22.4471L81.4731 22.3573L81.3769 22.5804C81.1566 23.0914 80.6735 23.2914 80.2647 23.1218C79.8527 22.9383 79.6622 22.4681 79.8356 22.0801L79.9421 21.8421L79.6998 21.7458L79.2588 21.5704L79.032 21.4802L78.9364 21.7048C78.5594 22.5907 78.9699 23.6466 79.8957 24.0215Z" fill="#81859C" stroke="#81859C" stroke-width="0.5"/>
<rect x="-1.5" y="1.5" width="22" height="22" rx="11" transform="matrix(-1 0 0 1 55 0)" stroke="#EBF0FF" stroke-width="3"/>
<rect x="-1.5" y="1.5" width="22" height="22" rx="11" transform="matrix(-1 0 0 1 86 8)" stroke="#EBF0FF" stroke-width="3"/>
<rect x="-1.5" y="1.5" width="22" height="22" rx="11" transform="matrix(-1 0 0 1 22 8)" stroke="#EBF0FF" stroke-width="3"/>
<path d="M48.559 17.0803C47.1919 17.0803 45.3377 16.0469 43.6669 14.4062C42.6035 13.3128 41.7526 12.1271 41.3266 11.0336C40.8405 9.81785 40.9017 8.8156 41.479 8.2383L42.4211 7.29617C42.816 6.90128 43.5146 6.90128 43.9405 7.29617L45.5812 8.93687C45.7937 9.14934 45.8849 9.3929 45.8849 9.69658C45.8849 9.97021 45.7637 10.2438 45.5812 10.4563L45.0651 10.9725C45.3087 11.3673 45.6424 11.7622 46.0072 12.1571C46.372 12.5219 46.7669 12.8557 47.1919 13.0993L47.708 12.5831C48.1029 12.1882 48.8015 12.1882 49.2275 12.5831L50.8381 14.1937C51.2631 14.6187 51.2631 15.2872 50.8381 15.7132L49.896 16.6553C49.5311 16.9289 49.1062 17.0803 48.559 17.0803Z" fill="white" stroke="#81859C" stroke-width="1.5"/>
<path d="M12.3187 21.1894C13.3535 21.1894 14.1923 20.3505 14.1923 19.3158C14.1923 18.281 13.3535 17.4421 12.3187 17.4421C11.2839 17.4421 10.4451 18.281 10.4451 19.3158C10.4451 20.3505 11.2839 21.1894 12.3187 21.1894Z" fill="#81859C"/>
<path d="M12.3216 27L8.65521 21.6022C8.24719 20.9488 8.02146 20.1982 8.00146 19.4281C7.98145 18.6581 8.16789 17.8967 8.54143 17.2231C8.91497 16.5494 9.46199 15.988 10.1257 15.5971C10.7895 15.2062 11.5457 15 12.316 15C13.0863 15 13.8426 15.2062 14.5063 15.5971C15.1701 15.988 15.7171 16.5494 16.0906 17.2231C16.4642 17.8967 16.6506 18.6581 16.6306 19.4281C16.6106 20.1982 16.3849 20.9488 15.9768 21.6022L12.3216 27Z" stroke="#81859C" stroke-width="1.5" stroke-linecap="round" stroke-linejoin="round"/>
<circle cx="45" cy="31" r="1" fill="#EBF0FF"/>
<circle cx="45" cy="34" r="1" fill="#EBF0FF"/>
<circle cx="45" cy="37" r="1" fill="#EBF0FF"/>
<circle cx="69.2455" cy="34.4083" r="1" transform="rotate(39.7544 69.2455 34.4083)" fill="#EBF0FF"/>
<circle cx="67.327" cy="36.7147" r="1" transform="rotate(39.7544 67.327 36.7147)" fill="#EBF0FF"/>
<circle cx="65.4085" cy="39.0211" r="1" transform="rotate(39.7544 65.4085 39.0211)" fill="#EBF0FF"/>
<circle r="1" transform="matrix(-0.768793 0.639498 0.639498 0.768793 21.4078 34.4083)" fill="#EBF0FF"/>
<circle r="1" transform="matrix(-0.768793 0.639498 0.639498 0.768793 23.3263 36.7147)" fill="#EBF0FF"/>
<circle r="1" transform="matrix(-0.768793 0.639498 0.639498 0.768793 25.2448 39.0211)" fill="#EBF0FF"/>
<rect x="18.5" y="45.5" width="53" height="53" rx="4.5" stroke="#EBF0FF" stroke-width="3"/>
<path d="M52.0643 75.9644H36.9039C36.7339 75.9644 35.3247 75.8917 34.523 74.7765C33.6726 73.5886 34.0371 72.2552 34.3772 71.334C35.9564 67.1157 40.0138 64.3035 44.5327 64.3035C49.0031 64.3035 52.939 66.9702 54.5911 71.1158C55.1013 72.4007 55.0527 73.8795 54.4453 74.7523C53.6192 75.9402 52.2101 75.9644 52.0643 75.9644ZM44.5327 66.049C40.7669 66.049 37.3412 68.4248 36.0293 71.9401C35.6163 73.031 35.762 73.4674 35.9564 73.7583C36.2479 74.1705 36.9282 74.2189 36.9282 74.2189H52.04C52.04 74.2189 52.6717 74.1947 52.9633 73.7583C53.1576 73.4674 53.2791 72.6431 52.939 71.7461C51.5784 68.3036 48.2742 66.049 44.5327 66.049Z" fill="#1062AA"/>
<path d="M44.5331 66.0489C41.2046 66.0489 38.4835 63.3579 38.4835 60.0123C38.4835 56.6668 41.2046 54 44.5331 54C47.8616 54 50.5827 56.691 50.5827 60.0366C50.5827 63.3821 47.8616 66.0489 44.5331 66.0489ZM44.5331 55.7455C42.1764 55.7455 40.2571 57.6607 40.2571 60.0123C40.2571 62.3639 42.1764 64.2791 44.5331 64.2791C46.8898 64.2791 48.8091 62.3639 48.8091 60.0123C48.8091 57.6607 46.8898 55.7455 44.5331 55.7455Z" fill="#1062AA"/>
<path d="M29 90H61.8817" stroke="#81859C" stroke-width="2" stroke-linecap="round" stroke-linejoin="round"/>
<path d="M29 84H61.8817" stroke="#81859C" stroke-width="2" stroke-linecap="round" stroke-linejoin="round"/>
</svg>
