<svg width="36" height="36" viewBox="0 0 36 36" fill="none" xmlns="http://www.w3.org/2000/svg">
<circle cx="18.3106" cy="17.6701" r="17.4181" fill="#00ADEE"/>
<path d="M24.8349 25.6694H11.8102C11.6641 25.6694 10.4535 25.6069 9.76466 24.6488C9.03411 23.6282 9.34721 22.4827 9.63943 21.6912C10.9962 18.0672 14.4819 15.6511 18.3643 15.6511C22.2049 15.6511 25.5863 17.9422 27.0057 21.5038C27.444 22.6077 27.4022 23.8782 26.8804 24.628C26.1707 25.6485 24.9601 25.6694 24.8349 25.6694ZM18.3643 17.1507C15.129 17.1507 12.1859 19.1919 11.0588 22.2119C10.7039 23.1492 10.8292 23.5241 10.9962 23.774C11.2466 24.1281 11.8311 24.1698 11.8311 24.1698H24.814C24.814 24.1698 25.3567 24.1489 25.6072 23.774C25.7742 23.5241 25.8785 22.8159 25.5863 22.0453C24.4174 19.0877 21.5787 17.1507 18.3643 17.1507Z" fill="white" stroke="white" stroke-width="0.5"/>
<path d="M18.3646 17.1508C15.505 17.1508 13.1673 14.8389 13.1673 11.9646C13.1673 9.09039 15.505 6.79932 18.3646 6.79932C21.2242 6.79932 23.562 9.11122 23.562 11.9855C23.562 14.8597 21.2242 17.1508 18.3646 17.1508ZM18.3646 8.29893C16.3399 8.29893 14.691 9.94434 14.691 11.9646C14.691 13.985 16.3399 15.6304 18.3646 15.6304C20.3893 15.6304 22.0382 13.985 22.0382 11.9646C22.0382 9.94434 20.3893 8.29893 18.3646 8.29893Z" fill="white" stroke="white" stroke-width="0.5"/>
</svg>
