<svg width="696" height="289" viewBox="0 0 696 289" fill="none" xmlns="http://www.w3.org/2000/svg">
<path d="M206.674 97.1007C206.674 87.5748 214.397 79.8525 223.923 79.8525C233.449 79.8525 241.171 87.5748 241.171 97.1007V249.853H206.674V97.1007Z" fill="#EBF0FF"/>
<path d="M481.674 97.1007C481.674 87.5748 489.397 79.8525 498.923 79.8525C508.449 79.8525 516.171 87.5748 516.171 97.1007V249.853H481.674V97.1007Z" fill="#EBF0FF"/>
<path d="M260.33 38.1329C260.33 28.607 268.053 20.8848 277.579 20.8848C287.104 20.8848 294.827 28.607 294.827 38.133V249.852H260.33V38.1329Z" fill="#EBF0FF"/>
<path d="M313.986 80.1007C313.986 70.5748 321.708 62.8525 331.234 62.8525C340.76 62.8525 348.483 70.5748 348.483 80.1007V249.853H313.986V80.1007Z" fill="#EBF0FF"/>
<path d="M367.642 119.416C367.642 109.89 375.364 102.168 384.89 102.168C394.416 102.168 402.138 109.89 402.138 119.416V249.852H367.642V119.416Z" fill="#EBF0FF"/>
<path d="M535.33 119.416C535.33 109.89 543.052 102.168 552.578 102.168C562.104 102.168 569.826 109.89 569.826 119.416V249.852H535.33V119.416Z" fill="#EBF0FF"/>
<path d="M154 119.416C154 109.89 161.722 102.168 171.248 102.168C180.774 102.168 188.496 109.89 188.496 119.416V249.852H154V119.416Z" fill="#EBF0FF"/>
<path d="M421.298 38.1329C421.298 28.607 429.02 20.8848 438.546 20.8848C448.072 20.8848 455.794 28.607 455.794 38.133V249.852H421.298V38.1329Z" fill="#EBF0FF"/>
<path d="M140.769 270.638C142.546 271.826 142.546 274.438 140.769 275.626L134.917 279.538C132.924 280.871 130.25 279.442 130.25 277.044L130.25 269.22C130.25 266.822 132.924 265.393 134.917 266.726L140.769 270.638Z" stroke="#F7B916" stroke-width="2" stroke-linecap="round" stroke-linejoin="round"/>
<circle cx="2.85056" cy="86.4453" r="2.6738" fill="#81859C"/>
<circle cx="16.6015" cy="73.5263" r="2.6738" fill="#81859C"/>
<circle cx="26.6688" cy="78.874" r="2.6738" fill="#81859C"/>
<circle cx="39.8" cy="70.4189" r="2.6738" fill="#81859C"/>
<path d="M2.79492 86.735L16.6557 73.4579L26.7229 78.8561L39.7083 70.6855" stroke="#81859C"/>
<circle cx="358.787" cy="8.13147" r="7.35901" fill="#FFE735"/>
<path d="M362.02 9.93066C362.02 10.5627 361.78 11.0987 361.3 11.5387C360.828 11.9787 360.14 12.2347 359.236 12.3067V13.6627H358.468V12.3067C357.884 12.2747 357.328 12.1667 356.8 11.9827C356.28 11.7907 355.864 11.5507 355.552 11.2627L355.996 10.3267C356.284 10.5907 356.648 10.8107 357.088 10.9867C357.528 11.1547 357.988 11.2547 358.468 11.2867V8.50266C357.908 8.36666 357.44 8.21866 357.064 8.05866C356.696 7.89866 356.384 7.66266 356.128 7.35066C355.88 7.03866 355.756 6.63066 355.756 6.12666C355.756 5.49466 355.984 4.95866 356.44 4.51866C356.904 4.07866 357.58 3.82266 358.468 3.75066V2.38266H359.236V3.73866C359.692 3.75466 360.132 3.82666 360.556 3.95466C360.988 4.08266 361.36 4.25466 361.672 4.47066L361.276 5.43066C360.628 5.02266 359.948 4.79866 359.236 4.75866V7.55466C359.82 7.69866 360.3 7.85066 360.676 8.01066C361.052 8.16266 361.368 8.39466 361.624 8.70666C361.888 9.01066 362.02 9.41866 362.02 9.93066ZM356.932 6.07866C356.932 6.42266 357.064 6.69066 357.328 6.88266C357.592 7.07466 357.972 7.23466 358.468 7.36266V4.77066C357.956 4.83466 357.572 4.98666 357.316 5.22666C357.06 5.45866 356.932 5.74266 356.932 6.07866ZM359.236 11.2747C359.772 11.2267 360.172 11.0907 360.436 10.8667C360.708 10.6347 360.844 10.3467 360.844 10.0027C360.844 9.65066 360.704 9.38266 360.424 9.19866C360.152 9.00666 359.756 8.83866 359.236 8.69466V11.2747Z" fill="white"/>
<circle cx="590.5" cy="283.5" r="4.5" stroke="#1062AA" stroke-width="2"/>
<path d="M679.813 66.1455C674.372 63.8677 671.841 57.6037 674.119 52.1623C676.396 46.7208 682.66 44.1899 688.102 46.4677C693.543 48.7456 696.074 55.0095 693.796 60.451C693.67 60.7041 693.417 60.7673 693.227 60.7041C692.974 60.5775 692.911 60.3244 692.974 60.1346C695.062 55.1361 692.721 49.4416 687.722 47.3536C682.724 45.2656 677.029 47.5434 674.941 52.5419C672.853 57.5404 675.194 63.235 680.193 65.323C680.446 65.4495 680.509 65.7026 680.446 65.8924C680.319 66.1455 680.066 66.2721 679.813 66.1455Z" fill="#1062AA" stroke="#1062AA" stroke-miterlimit="10"/>
<path d="M681.711 61.7165C678.738 60.4511 677.346 57.0344 678.548 54.0606C679.75 51.0868 683.23 49.6948 686.204 50.8969C689.177 52.0991 690.569 55.5791 689.367 58.5529C688.165 61.5267 684.685 62.9187 681.711 61.7165ZM685.887 51.7195C683.356 50.6439 680.446 51.846 679.434 54.3769C678.358 56.9078 679.56 59.8184 682.091 60.8307C684.622 61.8431 687.532 60.7042 688.545 58.1733C689.557 55.7057 688.355 52.7951 685.887 51.7195Z" fill="#1062AA" stroke="#1062AA" stroke-miterlimit="10"/>
<path d="M690 62.0961C688.545 61.4634 687.849 59.8183 688.482 58.363L689.304 58.6794C688.861 59.6918 689.367 60.8307 690.38 61.2736C691.392 61.7165 692.531 61.147 693.037 60.0081L693.86 60.3245C693.164 61.9696 691.519 62.7288 690 62.0961Z" fill="#1062AA" stroke="#1062AA" stroke-miterlimit="10"/>
</svg>
