<svg width="56" height="57" viewBox="0 0 56 57" fill="none" xmlns="http://www.w3.org/2000/svg">
<rect x="1.55621" y="2.05957" width="50.3842" height="50.3842" rx="25.1921" stroke="#EBF0FF" stroke-width="3"/>
<path d="M45.0754 45.5791L53.8705 54.3742" stroke="#EBF0FF" stroke-width="3" stroke-linecap="round"/>
<path d="M23.6973 37.981L26.5377 35.1405C26.8804 34.7979 27.4194 34.7502 27.8169 35.0274L31.8234 37.8218C32.334 38.1779 32.3986 38.9089 31.9585 39.3491L31.3653 39.9422C30.6551 40.6525 29.6378 40.9603 28.6798 40.6582C26.4664 39.9602 22.2832 38.2833 18.8269 34.8269C15.3705 31.3706 13.6936 27.1874 12.9956 24.974C12.6935 24.016 13.0013 22.9987 13.7116 22.2885L14.3047 21.6953C14.7449 21.2552 15.4759 21.3198 15.832 21.8304L18.6264 25.8369C18.9036 26.2344 18.8559 26.7734 18.5133 27.1161L15.6728 29.9565" stroke="#1062AA" stroke-width="2" stroke-linecap="round"/>
<path d="M28 21.8667L30 24L32.5 20.5" stroke="#1062AA" stroke-width="2" stroke-miterlimit="10" stroke-linecap="round" stroke-linejoin="round"/>
<circle cx="30" cy="22" r="6" stroke="#81859C" stroke-width="2"/>
</svg>
