<svg width="118" height="27" viewBox="0 0 118 27" fill="none" xmlns="http://www.w3.org/2000/svg">
<path d="M0.0740356 9.60756H10.8647H17.4175V3.07764L0.0740356 9.60756Z" fill="#FF9D28"/>
<path d="M17.4176 3.07755V26.1591L25.6185 0L17.4176 3.07755Z" fill="#68C5ED"/>
<path d="M17.4176 9.60767H10.8647L17.4176 26.1396V9.60767Z" fill="#044D80"/>
<path d="M0.0740356 9.60767L12.5519 13.8492L10.8647 9.60767H0.0740356Z" fill="#E54747"/>
<path d="M39.8228 20.0633C39.7247 20.1619 39.5678 20.2803 39.3519 20.4184C39.1361 20.5565 38.8418 20.7143 38.4887 20.8524C38.1355 20.9905 37.7039 21.1286 37.1742 21.2272C36.6641 21.3258 36.0755 21.385 35.4085 21.385C34.1332 21.385 33.0149 21.168 32.0732 20.7735C31.1314 20.3592 30.3663 19.7871 29.7581 19.0374C29.1499 18.2878 28.6986 17.4197 28.424 16.4136C28.1297 15.4075 27.9923 14.283 27.9923 13.0796C27.9923 11.8762 28.1493 10.7517 28.4632 9.72587C28.7771 8.70002 29.2284 7.81227 29.8562 7.06261C30.4644 6.31295 31.2492 5.72111 32.1713 5.30683C33.0934 4.89254 34.1921 4.67554 35.4477 4.67554C36.0559 4.67554 36.6249 4.73472 37.1153 4.83336C37.6058 4.95173 38.0571 5.07009 38.4298 5.22792C38.8026 5.38574 39.1165 5.54356 39.3519 5.70139C39.607 5.85921 39.7836 6.01703 39.9013 6.11567C40.0386 6.23404 40.176 6.39186 40.2741 6.56941C40.3722 6.74696 40.431 6.94424 40.431 7.14152C40.431 7.45717 40.3133 7.77281 40.0779 8.08846C39.8424 8.4041 39.5874 8.70002 39.2931 8.97621C39.0969 8.77893 38.8811 8.58165 38.6457 8.38437C38.4102 8.1871 38.1355 8.00954 37.8413 7.85172C37.547 7.6939 37.2134 7.57553 36.8407 7.47689C36.4679 7.37825 36.0559 7.31907 35.585 7.31907C34.7806 7.31907 34.094 7.47689 33.5446 7.81227C32.9953 8.14764 32.5636 8.56192 32.2301 9.09458C31.8966 9.62723 31.6612 10.2191 31.5238 10.8898C31.3865 11.5606 31.308 12.251 31.308 12.9612C31.308 13.7109 31.3865 14.4211 31.5238 15.1116C31.6612 15.802 31.9162 16.3939 32.2694 16.9265C32.6225 17.4592 33.0738 17.8735 33.6427 18.1891C34.2117 18.5048 34.8984 18.6626 35.742 18.6626C36.1932 18.6626 36.5856 18.6034 36.9584 18.5048C37.3312 18.3864 37.6647 18.2483 37.9394 18.0905C38.2336 17.9327 38.4691 17.7551 38.6849 17.5973C38.9007 17.4197 39.0773 17.2619 39.2146 17.1435C39.3127 17.2619 39.4108 17.4 39.5481 17.5578C39.6855 17.7157 39.8032 17.8932 39.9013 18.051C40.019 18.2286 40.0975 18.4061 40.1956 18.5837C40.2741 18.7612 40.3133 18.9191 40.3133 19.0571C40.3133 19.2742 40.2741 19.432 40.1956 19.5898C40.1171 19.7279 39.9798 19.8857 39.8228 20.0633ZM52.0653 18.2286C52.0653 19.4912 52.2419 20.4184 52.6146 20.9905C52.3203 21.1088 52.0653 21.1878 51.8102 21.2272C51.5552 21.2667 51.3001 21.3061 51.0255 21.3061C50.4565 21.3061 50.0249 21.1878 49.7306 20.9707C49.4363 20.7537 49.2401 20.4184 49.1616 20.0041C48.8085 20.3789 48.3572 20.6946 47.7687 20.951C47.1997 21.2075 46.4934 21.3258 45.6694 21.3258C45.2378 21.3258 44.8061 21.2667 44.3745 21.1483C43.9429 21.0299 43.5505 20.8327 43.1973 20.5565C42.8442 20.2803 42.5695 19.9252 42.3341 19.4714C42.1183 19.0177 42.0006 18.4653 42.0006 17.8143C42.0006 17.0055 42.1968 16.3347 42.5891 15.8218C42.9815 15.3089 43.472 14.9143 44.0606 14.6184C44.6492 14.3225 45.2966 14.1252 45.9637 14.0068C46.6503 13.8884 47.2782 13.8293 47.8471 13.7898C48.0433 13.7701 48.2199 13.7701 48.4161 13.7701H48.9262V13.3361C48.9262 12.7245 48.7692 12.2905 48.4357 12.0143C48.1022 11.7578 47.5725 11.6197 46.8465 11.6197C46.1599 11.6197 45.5517 11.7381 45.0219 11.9551C44.4922 12.1721 43.9625 12.4286 43.4524 12.7245C43.2366 12.4483 43.0404 12.1524 42.9227 11.817C42.7853 11.4816 42.7265 11.2449 42.7265 11.0871C42.7265 10.8701 42.8442 10.6531 43.0992 10.4361C43.3543 10.2191 43.6878 10.0415 44.1195 9.86396C44.5511 9.68641 45.0416 9.56805 45.6105 9.44968C46.1599 9.35104 46.7484 9.29186 47.3763 9.29186C48.2395 9.29186 48.9654 9.37077 49.554 9.54832C50.1426 9.72587 50.6331 10.0021 51.0058 10.3572C51.3786 10.732 51.6533 11.1857 51.8102 11.7381C51.9672 12.2905 52.0457 12.9415 52.0457 13.6714L52.0653 18.2286ZM49.0047 15.4469H48.6711C48.5534 15.4469 48.4553 15.4469 48.3376 15.4667C47.9452 15.5061 47.5528 15.5456 47.1605 15.6048C46.7681 15.664 46.4149 15.7823 46.1206 15.9401C45.8263 16.098 45.5713 16.315 45.3751 16.5714C45.1789 16.8279 45.0808 17.1633 45.0808 17.5578C45.0808 18.0116 45.1985 18.3864 45.4536 18.702C45.7086 19.0177 46.1402 19.1755 46.7484 19.1755C47.0427 19.1755 47.337 19.1361 47.6117 19.0571C47.8864 18.9782 48.1218 18.8796 48.3376 18.7415C48.5534 18.6034 48.7104 18.4653 48.8281 18.3272C48.9458 18.1694 49.0047 18.0313 49.0047 17.9129V15.4469ZM58.01 10.7123C58.265 10.4163 58.6574 10.1007 59.2067 9.78505C59.7561 9.46941 60.4231 9.31158 61.2472 9.31158C61.8357 9.31158 62.4047 9.41022 62.9344 9.6075C63.4641 9.80478 63.935 10.1402 64.347 10.5742C64.759 11.0279 65.0925 11.6197 65.328 12.3497C65.583 13.0796 65.7007 13.9871 65.7007 15.0721C65.7007 16.315 65.5634 17.3605 65.2691 18.1694C64.9748 18.9782 64.6217 19.6293 64.1704 20.083C63.7192 20.5565 63.2091 20.8918 62.6597 21.0891C62.1104 21.2864 61.5414 21.385 60.9921 21.385C60.5409 21.385 60.1288 21.3258 59.7953 21.2272C59.4618 21.1286 59.1675 21.0102 58.9321 20.8721C58.6966 20.7537 58.5201 20.6156 58.3827 20.4973C58.265 20.3789 58.1669 20.2803 58.1473 20.2408V26.1592H54.8905V9.66669C54.969 9.64696 55.0671 9.62723 55.1848 9.62723C55.2829 9.6075 55.4006 9.6075 55.5183 9.58777C55.6556 9.58777 55.793 9.56805 55.9695 9.56805C56.4993 9.56805 56.9505 9.64696 57.3233 9.82451C57.6764 10.0021 57.9119 10.298 58.01 10.7123ZM62.3262 15.151C62.3262 14.6776 62.287 14.2238 62.2085 13.8095C62.13 13.3953 61.9927 13.0401 61.8161 12.7245C61.6395 12.4286 61.3845 12.1919 61.0706 12.0143C60.7567 11.8368 60.3839 11.7578 59.9327 11.7578C59.2656 11.7578 58.7947 11.8959 58.5397 12.1327C58.2846 12.3891 58.1473 12.6653 58.1473 12.981V18.0905C58.265 18.2286 58.5004 18.3667 58.834 18.5442C59.1675 18.7218 59.5403 18.8007 59.9719 18.8007C60.7763 18.8007 61.3649 18.485 61.7573 17.834C62.13 17.2027 62.3262 16.315 62.3262 15.151ZM68.212 19.2939C68.0943 18.9782 68.0355 18.6429 67.9962 18.2878C67.957 17.9327 67.957 17.5776 67.957 17.2225V6.07621C68.0747 6.05649 68.1924 6.03676 68.3101 6.03676C68.4278 6.01703 68.5456 6.01703 68.6633 5.9973C68.781 5.9973 68.9183 5.97758 69.036 5.97758C69.2911 5.97758 69.5461 5.9973 69.8012 6.05649C70.0562 6.09594 70.2917 6.19458 70.4879 6.35241C70.7037 6.4905 70.8606 6.68778 70.998 6.94424C71.1157 7.2007 71.1942 7.51635 71.1942 7.91091V9.62723H74.5491V12.0538H71.2138V17.183C71.2138 18.3075 71.665 18.8599 72.5675 18.8599C72.7833 18.8599 72.9992 18.8204 73.1953 18.7612C73.3915 18.6823 73.5681 18.6034 73.7251 18.5245C73.882 18.4456 74.0194 18.3469 74.1371 18.2483C74.2548 18.1497 74.3333 18.0708 74.3921 18.0313C74.6276 18.3864 74.8237 18.6823 74.9415 18.9388C75.0592 19.1952 75.1377 19.432 75.1377 19.6687C75.1377 19.8857 75.0592 20.083 74.8826 20.2803C74.706 20.4776 74.4706 20.6748 74.1763 20.8327C73.882 21.0102 73.5093 21.1483 73.0776 21.2469C72.646 21.3456 72.1751 21.4048 71.665 21.4048C70.6841 21.4048 69.8993 21.2075 69.3499 20.8327C68.8398 20.4184 68.4475 19.9252 68.212 19.2939ZM82.7892 18.9782C83.1816 18.9782 83.5347 18.9388 83.8487 18.8401C84.1429 18.7612 84.4176 18.6429 84.6727 18.5245C84.9081 18.4061 85.1239 18.2483 85.3005 18.1102C85.4771 17.9524 85.634 17.8143 85.7714 17.6959C85.9675 17.9327 86.1637 18.2483 86.3795 18.6231C86.5954 18.998 86.6935 19.3136 86.6935 19.5503C86.6935 19.9054 86.4973 20.2211 86.1049 20.517C85.7714 20.7735 85.3005 20.9905 84.6727 21.1878C84.0645 21.3653 83.3386 21.4639 82.5145 21.4639C81.769 21.4639 81.0235 21.3653 80.2975 21.168C79.5716 20.9707 78.9242 20.6354 78.3552 20.1619C77.7863 19.6884 77.335 19.0374 76.9819 18.2286C76.6287 17.4197 76.4522 16.3939 76.4522 15.1708C76.4522 14.1646 76.6091 13.2966 76.923 12.5667C77.2369 11.8368 77.6489 11.2252 78.159 10.7517C78.6691 10.2782 79.2577 9.92315 79.9248 9.68641C80.5722 9.46941 81.2393 9.35104 81.926 9.35104C82.8088 9.35104 83.574 9.48913 84.2018 9.76532C84.8296 10.0415 85.3201 10.4163 85.7125 10.8898C86.1049 11.3633 86.3796 11.8959 86.5561 12.5075C86.7327 13.1191 86.8112 13.7504 86.8112 14.4211V14.7565C86.8112 14.8946 86.8112 15.0129 86.7916 15.1708C86.7916 15.3089 86.7719 15.4469 86.7719 15.585C86.7719 15.7231 86.7523 15.8218 86.7327 15.9007H79.6894C79.7482 16.7884 80.0229 17.5184 80.5134 18.1102C80.9842 18.6823 81.7494 18.9782 82.7892 18.9782ZM83.8879 14.1055C83.8879 13.3361 83.7309 12.7048 83.4366 12.2313C83.1424 11.7578 82.6126 11.5014 81.8475 11.5014C81.1804 11.5014 80.6703 11.7381 80.2779 12.1919C79.8855 12.6456 79.6894 13.2769 79.6894 14.1055H83.8879ZM92.4812 10.7714C92.5793 10.6333 92.697 10.4755 92.8539 10.298C93.0109 10.1204 93.2071 9.9626 93.4425 9.82451C93.6779 9.68641 93.933 9.56805 94.2077 9.46941C94.4823 9.37077 94.7766 9.33131 95.1102 9.33131C95.3064 9.33131 95.5026 9.35104 95.7184 9.37077C95.9342 9.41022 96.1304 9.46941 96.307 9.54832C96.4835 9.62723 96.6405 9.7456 96.7582 9.90342C96.8759 10.0612 96.9348 10.2388 96.9348 10.4558C96.9348 10.8109 96.8563 11.2055 96.6797 11.6592C96.5031 12.1129 96.3266 12.5075 96.15 12.8231C95.8753 12.6061 95.6006 12.4286 95.3456 12.3102C95.0709 12.1919 94.757 12.1327 94.3843 12.1327C93.8938 12.1327 93.4818 12.2708 93.1482 12.5667C92.8147 12.8626 92.6381 13.198 92.6381 13.6123V21.385H89.3813V9.64696C89.4598 9.62723 89.5579 9.6075 89.6756 9.6075C89.7737 9.58777 89.8914 9.58777 90.0091 9.56805C90.1268 9.56805 90.2838 9.54832 90.4604 9.54832C90.9705 9.54832 91.4217 9.64696 91.7945 9.84424C92.1476 10.0612 92.3831 10.3572 92.4812 10.7714ZM101.722 10.7714C101.82 10.6333 101.938 10.4755 102.095 10.298C102.252 10.1204 102.448 9.9626 102.683 9.82451C102.919 9.68641 103.174 9.56805 103.448 9.46941C103.723 9.37077 104.017 9.33131 104.351 9.33131C104.547 9.33131 104.743 9.35104 104.959 9.37077C105.175 9.41022 105.371 9.46941 105.548 9.54832C105.724 9.62723 105.881 9.7456 105.999 9.90342C106.117 10.0612 106.175 10.2388 106.175 10.4558C106.175 10.8109 106.097 11.2055 105.92 11.6592C105.744 12.1129 105.567 12.5075 105.391 12.8231C105.116 12.6061 104.841 12.4286 104.586 12.3102C104.312 12.1919 103.998 12.1327 103.625 12.1327C103.134 12.1327 102.722 12.2708 102.389 12.5667C102.055 12.8626 101.879 13.198 101.879 13.6123V21.385H98.622V9.64696C98.7005 9.62723 98.7986 9.6075 98.9163 9.6075C99.0144 9.58777 99.1321 9.58777 99.2499 9.56805C99.3676 9.56805 99.5245 9.54832 99.7011 9.54832C100.211 9.54832 100.662 9.64696 101.035 9.84424C101.388 10.0612 101.624 10.3572 101.722 10.7714ZM117.241 18.2286C117.241 19.4912 117.417 20.4184 117.79 20.9905C117.496 21.1088 117.241 21.1878 116.986 21.2272C116.731 21.2667 116.476 21.3061 116.201 21.3061C115.632 21.3061 115.2 21.1878 114.906 20.9707C114.612 20.7537 114.416 20.4184 114.337 20.0041C113.984 20.3789 113.533 20.6946 112.944 20.951C112.375 21.2075 111.669 21.3258 110.845 21.3258C110.413 21.3258 109.982 21.2667 109.55 21.1483C109.118 21.0299 108.726 20.8327 108.373 20.5565C108.02 20.2803 107.745 19.9252 107.51 19.4714C107.294 19.0177 107.176 18.4653 107.176 17.8143C107.176 17.0055 107.372 16.3347 107.765 15.8218C108.157 15.3089 108.648 14.9143 109.236 14.6184C109.825 14.3225 110.472 14.1252 111.139 14.0068C111.826 13.8884 112.454 13.8293 113.023 13.7898C113.219 13.7701 113.395 13.7701 113.592 13.7701H114.102V13.3361C114.102 12.7245 113.945 12.2905 113.611 12.0143C113.278 11.7578 112.748 11.6197 112.022 11.6197C111.335 11.6197 110.727 11.7381 110.197 11.9551C109.668 12.1721 109.138 12.4286 108.628 12.7245C108.412 12.4483 108.216 12.1524 108.098 11.817C107.961 11.4816 107.902 11.2449 107.902 11.0871C107.902 10.8701 108.02 10.6531 108.275 10.4361C108.53 10.2191 108.863 10.0415 109.295 9.86396C109.727 9.68641 110.217 9.56805 110.786 9.44968C111.335 9.35104 111.924 9.29186 112.552 9.29186C113.415 9.29186 114.141 9.37077 114.73 9.54832C115.318 9.72587 115.809 10.0021 116.181 10.3572C116.554 10.732 116.829 11.1857 116.986 11.7381C117.143 12.2905 117.221 12.9415 117.221 13.6714L117.241 18.2286ZM114.18 15.4469H113.847C113.729 15.4469 113.631 15.4469 113.513 15.4667C113.121 15.5061 112.728 15.5456 112.336 15.6048C111.944 15.664 111.59 15.7823 111.296 15.9401C111.002 16.098 110.747 16.315 110.551 16.5714C110.354 16.8279 110.256 17.1633 110.256 17.5578C110.256 18.0116 110.374 18.3864 110.629 18.702C110.884 19.0177 111.316 19.1755 111.924 19.1755C112.218 19.1755 112.513 19.1361 112.787 19.0571C113.062 18.9782 113.297 18.8796 113.513 18.7415C113.729 18.6034 113.886 18.4653 114.004 18.3272C114.121 18.1694 114.18 18.0313 114.18 17.9129V15.4469Z" fill="#044D80"/>
</svg>
