<svg width="50" height="43" viewBox="0 0 50 43" fill="none" xmlns="http://www.w3.org/2000/svg">
<path d="M10.6251 0.9708L10.9879 1.18693C9.90313 0.503359 8.6548 0.123327 7.37312 0.0864599C6.09143 0.049593 4.82333 0.357242 3.70102 0.977328C2.57872 1.59741 1.64332 2.50723 0.99235 3.61191C0.341383 4.71659 -0.00130993 5.97567 3.7628e-06 7.25789V35.5131C0.000558993 36.7306 0.310911 37.9279 0.901845 38.9923C1.49278 40.0568 2.34486 40.9533 3.37788 41.5976C4.4109 42.2419 5.59088 42.6127 6.80674 42.6752C8.02261 42.7376 9.23437 42.4896 10.328 41.9546C10.8086 41.7102 11.2626 41.4166 11.6826 41.0785C15.5421 37.9562 28.2089 26.9721 28.2089 26.9721C29.0617 26.2856 29.7461 25.4129 30.2094 24.4209C30.6727 23.429 30.9028 22.3441 30.8819 21.2495C30.8611 20.1549 30.5898 19.0796 30.089 18.106C29.5882 17.1324 28.8712 16.2865 27.9928 15.633L28.2089 15.7989L11.7405 1.73112C10.6919 0.864047 9.41827 0.313208 8.06831 0.142929C6.71836 -0.0273505 5.34781 0.189958 4.11674 0.769477C2.88566 1.349 1.84488 2.26681 1.11592 3.41572C0.386961 4.56463 -7.70433e-05 5.89723 3.7628e-06 7.25789V35.5131C0.000260116 36.8677 0.384175 38.1945 1.1073 39.3399C1.83042 40.4853 2.86317 41.4024 4.08599 41.9852C5.3088 42.5679 6.67166 42.7924 8.01677 42.6326C9.36188 42.4728 10.6342 41.9353 11.6865 41.0823" fill="#4AE4E4"/>
<path d="M30.8953 38.6819C27.4984 38.6819 24.1779 37.6746 21.3535 35.7874C18.5292 33.9002 16.3278 31.2179 15.0279 28.0797C13.728 24.9414 13.3879 21.4881 14.0506 18.1566C14.7133 14.825 16.349 11.7648 18.7509 9.36287C21.1529 6.96095 24.2131 5.32522 27.5446 4.66253C30.8762 3.99985 34.3295 4.33996 37.4677 5.63987C40.606 6.93978 43.2883 9.1411 45.1755 11.9655C47.0627 14.7898 48.0699 18.1104 48.0699 21.5072" stroke="#1062AA" stroke-width="3" stroke-linecap="round" stroke-linejoin="round"/>
<path d="M30.8953 30.577C35.9044 30.577 39.9651 26.5164 39.9651 21.5073C39.9651 16.4982 35.9044 12.4375 30.8953 12.4375C25.8862 12.4375 21.8256 16.4982 21.8256 21.5073C21.8256 26.5164 25.8862 30.577 30.8953 30.577Z" stroke="#1062AA" stroke-width="3" stroke-miterlimit="10"/>
<path d="M48.0702 21.314C48.0702 23.9268 46.2563 25.7601 44.0178 25.7601C43.485 25.7601 42.9574 25.655 42.4652 25.4509C41.973 25.2467 41.5259 24.9475 41.1495 24.5704C40.7731 24.1933 40.4748 23.7456 40.2716 23.2531C40.0684 22.7605 39.9643 22.2327 39.9653 21.6999" stroke="#1062AA" stroke-width="3" stroke-miterlimit="10"/>
</svg>
