<svg width="28" height="29" viewBox="0 0 28 29" fill="none" xmlns="http://www.w3.org/2000/svg">
<path d="M18.1598 16.9894C18.1598 17.8534 17.8398 18.5894 17.1998 19.1974C16.5705 19.7947 15.6532 20.1574 14.4478 20.2854V22.0774H13.1358V20.3014C12.3465 20.248 11.5998 20.104 10.8958 19.8694C10.1918 19.6347 9.63182 19.336 9.21582 18.9734L9.93582 17.3574C10.3305 17.6774 10.8105 17.9494 11.3758 18.1734C11.9412 18.3867 12.5278 18.52 13.1358 18.5734V15.3734C12.3785 15.192 11.7438 14.9947 11.2318 14.7814C10.7305 14.5574 10.3092 14.2374 9.96782 13.8214C9.62649 13.3947 9.45582 12.8347 9.45582 12.1414C9.45582 11.2774 9.77049 10.5414 10.3998 9.93335C11.0292 9.32535 11.9412 8.96269 13.1358 8.84535V7.03735H14.4478V8.81335C15.0452 8.84535 15.6265 8.94669 16.1918 9.11735C16.7678 9.28802 17.2692 9.51202 17.6958 9.78935L17.0398 11.4054C16.2292 10.936 15.3652 10.648 14.4478 10.5414V13.7734C15.2158 13.9547 15.8505 14.152 16.3518 14.3654C16.8638 14.5787 17.2905 14.8987 17.6318 15.3254C17.9838 15.7414 18.1598 16.296 18.1598 16.9894ZM11.5198 12.0454C11.5198 12.3974 11.6585 12.68 11.9358 12.8934C12.2132 13.1067 12.6132 13.288 13.1358 13.4374V10.5894C12.5918 10.6747 12.1865 10.8454 11.9198 11.1014C11.6532 11.3574 11.5198 11.672 11.5198 12.0454ZM14.4478 18.5414C15.0132 18.456 15.4292 18.2907 15.6958 18.0454C15.9732 17.8 16.1118 17.496 16.1118 17.1334C16.1118 16.7707 15.9678 16.4827 15.6798 16.2694C15.3918 16.0454 14.9812 15.8587 14.4478 15.7094V18.5414Z" fill="white"/>
<circle cx="13.6878" cy="14.5574" r="12.6253" stroke="white" stroke-width="2"/>
</svg>
