<svg width="26" height="25" viewBox="0 0 26 25" fill="none" xmlns="http://www.w3.org/2000/svg">
<path d="M24.5732 17.8569L24.5773 17.8489L24.5807 17.8407C27.1562 11.6589 24.2673 4.4759 17.9827 1.91464C11.7051 -0.643774 4.48104 2.28692 1.90375 8.47288C-0.671427 14.6538 2.27786 21.8322 8.49362 24.3956C8.84822 24.5655 9.32643 24.4133 9.44649 24.0107C9.61981 23.6317 9.42251 23.1979 9.07656 23.026L9.06897 23.0222L9.06114 23.019C3.58843 20.7474 1.00352 14.4711 3.28809 9.03288C5.57326 3.59324 11.9505 0.961769 17.4233 3.23344C22.8937 5.50409 25.4787 11.7759 23.1993 17.2125C23.013 17.5952 23.2109 18.0388 23.5617 18.2131C23.9456 18.4039 24.3959 18.2095 24.5732 17.8569Z" fill="white" stroke="white" stroke-width="0.5"/>
<path d="M6.94949 10.5496C5.47817 13.9833 7.14217 17.9826 10.5895 19.4421C14.0408 20.9033 18.0632 19.252 19.5322 15.8237C21.0035 12.3899 19.3395 8.39067 15.8921 6.93115C12.4409 5.46996 8.41848 7.12131 6.94949 10.5496ZM8.26987 11.1764C9.44712 8.48497 12.566 7.20042 15.269 8.31018C17.9725 9.42018 19.2642 12.516 18.1484 15.2011C17.0332 17.885 13.8574 19.1742 11.1512 18.0631C8.44296 16.9512 7.0984 13.8547 8.26987 11.1764Z" fill="white" stroke="white" stroke-width="0.5"/>
<path d="M19.9469 19.8715L19.9469 19.8715L19.9498 19.8727C21.811 20.5995 23.7934 19.6661 24.5793 17.7784L24.6769 17.5439L24.4408 17.45L23.5177 17.083L23.292 16.9933L23.1958 17.2164C22.6862 18.3983 21.5281 18.9177 20.5088 18.4926C19.5181 18.0535 19.0384 16.9123 19.469 15.9493L19.5754 15.7113L19.3331 15.6149L18.4101 15.2479L18.1832 15.1577L18.0877 15.3823C17.3571 17.0989 18.1533 19.1452 19.9469 19.8715Z" fill="white" stroke="white" stroke-width="0.5"/>
</svg>
