<svg width="48" height="43" viewBox="0 0 48 43" fill="none" xmlns="http://www.w3.org/2000/svg">
<path d="M10.6251 0.887304L10.9879 1.10344C9.90313 0.419863 8.6548 0.0398307 7.37312 0.0029638C6.09143 -0.0339031 4.82333 0.273745 3.70102 0.893832C2.57872 1.51392 1.64332 2.42373 0.99235 3.52841C0.341383 4.63309 -0.00130993 5.89218 3.7628e-06 7.17439V35.4296C0.000558993 36.6471 0.310911 37.8444 0.901845 38.9088C1.49278 39.9733 2.34486 40.8698 3.37788 41.5141C4.4109 42.1584 5.59088 42.5292 6.80674 42.5917C8.02261 42.6541 9.23437 42.4061 10.328 41.8711C10.8086 41.6267 11.2626 41.3331 11.6826 40.995C15.5421 37.8727 28.2089 26.8886 28.2089 26.8886C29.0617 26.2021 29.7461 25.3294 30.2094 24.3375C30.6727 23.3455 30.9028 22.2606 30.8819 21.166C30.8611 20.0714 30.5898 18.9961 30.089 18.0225C29.5882 17.049 28.8712 16.203 27.9928 15.5495L28.2089 15.7154L11.7405 1.64762C10.6919 0.780551 9.41827 0.229712 8.06831 0.0594327C6.71836 -0.110847 5.34781 0.106462 4.11674 0.685981C2.88566 1.2655 1.84488 2.18331 1.11592 3.33222C0.386961 4.48114 -7.70433e-05 5.81374 3.7628e-06 7.17439V35.4296C0.000260116 36.7842 0.384175 38.111 1.1073 39.2564C1.83042 40.4018 2.86317 41.3189 4.08599 41.9017C5.3088 42.4844 6.67166 42.7089 8.01677 42.5491C9.36188 42.3893 10.6342 41.8518 11.6865 40.9988" fill="#F7B916"/>
<path d="M25.245 35.9196C22.2532 35.9204 19.3283 35.0339 16.8404 33.3722C14.3525 31.7105 12.4132 29.3483 11.2679 26.5843C10.1227 23.8204 9.8228 20.7789 10.4063 17.8445C10.9898 14.9101 12.4304 12.2147 14.5459 10.0992C16.6615 7.98363 19.3569 6.543 22.2913 5.95951C25.2257 5.37602 28.2672 5.67588 31.0311 6.82116C33.7951 7.96643 36.1573 9.90568 37.819 12.3936C39.4807 14.8815 40.3672 17.8064 40.3664 20.7982C40.3613 24.8071 38.7665 28.6503 35.9318 31.485C33.0971 34.3198 29.2539 35.9145 25.245 35.9196ZM25.245 8.47105C22.8068 8.47029 20.423 9.19262 18.3953 10.5467C16.3676 11.9007 14.787 13.8257 13.8534 16.0781C12.9198 18.3306 12.6752 20.8093 13.1504 23.2008C13.6256 25.5923 14.7993 27.7891 16.5232 29.5135C18.247 31.2379 20.4435 32.4123 22.8348 32.8882C25.2261 33.3642 27.7049 33.1203 29.9576 32.1874C32.2104 31.2545 34.1358 29.6745 35.4905 27.6472C36.8452 25.62 37.5683 23.2365 37.5683 20.7982C37.5622 17.5314 36.262 14.4001 33.9524 12.0897C31.6427 9.77936 28.5118 8.47819 25.245 8.47105Z" fill="#1062AA"/>
<path d="M35.6806 13.2878C35.3903 13.2931 35.1056 13.2079 34.866 13.0439C34.6264 12.88 34.4438 12.6454 34.3437 12.3729C34.2435 12.1005 34.2307 11.8035 34.3071 11.5234C34.3834 11.2433 34.5452 10.994 34.7698 10.81L45.0746 2.01041C45.3587 1.78313 45.7201 1.67532 46.0824 1.7098C46.4446 1.74427 46.7792 1.91832 47.0154 2.19512C47.2516 2.47192 47.3708 2.82975 47.3478 3.19289C47.3249 3.55603 47.1615 3.89599 46.8924 4.14084L36.5876 12.952C36.3358 13.1699 36.0136 13.2891 35.6806 13.2878Z" fill="#1062AA"/>
</svg>
