<svg width="33" height="36" viewBox="0 0 33 36" fill="none" xmlns="http://www.w3.org/2000/svg">
<path d="M12.9167 9.21419L7.514 8.12777L7.41666 1.88086" stroke="#1062AA" stroke-width="2" stroke-miterlimit="10" stroke-linecap="round" stroke-linejoin="round"/>
<path d="M1 19.7559C1 28.0831 7.7411 34.8809 16.125 34.8809C24.5089 34.8809 31.25 28.1398 31.25 19.7559C31.25 11.372 24.4522 4.63086 16.125 4.63086C12.8961 4.63086 9.89373 5.65052 7.40122 7.40661" stroke="#1062AA" stroke-width="2" stroke-miterlimit="10" stroke-linecap="round" stroke-linejoin="round"/>
<path d="M17.1861 22.0195C17.1861 21.5979 17.0722 21.2638 16.8443 21.017C16.6214 20.7651 16.24 20.5338 15.7001 20.323C15.1602 20.1123 14.6946 19.9041 14.3033 19.6984C13.912 19.4877 13.5751 19.2486 13.2928 18.9813C13.0154 18.7088 12.7975 18.3901 12.639 18.0251C12.4854 17.6601 12.4086 17.2257 12.4086 16.7219C12.4086 15.8531 12.6761 15.1411 13.2111 14.5859C13.746 14.0307 14.4568 13.7068 15.3435 13.6143V11.9641H16.5323V13.6374C17.409 13.766 18.095 14.1464 18.5903 14.7787C19.0857 15.4059 19.3333 16.2207 19.3333 17.2231H17.1861C17.1861 16.6062 17.0623 16.1461 16.8146 15.8428C16.5719 15.5344 16.245 15.3802 15.8338 15.3802C15.4277 15.3802 15.1131 15.501 14.8902 15.7426C14.6673 15.9791 14.5559 16.3081 14.5559 16.7296C14.5559 17.1203 14.6649 17.4339 14.8828 17.6704C15.1008 17.9069 15.5044 18.1485 16.0939 18.3952C16.6883 18.642 17.1762 18.8759 17.5576 19.097C17.939 19.3129 18.2609 19.5596 18.5235 19.8372C18.786 20.1097 18.9866 20.4233 19.1253 20.778C19.264 21.1276 19.3333 21.5363 19.3333 22.0041C19.3333 22.878 19.0708 23.5874 18.5458 24.1324C18.0207 24.6773 17.2975 24.9986 16.3762 25.0963V26.6308H15.1949V25.104C14.1794 24.9909 13.3919 24.6182 12.8322 23.9858C12.2774 23.3484 12 22.5027 12 21.4489H14.1472C14.1472 22.0606 14.2859 22.531 14.5633 22.86C14.8457 23.1839 15.2494 23.3458 15.7744 23.3458C16.2103 23.3458 16.5545 23.2276 16.8072 22.9911C17.0598 22.7495 17.1861 22.4256 17.1861 22.0195Z" fill="#1062AA"/>
</svg>
