<svg width="32" height="37" viewBox="0 0 32 37" fill="none" xmlns="http://www.w3.org/2000/svg">
<path d="M24.2458 7.88086H7.75422C4.0394 7.88086 1 11.4136 1 15.7313V28.0304C1 32.3481 4.0394 35.8809 7.75422 35.8809H24.2458C27.9606 35.8809 31 32.3481 31 28.0304V15.7313C31 11.4136 27.9606 7.88086 24.2458 7.88086Z" stroke="#1062AA" stroke-width="2" stroke-miterlimit="10" stroke-linecap="round" stroke-linejoin="round"/>
<path d="M10 7.88086C10 4.56171 12.6809 1.88086 16 1.88086C19.3191 1.88086 22 4.56171 22 7.88086" stroke="#1062AA" stroke-width="2" stroke-miterlimit="10" stroke-linecap="round" stroke-linejoin="round"/>
<path d="M17.6 22.199V27.3536C17.6 28.1809 16.8667 28.8809 16 28.8809C15.1333 28.8809 14.4 28.1809 14.4 27.3536V22.199L14.2 22.0718C12.8667 21.4354 12 20.1627 12 18.699C12 16.599 13.8 14.8809 16 14.8809C18.2 14.8809 20 16.599 20 18.699C20 20.1627 19.1333 21.4354 17.8 22.0718L17.6 22.199Z" stroke="#1062AA" stroke-width="2" stroke-miterlimit="10" stroke-linecap="round" stroke-linejoin="round"/>
</svg>
