<svg width="175" height="20" viewBox="0 0 175 20" fill="none" xmlns="http://www.w3.org/2000/svg">
<path fill-rule="evenodd" clip-rule="evenodd" d="M159.319 1.70437C159.319 0.788282 160.073 0.0366211 160.992 0.0366211H173.327C174.246 0.0366211 175 0.788282 175 1.70437V7.74115C175 8.65724 174.246 9.4089 173.327 9.4089H172.043C171.124 9.4089 169.722 9.77298 168.909 10.2193L164.432 12.6974C163.631 13.1437 163.289 12.8266 163.666 11.9927L164.185 10.8652C164.562 10.0314 164.126 9.35017 163.207 9.35017H160.98C160.061 9.35017 159.307 8.59851 159.307 7.68243V1.70437" fill="#FD810B"/>
<path fill-rule="evenodd" clip-rule="evenodd" d="M159.331 17.4069C159.425 17.4069 159.508 17.3951 159.579 17.3599C159.637 17.3247 159.673 17.266 159.673 17.1485C159.673 17.0898 159.661 17.0428 159.637 17.0193C159.614 16.9841 159.579 16.9606 159.543 16.9488C159.508 16.9371 159.461 16.9254 159.414 16.9136C159.366 16.9136 159.319 16.9019 159.284 16.9019H158.989V17.4069H159.331ZM159.331 16.5495C159.59 16.5495 159.791 16.6083 159.92 16.714C160.05 16.8197 160.12 16.9841 160.12 17.1837C160.12 17.3599 160.073 17.4891 159.979 17.5831C159.885 17.677 159.767 17.7357 159.626 17.7475L160.132 18.5814H159.637L159.154 17.7592H158.989V18.5814H158.542V16.5495H159.331ZM158.059 18.0881C158.129 18.2525 158.212 18.3934 158.33 18.5226C158.448 18.6401 158.589 18.7458 158.742 18.8163C158.907 18.8867 159.084 18.922 159.272 18.922C159.461 18.922 159.637 18.8867 159.802 18.8163C159.967 18.7458 160.109 18.6518 160.215 18.5226C160.333 18.4052 160.427 18.2525 160.486 18.0881C160.556 17.9237 160.58 17.7475 160.58 17.5713C160.58 17.3834 160.545 17.219 160.486 17.0546C160.415 16.8901 160.333 16.7492 160.215 16.62C160.097 16.5025 159.956 16.3968 159.791 16.3264C159.626 16.2559 159.449 16.2207 159.26 16.2207C159.072 16.2207 158.895 16.2559 158.73 16.3264C158.565 16.3968 158.424 16.4908 158.306 16.62C158.188 16.7374 158.094 16.8901 158.035 17.0546C157.964 17.219 157.941 17.3951 157.941 17.5713C157.953 17.7592 157.988 17.9237 158.059 18.0881ZM157.529 16.8314C157.623 16.5965 157.764 16.3968 157.929 16.2324C158.094 16.0563 158.294 15.9271 158.53 15.8331C158.754 15.7391 159.001 15.6804 159.272 15.6804C159.531 15.6804 159.779 15.7274 160.014 15.8214C160.238 15.9153 160.45 16.0563 160.615 16.2207C160.792 16.3968 160.922 16.5965 161.016 16.8197C161.11 17.0428 161.169 17.2894 161.169 17.5596C161.169 17.8297 161.122 18.0646 161.028 18.2995C160.933 18.5344 160.792 18.7223 160.627 18.8985C160.45 19.0629 160.25 19.2038 160.026 19.2978C159.802 19.3917 159.555 19.4387 159.284 19.4387C159.025 19.4387 158.777 19.3917 158.542 19.2978C158.306 19.2038 158.106 19.0746 157.941 18.8985C157.764 18.734 157.635 18.5344 157.529 18.2995C157.434 18.0763 157.375 17.8297 157.375 17.5596C157.387 17.3129 157.434 17.0663 157.529 16.8314Z" fill="#19172C"/>
<path fill-rule="evenodd" clip-rule="evenodd" d="M153.087 11.9223H150.366C150.165 11.9223 150.095 11.7931 150.095 11.6521L150.118 11.2998C150.165 10.5834 150.849 10.0549 151.744 10.0549C152.616 10.0549 153.311 10.5716 153.37 11.2763L153.394 11.6287C153.394 11.7931 153.335 11.9223 153.087 11.9223ZM151.638 7.21265C148.693 7.21265 146.596 9.32669 146.596 11.7461V14.9524C146.596 17.6419 148.599 19.5094 151.638 19.5094C153.288 19.5094 154.477 18.9339 155.326 18.1117C155.726 17.7124 156.044 17.2426 156.327 16.7728C156.48 16.5262 156.398 16.2443 156.256 16.1739L153.782 14.9289C153.629 14.8585 153.476 14.9054 153.405 15.1286C153.064 15.9977 152.486 16.397 151.638 16.397C150.719 16.397 150.059 15.7745 150.059 14.9759V14.4239C150.059 14.2477 150.13 14.1538 150.354 14.1538H156.374C156.527 14.1538 156.622 14.0833 156.622 13.9071V11.7461C156.633 9.35018 154.56 7.21265 151.638 7.21265Z" fill="#19172C"/>
<path fill-rule="evenodd" clip-rule="evenodd" d="M140.858 10.2781C141.636 10.2781 142.201 10.7714 142.625 11.7697C142.696 11.9458 142.826 11.9928 143.002 11.9223L145.453 10.8301C145.606 10.7596 145.653 10.6069 145.582 10.4073C145.359 9.8905 145.111 9.40897 144.781 9.00965C143.957 7.91739 142.731 7.29492 140.835 7.29492C137.736 7.29492 135.863 9.16233 135.863 11.8519V14.882C135.863 17.5715 137.736 19.4155 140.835 19.4155C142.578 19.4155 143.733 18.8987 144.557 17.9709C144.982 17.5011 145.311 16.9256 145.582 16.2796C145.653 16.08 145.606 15.9508 145.453 15.8803L143.002 14.7646C142.826 14.6941 142.708 14.7411 142.625 14.9172C142.201 15.9155 141.624 16.4323 140.858 16.4323C139.939 16.4323 139.338 15.7863 139.338 14.9877V11.7227C139.327 10.924 139.927 10.2781 140.858 10.2781Z" fill="#19172C"/>
<path fill-rule="evenodd" clip-rule="evenodd" d="M133.66 7.56494H130.691C130.514 7.56494 130.444 7.63541 130.444 7.81158V18.8868C130.444 19.063 130.514 19.1335 130.691 19.1335H133.66C133.801 19.1335 133.884 19.063 133.884 18.8868V7.81158C133.884 7.63541 133.778 7.56494 133.66 7.56494Z" fill="#19172C"/>
<path fill-rule="evenodd" clip-rule="evenodd" d="M132.152 2.6792C131.186 2.6792 130.396 3.46609 130.396 4.42916C130.396 5.39223 131.186 6.17912 132.152 6.17912C133.118 6.17912 133.907 5.39223 133.907 4.42916C133.907 3.46609 133.13 2.6792 132.152 2.6792Z" fill="#19172C"/>
<path fill-rule="evenodd" clip-rule="evenodd" d="M128.877 7.56494H125.707C125.578 7.56494 125.484 7.63541 125.436 7.7646L123.563 13.1202C123.469 13.3903 123.316 14.0363 123.269 14.3651H123.198C123.151 14.0363 123.021 13.449 122.903 13.1202L120.96 7.74111C120.912 7.61192 120.842 7.56494 120.712 7.56494H117.543C117.319 7.56494 117.248 7.71762 117.319 7.91728L121.784 18.9691C121.831 19.0865 121.926 19.1452 122.032 19.1452H124.353C124.482 19.1452 124.576 19.0982 124.624 18.9691L129.112 7.91728C129.183 7.71762 129.112 7.56494 128.877 7.56494Z" fill="#19172C"/>
<path fill-rule="evenodd" clip-rule="evenodd" d="M112.512 14.835C112.512 15.6571 111.841 16.2796 110.969 16.2796C110.074 16.2796 109.449 15.6571 109.449 14.835V11.8518C109.449 11.0532 110.074 10.4542 110.969 10.4542C111.864 10.4542 112.512 11.0532 112.512 11.8518V14.835ZM115.705 3.45435H112.76C112.642 3.45435 112.512 3.52481 112.512 3.70098V7.16567C112.512 7.5415 112.583 8.25793 112.583 8.25793C112.088 7.81163 111.264 7.56499 110.663 7.56499C107.941 7.56499 105.974 9.38542 105.974 12.0985V14.6118C105.974 17.501 107.67 19.1453 110.722 19.1453C111.417 19.1453 112.241 18.9221 112.772 18.4758C112.925 18.3466 113.101 18.3936 113.101 18.5933V18.9691C113.101 19.0631 113.172 19.1453 113.302 19.1453H115.717C115.87 19.1453 115.964 19.0748 115.964 18.8986V3.70098C115.953 3.53656 115.858 3.45435 115.705 3.45435Z" fill="#19172C"/>
<path fill-rule="evenodd" clip-rule="evenodd" d="M99.4824 13.7897H97.9626C97.7152 13.7897 97.6092 13.637 97.6681 13.4961L98.1865 11.476C98.4339 10.5599 98.6341 9.45589 98.6813 8.80993H98.7873C98.8344 9.45589 98.9876 10.5482 99.235 11.476L99.7651 13.4961C99.8123 13.637 99.7062 13.7897 99.4824 13.7897ZM100.083 3.63052C100.036 3.50132 99.9536 3.45435 99.8358 3.45435H97.6092C97.456 3.45435 97.4089 3.50132 97.3618 3.63052L92.449 18.8164C92.3783 19.0161 92.4726 19.1453 92.6964 19.1453H95.842C95.9716 19.1453 96.0187 19.0983 96.0658 18.9691L96.7845 16.7024C96.8316 16.5732 96.8787 16.5497 97.0555 16.5497H100.354C100.531 16.5497 100.578 16.5732 100.625 16.7024L101.32 18.9691C101.367 19.0866 101.426 19.1453 101.568 19.1453H104.737C104.984 19.1453 105.067 19.0161 104.984 18.8164L100.083 3.63052Z" fill="#19172C"/>
<path fill-rule="evenodd" clip-rule="evenodd" d="M83.4834 11.9223H80.762C80.5617 11.9223 80.491 11.7931 80.491 11.6521L80.5145 11.2998C80.5617 10.5834 81.245 10.0549 82.1404 10.0549C83.0122 10.0549 83.7191 10.5716 83.7662 11.2763L83.7897 11.6287C83.778 11.7931 83.7308 11.9223 83.4834 11.9223ZM82.0343 7.21265C79.089 7.21265 76.992 9.32669 76.992 11.7461V14.9524C76.992 17.6419 78.983 19.5094 82.0343 19.5094C83.6837 19.5094 84.8854 18.9339 85.7336 18.1117C86.1342 17.7124 86.4641 17.2426 86.7351 16.7728C86.8882 16.5262 86.8057 16.2443 86.6644 16.1739L84.1903 14.9289C84.0371 14.8585 83.8958 14.9054 83.8133 15.1286C83.4599 15.9977 82.8944 16.397 82.0461 16.397C81.1272 16.397 80.4674 15.7745 80.4674 14.9759V14.4239C80.4674 14.2477 80.5381 14.1538 80.7737 14.1538H86.794C86.9471 14.1538 87.0414 14.0833 87.0414 13.9071V11.7461C87.0296 9.35018 84.9561 7.21265 82.0343 7.21265Z" fill="#19172C"/>
<path fill-rule="evenodd" clip-rule="evenodd" d="M75.4958 7.61192C75.3191 7.58843 75.1188 7.56494 74.8478 7.56494C73.9053 7.56494 72.9982 8.01124 72.5976 8.50452C72.468 8.62197 72.2677 8.61022 72.2677 8.38707V7.81158C72.2677 7.63541 72.1971 7.56494 72.0203 7.56494H69.6523C69.4992 7.56494 69.4049 7.63541 69.4049 7.81158V18.8868C69.4049 19.063 69.4992 19.1335 69.6523 19.1335H72.5976C72.7508 19.1335 72.845 19.063 72.845 18.8868V12.2863C72.845 11.4172 73.4694 10.7947 74.3413 10.7947C74.7183 10.7947 75.0363 10.8417 75.3427 10.9239C75.5665 10.9709 75.7197 10.9004 75.7197 10.6773V7.85856C75.7197 7.74111 75.6372 7.63541 75.4958 7.61192Z" fill="#19172C"/>
<path fill-rule="evenodd" clip-rule="evenodd" d="M62.2538 16.444H61.3348C60.8047 16.444 60.5101 16.1152 60.5101 15.4223C60.5101 14.929 60.8636 14.5766 61.3584 14.5766H63.479C63.6322 14.5766 63.6793 14.8468 63.6793 14.929C63.6204 15.8451 62.9253 16.444 62.2538 16.444ZM62.1831 7.29492C60.6397 7.29492 59.4852 7.7882 58.6369 8.56335C58.1657 8.98616 57.7887 9.47944 57.4941 10.0314C57.341 10.2781 57.4234 10.56 57.5648 10.6304L60.0389 11.8754C60.192 11.9458 60.3334 11.8988 60.4159 11.6757C60.7693 10.8066 61.3348 10.4073 62.1831 10.4073C63.102 10.4073 63.6793 11.0297 63.6793 11.8284V11.9576C63.6793 12.1337 63.6086 12.2277 63.4319 12.2277H61.2288C59.0375 12.2277 57.2585 13.4257 57.2585 15.5162V15.7629C57.2585 17.8769 58.8608 19.1453 61.0049 19.1453H61.8768C62.5483 19.1453 63.3023 18.9222 63.8207 18.4994C63.9149 18.4289 64.0445 18.4524 64.0681 18.5229L64.1387 18.9457C64.1623 19.0749 64.2683 19.1453 64.4097 19.1453H66.8602C67.0134 19.1453 67.1076 19.0749 67.1076 18.8987V11.8519C67.1194 9.16233 65.2226 7.29492 62.1831 7.29492Z" fill="#19172C"/>
<path fill-rule="evenodd" clip-rule="evenodd" d="M56.2572 7.56494H53.2412C53.088 7.56494 52.9938 7.63541 52.9702 7.7646L51.851 12.439C51.7214 12.9675 51.6271 13.7074 51.6036 14.2359H51.5211C51.4975 13.7074 51.3915 13.038 51.2501 12.439L50.1191 7.7646C50.0956 7.63541 49.9895 7.56494 49.8482 7.56494H47.3741C47.221 7.56494 47.1503 7.63541 47.1267 7.7646L46.031 12.4155C45.9015 12.9323 45.8072 13.6135 45.7601 14.1067H45.6894C45.6658 13.6135 45.5716 12.9323 45.442 12.4155L44.2756 7.7646C44.2521 7.63541 44.1814 7.56494 44.0282 7.56494H40.9298C40.7059 7.56494 40.6235 7.69413 40.7059 7.89379L44.2285 18.9691C44.2756 19.0865 44.3581 19.1452 44.4759 19.1452H46.679C46.8322 19.1452 46.9029 19.0982 46.9264 18.9691L48.3048 13.8131C48.458 13.2376 48.5758 12.2746 48.5758 12.2746H48.6465C48.6465 12.2746 48.7761 13.2494 48.9175 13.8131L50.2605 18.9338C50.2841 19.063 50.3548 19.1335 50.5079 19.1335H52.6757C52.8053 19.1335 52.876 19.0865 52.9231 18.9573L56.4928 7.88205C56.5635 7.71762 56.481 7.56494 56.2572 7.56494Z" fill="#19172C"/>
<path fill-rule="evenodd" clip-rule="evenodd" d="M39.4216 7.56506H37.7487C37.5248 7.56506 37.4541 7.4946 37.4541 7.31843V5.74463C37.4541 5.56846 37.407 5.52148 37.2303 5.52148H35.6516C35.5574 5.52148 35.4278 5.56846 35.3571 5.65068L32.235 8.76302V10.4543C32.235 10.6304 32.3057 10.6774 32.4825 10.6774H33.7313C33.9551 10.6774 34.0258 10.7831 34.0258 10.9475V14.835C34.0258 17.8182 35.899 19.3685 38.267 19.3685H39.3156C39.5394 19.3685 39.6455 19.2745 39.6455 19.0984V16.538C39.6455 16.3853 39.5748 16.2914 39.398 16.2914H38.9739C37.949 16.2914 37.4541 15.6689 37.4541 14.6001V10.9475C37.4541 10.7714 37.5248 10.6774 37.7487 10.6774H39.4216C39.5983 10.6774 39.6455 10.6304 39.6455 10.4543V7.8117C39.6455 7.63553 39.5983 7.56506 39.4216 7.56506Z" fill="#19172C"/>
<path fill-rule="evenodd" clip-rule="evenodd" d="M31.9642 3.33682C31.54 3.24286 30.8449 3.16064 30.197 3.16064C26.4977 3.16064 25.1075 5.72099 25.1075 7.74108V8.36355C25.1075 8.53972 25.0368 8.61019 24.8365 8.61019H24.2592C24.1061 8.61019 24.0118 8.68066 24.0118 8.85683V11.4759C24.0118 11.6521 24.1061 11.7225 24.2592 11.7225H24.8365C25.0604 11.7225 25.1075 11.793 25.1075 11.9692V18.8868C25.1075 19.063 25.1782 19.1334 25.3549 19.1334H28.3002C28.4769 19.1334 28.5476 19.063 28.5476 18.8868V11.9692C28.5476 11.793 28.6183 11.7225 28.8186 11.7225H30.4326C30.6093 11.7225 30.68 11.6521 30.68 11.4759V8.85683C30.68 8.68066 30.6093 8.61019 30.4326 8.61019H28.8068C28.6065 8.61019 28.5358 8.53972 28.5358 8.36355V7.6941C28.5358 6.82499 29.1602 6.27299 30.1027 6.27299C30.4326 6.27299 30.7743 6.31997 31.0452 6.40218C31.2219 6.44916 31.3162 6.40218 31.3751 6.2495L32.1527 3.68916C32.2116 3.51299 32.1644 3.38379 31.9642 3.33682Z" fill="#19172C"/>
<path fill-rule="evenodd" clip-rule="evenodd" d="M19.0516 14.976C19.0516 15.7746 18.4036 16.4206 17.5318 16.4206C16.6129 16.4206 15.9531 15.7746 15.9531 14.976V11.7227C15.9531 10.9475 16.6011 10.2781 17.5318 10.2781C18.4036 10.2781 19.0516 10.924 19.0516 11.7227V14.976ZM17.5318 7.29492C14.4805 7.29492 12.4894 9.16233 12.4894 11.8519V14.882C12.4894 17.5715 14.4805 19.4155 17.5318 19.4155C20.5242 19.4155 22.5271 17.595 22.5271 14.882V11.8519C22.5271 9.1271 20.5242 7.29492 17.5318 7.29492Z" fill="#19172C"/>
<path fill-rule="evenodd" clip-rule="evenodd" d="M7.1292 9.77291C5.7508 9.25615 4.27814 8.88032 4.27814 7.76457C4.27814 6.87197 4.94967 6.27299 5.82148 6.27299H6.19848C7.04673 6.27299 7.62402 6.67231 7.97745 7.54142C8.04814 7.76457 8.2013 7.81155 8.35445 7.74108L10.8285 6.49614C10.9817 6.42567 11.0524 6.1438 10.8992 5.89716C10.6989 5.52133 10.4515 5.15724 10.1452 4.82839C9.27339 3.85358 8.02458 3.16064 6.19848 3.16064H5.82148C2.69946 3.16064 0.779112 5.00456 0.779112 7.81155C0.779112 10.6773 2.62877 11.746 4.92611 12.6621C6.42233 13.2611 7.71827 13.5782 7.71827 14.8231C7.71827 15.8449 6.91714 16.2912 6.02177 16.2912H5.39736C4.54911 16.2912 3.97183 15.8919 3.63017 15.0228C3.55949 14.7997 3.40633 14.7527 3.25317 14.8231L0.779112 16.0681C0.625956 16.1385 0.555269 16.4204 0.708425 16.6671C0.932269 17.0664 1.20324 17.4657 1.53311 17.818C2.38136 18.7576 3.63017 19.4036 5.39736 19.4036H6.19848C9.36764 19.4036 11.2173 17.5831 11.2173 14.7762C11.2173 11.8752 9.49723 10.7007 7.1292 9.77291Z" fill="#19172C"/>
</svg>
