<svg width="123" height="31" viewBox="0 0 123 31" fill="none" xmlns="http://www.w3.org/2000/svg">
<path d="M32.4935 11.2371H44.8018V13.5335H39.9621V26.4427H37.3009V13.5335H32.4827V11.2371H32.4935ZM44.2759 15.4328H46.5509V17.5575H46.5938C46.6689 17.2571 46.8084 16.9673 47.0123 16.6883C47.2162 16.4093 47.463 16.1411 47.7527 15.9157C48.0425 15.6796 48.3644 15.4972 48.7185 15.347C49.0726 15.2075 49.4375 15.1324 49.8023 15.1324C50.0813 15.1324 50.2852 15.1431 50.3925 15.1538C50.4998 15.1646 50.6071 15.186 50.7252 15.1967V17.5361C50.5535 17.5039 50.3818 17.4824 50.1994 17.461C50.0169 17.4395 49.8453 17.4288 49.6736 17.4288C49.2658 17.4288 48.8795 17.5146 48.5146 17.6756C48.1498 17.8365 47.8386 18.0833 47.5703 18.3945C47.302 18.7165 47.0874 19.1028 46.9265 19.5749C46.7655 20.0471 46.6904 20.5836 46.6904 21.1953V26.432H44.2652V15.4328H44.2759ZM61.8745 26.4427H59.4923V24.9082H59.4494C59.1489 25.4662 58.7089 25.9061 58.1187 26.2388C57.5285 26.5715 56.9276 26.7431 56.316 26.7431C54.8673 26.7431 53.8157 26.389 53.1718 25.6701C52.528 24.9511 52.206 23.8673 52.206 22.4186V15.4328H54.6312V22.1825C54.6312 23.1483 54.8136 23.8351 55.1892 24.2321C55.5541 24.6292 56.0799 24.8331 56.7452 24.8331C57.2603 24.8331 57.6788 24.7579 58.0222 24.597C58.3656 24.436 58.6446 24.2321 58.8484 23.9639C59.0631 23.7063 59.2133 23.3844 59.3099 23.0195C59.4064 22.6547 59.4494 22.2577 59.4494 21.8284V15.4436H61.8745V26.4427ZM66.0059 22.9122C66.081 23.6205 66.3493 24.1141 66.8107 24.4038C67.2829 24.6828 67.8409 24.8331 68.4955 24.8331C68.7208 24.8331 68.9784 24.8116 69.2681 24.7794C69.5578 24.7472 69.8368 24.6721 70.0837 24.5755C70.3412 24.4789 70.5451 24.3287 70.7168 24.1356C70.8777 23.9424 70.9529 23.6956 70.9421 23.3844C70.9314 23.0732 70.8133 22.8157 70.5987 22.6225C70.3841 22.4186 70.1158 22.2684 69.7832 22.1396C69.4505 22.0216 69.0749 21.9143 68.6457 21.8284C68.2165 21.7426 67.7872 21.646 67.3473 21.5494C66.8966 21.4528 66.4566 21.3241 66.0381 21.1846C65.6196 21.0451 65.244 20.8519 64.9114 20.6051C64.5787 20.369 64.3105 20.0578 64.1173 19.6822C63.9134 19.3067 63.8168 18.8452 63.8168 18.2872C63.8168 17.6863 63.9671 17.1927 64.2568 16.7849C64.5465 16.3771 64.9221 16.0552 65.3621 15.8084C65.8128 15.5616 66.3064 15.3899 66.8537 15.2826C67.4009 15.186 67.9268 15.1324 68.4204 15.1324C68.9891 15.1324 69.5364 15.1967 70.0515 15.3148C70.5665 15.4328 71.0387 15.626 71.4572 15.905C71.8757 16.1733 72.2191 16.5274 72.4981 16.9566C72.7771 17.3858 72.9488 17.9117 73.0239 18.5233H70.4914C70.3734 17.9438 70.1158 17.5468 69.6973 17.3537C69.2788 17.1498 68.7959 17.0532 68.2594 17.0532C68.0877 17.0532 67.8838 17.0639 67.6477 17.0961C67.4117 17.1283 67.197 17.182 66.9824 17.2571C66.7785 17.3322 66.6069 17.4502 66.4566 17.6005C66.3171 17.7507 66.242 17.9438 66.242 18.1907C66.242 18.4911 66.3493 18.7272 66.5532 18.9096C66.7571 19.092 67.0254 19.2423 67.358 19.371C67.6907 19.4891 68.0662 19.5964 68.4955 19.6822C68.9247 19.7681 69.3647 19.8647 69.8154 19.9612C70.2553 20.0578 70.6846 20.1866 71.1138 20.3261C71.543 20.4656 71.9186 20.6588 72.2513 20.9056C72.5839 21.1524 72.8522 21.4528 73.0561 21.8177C73.26 22.1825 73.3673 22.644 73.3673 23.1805C73.3673 23.8351 73.2171 24.3824 72.9166 24.8438C72.6161 25.2945 72.2298 25.6701 71.7577 25.9491C71.2855 26.2281 70.749 26.4427 70.1695 26.5715C69.59 26.7002 69.0106 26.7646 68.4418 26.7646C67.7443 26.7646 67.1005 26.6895 66.5103 26.5285C65.9201 26.3676 65.405 26.1315 64.9758 25.8203C64.5465 25.4984 64.2031 25.1013 63.9563 24.6292C63.7095 24.157 63.5808 23.5883 63.5593 22.9337H66.0059V22.9122ZM74.0111 15.4328H75.8461V12.1277H78.2713V15.4328H80.4604V17.2463H78.2713V23.1269C78.2713 23.3844 78.282 23.599 78.3035 23.7922C78.3249 23.9746 78.3786 24.1356 78.4537 24.2643C78.5288 24.3931 78.6469 24.4897 78.8078 24.5541C78.9688 24.6184 79.1727 24.6506 79.4517 24.6506C79.6234 24.6506 79.7951 24.6506 79.9668 24.6399C80.1385 24.6292 80.3102 24.6077 80.4819 24.5648V26.4427C80.2136 26.4749 79.9453 26.4963 79.6985 26.5285C79.441 26.5607 79.1834 26.5715 78.9151 26.5715C78.2713 26.5715 77.7562 26.5071 77.3699 26.389C76.9836 26.271 76.6724 26.0886 76.4578 25.8525C76.2324 25.6164 76.0929 25.3267 76.0071 24.9726C75.932 24.6184 75.8783 24.2107 75.8676 23.76V17.2678H74.0326V15.4328H74.0111ZM82.1773 15.4328H84.4737V16.9244H84.5167C84.86 16.2806 85.3322 15.8299 85.9439 15.5509C86.5555 15.2719 87.2101 15.1324 87.9291 15.1324C88.7983 15.1324 89.5494 15.2826 90.1933 15.5938C90.8371 15.8943 91.3737 16.3128 91.8029 16.8493C92.2321 17.3858 92.5433 18.0082 92.7579 18.7165C92.9726 19.4247 93.0799 20.1866 93.0799 20.9914C93.0799 21.7318 92.9833 22.4508 92.7901 23.1376C92.597 23.8351 92.3073 24.4467 91.9209 24.9833C91.5346 25.5198 91.041 25.9383 90.4401 26.2603C89.8392 26.5822 89.1417 26.7431 88.3261 26.7431C87.972 26.7431 87.6179 26.711 87.2638 26.6466C86.9096 26.5822 86.5662 26.4749 86.2443 26.3354C85.9224 26.1959 85.6112 26.0135 85.3429 25.7881C85.0639 25.5628 84.8386 25.3052 84.6454 25.0155H84.6025V30.5097H82.1773V15.4328ZM90.6547 20.9485C90.6547 20.4549 90.5903 19.972 90.4616 19.4998C90.3328 19.0277 90.1396 18.6199 89.8821 18.255C89.6245 17.8902 89.3026 17.6005 88.927 17.3858C88.5407 17.1712 88.1008 17.0532 87.6071 17.0532C86.5877 17.0532 85.8151 17.4073 85.3 18.1155C84.7849 18.8238 84.5274 19.7681 84.5274 20.9485C84.5274 21.5065 84.5918 22.0216 84.7313 22.4937C84.8708 22.9659 85.0639 23.3737 85.3429 23.717C85.6112 24.0604 85.9331 24.3287 86.3087 24.5219C86.6843 24.7257 87.1243 24.8223 87.6179 24.8223C88.1759 24.8223 88.6373 24.7043 89.0236 24.4789C89.4099 24.2536 89.7211 23.9531 89.9679 23.599C90.2147 23.2342 90.3972 22.8264 90.5045 22.365C90.601 21.9035 90.6547 21.4314 90.6547 20.9485ZM94.9363 11.2371H97.3615V13.5335H94.9363V11.2371ZM94.9363 15.4328H97.3615V26.4427H94.9363V15.4328ZM99.5291 11.2371H101.954V26.4427H99.5291V11.2371ZM109.391 26.7431C108.511 26.7431 107.728 26.5929 107.041 26.3032C106.354 26.0135 105.774 25.6057 105.292 25.1013C104.819 24.5862 104.455 23.9746 104.208 23.2664C103.961 22.5581 103.832 21.7748 103.832 20.927C103.832 20.09 103.961 19.3174 104.208 18.6092C104.455 17.9009 104.819 17.2893 105.292 16.7742C105.764 16.2591 106.354 15.8621 107.041 15.5723C107.728 15.2826 108.511 15.1324 109.391 15.1324C110.271 15.1324 111.054 15.2826 111.741 15.5723C112.428 15.8621 113.007 16.2698 113.49 16.7742C113.962 17.2893 114.327 17.9009 114.574 18.6092C114.821 19.3174 114.949 20.09 114.949 20.927C114.949 21.7748 114.821 22.5581 114.574 23.2664C114.327 23.9746 113.962 24.5862 113.49 25.1013C113.018 25.6164 112.428 26.0135 111.741 26.3032C111.054 26.5929 110.271 26.7431 109.391 26.7431ZM109.391 24.8223C109.927 24.8223 110.399 24.7043 110.797 24.4789C111.194 24.2536 111.515 23.9531 111.773 23.5883C112.031 23.2234 112.213 22.8049 112.342 22.3435C112.46 21.8821 112.524 21.4099 112.524 20.927C112.524 20.4549 112.46 19.9934 112.342 19.5213C112.224 19.0491 112.031 18.6414 111.773 18.2765C111.515 17.9117 111.194 17.6219 110.797 17.3966C110.399 17.1712 109.927 17.0532 109.391 17.0532C108.854 17.0532 108.382 17.1712 107.985 17.3966C107.588 17.6219 107.266 17.9224 107.009 18.2765C106.751 18.6414 106.569 19.0491 106.44 19.5213C106.322 19.9934 106.257 20.4549 106.257 20.927C106.257 21.4099 106.322 21.8821 106.44 22.3435C106.558 22.8049 106.751 23.2234 107.009 23.5883C107.266 23.9531 107.588 24.2536 107.985 24.4789C108.382 24.715 108.854 24.8223 109.391 24.8223ZM115.658 15.4328H117.493V12.1277H119.918V15.4328H122.107V17.2463H119.918V23.1269C119.918 23.3844 119.928 23.599 119.95 23.7922C119.971 23.9746 120.025 24.1356 120.1 24.2643C120.175 24.3931 120.293 24.4897 120.454 24.5541C120.615 24.6184 120.819 24.6506 121.098 24.6506C121.27 24.6506 121.442 24.6506 121.613 24.6399C121.785 24.6292 121.957 24.6077 122.128 24.5648V26.4427C121.86 26.4749 121.592 26.4963 121.345 26.5285C121.087 26.5607 120.83 26.5715 120.562 26.5715C119.918 26.5715 119.403 26.5071 119.016 26.389C118.63 26.271 118.319 26.0886 118.104 25.8525C117.879 25.6164 117.739 25.3267 117.654 24.9726C117.578 24.6184 117.525 24.2107 117.514 23.76V17.2678H115.679V15.4328H115.658Z" fill="#333333"/>
<path d="M29.6605 11.2371H18.5434L15.1095 0.656494L11.6649 11.2371L0.547729 11.2264L9.55092 17.7722L6.10631 28.3421L15.1095 21.807L24.102 28.3421L20.6681 17.7722L29.6605 11.2371Z" fill="#00B67A"/>
<path d="M21.4407 20.1654L20.6681 17.7725L15.1095 21.8073L21.4407 20.1654Z" fill="#005128"/>
</svg>
