<svg width="35" height="35" viewBox="0 0 35 35" fill="none" xmlns="http://www.w3.org/2000/svg">
<path d="M19.3084 6.19775C26.9543 6.19775 33.1958 12.3872 33.1958 20.0851C33.1958 27.7829 26.9543 33.9204 19.3084 33.9204C11.6626 33.9204 5.42114 27.7309 5.42114 20.0851" stroke="#1062AA" stroke-width="2" stroke-miterlimit="10" stroke-linecap="round" stroke-linejoin="round"/>
<path d="M16.2396 6.50996C17.2279 6.30191 18.2681 6.14587 19.3084 6.14587V1.88086" stroke="#1062AA" stroke-width="2" stroke-linecap="round" stroke-linejoin="round"/>
<path d="M6.04529 16.0799C6.35736 15.0917 6.77346 14.1034 7.29359 13.2192" stroke="#1062AA" stroke-width="2" stroke-linecap="round" stroke-linejoin="round"/>
<path d="M10.3103 9.52648C11.0905 8.85032 11.9747 8.27818 12.9109 7.75806" stroke="#1062AA" stroke-width="2" stroke-linecap="round" stroke-linejoin="round"/>
<path d="M1 23.7258L5.52508 19.981L10.1542 23.7258" stroke="#1062AA" stroke-width="2" stroke-miterlimit="10" stroke-linecap="round" stroke-linejoin="round"/>
<path d="M20.8688 23.57C20.8688 23.57 21.4409 23.622 21.701 23.2579L22.2731 22.5298C22.5332 22.1657 23.2094 21.9576 23.8855 22.3217C24.2496 22.5298 24.9258 22.9459 25.2899 23.2059C25.706 23.518 26.5902 24.2462 26.5902 24.2462C27.0063 24.6103 27.1103 25.1304 26.8502 25.7025C26.5382 26.2227 26.1741 26.7428 25.6539 27.1589C25.2379 27.523 24.8217 27.679 24.4577 27.731C24.4057 27.731 24.3536 27.731 24.3016 27.731C24.1456 27.731 23.9375 27.731 23.7815 27.627C23.1574 27.471 22.1691 27.0028 20.4527 26.0666C19.3605 25.4425 18.4242 24.8183 17.644 24.1942C17.2279 23.8821 16.8118 23.518 16.3957 23.1019L16.3437 23.0499L16.2917 22.9979L16.2397 22.9459L16.1877 22.8939C15.7716 22.4778 15.4075 22.0617 15.0954 21.6456C14.4713 20.8654 13.8471 19.9292 13.223 18.8369C12.2868 17.1205 11.8707 16.1323 11.6626 15.5081C11.6106 15.3521 11.5586 15.144 11.5586 14.988C11.5586 14.936 11.5586 14.884 11.5586 14.8319C11.6106 14.4158 11.8187 14.0518 12.1307 13.6357C12.5988 13.1155 13.067 12.7514 13.5871 12.4394C14.1592 12.1273 14.6793 12.2313 15.0434 12.6994C15.0434 12.6994 15.7716 13.5836 16.0837 13.9997C16.3957 14.4158 16.8118 15.04 16.9679 15.4041C17.332 16.0802 17.1239 16.7044 16.7598 17.0165L16.0317 17.5886C15.6676 17.9007 15.7196 18.4208 15.7196 18.4208C15.7196 18.4208 16.8639 22.5818 20.8688 23.57Z" stroke="#1062AA" stroke-width="2" stroke-miterlimit="10" stroke-linecap="round" stroke-linejoin="round"/>
<path d="M13.847 1.88086H24.7696" stroke="#1062AA" stroke-width="2" stroke-miterlimit="10" stroke-linecap="round" stroke-linejoin="round"/>
</svg>
