<svg width="34" height="35" viewBox="0 0 34 35" fill="none" xmlns="http://www.w3.org/2000/svg">
<circle cx="17" cy="17.8809" r="16" stroke="#1062AA" stroke-width="2"/>
<path d="M25.1262 23.8048L23.2772 21.9559C23.1104 21.7891 22.8841 21.6953 22.6481 21.6953H21.5769V19.8892H24.4968C24.9883 19.8892 25.3866 19.4909 25.3866 18.9994C25.3866 18.508 24.9883 18.1096 24.4968 18.1096H21.5769V16.3036H22.6481C22.8841 16.3036 23.1104 16.2099 23.2772 16.043L25.1261 14.1941C25.4735 13.8466 25.4735 13.2832 25.1259 12.9357C24.7785 12.5883 24.2151 12.5883 23.8677 12.9358L22.2794 14.5242H20.6871H20.6805V14.0693C20.6805 13.1631 20.3413 12.3351 19.7842 11.7039V9.99623C19.7842 9.5048 19.3857 9.10645 18.8944 9.10645C18.403 9.10645 18.0046 9.5048 18.0046 9.99623V10.606C17.7159 10.5307 17.4133 10.4904 17.1015 10.4904C16.7897 10.4904 16.4872 10.5307 16.1985 10.606V9.99623C16.1985 9.5048 15.8002 9.10645 15.3087 9.10645C14.8175 9.10645 14.4189 9.5048 14.4189 9.99623V11.704C13.8618 12.3352 13.5226 13.1632 13.5226 14.0694V14.5243H13.5162H11.9237L10.3354 12.9359C9.98807 12.5884 9.42466 12.5884 9.0772 12.9358C8.72965 13.2833 8.72965 13.8467 9.07702 14.1941L10.9259 16.0431C11.0927 16.21 11.319 16.3037 11.555 16.3037H12.6262V18.1097H9.70619C9.21476 18.1097 8.81641 18.5081 8.81641 18.9995C8.81641 19.4909 9.21476 19.8893 9.70619 19.8893H12.6262V21.6954H11.555C11.319 21.6954 11.0927 21.7892 10.9259 21.956L9.07702 23.8048C8.72965 24.1523 8.72965 24.7157 9.07702 25.0632C9.2508 25.237 9.47849 25.3238 9.70628 25.3238C9.93398 25.3238 10.1616 25.237 10.3354 25.0632L11.9236 23.475H12.7154C13.1291 25.5179 14.9386 27.0605 17.1017 27.0605C19.2648 27.0605 21.0742 25.5178 21.4879 23.475H22.2796L23.8678 25.0632C24.0416 25.237 24.2693 25.3238 24.4969 25.3238C24.7248 25.3238 24.9524 25.237 25.1262 25.0632C25.4735 24.7158 25.4735 24.1524 25.1262 23.8048ZM17.1016 12.2698C18.0937 12.2698 18.901 13.077 18.901 14.0692V14.5241H15.3021V14.0692H15.302C15.302 13.077 16.1092 12.2698 17.1016 12.2698ZM19.7972 22.5852C19.7973 23.7599 19.0418 24.761 17.9913 25.1294V18.9995C17.9913 18.5081 17.593 18.1097 17.1016 18.1097C16.6103 18.1097 16.2118 18.5081 16.2118 18.9995V25.1294C15.1614 24.761 14.4058 23.76 14.4058 22.5852V16.3037H14.4122H19.7907H19.7972V22.5852Z" fill="#1062AA"/>
</svg>
