<svg width="39" height="53" viewBox="0 0 39 53" fill="none" xmlns="http://www.w3.org/2000/svg">
<path d="M19.4676 27.033C23.6528 27.033 27.0456 23.6402 27.0456 19.455C27.0456 15.2698 23.6528 11.8771 19.4676 11.8771C15.2824 11.8771 11.8896 15.2698 11.8896 19.455C11.8896 23.6402 15.2824 27.033 19.4676 27.033Z" stroke="#1062AA" stroke-width="3" stroke-linecap="round" stroke-linejoin="round"/>
<path d="M19.4789 50.5345L4.65004 28.7028C2.99979 26.0603 2.08681 23.0242 2.00589 19.9098C1.92497 16.7953 2.67903 13.7159 4.18983 10.9913C5.70062 8.26658 7.91309 5.99591 10.5976 4.41485C13.2821 2.83379 16.3409 2 19.4564 2C22.5719 2 25.6306 2.83379 28.3151 4.41485C30.9996 5.99591 33.2121 8.26658 34.7229 10.9913C36.2337 13.7159 36.9878 16.7953 36.9068 19.9098C36.8259 23.0242 35.913 26.0603 34.2627 28.7028L19.4789 50.5345Z" stroke="#1062AA" stroke-width="3" stroke-linecap="round" stroke-linejoin="round"/>
</svg>
