<svg width="46" height="42" viewBox="0 0 46 42" fill="none" xmlns="http://www.w3.org/2000/svg">
<circle cx="27.7887" cy="17.8857" r="12.0177" transform="rotate(150 27.7887 17.8857)" stroke="white" stroke-width="2"/>
<path d="M17.2412 24.351L7.09489 30.2089" stroke="white" stroke-width="2" stroke-linecap="round" stroke-linejoin="round"/>
<path d="M31.8192 22.8902H23.5785C23.486 22.8902 22.7201 22.8507 22.2843 22.2445C21.8221 21.5988 22.0201 20.874 22.205 20.3733C23.0634 18.0803 25.2689 16.5517 27.7252 16.5517C30.1552 16.5517 32.2946 18.0013 33.1926 20.2547C33.4699 20.9531 33.4435 21.7569 33.1134 22.2313C32.6644 22.8771 31.8984 22.8902 31.8192 22.8902ZM27.7252 17.5005C25.6783 17.5005 23.8162 18.7919 23.1031 20.7027C22.8785 21.2957 22.9578 21.5329 23.0634 21.6911C23.2219 21.9151 23.5917 21.9414 23.5917 21.9414H31.806C31.806 21.9414 32.1493 21.9283 32.3078 21.6911C32.4134 21.5329 32.4795 21.0849 32.2946 20.5973C31.555 18.726 29.759 17.5005 27.7252 17.5005Z" fill="white" stroke="white"/>
<path d="M27.7259 17.5005C25.9166 17.5005 24.4375 16.0377 24.4375 14.2192C24.4375 12.4007 25.9166 10.9511 27.7259 10.9511C29.5351 10.9511 31.0142 12.4138 31.0142 14.2324C31.0142 16.0509 29.5351 17.5005 27.7259 17.5005ZM27.7259 11.8999C26.4448 11.8999 25.4016 12.941 25.4016 14.2192C25.4016 15.4974 26.4448 16.5385 27.7259 16.5385C29.0069 16.5385 30.0501 15.4974 30.0501 14.2192C30.0501 12.941 29.0069 11.8999 27.7259 11.8999Z" fill="white" stroke="white"/>
</svg>
