<svg width="24" height="25" viewBox="0 0 24 25" fill="none" xmlns="http://www.w3.org/2000/svg">
<path d="M19.8092 23.8701H4.02368C3.8466 23.8701 2.37935 23.7944 1.54454 22.6332C0.659127 21.3963 1.03859 20.008 1.39275 19.0487C3.03708 14.6565 7.26174 11.7283 11.9671 11.7283C16.6218 11.7283 20.7199 14.505 22.4402 18.8215C22.9714 20.1594 22.9208 21.6992 22.2884 22.608C21.4283 23.8449 19.961 23.8701 19.8092 23.8701ZM11.9671 13.5458C8.04596 13.5458 4.47903 16.0196 3.11297 19.6798C2.68292 20.8157 2.8347 21.2701 3.03708 21.573C3.34065 22.0021 4.04898 22.0526 4.04898 22.0526H19.7839C19.7839 22.0526 20.4417 22.0274 20.7452 21.573C20.9476 21.2701 21.0741 20.4118 20.72 19.4779C19.3033 15.8934 15.8629 13.5458 11.9671 13.5458Z" fill="white" stroke="white" stroke-width="0.5"/>
<path d="M11.9674 13.5457C8.50164 13.5457 5.66833 10.7438 5.66833 7.26025C5.66833 3.77672 8.50164 1 11.9674 1C15.4331 1 18.2664 3.80197 18.2664 7.28549C18.2664 10.769 15.4331 13.5457 11.9674 13.5457ZM11.9674 2.81749C9.51354 2.81749 7.51504 4.81168 7.51504 7.26025C7.51504 9.70881 9.51354 11.703 11.9674 11.703C14.4212 11.703 16.4197 9.70881 16.4197 7.26025C16.4197 4.81168 14.4212 2.81749 11.9674 2.81749Z" fill="white" stroke="white" stroke-width="0.5"/>
</svg>
