<svg width="70" height="50" viewBox="0 0 70 50" fill="none" xmlns="http://www.w3.org/2000/svg">
<g clip-path="url(#clip0)">
<path d="M7.03328 40.6113C6.96002 40.6113 6.81349 40.6841 6.5937 40.6841C6.37391 40.6841 6.15412 40.7569 5.86107 40.7569C5.56802 40.7569 5.27496 40.8297 4.90865 40.8297C4.54233 40.8297 4.17601 40.8297 3.80969 40.8297C3.0038 40.8297 2.41769 40.7569 1.90485 40.6113C1.392 40.4658 1.02569 40.3202 0.732634 40.1019C0.43958 39.8835 0.293053 39.5924 0.146527 39.3013C0.0732634 39.083 0 38.7918 0 38.5007C0 38.064 0.0732634 37.7729 0.21979 37.409C0.366317 37.1179 0.512844 36.8268 0.805897 36.6084C1.09895 36.3901 1.46527 36.2445 1.90485 36.1718C2.34443 36.099 2.93053 36.0262 3.5899 36.0262C3.95622 36.0262 4.32254 36.0262 4.68886 36.099C5.05517 36.099 5.27496 36.1718 5.42149 36.1718C5.42149 35.8079 5.34823 35.5167 5.27496 35.2984C5.12844 35.0801 4.98191 34.8617 4.83538 34.7889C4.61559 34.6434 4.3958 34.5706 4.10275 34.4978C3.80969 34.425 3.51664 34.425 3.15032 34.425C2.56422 34.425 2.12464 34.4978 1.75832 34.6434C1.392 34.7889 1.17221 34.8617 1.09895 34.9345C1.02569 34.8617 0.952424 34.7889 0.87916 34.6434C0.805897 34.4978 0.732634 34.3523 0.732634 34.1339C0.732634 33.9883 0.805897 33.8428 0.87916 33.6972C0.952424 33.5517 1.09895 33.4789 1.24548 33.3333C1.46527 33.2605 1.68506 33.115 1.97811 33.115C2.27116 33.0422 2.71074 33.0422 3.15032 33.0422C3.73643 33.0422 4.24927 33.115 4.76212 33.1878C5.27496 33.3333 5.64128 33.4789 6.0076 33.6972C6.37391 33.9156 6.5937 34.2795 6.81349 34.6434C7.03328 35.0801 7.10655 35.5167 7.10655 36.099V40.6113H7.03328ZM5.42149 37.3362C5.34823 37.3362 5.12844 37.2635 4.83538 37.2635C4.54233 37.1907 4.17601 37.1907 3.5899 37.1907C2.93053 37.1907 2.41769 37.2635 2.12464 37.4818C1.83158 37.7001 1.68506 37.9913 1.68506 38.4279C1.68506 38.5735 1.68506 38.7918 1.75832 38.9374C1.83158 39.083 1.90485 39.2285 2.12464 39.3013C2.27116 39.3741 2.49095 39.4469 2.78401 39.5196C3.07706 39.5924 3.37011 39.5924 3.80969 39.5924C4.24927 39.5924 4.61559 39.5924 4.90865 39.5196C5.2017 39.5196 5.34823 39.4469 5.42149 39.4469V37.3362Z" fill="white"/>
<path d="M8.86487 31.9505C8.86487 31.6594 8.93813 31.441 9.08466 31.3682C9.23119 31.2227 9.45098 31.1499 9.74403 31.1499C9.89056 31.1499 10.1103 31.1499 10.2569 31.2227C10.4034 31.2955 10.4767 31.2955 10.5499 31.2955V33.1877H12.6746C12.9676 33.1877 13.2607 33.2605 13.3339 33.4061C13.4805 33.5517 13.5537 33.6972 13.5537 33.9883C13.5537 34.1339 13.5537 34.2795 13.4805 34.425C13.4072 34.5706 13.4072 34.6434 13.3339 34.7161H10.4767V37.9912C10.4767 38.2824 10.4767 38.4279 10.5499 38.6463C10.6232 38.7918 10.6965 38.9374 10.843 39.0102C10.9895 39.0829 11.136 39.1557 11.2826 39.2285C11.4291 39.3013 11.6489 39.3013 11.7954 39.3013C12.0885 39.3013 12.3815 39.2285 12.6013 39.1557C12.8211 39.0829 13.0409 39.0102 13.1141 38.9374L13.7735 40.0291C13.7003 40.1019 13.5537 40.1746 13.4072 40.2474C13.2607 40.3202 13.1141 40.393 12.8944 40.4658C12.6746 40.5385 12.4548 40.6113 12.1617 40.6841C11.8687 40.7569 11.6489 40.7569 11.2826 40.7569C10.4034 40.7569 9.74403 40.5385 9.30445 40.1019C8.86487 39.6652 8.64508 39.0829 8.64508 38.3551V31.9505H8.86487Z" fill="white"/>
<path d="M18.5356 33.0422C19.1217 33.0422 19.6346 33.115 20.1474 33.3333C20.6602 33.5517 21.0998 33.77 21.4661 34.1339C21.8325 34.4978 22.1255 34.8617 22.3453 35.3712C22.5651 35.8806 22.6384 36.3901 22.6384 36.8996C22.6384 37.4818 22.5651 37.9913 22.3453 38.4279C22.1255 38.9374 21.8325 39.3013 21.4661 39.6652C21.0998 40.0291 20.6602 40.3202 20.1474 40.4658C19.6346 40.6841 19.1217 40.7569 18.5356 40.7569C17.9495 40.7569 17.4367 40.6841 16.9238 40.4658C16.411 40.2474 15.9714 39.9563 15.6051 39.6652C15.2388 39.3013 14.9457 38.9374 14.7259 38.4279C14.5061 37.9185 14.4329 37.409 14.4329 36.8996C14.4329 36.3173 14.5061 35.8079 14.7259 35.3712C14.9457 34.8617 15.2388 34.4978 15.6051 34.1339C15.9714 33.77 16.411 33.4789 16.9238 33.3333C17.4367 33.115 17.9495 33.0422 18.5356 33.0422ZM18.5356 39.3741C18.9019 39.3741 19.195 39.3013 19.488 39.1557C19.7811 39.0102 20.0009 38.8646 20.2207 38.6463C20.4405 38.4279 20.587 38.1368 20.6602 37.8457C20.8068 37.5546 20.8068 37.2635 20.8068 36.8996C20.8068 36.5357 20.7335 36.2445 20.6602 35.9534C20.5137 35.6623 20.3672 35.3712 20.2207 35.1528C20.0009 34.9345 19.7811 34.7889 19.488 34.6434C19.195 34.4978 18.9019 34.425 18.5356 34.425C18.1693 34.425 17.8762 34.4978 17.5832 34.6434C17.2901 34.7889 17.0703 34.9345 16.8506 35.1528C16.6308 35.3712 16.4842 35.6623 16.411 35.9534C16.2644 36.2445 16.2644 36.6084 16.2644 36.8996C16.2644 37.2635 16.3377 37.5546 16.411 37.8457C16.5575 38.1368 16.704 38.3552 16.8506 38.6463C17.0703 38.8646 17.2901 39.0102 17.5832 39.1557C17.8762 39.3013 18.1693 39.3741 18.5356 39.3741Z" fill="white"/>
<path d="M24.0304 35.8806C24.0304 35.444 24.1037 35.0073 24.2502 34.6434C24.3967 34.2795 24.6165 33.9883 24.9096 33.77C25.2026 33.5517 25.5689 33.3333 25.9352 33.2605C26.3016 33.115 26.7411 33.0422 27.254 33.0422C27.8401 33.0422 28.4262 33.1878 28.8658 33.4061C29.3786 33.6244 29.7449 33.9883 30.038 34.425C30.331 33.9883 30.6974 33.6244 31.2102 33.4061C31.6498 33.1878 32.2359 33.0422 32.822 33.0422C33.2616 33.0422 33.7012 33.115 34.0675 33.1878C34.4338 33.3333 34.8001 33.4789 35.0932 33.6972C35.3862 33.9156 35.606 34.2067 35.7525 34.5706C35.8991 34.9345 35.9723 35.3712 35.9723 35.8079V40.6114H34.2873V36.3901C34.2873 35.7351 34.1407 35.2256 33.8477 34.9345C33.5546 34.6434 33.115 34.4978 32.6022 34.4978C32.0894 34.4978 31.6498 34.6434 31.3567 35.0073C30.9904 35.2984 30.8439 35.8806 30.8439 36.6084V40.6114H29.1588V36.6084C29.1588 35.8806 29.0123 35.3712 28.646 35.0073C28.2797 34.7161 27.9134 34.4978 27.4005 34.4978C26.8877 34.4978 26.4481 34.6434 26.155 34.9345C25.862 35.2256 25.7155 35.7351 25.7155 36.3901V40.5386H24.0304V35.8806Z" fill="white"/>
<path d="M37.5841 37.2635C37.5841 36.6084 37.6574 35.9534 37.8772 35.444C38.097 34.9345 38.3167 34.4978 38.6831 34.1339C39.0494 33.77 39.489 33.4789 40.0018 33.3333C40.5146 33.115 41.0275 33.0422 41.6869 33.0422C42.273 33.0422 42.7858 33.115 43.2254 33.3333C43.665 33.5517 44.1045 33.77 44.4709 34.1339C44.8372 34.4978 45.1302 34.8617 45.2768 35.3712C45.4965 35.8806 45.5698 36.3901 45.5698 36.8996C45.5698 37.4818 45.4965 37.9913 45.2768 38.5007C45.057 39.0102 44.8372 39.3741 44.4709 39.738C44.1045 40.1019 43.7382 40.3202 43.2986 40.5386C42.8591 40.7569 42.3462 40.8297 41.7601 40.8297C41.174 40.8297 40.7344 40.7569 40.2949 40.5386C39.8553 40.3202 39.489 40.0291 39.2692 39.738V43.5953H37.5841V37.2635ZM41.6136 39.3741C41.9799 39.3741 42.273 39.3013 42.566 39.1557C42.8591 39.0102 43.0789 38.8646 43.2986 38.6463C43.5184 38.4279 43.665 38.2096 43.7382 37.8457C43.8115 37.5546 43.8848 37.2635 43.8848 36.8996C43.8848 36.5357 43.8115 36.2445 43.7382 35.9534C43.665 35.6623 43.4452 35.444 43.2986 35.2256C43.0789 35.0073 42.8591 34.8617 42.566 34.7162C42.273 34.5706 41.9799 34.4978 41.6136 34.4978C41.2473 34.4978 40.9542 34.5706 40.6612 34.6434C40.3681 34.7889 40.1483 34.9345 39.9285 35.1528C39.7087 35.3712 39.5622 35.5895 39.489 35.8806C39.3424 36.1718 39.3424 36.4629 39.3424 36.8268C39.3424 37.1907 39.4157 37.4818 39.489 37.7729C39.6355 38.064 39.782 38.3552 39.9285 38.5735C40.1483 38.7918 40.3681 38.9374 40.6612 39.083C40.9542 39.3013 41.2473 39.3741 41.6136 39.3741Z" fill="white"/>
<path d="M53.7753 40.6113C53.702 40.6113 53.5555 40.6841 53.3357 40.6841C53.1159 40.6841 52.8961 40.7569 52.6031 40.7569C52.31 40.7569 52.017 40.8297 51.6507 40.8297C51.2843 40.8297 50.918 40.8297 50.5517 40.8297C49.7458 40.8297 49.1597 40.7569 48.6469 40.6113C48.134 40.4658 47.7677 40.3202 47.4746 40.1019C47.1816 39.8835 47.0351 39.5924 46.8885 39.3013C46.8153 39.0102 46.742 38.7191 46.742 38.4279C46.742 37.9913 46.8153 37.7001 46.9618 37.3362C47.1083 37.0451 47.2548 36.754 47.5479 36.5357C47.841 36.3173 48.2073 36.1718 48.6469 36.099C49.0864 36.0262 49.6725 35.9534 50.3319 35.9534C50.6982 35.9534 51.0645 35.9534 51.4309 36.0262C51.7972 36.0262 52.017 36.099 52.1635 36.099C52.1635 35.7351 52.0902 35.444 52.017 35.2256C51.8704 35.0073 51.7239 34.7889 51.5774 34.7161C51.3576 34.5706 51.1378 34.4978 50.8448 34.425C50.5517 34.3522 50.2586 34.3522 49.8923 34.3522C49.3062 34.3522 48.8666 34.425 48.5003 34.5706C48.134 34.7161 47.9142 34.7889 47.841 34.8617C47.7677 34.7889 47.6944 34.7161 47.6212 34.5706C47.5479 34.425 47.4746 34.2795 47.4746 34.0611C47.4746 33.9156 47.5479 33.77 47.6212 33.6244C47.6944 33.4789 47.841 33.4061 47.9875 33.2605C48.2073 33.1878 48.4271 33.0422 48.7201 33.0422C49.0132 32.9694 49.4527 32.9694 49.8923 32.9694C50.4784 32.9694 50.9913 33.0422 51.5041 33.115C52.017 33.2605 52.3833 33.4061 52.7496 33.6244C53.1159 33.8428 53.3357 34.2067 53.5555 34.5706C53.7753 35.0073 53.8486 35.4439 53.8486 36.0262V40.6113H53.7753ZM52.0902 37.3362C52.017 37.3362 51.7972 37.2635 51.5041 37.2635C51.2111 37.1907 50.8448 37.1907 50.2586 37.1907C49.5993 37.1907 49.0864 37.2635 48.7934 37.4818C48.5003 37.7001 48.3538 37.9913 48.3538 38.4279C48.3538 38.5735 48.3538 38.7918 48.4271 38.9374C48.5003 39.083 48.5736 39.2285 48.7934 39.3013C48.9399 39.3741 49.1597 39.4469 49.4527 39.5196C49.7458 39.5924 50.0389 39.5924 50.4784 39.5924C50.918 39.5924 51.2843 39.5924 51.5774 39.5196C51.8704 39.5196 52.017 39.4469 52.0902 39.4469V37.3362Z" fill="white"/>
<path d="M55.4604 35.8806C55.4604 35.0073 55.7534 34.2795 56.2663 33.77C56.8524 33.2605 57.585 33.0422 58.6107 33.0422C59.1968 33.0422 59.7097 33.115 60.1492 33.3333C60.5156 33.4789 60.7353 33.77 60.7353 34.1339C60.7353 34.2795 60.6621 34.4978 60.5888 34.6434C60.5156 34.7889 60.4423 34.9345 60.369 34.9345C60.2225 34.8617 60.0027 34.7889 59.7829 34.7162C59.5631 34.6434 59.2701 34.6434 58.9038 34.6434C57.7316 34.6434 57.1454 35.2256 57.1454 36.4629V40.7569H55.4604V35.8806Z" fill="white"/>
<path d="M61.6145 30.5677C61.6145 30.2766 61.6878 30.131 61.8343 29.9854C61.9808 29.8399 62.2006 29.7671 62.4937 29.7671C62.6402 29.7671 62.86 29.7671 63.0065 29.8399C63.153 29.9126 63.2263 29.9126 63.2996 29.9126V35.9534C63.4461 35.8806 63.5926 35.7351 63.8124 35.5895C64.0322 35.4439 64.3252 35.2256 64.6183 35.0073C64.9114 34.7889 65.2044 34.5706 65.4975 34.3522C65.7905 34.1339 66.0836 33.9156 66.3766 33.6972C66.5964 33.5517 66.8162 33.4061 66.9627 33.3333C67.1093 33.2605 67.4023 33.1878 67.6954 33.1878C67.9884 33.1878 68.2082 33.2605 68.3547 33.4061C68.5745 33.5517 68.6478 33.6972 68.721 33.77C68.5013 33.9883 68.2082 34.2067 67.8419 34.425C67.4756 34.7161 67.1093 34.9345 66.7429 35.2256C66.3766 35.5167 66.0103 35.7351 65.644 35.9534C65.2777 36.1718 65.0579 36.3173 64.9114 36.4629C65.7172 37.0451 66.5231 37.7729 67.1825 38.5007C67.8419 39.2285 68.428 39.8835 68.9408 40.5386H66.8162C66.5964 40.2474 66.3034 39.9563 66.0836 39.6652C65.7905 39.3741 65.4975 39.083 65.2044 38.7918C64.9114 38.5007 64.545 38.2096 64.252 37.9185C63.8857 37.6274 63.5926 37.409 63.2996 37.1907V40.5386H61.6145V30.5677Z" fill="white"/>
<path d="M7.25308 48.9811C7.25308 48.9811 7.32634 49.0539 7.47287 49.0539C7.54613 49.1267 7.69266 49.1267 7.83918 49.1994C7.98571 49.2722 8.13224 49.2722 8.27876 49.345C8.42529 49.345 8.64508 49.4178 8.86487 49.4178C9.15792 49.4178 9.37771 49.4178 9.52424 49.345C9.67077 49.2722 9.74403 49.1267 9.74403 48.9811C9.74403 48.8355 9.67077 48.7628 9.5975 48.69C9.52424 48.6172 9.30445 48.5444 9.0114 48.5444L8.42529 48.4716C8.2055 48.4716 8.05897 48.3989 7.83918 48.3261C7.61939 48.2533 7.54613 48.1805 7.3996 48.1077C7.25308 48.0349 7.17981 47.8894 7.10655 47.7438C7.03329 47.5983 7.03329 47.4527 7.03329 47.2344C7.03329 47.0888 7.03329 46.9432 7.10655 46.7977C7.17981 46.6521 7.25308 46.5066 7.3996 46.4338C7.54613 46.2882 7.69266 46.2154 7.91245 46.1427C8.13224 46.0699 8.42529 46.0699 8.71834 46.0699C9.23119 46.0699 9.67077 46.1427 9.96382 46.2154C10.2569 46.361 10.4034 46.5066 10.4034 46.6521C10.4034 46.7249 10.4034 46.7977 10.4034 46.7977C10.4034 46.7977 10.3301 46.8705 10.3301 46.9432L10.2569 47.016L10.1836 47.0888C10.1836 47.0888 10.1103 47.016 10.0371 47.016C9.96382 46.9432 9.89056 46.9432 9.74403 46.8705C9.5975 46.7977 9.45098 46.7977 9.30445 46.7249C9.15792 46.7249 8.93813 46.6521 8.71834 46.6521C8.13224 46.6521 7.83918 46.7977 7.83918 47.0888C7.83918 47.2344 7.91245 47.3071 7.98571 47.3799C8.13224 47.4527 8.27876 47.5255 8.49855 47.5255L9.30445 47.5983C9.74403 47.6711 10.0371 47.7438 10.3301 47.9622C10.6232 48.1805 10.6965 48.3989 10.6965 48.7628C10.6965 49.1267 10.5499 49.4906 10.2569 49.7089C9.96382 49.9272 9.52424 50.0728 8.93813 50.0728C8.64508 50.0728 8.42529 50.0728 8.2055 50C7.98571 49.9272 7.76592 49.9272 7.61939 49.8545C7.47287 49.7817 7.32634 49.7817 7.17981 49.7089C7.10655 49.6361 7.03329 49.6361 6.96002 49.5633L7.25308 48.9811Z" fill="#F8BA00"/>
<path d="M16.4842 45.9243C16.7773 45.9243 17.0703 45.9971 17.2901 46.0699C17.5832 46.1427 17.803 46.2882 17.9495 46.5066C18.1693 46.7249 18.3158 46.8705 18.3891 47.1616C18.4623 47.3799 18.5356 47.671 18.5356 47.9622C18.5356 48.2533 18.4623 48.5444 18.3891 48.7627C18.3158 48.9811 18.096 49.1994 17.9495 49.4178C17.7297 49.6361 17.5099 49.7089 17.2901 49.8544C16.9971 49.9272 16.7773 50 16.4842 50C16.1912 50 15.8981 49.9272 15.6783 49.8544C15.3853 49.7817 15.1655 49.6361 15.019 49.4178C14.7992 49.1994 14.6527 49.0539 14.5794 48.7627C14.5061 48.5444 14.4329 48.2533 14.4329 47.9622C14.4329 47.671 14.5061 47.3799 14.5794 47.1616C14.6527 46.9432 14.8724 46.7249 15.019 46.5066C15.2388 46.2882 15.4585 46.2154 15.6783 46.0699C15.8981 45.9971 16.1912 45.9243 16.4842 45.9243ZM16.4842 49.2722C16.6308 49.2722 16.8506 49.2722 16.9971 49.1994C17.1436 49.1266 17.2901 49.0539 17.3634 48.9083C17.4367 48.7627 17.5832 48.69 17.5832 48.4716C17.6565 48.3261 17.6565 48.1805 17.6565 47.9622C17.6565 47.8166 17.6565 47.5983 17.5832 47.4527C17.5099 47.3071 17.4367 47.1616 17.3634 47.016C17.2901 46.8705 17.1436 46.7977 16.9971 46.7249C16.8506 46.6521 16.704 46.6521 16.4842 46.6521C16.3377 46.6521 16.1179 46.6521 15.9714 46.7249C15.8249 46.7977 15.6783 46.8705 15.6051 47.016C15.5318 47.1616 15.3853 47.2344 15.3853 47.4527C15.312 47.5983 15.312 47.7438 15.312 47.9622C15.312 48.1077 15.312 48.3261 15.3853 48.4716C15.4585 48.6172 15.5318 48.7627 15.6051 48.9083C15.6783 49.0539 15.8249 49.1266 15.9714 49.1994C16.1912 49.1994 16.3377 49.2722 16.4842 49.2722Z" fill="#F8BA00"/>
<path d="M22.4918 45.7787C22.4918 45.4876 22.5651 45.2693 22.6384 45.0509C22.7116 44.8326 22.8582 44.687 22.9314 44.5415C23.0779 44.3959 23.2245 44.3231 23.4443 44.2504C23.6641 44.1776 23.8838 44.1776 24.1036 44.1776C24.5432 44.1776 24.8363 44.2504 24.9828 44.3231C25.1293 44.3959 25.2758 44.5415 25.2758 44.687C25.2758 44.7598 25.2758 44.8326 25.2026 44.9054C25.1293 44.9782 25.1293 45.0509 25.0561 45.0509C24.9828 44.9782 24.8363 44.9054 24.6897 44.9054C24.5432 44.8326 24.3967 44.8326 24.2502 44.8326C23.9571 44.8326 23.7373 44.9054 23.5908 45.0509C23.4443 45.1965 23.371 45.4148 23.371 45.706V45.9243H24.5432C24.6897 45.9243 24.8363 45.9243 24.9095 45.9971C24.9828 46.0699 24.9828 46.1426 24.9828 46.2882C24.9828 46.361 24.9828 46.4338 24.9095 46.5065C24.9095 46.5793 24.8363 46.6521 24.8363 46.6521H23.2977V49.7089H22.4186V45.7787H22.4918Z" fill="#F8BA00"/>
<path d="M28.4995 45.3421C28.4995 45.1965 28.5727 45.1237 28.646 45.051C28.7192 44.9782 28.8658 44.9782 29.0123 44.9782C29.0856 44.9782 29.1588 44.9782 29.3053 44.9782C29.3786 44.9782 29.4519 45.051 29.4519 45.051V46.0699H30.5508C30.6973 46.0699 30.8439 46.0699 30.9171 46.1427C30.9904 46.2154 30.9904 46.2882 30.9904 46.4338C30.9904 46.5066 30.9904 46.5793 30.9171 46.6521C30.9171 46.7249 30.8439 46.7977 30.8439 46.7977H29.3786V48.5444C29.3786 48.69 29.3786 48.7628 29.4519 48.8355C29.4519 48.9083 29.5251 48.9811 29.5984 49.0539C29.6717 49.1267 29.7449 49.1267 29.8182 49.1267C29.8915 49.1267 29.9647 49.1267 30.1112 49.1267C30.2578 49.1267 30.4043 49.1267 30.5508 49.0539C30.6973 48.9811 30.7706 48.9811 30.8439 48.9083L31.2102 49.4906C31.1369 49.4906 31.1369 49.5633 31.0637 49.6361C30.9904 49.7089 30.9171 49.7089 30.7706 49.7817C30.6241 49.8545 30.5508 49.8545 30.4043 49.8545C30.2578 49.8545 30.1112 49.9272 29.9647 49.9272C29.5251 49.9272 29.1588 49.7817 28.939 49.5633C28.7192 49.345 28.5727 49.0539 28.5727 48.6172V45.3421H28.4995Z" fill="#F8BA00"/>
<path d="M35.606 49.9272C35.3862 49.345 35.1664 48.8355 34.9466 48.3988C34.8001 47.9622 34.6535 47.671 34.5803 47.3799C34.507 47.0888 34.4338 46.8705 34.3605 46.7249C34.2872 46.5793 34.2872 46.5066 34.2872 46.4338C34.2872 46.361 34.2872 46.2154 34.3605 46.1427C34.4338 46.0699 34.5803 45.9971 34.7268 45.9971C34.8733 45.9971 34.9466 45.9971 35.0199 45.9971C35.0931 45.9971 35.0931 45.9971 35.1664 46.0699C35.2397 46.2882 35.3129 46.5066 35.3862 46.7977C35.4594 47.016 35.5327 47.3071 35.606 47.5255C35.6792 47.7438 35.7525 48.0349 35.8258 48.2533C35.899 48.4716 35.9723 48.69 36.0456 48.8355C36.1188 48.69 36.1921 48.4716 36.1921 48.2533C36.2653 48.0349 36.3386 47.8166 36.4119 47.5983C36.4851 47.3799 36.5584 47.1616 36.6317 46.9432C36.7049 46.7249 36.7782 46.5066 36.8514 46.2882C36.9247 46.1427 36.9247 46.0699 36.998 45.9971C37.0712 45.9243 37.2178 45.9243 37.3643 45.9243C37.4376 45.9243 37.5841 45.9243 37.6573 45.9971C37.7306 45.9971 37.8039 46.0699 37.8039 46.0699C37.8771 46.2882 37.9504 46.5793 38.0237 46.7977C38.0969 47.016 38.1702 47.3071 38.2435 47.5255C38.3167 47.7438 38.39 48.0349 38.4632 48.2533C38.5365 48.4716 38.6098 48.69 38.683 48.8355C38.8296 48.4716 38.9761 48.1077 39.1226 47.671C39.2691 47.2344 39.4157 46.7977 39.4889 46.4338C39.5622 46.2882 39.5622 46.1427 39.6355 46.0699C39.7087 45.9971 39.8552 45.9243 40.0018 45.9243C40.1483 45.9243 40.2216 45.9243 40.3681 45.9971C40.4413 46.0699 40.5146 46.0699 40.5146 46.0699C40.4414 46.2154 40.3681 46.5066 40.2948 46.7977C40.2216 47.0888 40.075 47.4527 39.9285 47.7438C39.782 48.1077 39.6355 48.4716 39.4889 48.8355C39.3424 49.1994 39.1959 49.4905 39.0493 49.7817H38.1702C38.0969 49.7089 38.0969 49.4905 38.0237 49.2722C37.9504 49.0539 37.8771 48.8355 37.8039 48.6172C37.7306 48.3988 37.6573 48.1077 37.5841 47.8894C37.5108 47.5983 37.4376 47.3799 37.3643 47.1616C37.291 47.3799 37.2178 47.5983 37.1445 47.8894C37.0712 48.1805 36.998 48.3988 36.9247 48.6172C36.8514 48.8355 36.7782 49.1266 36.7049 49.2722C36.6317 49.4905 36.5584 49.6361 36.5584 49.7817H35.606V49.9272Z" fill="#F8BA00"/>
<path d="M47.6212 49.9272C47.5479 49.9272 47.4747 49.9272 47.4014 49.9272C47.2549 49.9272 47.1816 49.9272 47.0351 50C46.8885 50 46.742 50 46.5222 50C46.3024 50 46.1559 50 45.9361 50C45.4965 50 45.2035 50 44.9837 49.9272C44.7639 49.8544 44.5441 49.7816 44.3976 49.6361C44.2511 49.4905 44.1778 49.4177 44.1045 49.1994C43.958 49.1266 43.958 48.9083 43.958 48.7627C43.958 48.5444 43.958 48.3988 44.0313 48.1805C44.1045 48.0349 44.1778 47.8894 44.3243 47.7438C44.4709 47.671 44.6906 47.5255 44.9104 47.5255C45.1302 47.4527 45.4233 47.4527 45.7896 47.4527C46.0094 47.4527 46.1559 47.4527 46.3757 47.4527C46.5222 47.4527 46.6688 47.4527 46.742 47.4527C46.742 47.3071 46.742 47.0888 46.6688 47.016C46.5955 46.8704 46.5222 46.7977 46.449 46.7249C46.3757 46.6521 46.2292 46.5793 46.0826 46.5793C45.9361 46.5793 45.7896 46.5065 45.5698 46.5065C45.2768 46.5065 45.057 46.5065 44.8372 46.5793C44.6174 46.6521 44.5441 46.7249 44.4709 46.7249C44.4709 46.7249 44.3976 46.6521 44.3243 46.5793C44.2511 46.5065 44.2511 46.4338 44.2511 46.2882C44.2511 46.2154 44.2511 46.1426 44.3243 46.0699C44.3976 45.9971 44.3976 45.9243 44.5441 45.8515C44.6174 45.7787 44.7639 45.7787 44.9104 45.706C45.057 45.706 45.2768 45.6332 45.5698 45.6332C45.8629 45.6332 46.1559 45.6332 46.3757 45.706C46.5955 45.7787 46.8153 45.8515 47.0351 45.9971C47.2549 46.1426 47.3281 46.2882 47.4747 46.5065C47.5479 46.7249 47.6212 46.9432 47.6212 47.2343V49.9272ZM46.742 48.1805C46.6688 48.1805 46.5955 48.1805 46.449 48.1077C46.3024 48.1077 46.0826 48.1077 45.7896 48.1077C45.4233 48.1077 45.2035 48.1805 45.057 48.2533C44.9104 48.326 44.8372 48.5444 44.8372 48.7627C44.8372 48.8355 44.8372 48.9083 44.9104 48.9811C44.9104 49.0538 44.9837 49.1266 45.057 49.1994C45.1302 49.2722 45.2768 49.2722 45.4233 49.345C45.5698 49.345 45.7163 49.4177 45.9361 49.4177C46.1559 49.4177 46.3757 49.4177 46.5222 49.4177C46.6688 49.4177 46.742 49.4177 46.8153 49.345V48.1805H46.742Z" fill="#F8BA00"/>
<path d="M51.6507 47.4527C51.6507 47.016 51.7972 46.5793 52.0903 46.361C52.3833 46.0699 52.8229 45.9971 53.3358 45.9971C53.6288 45.9971 53.9219 46.0699 54.1417 46.1427C54.3614 46.2154 54.4347 46.361 54.4347 46.5793C54.4347 46.6521 54.4347 46.7249 54.3614 46.7977C54.2882 46.8705 54.2149 46.8705 54.2149 46.8705C54.1417 46.7977 53.9951 46.7977 53.9219 46.7249C53.7753 46.7249 53.6288 46.6521 53.4823 46.6521C52.8962 46.6521 52.6031 46.9432 52.6031 47.5983V49.8544H51.724V47.4527H51.6507Z" fill="#F8BA00"/>
<path d="M61.3947 49.6361C61.3215 49.6361 61.3215 49.7089 61.1749 49.7089C61.1017 49.7817 60.9552 49.7817 60.8086 49.8544C60.6621 49.9272 60.5156 49.9272 60.369 49.9272C60.2225 49.9272 60.0027 50 59.7829 50C59.4899 50 59.1968 49.9272 58.977 49.8544C58.7573 49.7817 58.5375 49.6361 58.3177 49.4905C58.0979 49.345 57.9514 49.1266 57.8781 48.8355C57.8048 48.6172 57.7316 48.3261 57.7316 47.9622C57.7316 47.671 57.8048 47.3799 57.8781 47.0888C57.9514 46.8705 58.0979 46.6521 58.3177 46.4338C58.5375 46.2154 58.7573 46.1427 58.977 45.9971C59.1968 45.9243 59.4899 45.8515 59.7829 45.8515C60.076 45.8515 60.2958 45.8515 60.5156 45.9243C60.7354 45.9971 60.8819 46.0699 61.0284 46.2154C61.1749 46.361 61.2482 46.4338 61.3215 46.6521C61.3947 46.7977 61.3947 46.9432 61.3947 47.1616C61.3947 47.3071 61.3947 47.5255 61.3215 47.671C61.2482 47.8166 61.1017 47.9622 60.9552 48.0349C60.8086 48.1077 60.5888 48.2533 60.2958 48.2533C60.0027 48.3261 59.6364 48.3261 59.1968 48.3261C59.1236 48.3261 58.977 48.3261 58.9038 48.3261C58.8305 48.3261 58.684 48.3261 58.6107 48.3261C58.684 48.6172 58.7573 48.8355 58.977 48.9811C59.1968 49.1266 59.4899 49.1994 59.9295 49.1994C60.076 49.1994 60.2225 49.1994 60.2958 49.1994C60.4423 49.1994 60.5156 49.1266 60.5888 49.1266C60.6621 49.1266 60.7354 49.0539 60.8086 49.0539C60.8819 49.0539 60.9552 48.9811 60.9552 48.9811L61.3947 49.6361ZM58.6107 47.8166C58.7573 47.8166 58.8305 47.8166 58.977 47.8166C59.0503 47.8166 59.1968 47.8166 59.2701 47.8166C59.5632 47.8166 59.7829 47.8166 59.9295 47.7438C60.076 47.7438 60.2225 47.671 60.369 47.5983C60.4423 47.5255 60.5156 47.4527 60.5888 47.3799C60.5888 47.3071 60.6621 47.2344 60.6621 47.1616C60.6621 46.9432 60.5888 46.7977 60.4423 46.7249C60.2958 46.6521 60.076 46.5793 59.8562 46.5793C59.6364 46.5793 59.4899 46.5793 59.3434 46.6521C59.1968 46.7249 59.0503 46.7977 58.977 46.9432C58.9038 47.0888 58.8305 47.1616 58.7573 47.3071C58.684 47.5255 58.6107 47.671 58.6107 47.8166Z" fill="#F8BA00"/>
<path d="M32.6755 7.3508C32.6022 7.20524 32.6022 6.9869 32.6755 6.76856C32.822 6.18632 33.4814 5.82241 34.0675 5.96797L38.39 7.13246C38.9761 7.27802 39.3425 7.93304 39.1959 8.51528C39.1227 8.66084 39.0494 8.8064 38.9761 8.95196C38.9761 8.95196 38.9029 9.02474 38.7564 9.09752C38.097 9.5342 35.8991 11.0626 35.8991 11.0626C35.606 11.2809 35.2397 11.3537 34.9467 11.2081C34.5803 11.1354 34.2873 10.8442 34.214 10.5531V10.6259L32.7488 7.49636C32.6755 7.27802 32.6022 6.9869 32.6755 6.69578C32.822 6.11354 33.4814 5.74963 34.0675 5.8952L38.39 7.05968C38.9761 7.20524 39.3425 7.86026 39.1959 8.4425C39.1227 8.73362 38.9761 8.95196 38.7564 9.09752" fill="#F8BA00"/>
<path d="M61.3214 18.9956L55.3138 10.917C54.2149 9.38864 52.6031 8.22416 50.7715 7.7147C50.1854 7.56914 49.5993 7.49636 48.9399 7.42358C48.3538 6.55021 47.4014 5.82241 46.2292 5.45851L28.2064 0.655017C26.9609 0.291116 25.7154 0.509457 24.6898 1.0917C24.0304 0.727797 23.371 0.436676 22.5651 0.218336C20.7335 -0.291126 18.7554 -0.0727851 17.0704 0.727797L7.76592 4.73071C7.25308 4.94905 7.03329 5.53129 7.25308 6.04075C7.39961 6.33187 7.6194 6.55021 7.91245 6.62299C8.13224 6.69577 8.35203 6.69577 8.57182 6.55021L17.8763 2.5473C19.195 1.96506 20.6603 1.8195 21.979 2.1834C22.3453 2.25618 22.7116 2.40174 23.0047 2.5473C22.7116 2.98398 22.5651 3.42066 22.4186 3.85735L19.1217 16.1572C18.4624 18.6317 19.9276 21.179 22.4186 21.8341L40.4414 26.6376C42.9323 27.2926 45.4966 25.837 46.1559 23.3624L49.4528 11.0626C49.5993 10.5531 49.6726 10.0437 49.5993 9.5342C49.8191 9.5342 49.9656 9.60698 50.1854 9.67976C51.5774 10.0437 52.7496 10.917 53.5555 12.0815L59.5631 20.1601C59.7096 20.3785 59.9294 20.4512 60.1492 20.524C60.4423 20.5968 60.7353 20.524 61.0284 20.3785C61.6145 20.0873 61.6878 19.4323 61.3214 18.9956ZM45.7163 7.42358C46.0827 7.49636 46.449 7.7147 46.6688 7.93304L36.1188 12.5182C36.1188 12.5182 36.0456 12.5182 36.0456 12.591C35.606 12.8093 35.0932 12.8821 34.5803 12.7365C34.0675 12.591 33.6279 12.2998 33.3348 11.8632C33.3348 11.8632 33.3348 11.7904 33.2616 11.7904L26.4481 2.62008C26.8144 2.5473 27.254 2.5473 27.6203 2.62008L45.7163 7.42358ZM44.2511 22.9258C43.8848 24.3086 42.4195 25.1092 41.0275 24.7453L23.0047 19.9418C21.6127 19.5779 20.8068 18.1223 21.1731 16.7394L24.47 4.43959C24.5432 4.14847 24.6898 3.93013 24.8363 3.71179L31.723 12.9549C32.3091 13.8282 33.115 14.4105 34.0675 14.6288C35.0199 14.9199 36.1188 14.7744 36.998 14.3377L47.6212 9.75254C47.6212 10.0437 47.6212 10.3348 47.5479 10.6259L44.2511 22.9258Z" fill="white"/>
<path d="M17.0704 5.5313L10.9163 8.15139C10.4034 8.36973 10.1836 8.95197 10.4034 9.46143C10.5499 9.75255 10.7697 9.97089 11.0628 10.0437C11.2826 10.1165 11.5024 10.1165 11.7222 9.97089L17.8763 7.3508C18.3891 7.13246 18.6089 6.55022 18.3891 6.04076C18.1693 5.5313 17.5832 5.31296 17.0704 5.5313Z" fill="white"/>
<path d="M15.5318 10.8443L13.92 11.4993C13.4072 11.7176 13.1874 12.2999 13.4072 12.8093C13.5537 13.1004 13.7735 13.3188 14.0666 13.3916C14.2864 13.4643 14.5061 13.4643 14.7259 13.3188L16.3377 12.6638C16.8506 12.4454 17.0704 11.8632 16.8506 11.3537C16.6308 10.8443 16.0447 10.6259 15.5318 10.8443Z" fill="white"/>
<path d="M52.8229 15.1383L56.7791 20.524C57.1454 20.9607 56.9989 21.6157 56.5593 21.9068C56.2663 22.1252 55.9732 22.1252 55.6802 22.0524C55.4604 21.9796 55.2406 21.8341 55.1673 21.6885L51.2111 16.3028C50.8448 15.8661 50.9913 15.2111 51.4309 14.9199C51.8705 14.556 52.5298 14.7016 52.8229 15.1383Z" fill="white"/>
<path d="M51.5042 20.5968L52.5299 21.9796C52.8962 22.4163 52.7496 23.0713 52.3101 23.3624C52.017 23.5808 51.724 23.5808 51.4309 23.508C51.2111 23.4352 50.9913 23.2897 50.9181 23.1441L49.8924 21.8341C49.5261 21.3974 49.6726 20.7424 50.1122 20.4512C50.5517 20.0873 51.1379 20.1601 51.5042 20.5968Z" fill="white"/>
</g>
<defs>
<clipPath id="clip0">
<rect width="69.0141" height="50" fill="white"/>
</clipPath>
</defs>
</svg>
