<svg width="26" height="26" viewBox="0 0 26 26" fill="none" xmlns="http://www.w3.org/2000/svg">
<path d="M13 25C10.6266 25 8.30655 24.2962 6.33316 22.9776C4.35977 21.6591 2.8217 19.7849 1.91345 17.5922C1.0052 15.3995 0.767559 12.9867 1.23058 10.6589C1.6936 8.33115 2.83649 6.19295 4.51472 4.51472C6.19295 2.83649 8.33115 1.6936 10.6589 1.23058C12.9867 0.767559 15.3995 1.0052 17.5922 1.91345C19.7849 2.8217 21.6591 4.35977 22.9776 6.33316C24.2962 8.30655 25 10.6266 25 13" stroke="white" stroke-width="2" stroke-linecap="round" stroke-linejoin="round"/>
<path d="M13 19.4617C16.5686 19.4617 19.4615 16.5687 19.4615 13.0001C19.4615 9.4315 16.5686 6.53857 13 6.53857C9.43138 6.53857 6.53845 9.4315 6.53845 13.0001C6.53845 16.5687 9.43138 19.4617 13 19.4617Z" stroke="white" stroke-width="2" stroke-miterlimit="10"/>
<path d="M25 13C25 14.6274 23.7605 15.7692 22.2308 15.7692C21.8667 15.7692 21.5061 15.7038 21.1698 15.5766C20.8335 15.4495 20.528 15.2631 20.2708 15.0283C20.0136 14.7934 19.8097 14.5146 19.6708 14.2078C19.532 13.901 19.4609 13.5723 19.4616 13.2404" stroke="white" stroke-width="2" stroke-miterlimit="10"/>
</svg>
