<svg width="107" height="20" viewBox="0 0 107 20" fill="none" xmlns="http://www.w3.org/2000/svg">
<path d="M7.29746 6.89675L10.2172 1L13.0797 6.89675L19.2627 7.75547L14.9689 12.1065L15.8849 18.5757L10.2172 15.6559L4.49223 18.5757L5.52273 12.1065L1 7.75547L7.29746 6.89675Z" fill="#F7B916" stroke="#F7B916" stroke-linecap="round" stroke-linejoin="round"/>
<path d="M28.8697 6.89675L31.7895 1L34.652 6.89675L40.8349 7.75547L36.5412 12.1065L37.4572 18.5757L31.7895 15.6559L26.0645 18.5757L27.095 12.1065L22.5723 7.75547L28.8697 6.89675Z" fill="#F7B916" stroke="#F7B916" stroke-linecap="round" stroke-linejoin="round"/>
<path d="M50.4425 6.89675L53.3622 1L56.2247 6.89675L62.4077 7.75547L58.1139 12.1065L59.0299 18.5757L53.3622 15.6559L47.6373 18.5757L48.6677 12.1065L44.145 7.75547L50.4425 6.89675Z" fill="#F7B916" stroke="#F7B916" stroke-linecap="round" stroke-linejoin="round"/>
<path d="M72.0147 6.89675L74.9345 1L77.797 6.89675L83.9799 7.75547L79.6862 12.1065L80.6022 18.5757L74.9345 15.6559L69.2095 18.5757L70.24 12.1065L65.7173 7.75547L72.0147 6.89675Z" fill="#F7B916" stroke="#F7B916" stroke-linecap="round" stroke-linejoin="round"/>
<path d="M93.5875 6.89675L96.5073 1L99.3697 6.89675L105.553 7.75547L101.259 12.1065L102.175 18.5757L96.5073 15.6559L90.7823 18.5757L91.8128 12.1065L87.29 7.75547L93.5875 6.89675Z" fill="#F7B916" stroke="#F7B916" stroke-linecap="round" stroke-linejoin="round"/>
</svg>
