<svg width="24" height="35" viewBox="0 0 24 35" fill="none" xmlns="http://www.w3.org/2000/svg">
<path d="M12 33.147C9.10781 33.147 6.71747 32.3041 4.829 30.6184C2.82404 28.8245 1.8228 26.3412 1.82528 23.1685C1.86397 21.5824 2.18383 20.0164 2.76952 18.5454C2.99628 17.9076 3.2974 17.1641 3.66915 16.3225L4.61338 14.4053C4.6698 14.3259 4.7137 14.2381 4.74349 14.1449L10.6245 1.85303H18.3532L12.3011 14.0166C12.5927 13.9204 12.8949 13.8608 13.2007 13.8392C13.3427 13.8105 13.4872 13.7966 13.632 13.7977H14.0037C15.0313 13.8013 16.0475 14.0154 16.9916 14.4272C17.9357 14.839 18.7883 15.44 19.4981 16.1942C21.2751 17.9554 22.1623 20.2802 22.1599 23.1685C22.1599 26.3337 21.1437 28.8169 19.1115 30.6184C17.2528 32.3041 14.8773 33.147 11.9851 33.147H12ZM11.9851 19.6361C9.89591 19.6361 8.8513 20.8136 8.8513 23.1685C8.8513 25.5235 9.89591 26.6997 11.9851 26.6972C14.0744 26.6972 15.119 25.521 15.119 23.1685C15.119 20.8161 14.0793 19.6348 12 19.6248L11.9851 19.6361ZM12 34.9887C15.3457 34.9887 18.1487 33.9772 20.342 31.9884C22.7621 29.8447 24 26.867 24 23.1572C24 19.7606 22.9219 16.9867 20.7918 14.8544C19.3273 13.326 17.4085 12.3288 15.3309 12.0164L19.9814 2.68708C20.1216 2.4047 20.1883 2.09059 20.1751 1.77465C20.162 1.45871 20.0694 1.15145 19.9061 0.882108C19.7429 0.612767 19.5145 0.39031 19.2427 0.235906C18.9709 0.0815026 18.6646 0.000290924 18.3532 0L10.6245 0C10.2826 0.000300511 9.94762 0.098103 9.65777 0.282264C9.36792 0.466424 9.13486 0.729537 8.98513 1.04162L3.10409 13.3335C3.10409 13.375 3.06691 13.4128 3.05204 13.4543C3.02275 13.4962 2.99665 13.5404 2.97398 13.5864L2.04089 15.496L2.00744 15.5639C1.63569 16.4395 1.30112 17.2283 1.05576 17.9151C0.394699 19.5873 0.0370211 21.3671 0 23.1685C0 26.8708 1.21933 29.8447 3.62082 32.0072C5.8513 33.9923 8.66543 35 12 35V34.9887ZM12 21.474C12.7435 21.474 13.3123 21.474 13.3123 23.1572C13.3123 24.8404 12.7323 24.8366 12 24.8366C11.2677 24.8366 10.6877 24.8366 10.6877 23.1572C10.6877 21.4778 11.2379 21.474 12 21.474Z" fill="#5C3C15"/>
</svg>
