<svg width="26" height="26" viewBox="0 0 26 26" fill="none" xmlns="http://www.w3.org/2000/svg">
<path d="M12.607 25.2014C10.1146 25.2026 7.67772 24.4647 5.60472 23.0808C3.53172 21.697 1.91567 19.7295 0.96099 17.4271C0.00630513 15.1248 -0.244132 12.591 0.241355 10.1463C0.726841 7.70158 1.92644 5.45576 3.68843 3.69289C5.45041 1.93002 7.69563 0.729299 10.1401 0.242587C12.5846 -0.244126 15.1185 0.00504094 17.4213 0.958571C19.7241 1.9121 21.6925 3.52716 23.0773 5.59947C24.4622 7.67177 25.2014 10.1082 25.2014 12.6007C25.1972 15.9402 23.8692 19.1419 21.5083 21.5039C19.1475 23.8659 15.9465 25.1955 12.607 25.2014ZM12.607 2.33381C10.5755 2.33319 8.58947 2.93507 6.90009 4.06331C5.21071 5.19156 3.89389 6.79548 3.11618 8.67222C2.33847 10.5489 2.13483 12.6142 2.531 14.6067C2.92717 16.5991 3.90536 18.4294 5.34184 19.8659C6.77832 21.3023 8.60855 22.2805 10.601 22.6767C12.5935 23.0729 14.6587 22.8692 16.5355 22.0915C18.4122 21.3138 20.0161 19.997 21.1444 18.3076C22.2726 16.6182 22.8745 14.6322 22.8739 12.6007C22.8714 9.87851 21.7889 7.26855 19.864 5.34368C17.9391 3.41881 15.3292 2.33632 12.607 2.33381Z" fill="white"/>
<path d="M12.6077 15.7622C12.4544 15.7624 12.3025 15.732 12.161 15.6729C12.0195 15.6138 11.8911 15.5271 11.7835 15.418L7.7285 11.363C7.5099 11.1444 7.38708 10.8479 7.38708 10.5387C7.38708 10.2296 7.5099 9.9331 7.7285 9.71449C7.94711 9.49589 8.2436 9.37308 8.55276 9.37308C8.86191 9.37308 9.15841 9.49589 9.37701 9.71449L12.4877 12.8252L21.8703 0.464517C22.0571 0.218271 22.3341 0.0563085 22.6402 0.0142586C22.9464 -0.0277913 23.2568 0.0535164 23.503 0.240295C23.7493 0.427073 23.9113 0.704022 23.9533 1.01022C23.9953 1.31641 23.914 1.62677 23.7273 1.87301L13.5362 15.3011C13.4349 15.4331 13.3069 15.5421 13.1605 15.6211C13.0141 15.7 12.8526 15.747 12.6867 15.759L12.6077 15.7622Z" fill="white"/>
</svg>
