<svg width="67" height="67" viewBox="0 0 67 67" fill="none" xmlns="http://www.w3.org/2000/svg">
<path d="M47.5016 33.3301C47.361 36.166 46.6579 38.4043 45.3923 40.0449C44.1266 41.6855 42.4333 42.5059 40.3122 42.5059C38.1208 42.5059 36.7145 41.5215 36.0934 39.5527C35.4606 40.5488 34.734 41.293 33.9137 41.7852C33.1051 42.2656 32.2672 42.5059 31.4001 42.5059C29.736 42.5059 28.4762 41.8262 27.6208 40.4668C26.7653 39.1074 26.4489 37.2266 26.6715 34.8242C26.8473 32.8906 27.2868 31.168 27.9899 29.6562C28.7047 28.1328 29.6188 26.9375 30.7321 26.0703C31.8571 25.2031 33.0348 24.7695 34.2653 24.7695C35.2145 24.7695 36.0641 24.8984 36.8141 25.1562C37.5641 25.4023 38.4079 25.8945 39.3454 26.6328L38.4313 36.3711C38.2087 39.0781 38.9587 40.4316 40.6813 40.4316C42.0055 40.4316 43.0778 39.7754 43.8981 38.4629C44.7184 37.1504 45.1637 35.4395 45.234 33.3301C45.4567 28.7715 44.6071 25.2969 42.6852 22.9062C40.7751 20.5156 37.863 19.3203 33.9489 19.3203C31.5934 19.3203 29.5016 19.9062 27.6735 21.0781C25.8454 22.2383 24.404 23.9199 23.3493 26.123C22.2946 28.3262 21.7028 30.8691 21.5739 33.752C21.4333 36.6582 21.7848 39.1836 22.6286 41.3281C23.4723 43.4609 24.7555 45.0898 26.4782 46.2148C28.2126 47.3516 30.3044 47.9199 32.7536 47.9199C33.8083 47.9199 34.863 47.791 35.9176 47.5332C36.984 47.2754 37.8688 46.9414 38.5719 46.5312L39.2223 48.5527C38.4958 49.0098 37.529 49.3848 36.3219 49.6777C35.1266 49.9707 33.9137 50.1172 32.6833 50.1172C29.7536 50.1172 27.234 49.4551 25.1247 48.1309C23.0153 46.8184 21.4333 44.9199 20.3786 42.4355C19.3356 39.9629 18.8844 37.0684 19.0251 33.752C19.1657 30.5293 19.8864 27.6348 21.1872 25.0684C22.488 22.4902 24.2516 20.5039 26.4782 19.1094C28.7048 17.7031 31.2184 17 34.0192 17C36.9372 17 39.4391 17.6562 41.5251 18.9688C43.611 20.2812 45.1637 22.1738 46.1833 24.6465C47.2028 27.1191 47.6423 30.0137 47.5016 33.3301ZM29.4665 34.8242C29.3024 36.4883 29.4547 37.7656 29.9235 38.6562C30.404 39.5469 31.1598 39.9922 32.1911 39.9922C32.8942 39.9922 33.568 39.6934 34.2126 39.0957C34.8688 38.498 35.4079 37.6426 35.8298 36.5293L35.8473 36.3711L36.6559 27.5293C35.9997 27.1895 35.2965 27.0195 34.5465 27.0195C33.1755 27.0195 32.0387 27.7168 31.1364 29.1113C30.2458 30.5059 29.6891 32.4102 29.4665 34.8242Z" fill="#1062AA"/>
<circle cx="33.5" cy="33.5" r="32.5" stroke="#1062AA" stroke-width="2"/>
</svg>
