<svg width="46" height="40" viewBox="0 0 46 40" fill="none" xmlns="http://www.w3.org/2000/svg">
<path d="M10.3416 1.76416L10.6474 1.97612C9.69598 1.30492 8.54066 0.95166 7.31737 0.95166C3.81742 0.95166 0.99707 3.88373 0.99707 7.52231V33.381C0.99707 37.0196 3.81742 39.9517 7.31737 39.9517C8.3028 39.9517 9.25424 39.7044 10.1037 39.2805C10.1037 39.2805 10.6814 38.9979 11.293 38.468C14.6911 35.6066 25.8365 25.5386 25.8365 25.5386C27.2637 24.3729 28.1812 22.5006 28.1812 20.4517C28.1812 18.2968 27.1958 16.3892 25.6327 15.1881L25.8365 15.3294L11.327 2.47068C10.2397 1.51688 8.84648 0.95166 7.31737 0.95166C3.81742 0.95166 0.99707 3.88373 0.99707 7.52231V33.381C0.99707 37.0196 3.81742 39.9517 7.31737 39.9517C8.8125 39.9517 10.2057 39.3864 11.293 38.5033" fill="#DDF516"/>
<path d="M39.9351 30.449H16.2352C14.0006 30.449 12.1724 28.5414 12.1724 26.2098V9.95983C12.1724 7.62831 14.0006 5.7207 16.2352 5.7207H39.9351C42.1697 5.7207 43.998 7.62831 43.998 9.95983V26.2098C43.998 28.5414 42.1697 30.449 39.9351 30.449Z" stroke="#1062AA" stroke-width="3" stroke-miterlimit="10"/>
<path d="M38.3901 25.7698H17.9768C17.4985 25.7698 17.1399 25.3781 17.1399 24.926V11.5455C17.1399 11.0633 17.5284 10.7017 17.9768 10.7017H38.3901C38.8683 10.7017 39.227 11.0934 39.227 11.5455V24.8959C39.227 25.3781 38.8683 25.7698 38.3901 25.7698Z" stroke="#1062AA" stroke-width="3" stroke-miterlimit="10"/>
<path d="M19.7194 35.2534H36.8849" stroke="#1062AA" stroke-width="3" stroke-miterlimit="10" stroke-linecap="round" stroke-linejoin="round"/>
</svg>
