<svg width="46" height="40" viewBox="0 0 46 40" fill="none" xmlns="http://www.w3.org/2000/svg">
<path d="M10.7955 1.27397L11.13 1.47183C10.1296 0.846041 8.97843 0.498134 7.79648 0.464383C6.61452 0.430633 5.44509 0.712275 4.41011 1.27994C3.37514 1.84761 2.51252 2.68052 1.9122 3.69182C1.31189 4.70312 0.995862 5.85578 0.997074 7.0296V32.8964C0.997586 34.0109 1.28379 35.107 1.82874 36.0815C2.37369 37.056 3.15947 37.8767 4.11211 38.4666C5.06475 39.0564 6.15291 39.3959 7.27417 39.453C8.39543 39.5102 9.5129 39.2832 10.5214 38.7934C10.9646 38.5696 11.3833 38.3008 11.7707 37.9913C15.3298 35.1329 27.011 25.0773 27.011 25.0773C27.7975 24.4489 28.4285 23.6499 28.8558 22.7419C29.2831 21.8338 29.4953 20.8406 29.476 19.8385C29.4568 18.8364 29.2067 17.852 28.7448 16.9607C28.283 16.0695 27.6217 15.295 26.8117 14.6967L27.011 14.8486L11.8241 1.97002C10.857 1.17624 9.68249 0.671964 8.43758 0.516079C7.19266 0.360193 5.92876 0.559133 4.79348 1.08966C3.6582 1.6202 2.69839 2.46042 2.02616 3.51222C1.35392 4.56401 0.996999 5.78397 0.997074 7.0296V32.8964C0.99731 34.1365 1.35135 35.3511 2.01821 36.3997C2.68506 37.4483 3.63746 38.2879 4.76512 38.8214C5.89279 39.3548 7.1496 39.5603 8.39004 39.4141C9.63049 39.2678 10.8038 38.7757 11.7742 37.9948" fill="#EF5237"/>
<path d="M37.0189 19.2366C37.0189 12.055 31.1544 6.2332 23.9201 6.2332C16.6858 6.2332 10.8213 12.055 10.8213 19.2366C10.8213 26.4182 16.6858 32.24 23.9201 32.24C31.1544 32.24 37.0189 26.4181 37.0189 19.2366Z" stroke="#1062AA" stroke-width="3" stroke-miterlimit="10"/>
<path d="M33.9932 10.9014L44.002 2.41147" stroke="#1062AA" stroke-width="3" stroke-linecap="round" stroke-linejoin="round"/>
</svg>
