<svg width="45" height="41" viewBox="0 0 45 41" fill="none" xmlns="http://www.w3.org/2000/svg">
<path d="M10.4437 1.82083L10.754 2.03355C9.78861 1.35992 8.6164 1.00537 7.37525 1.00537C3.85863 1.00537 0.99707 3.9481 0.99707 7.56446V33.4108C0.99707 37.0626 3.85863 40.0054 7.37525 40.0054C8.37507 40.0054 9.34041 39.7572 10.2023 39.3317C10.2023 39.3317 10.7884 39.0481 11.409 38.5163C14.8222 35.6445 26.1305 25.6108 26.1305 25.6108C27.5441 24.4054 28.4749 22.5617 28.4749 20.5054C28.4749 18.3426 27.4751 16.4281 25.8892 15.2581L26.0961 15.3999L11.4435 2.49446C10.3402 1.57264 8.92669 1.00537 7.37525 1.00537C3.85863 1.00537 0.99707 3.9481 0.99707 7.56446V33.4108C0.99707 37.0626 3.85863 40.0054 7.37525 40.0054C8.89222 40.0054 10.3058 39.4736 11.409 38.5517" fill="#FFE735"/>
<path d="M30.6409 37.6811C27.4382 37.6811 24.7833 36.7461 22.6763 34.8762C20.4007 32.8788 19.305 30.1589 19.305 26.6316C19.305 25.1017 19.6421 23.4018 20.3585 21.5319C20.6114 20.8094 20.9485 20.0019 21.3699 19.067L22.4234 16.9421C22.5077 16.8571 22.5499 16.7296 22.5499 16.6446L29.0817 3.04527H37.6785L30.9359 16.4746C31.2309 16.3896 31.5681 16.3046 31.9473 16.2621C32.1159 16.2196 32.2844 16.2196 32.4109 16.2196H32.8323C35.1079 16.2196 37.1728 17.1121 38.9427 18.8545C40.9234 20.8094 41.8926 23.4018 41.8926 26.5466C41.8926 30.0314 40.7548 32.7938 38.4792 34.7912C36.4986 36.7461 33.8437 37.6811 30.6409 37.6811ZM30.6409 22.7218C28.3232 22.7218 27.1432 24.0392 27.1432 26.6316C27.1432 29.224 28.3232 30.5414 30.6409 30.5414C32.9587 30.5414 34.1387 29.224 34.1387 26.6316C34.0965 24.0392 32.9587 22.7218 30.6409 22.7218ZM30.6409 39.721C34.3494 39.721 37.4678 38.616 39.912 36.4061C42.609 34.0262 43.9997 30.7539 43.9997 26.6316C43.9997 22.8918 42.8197 19.7894 40.4177 17.4521C38.6056 15.6671 36.5828 14.6472 34.3494 14.3072L39.5327 3.98022C39.8698 3.34276 39.8277 2.57779 39.4484 1.98282C39.0692 1.38785 38.437 1.00537 37.7206 1.00537H29.0817C28.3232 1.00537 27.6068 1.47285 27.2697 2.15281L20.7378 15.7521C20.6957 15.7946 20.6957 15.8371 20.6957 15.8796C20.6535 15.9221 20.6535 15.9646 20.6114 16.0071L19.5578 18.132C19.5578 18.1745 19.5157 18.1745 19.5157 18.217C19.0943 19.1945 18.715 20.0444 18.4622 20.8094C17.7036 22.8918 17.2822 24.8467 17.2822 26.6316C17.2822 30.7114 18.6307 34.0262 21.3278 36.4061C23.772 38.616 26.8904 39.721 30.6409 39.721ZM30.6409 24.8042C31.4838 24.8042 32.1159 24.8042 32.1159 26.6741C32.1159 28.544 31.4838 28.544 30.6409 28.544C29.8403 28.544 29.166 28.544 29.166 26.6741C29.166 24.8042 29.756 24.8042 30.6409 24.8042Z" fill="#1062AA" stroke="#1062AA"/>
</svg>
