<svg width="68" height="67" viewBox="0 0 68 67" fill="none" xmlns="http://www.w3.org/2000/svg">
<path d="M54.5 65.5H13.5C6.9 65.5 1.5 60.1 1.5 53.5V13.5C1.5 6.9 6.9 1.5 13.5 1.5H54.5C61.1 1.5 66.5 6.9 66.5 13.5V53.5C66.5 60.1 61.1 65.5 54.5 65.5Z" stroke="#1062AA" stroke-width="3" stroke-miterlimit="10" stroke-linecap="round" stroke-linejoin="round"/>
<path d="M1.5 19L34.4 33.7L66.5 19" stroke="#1062AA" stroke-width="3" stroke-miterlimit="10" stroke-linecap="round" stroke-linejoin="round"/>
<path d="M44.8 33.5002C44.8 39.4649 39.9647 44.3002 34 44.3002C28.0353 44.3002 23.2 39.4649 23.2 33.5002C23.2 27.5355 28.0353 22.7002 34 22.7002C39.9647 22.7002 44.8 27.5355 44.8 33.5002Z" fill="white" stroke="#1062AA" stroke-width="3"/>
<path d="M31 33.1L33.4 35.5L37 31" stroke="#1062AA" stroke-width="3" stroke-miterlimit="10" stroke-linecap="round" stroke-linejoin="round"/>
</svg>
