<svg width="68" height="66" viewBox="0 0 68 66" fill="none" xmlns="http://www.w3.org/2000/svg">
<path d="M66 57.6C66 60.9137 63.3137 63.6 60 63.6H8C4.68629 63.6 2 60.9137 2 57.6V8C2 4.7 4.7 2 8 2H60C63.3 2 66 4.7 66 8V57.6Z" stroke="#1062AA" stroke-width="3" stroke-miterlimit="10" stroke-linecap="round" stroke-linejoin="round"/>
<path d="M2 13.1001H66" stroke="#1062AA" stroke-width="3" stroke-miterlimit="10" stroke-linecap="round" stroke-linejoin="round"/>
<path d="M10.8 9.4999C11.7941 9.4999 12.6 8.69401 12.6 7.6999C12.6 6.70579 11.7941 5.8999 10.8 5.8999C9.80589 5.8999 9 6.70579 9 7.6999C9 8.69401 9.80589 9.4999 10.8 9.4999Z" fill="#1062AA"/>
<path d="M16.8 9.4999C17.7941 9.4999 18.6 8.69401 18.6 7.6999C18.6 6.70579 17.7941 5.8999 16.8 5.8999C15.8059 5.8999 15 6.70579 15 7.6999C15 8.69401 15.8059 9.4999 16.8 9.4999Z" fill="#1062AA"/>
<path d="M22.9 9.4999C23.8941 9.4999 24.7 8.69401 24.7 7.6999C24.7 6.70579 23.8941 5.8999 22.9 5.8999C21.9059 5.8999 21.1 6.70579 21.1 7.6999C21.1 8.69401 21.9059 9.4999 22.9 9.4999Z" fill="#1062AA"/>
<circle cx="33.5" cy="38.5" r="13" stroke="#1062AA" stroke-width="3"/>
<path d="M33.2929 44.7071C33.6834 45.0976 34.3166 45.0976 34.7071 44.7071L41.0711 38.3431C41.4616 37.9526 41.4616 37.3195 41.0711 36.9289C40.6805 36.5384 40.0474 36.5384 39.6569 36.9289L34 42.5858L28.3431 36.9289C27.9526 36.5384 27.3195 36.5384 26.9289 36.9289C26.5384 37.3195 26.5384 37.9526 26.9289 38.3431L33.2929 44.7071ZM33 33L33 44L35 44L35 33L33 33Z" fill="#1062AA"/>
</svg>
