<svg width="133" height="127" viewBox="0 0 133 127" fill="none" xmlns="http://www.w3.org/2000/svg">
<path d="M124.839 88.809C125.102 88.6327 128.524 87.9277 128.875 87.9277L130.455 90.7478C130.192 91.0122 127.998 93.656 127.647 93.8322L128.7 97.2692C129.051 97.1811 132.385 98.1504 132.736 98.2386L133 101.411C132.649 101.587 129.49 102.997 129.139 102.997L128.612 106.522C128.963 106.611 131.596 108.902 131.859 109.166L130.718 112.163C130.367 112.163 126.857 112.074 126.594 111.898L124.576 114.895C124.839 115.159 126.243 118.332 126.331 118.684L123.961 120.887C123.61 120.711 120.539 119.125 120.364 118.86L117.292 120.623C117.468 120.975 117.292 124.412 117.292 124.765L114.221 125.734C113.958 125.47 111.94 122.65 111.852 122.297L108.254 122.562C108.254 122.914 106.587 125.999 106.411 126.351L103.252 125.91C103.165 125.558 102.55 122.121 102.638 121.768L99.3036 120.447C99.1281 120.799 96.3201 122.826 96.0569 123.002L93.4244 121.152C93.5121 120.799 94.3896 117.45 94.6529 117.186L92.1959 114.542C91.9326 114.718 88.5104 115.423 88.1594 115.423L86.5799 112.603C86.8432 112.339 89.0369 109.695 89.3879 109.519L88.3349 106.082C87.9839 106.17 84.6494 105.201 84.2984 105.112L84.0352 101.94C84.3862 101.764 87.5452 100.354 87.8962 100.354L88.4227 96.8285C88.0717 96.7404 85.4392 94.4491 85.1759 94.1847L86.3167 91.1884C86.6677 91.1884 90.1776 91.2766 90.4409 91.4528L92.4591 88.4565C92.1959 88.1921 90.7919 85.0195 90.7041 84.667L93.0734 82.4639C93.4244 82.6401 96.4956 84.2264 96.6711 84.4908L99.7424 82.7282C99.5669 82.3757 99.7424 78.9388 99.7424 78.5863L102.814 77.6169C103.077 77.8813 105.095 80.7013 105.183 81.0538L108.781 80.7895C108.781 80.437 110.448 77.3525 110.623 77L113.782 77.4406C113.87 77.7931 114.484 81.2301 114.397 81.5826L117.731 82.9045C117.907 82.552 120.715 80.5251 120.978 80.3488L123.61 82.1995C123.523 82.552 122.645 85.9008 122.382 86.1652L124.839 88.809ZM101.059 89.2496C93.9509 93.3916 91.4939 102.469 95.6181 109.607C99.7424 116.745 108.781 119.213 115.888 115.071C122.996 110.929 125.453 101.852 121.329 94.7135C117.205 87.5752 108.166 85.1077 101.059 89.2496Z" fill="#81859C"/>
<path d="M83.3333 24.1175C83.871 23.7575 90.8602 22.3177 91.5771 22.3177L94.8029 28.0771C94.2652 28.617 89.785 34.0165 89.0681 34.3764L91.2187 41.3957C91.9355 41.2157 98.7455 43.1955 99.4624 43.3755L100 49.8548C99.2832 50.2148 92.8316 53.0945 92.1147 53.0945L91.0394 60.2938C91.7563 60.4737 97.1326 65.1533 97.6703 65.6932L95.3405 71.8126C94.6237 71.8126 87.4552 71.6326 86.9176 71.2726L82.7957 77.392C83.3333 77.9319 86.2007 84.4113 86.3799 85.1312L81.5412 89.6307C80.8244 89.2708 74.552 86.0311 74.1936 85.4911L67.9212 89.0908C68.2796 89.8107 67.9212 96.83 67.9212 97.5499L61.6488 99.5297C61.1111 98.9897 56.9892 93.2303 56.81 92.5104L49.4624 93.0504C49.4624 93.7703 46.0574 100.07 45.6989 100.79L39.2473 99.8896C39.0681 99.1697 37.8136 92.1505 37.9928 91.4305L31.1828 88.7308C30.8244 89.4507 25.0896 93.5903 24.552 93.9503L19.1756 90.1707C19.3548 89.4507 21.147 82.6114 21.6846 82.0715L16.6667 76.6721C16.129 77.032 9.13978 78.4719 8.42293 78.4719L5.19713 72.7125C5.73476 72.1725 10.2151 66.7731 10.9319 66.4131L8.78136 59.3938C8.06451 59.5738 1.25448 57.594 0.537633 57.4141L0 50.9347C0.716846 50.5748 7.16846 47.6951 7.8853 47.6951L8.96057 40.4958C8.24373 40.3158 2.86738 35.6363 2.32975 35.0964L4.6595 28.977C5.37634 28.977 12.5448 29.157 13.0824 29.5169L17.2043 23.3976C16.6667 22.8576 13.7993 16.3783 13.6201 15.6584L18.4588 11.1588C19.1756 11.5188 25.448 14.7585 25.8065 15.2984L32.0789 11.6988C31.7204 10.9789 32.0789 3.9596 32.0789 3.23967L38.3513 1.25987C38.8889 1.79981 43.0108 7.55922 43.19 8.27915L50.5376 7.7392C50.5376 7.01928 53.9426 0.719925 54.3011 0L60.7527 0.899907C60.9319 1.61983 62.1864 8.63911 62.0072 9.35903L68.8172 12.0588C69.1756 11.3388 74.9104 7.19926 75.448 6.8393L80.8244 10.6189C80.6452 11.3388 78.8531 18.1781 78.3154 18.7181L83.3333 24.1175ZM34.767 25.0174C20.2509 33.4765 15.233 52.0146 23.6559 66.5931C32.0788 81.1716 50.5376 86.2111 65.0538 77.752C79.5699 69.2928 84.5878 50.7547 76.1649 36.1763C67.7419 21.5978 49.2832 16.5583 34.767 25.0174Z" fill="#F7B916"/>
<path d="M46.1788 57.0556C46.1788 55.1296 46.6071 53.537 47.4637 52.2778C48.3575 51.0185 49.6424 49.6296 51.3184 48.1111C52.5475 47 53.4413 46.0741 54 45.3333C54.5959 44.5556 54.8938 43.6852 54.8938 42.7222C54.8938 41.3519 54.3352 40.2778 53.2179 39.5C52.1378 38.6852 50.6853 38.2778 48.8603 38.2778C47.1099 38.2778 45.5456 38.6481 44.1676 39.3889C42.8268 40.0926 41.6909 41.0926 40.7598 42.3889L34 38.4444C35.5642 36.0741 37.6685 34.2407 40.3128 32.9444C42.9944 31.6481 46.1601 31 49.81 31C54.0931 31 57.5195 31.9074 60.0894 33.7222C62.6965 35.537 64 38.0556 64 41.2778C64 42.7963 63.7393 44.1296 63.2179 45.2778C62.7337 46.4259 62.1192 47.4074 61.3743 48.2222C60.6667 49 59.7356 49.9074 58.581 50.9444C57.203 52.1667 56.1974 53.2037 55.5642 54.0556C54.9311 54.8704 54.6145 55.8704 54.6145 57.0556H46.1788ZM50.4246 71C48.8976 71 47.6126 70.5185 46.5698 69.5556C45.5642 68.5556 45.0614 67.3519 45.0614 65.9445C45.0614 64.537 45.5642 63.3704 46.5698 62.4444C47.5754 61.4815 48.8603 61 50.4246 61C51.9888 61 53.2737 61.4815 54.2793 62.4444C55.2849 63.3704 55.7877 64.537 55.7877 65.9445C55.7877 67.3519 55.2663 68.5556 54.2235 69.5556C53.2179 70.5185 51.9516 71 50.4246 71Z" fill="#1062AA"/>
</svg>
