<svg width="52" height="51" viewBox="0 0 52 51" fill="none" xmlns="http://www.w3.org/2000/svg">
<path d="M31.2571 39H4.74286C3.18857 39 2 37.6257 2 35.8286V5.17143C2 3.37429 3.18857 2 4.74286 2H31.2571C32.8114 2 34 3.37429 34 5.17143V35.8286C34 37.6257 32.8114 39 31.2571 39Z" stroke="#1062AA" stroke-width="3" stroke-miterlimit="10" stroke-linecap="round" stroke-linejoin="round"/>
<path d="M39.2571 44H12.7429C11.1886 44 10 42.6257 10 40.8286V10.1714C10 8.37429 11.1886 7 12.7429 7H39.2571C40.8114 7 42 8.37429 42 10.1714V40.8286C42 42.6257 40.8114 44 39.2571 44Z" fill="white" stroke="#1062AA" stroke-width="3" stroke-miterlimit="10" stroke-linecap="round" stroke-linejoin="round"/>
<path d="M47.2571 49H20.7429C19.1886 49 18 47.6257 18 45.8286V15.1714C18 13.3743 19.1886 12 20.7429 12H47.2571C48.8114 12 50 13.3743 50 15.1714V45.8286C50 47.6257 48.8114 49 47.2571 49Z" fill="white" stroke="#1062AA" stroke-width="3" stroke-miterlimit="10" stroke-linecap="round" stroke-linejoin="round"/>
<path d="M43.4223 25H24.5112" stroke="#1062AA" stroke-width="3" stroke-miterlimit="10" stroke-linecap="round" stroke-linejoin="round"/>
<path d="M43.4223 30.7556H24.5112" stroke="#1062AA" stroke-width="3" stroke-miterlimit="10" stroke-linecap="round" stroke-linejoin="round"/>
<path d="M43.4223 37.3334H24.5112" stroke="#1062AA" stroke-width="3" stroke-miterlimit="10" stroke-linecap="round" stroke-linejoin="round"/>
</svg>
