<svg width="49" height="49" viewBox="0 0 49 49" fill="none" xmlns="http://www.w3.org/2000/svg">
<path d="M43.1429 47H5.85714C3.67143 47 2 45.3286 2 43.1429V5.85714C2 3.67143 3.67143 2 5.85714 2H43.1429C45.3286 2 47 3.67143 47 5.85714V43.1429C47 45.3286 45.3286 47 43.1429 47Z" stroke="#1062AA" stroke-width="3" stroke-miterlimit="10" stroke-linecap="round" stroke-linejoin="round"/>
<path d="M39 21H16" stroke="#1062AA" stroke-width="3" stroke-miterlimit="10" stroke-linecap="round" stroke-linejoin="round"/>
<path d="M39 28H16" stroke="#1062AA" stroke-width="3" stroke-miterlimit="10" stroke-linecap="round" stroke-linejoin="round"/>
<path d="M39 36H16" stroke="#1062AA" stroke-width="3" stroke-miterlimit="10" stroke-linecap="round" stroke-linejoin="round"/>
<path d="M10 15C11.1046 15 12 14.1046 12 13C12 11.8954 11.1046 11 10 11C8.89543 11 8 11.8954 8 13C8 14.1046 8.89543 15 10 15Z" fill="#1062AA"/>
<path d="M10 23C11.1046 23 12 22.1046 12 21C12 19.8954 11.1046 19 10 19C8.89543 19 8 19.8954 8 21C8 22.1046 8.89543 23 10 23Z" fill="#1062AA"/>
<path d="M10 30C11.1046 30 12 29.1046 12 28C12 26.8954 11.1046 26 10 26C8.89543 26 8 26.8954 8 28C8 29.1046 8.89543 30 10 30Z" fill="#1062AA"/>
<path d="M10 38C11.1046 38 12 37.1046 12 36C12 34.8954 11.1046 34 10 34C8.89543 34 8 34.8954 8 36C8 37.1046 8.89543 38 10 38Z" fill="#1062AA"/>
</svg>
