<svg width="158" height="130" viewBox="0 0 158 130" fill="none" xmlns="http://www.w3.org/2000/svg">
<path d="M78.2617 123.726L78.1758 123.706C77.9182 123.645 77.7871 123.432 77.8481 123.173C77.9091 122.915 78.1215 122.783 78.3791 122.843L78.4649 122.863C79.1519 123.025 79.8592 123.101 80.5665 123.177L80.9304 123.172C81.188 123.232 81.3394 123.359 81.3643 123.638C81.3033 123.897 81.1768 124.049 80.8988 124.074L80.535 124.08C79.7215 124.07 79.0345 123.908 78.2617 123.726ZM75.6403 122.926C74.8222 122.551 74.0042 122.176 73.1205 121.695C72.8832 121.548 72.838 121.355 72.9849 121.117C73.1317 120.878 73.3238 120.832 73.5611 120.979C74.3588 121.441 75.091 121.795 75.9294 122.084C76.187 122.145 76.2978 122.444 76.151 122.682C76.1103 122.855 75.812 122.966 75.6403 122.926ZM83.4049 124.21C83.2331 124.169 83.1021 123.956 83.0568 123.764C83.0319 123.485 83.2443 123.353 83.5223 123.327C84.4217 123.357 85.2555 123.281 86.0893 123.204C86.3673 123.179 86.4984 123.391 86.5436 123.584C86.5685 123.863 86.3561 123.995 86.164 124.041C85.3302 124.117 84.4105 124.174 83.5111 124.144C83.4908 124.23 83.4049 124.21 83.4049 124.21ZM70.9849 120.372C70.899 120.352 70.899 120.352 70.8132 120.332C70.1013 119.891 69.3239 119.344 68.6527 118.73C68.4154 118.583 68.3905 118.304 68.6232 118.086C68.77 117.848 69.048 117.822 69.265 118.055C69.9565 118.582 70.6481 119.109 71.3396 119.637C71.5769 119.784 71.6018 120.063 71.4753 120.215C71.3487 120.367 71.1567 120.413 70.9849 120.372ZM88.7061 123.639C88.5344 123.598 88.383 123.472 88.3378 123.279C88.3129 123 88.4394 122.848 88.7377 122.736C89.5918 122.573 90.4663 122.324 91.2346 122.141C91.4267 122.095 91.6843 122.156 91.795 122.455C91.8403 122.648 91.7793 122.907 91.481 123.018C90.6065 123.267 89.732 123.516 88.8779 123.679C88.792 123.659 88.7061 123.639 88.7061 123.639ZM66.856 117.123C66.7701 117.103 66.6842 117.083 66.7045 116.997C66.0333 116.383 65.3621 115.77 64.7768 115.177C64.6253 115.05 64.6208 114.685 64.7473 114.533C64.8738 114.38 65.2376 114.375 65.3891 114.502C65.9744 115.095 66.6456 115.708 67.3168 116.322C67.4683 116.448 67.4932 116.727 67.3463 116.966C67.1339 117.098 67.0277 117.164 66.856 117.123ZM93.6954 122.084C93.5237 122.043 93.4581 121.937 93.3926 121.83C93.2615 121.617 93.4083 121.379 93.6207 121.247C94.4297 120.891 95.1527 120.516 95.8961 120.054C96.1085 119.922 96.3661 119.982 96.4972 120.195C96.6283 120.408 96.5673 120.667 96.355 120.799C95.6116 121.261 94.7823 121.703 93.9734 122.058C93.8672 122.124 93.7813 122.104 93.6954 122.084ZM63.1269 113.331C63.041 113.311 62.9552 113.291 62.8896 113.184C62.3246 112.505 61.7596 111.826 61.1946 111.146C61.0635 110.933 61.1244 110.675 61.251 110.523C61.4634 110.391 61.721 110.451 61.8724 110.578C62.4374 111.257 63.0024 111.937 63.5675 112.616C63.6986 112.829 63.7234 113.108 63.5111 113.24C63.4049 113.306 63.2987 113.372 63.1269 113.331ZM48.4448 108.323C47.5861 108.121 46.6618 107.812 45.8437 107.437C45.5861 107.377 45.4753 107.077 45.6222 106.839C45.6832 106.58 45.9814 106.468 46.2187 106.615C47.0368 106.99 47.8955 107.193 48.648 107.461C48.9057 107.522 49.0368 107.735 48.9758 107.993C48.9148 108.252 48.7024 108.384 48.4448 108.323ZM51.0413 108.844C50.7837 108.784 50.6526 108.571 50.7136 108.312C50.7745 108.053 50.9869 107.921 51.2445 107.982C52.1236 108.098 52.9168 108.194 53.8161 108.224C54.0941 108.198 54.2252 108.411 54.2501 108.69C54.275 108.969 54.0626 109.101 53.7846 109.127C52.7994 109.077 51.9203 108.961 51.0413 108.844ZM98.2416 119.332C98.1558 119.312 98.0699 119.292 98.0043 119.185C97.8732 118.972 97.8484 118.693 98.0608 118.561C98.7386 117.993 99.4164 117.424 100.008 116.836C100.135 116.683 100.499 116.678 100.65 116.805C100.802 116.931 100.826 117.21 100.68 117.449C100.067 118.124 99.3895 118.692 98.7116 119.261C98.5196 119.307 98.3275 119.352 98.2416 119.332ZM43.5612 106.353L43.4754 106.333C42.6776 105.872 41.9658 105.431 41.1883 104.884C40.9511 104.737 40.9262 104.458 41.0527 104.305C41.1995 104.067 41.4775 104.041 41.7148 104.188C42.4063 104.715 43.2041 105.177 43.9363 105.531C44.1735 105.678 44.2188 105.871 44.0719 106.109C43.9454 106.262 43.733 106.394 43.5612 106.353ZM56.3517 109.004C56.1799 108.963 56.0285 108.836 55.9833 108.644C55.9584 108.365 56.1708 108.233 56.3629 108.187C57.1967 108.11 58.0305 108.034 58.8847 107.871C58.6225 107.445 58.4259 107.126 58.1637 106.7C58.0326 106.487 58.0936 106.228 58.306 106.096C58.5183 105.964 58.776 106.025 58.9071 106.238C59.28 106.963 59.7388 107.708 60.2835 108.474C60.4146 108.687 60.3536 108.946 60.1412 109.078C59.9288 109.21 59.6712 109.149 59.5401 108.936C59.4746 108.829 59.3232 108.703 59.278 108.51C59.2576 108.596 59.1514 108.662 59.0656 108.642C58.2114 108.805 57.2714 108.947 56.3517 109.004ZM39.2199 103.236C39.134 103.216 39.0482 103.196 39.0685 103.109C38.3973 102.496 37.726 101.883 37.161 101.203C37.0299 100.99 37.005 100.712 37.2174 100.58C37.4298 100.448 37.7078 100.422 37.8389 100.635C38.4242 101.228 39.0751 101.928 39.6808 102.435C39.8322 102.561 39.8571 102.84 39.7102 103.079C39.5634 103.317 39.3916 103.277 39.2199 103.236ZM61.4766 108.027C61.3049 107.986 61.2393 107.88 61.1941 107.687C61.1489 107.494 61.2098 107.236 61.5081 107.124C62.2967 106.855 63.1712 106.606 63.9802 106.25C64.1925 106.118 64.4298 106.265 64.5609 106.478C64.692 106.691 64.5452 106.93 64.3328 107.062C63.5238 107.417 62.6494 107.666 61.7749 107.915C61.6483 108.067 61.5625 108.047 61.4766 108.027ZM101.94 115.561C101.854 115.541 101.854 115.541 101.769 115.521C101.531 115.374 101.506 115.095 101.739 114.877C102.266 114.182 102.792 113.486 103.232 112.771C103.379 112.532 103.657 112.507 103.809 112.634C104.046 112.781 104.071 113.06 103.944 113.212C103.483 114.013 102.957 114.709 102.431 115.404C102.304 115.556 102.112 115.602 101.94 115.561ZM35.597 99.3783C35.5112 99.3581 35.4253 99.3379 35.3598 99.2314C34.7947 98.552 34.3359 97.8067 33.8974 96.9751C33.7663 96.7621 33.8273 96.5034 34.0397 96.3714C34.2521 96.2394 34.5097 96.3001 34.6408 96.5131C35.0996 97.2584 35.5584 98.0038 36.1235 98.6832C36.2546 98.8961 36.1936 99.1548 36.0671 99.3071C35.875 99.3528 35.7688 99.4188 35.597 99.3783ZM57.3228 104.499C57.151 104.459 57.0855 104.352 57.0199 104.246C56.6673 103.434 56.335 102.537 56.0886 101.659C56.0433 101.467 56.1043 101.208 56.4026 101.096C56.5947 101.05 56.8523 101.111 56.963 101.41C57.2298 102.201 57.4762 103.079 57.8289 103.89C57.9599 104.103 57.8131 104.341 57.6007 104.473C57.4945 104.539 57.4086 104.519 57.3228 104.499ZM66.3754 106.087C66.2896 106.066 66.1382 105.94 66.0726 105.833C65.9415 105.62 66.0025 105.361 66.3008 105.25C67.0238 104.874 67.8531 104.432 68.5106 103.95C68.723 103.818 68.9806 103.879 69.1117 104.092C69.2428 104.305 69.1818 104.563 68.9694 104.695C68.226 105.157 67.4826 105.619 66.6534 106.061C66.6331 106.147 66.5472 106.127 66.3754 106.087ZM32.8644 94.82C32.7786 94.7998 32.6271 94.673 32.5616 94.5666C32.209 93.7552 31.8563 92.9439 31.524 92.0463C31.4788 91.8536 31.5398 91.5948 31.8381 91.4831C32.0301 91.4373 32.2878 91.498 32.3985 91.7972C32.6653 92.5883 33.0179 93.3997 33.3705 94.211C33.5016 94.424 33.3548 94.6625 33.1424 94.7945C33.122 94.8807 32.9503 94.8402 32.8644 94.82ZM70.8561 103.228C70.7702 103.208 70.6844 103.188 70.6188 103.081C70.4877 102.868 70.4628 102.589 70.6752 102.457C71.3531 101.889 72.0309 101.32 72.6229 100.732C72.7494 100.58 73.1132 100.574 73.2646 100.701C73.4161 100.828 73.4206 101.193 73.2941 101.345C72.6818 102.02 72.004 102.589 71.2402 103.137C71.1341 103.203 70.942 103.249 70.8561 103.228ZM104.73 111.03L104.645 111.01C104.407 110.863 104.362 110.67 104.423 110.412C104.778 109.676 105.153 108.854 105.528 108.032C105.589 107.773 105.887 107.662 106.124 107.809C106.382 107.869 106.493 108.169 106.346 108.407C105.971 109.229 105.596 110.051 105.221 110.873C105.094 111.025 104.902 111.071 104.73 111.03ZM55.8035 99.4074C55.6318 99.3669 55.4804 99.2402 55.4352 99.0475C55.2746 98.1904 55.1344 97.247 55.08 96.3239C55.0551 96.0449 55.2675 95.9129 55.4596 95.8672C55.7375 95.8417 55.8686 96.0546 55.9139 96.2473C55.9885 97.0842 56.0429 98.0073 56.2034 98.8644C56.2283 99.1434 56.1018 99.2956 55.8035 99.4074C55.8894 99.4276 55.8894 99.4276 55.8035 99.4074ZM31.1328 89.8604C30.9611 89.8199 30.8097 89.6932 30.8503 89.5207C30.6039 88.6433 30.4637 87.7 30.389 86.8631C30.3641 86.5842 30.4906 86.4319 30.7686 86.4064C31.0465 86.3809 31.1979 86.5076 31.2228 86.7866C31.2975 87.6234 31.458 88.4805 31.7045 89.3579C31.7497 89.5506 31.6028 89.7891 31.3904 89.9211C31.3046 89.9009 31.2187 89.8806 31.1328 89.8604ZM74.6407 99.4778C74.5548 99.4575 74.5548 99.4575 74.4892 99.3511C74.3378 99.2243 74.3129 98.9454 74.4598 98.7069C74.9862 98.0117 75.5126 97.3165 76.0391 96.6213C76.1859 96.3829 76.4638 96.3573 76.6153 96.4841C76.8526 96.631 76.8774 96.91 76.7509 97.0622C76.3104 97.7776 75.7636 98.5591 75.1513 99.234C74.9186 99.4523 74.8124 99.5183 74.6407 99.4778ZM55.4164 94.1274C55.2447 94.087 55.1136 93.874 55.0684 93.6813C55.0999 92.7784 55.1314 91.8756 55.3347 91.0132C55.3956 90.7545 55.608 90.6224 55.8657 90.6832C56.1233 90.7439 56.2544 90.9568 56.1934 91.2156C56.076 92.0982 55.9789 92.8946 55.9474 93.7975C55.9723 94.0764 55.7599 94.2084 55.482 94.2339C55.4164 94.1274 55.4164 94.1274 55.4164 94.1274ZM106.703 106.124C106.445 106.064 106.334 105.764 106.375 105.592C106.664 104.75 106.867 103.887 107.156 103.045C107.217 102.787 107.43 102.655 107.687 102.715C107.945 102.776 108.076 102.989 108.015 103.248C107.812 104.11 107.523 104.952 107.234 105.794C107.173 106.053 106.96 106.185 106.703 106.124ZM30.5536 84.6262C30.3819 84.5857 30.2508 84.3728 30.2056 84.18C30.2371 83.2772 30.2686 82.3743 30.386 81.4917C30.447 81.2329 30.6594 81.101 30.8311 81.1414C31.1091 81.1159 31.326 81.3491 31.2651 81.6078C31.1477 82.4905 31.1365 83.3071 31.105 84.21C31.1299 84.4889 30.9175 84.6209 30.6395 84.6464L30.5536 84.6262ZM77.4964 95.0532L77.4105 95.033C77.1732 94.886 77.1483 94.607 77.2093 94.3483L77.3968 93.9374C77.7311 93.2879 77.9796 92.6183 78.2281 91.9486C78.2891 91.6899 78.5874 91.5781 78.7591 91.6186C79.0167 91.6793 79.1275 91.9785 79.0868 92.151C78.818 92.9069 78.5695 93.5766 78.2149 94.3122L78.007 94.8094C77.8805 94.9617 77.6681 95.0937 77.4964 95.0532ZM56.1208 88.8317C55.8632 88.7709 55.7321 88.558 55.793 88.2993C55.9963 87.4369 56.2854 86.5947 56.6604 85.7728C56.7214 85.5141 57.0197 85.4023 57.257 85.5493C57.5146 85.61 57.6254 85.9092 57.4785 86.1477C57.1894 86.9899 56.9206 87.7458 56.6314 88.5879C56.5908 88.7604 56.3784 88.8924 56.1208 88.8317ZM108.094 100.99C107.836 100.93 107.705 100.717 107.766 100.458C107.969 99.5957 108.087 98.7131 108.29 97.8507C108.351 97.592 108.563 97.46 108.821 97.5207C109.079 97.5814 109.21 97.7944 109.149 98.0531C109.031 98.9357 108.828 99.7981 108.625 100.66C108.564 100.919 108.352 101.051 108.094 100.99ZM79.1453 89.9801C78.8877 89.9193 78.7566 89.7064 78.8176 89.4477C78.935 88.565 79.0524 87.6824 79.0635 86.8658C79.0386 86.5868 79.251 86.4548 79.529 86.4293C79.8069 86.4038 79.938 86.6167 79.9629 86.8957C79.9314 87.7986 79.814 88.6812 79.6966 89.5638C79.7012 89.929 79.4029 90.0408 79.1453 89.9801ZM58.0929 83.9257L58.007 83.9055C57.7697 83.7585 57.7448 83.4796 57.8713 83.3273C58.3119 82.6119 58.7321 81.9827 59.1727 81.2673L59.3195 81.0288C59.4664 80.7903 59.7443 80.7648 59.9816 80.9118C60.2189 81.0587 60.2438 81.3377 60.0969 81.5762L59.9501 81.8146C59.5299 82.4438 59.1096 83.073 58.6691 83.7884C58.4567 83.9204 58.2646 83.9662 58.0929 83.9257ZM108.97 95.7352C108.712 95.6745 108.581 95.4615 108.622 95.289C108.739 94.4064 108.857 93.5238 108.888 92.6209C108.949 92.3622 109.076 92.2099 109.354 92.1844C109.611 92.2451 109.763 92.3719 109.788 92.6508C109.67 93.5335 109.639 94.4363 109.521 95.3189C109.46 95.5777 109.228 95.7959 108.97 95.7352ZM79.2938 84.7353C79.122 84.6948 78.9706 84.5681 78.9254 84.3754C78.871 83.4523 78.6246 82.5749 78.3375 81.8701C78.2923 81.6774 78.3533 81.4186 78.6515 81.3069C78.8436 81.2611 79.1012 81.3218 79.212 81.621C79.4787 82.4121 79.7048 83.3757 79.8451 84.3191C79.87 84.598 79.7434 84.7503 79.4655 84.7758C79.3999 84.6693 79.3796 84.7556 79.2938 84.7353ZM61.3373 79.7748C61.2514 79.7546 61.1655 79.7343 61.1 79.6279C60.9689 79.4149 60.944 79.1359 61.1564 79.0039C61.8546 78.3492 62.5324 77.7808 63.2758 77.3188C63.4882 77.1868 63.7458 77.2475 63.8769 77.4604C64.008 77.6734 63.947 77.9321 63.7346 78.0641C62.9912 78.5261 62.3134 79.0946 61.7214 79.6833C61.6152 79.7493 61.509 79.8153 61.3373 79.7748ZM109.396 90.4649C109.225 90.4244 109.094 90.2115 109.048 90.0188C109.08 89.1159 109.111 88.213 109.123 87.3964C109.098 87.1174 109.31 86.9854 109.588 86.9599C109.866 86.9344 109.997 87.1474 110.022 87.4263C109.99 88.3292 109.959 89.2321 109.927 90.1349C109.993 90.2414 109.76 90.4596 109.396 90.4649C109.482 90.4852 109.482 90.4852 109.396 90.4649ZM77.5621 79.7757C77.4763 79.7555 77.3904 79.7352 77.3249 79.6287C76.866 78.8834 76.2807 78.2903 75.675 77.7834C75.5236 77.6567 75.4128 77.3575 75.6455 77.1392C75.7721 76.987 76.0703 76.8752 76.2873 77.1084C76.9789 77.6356 77.6297 78.3351 78.1541 79.187C78.2852 79.3999 78.2242 79.6587 78.0118 79.7906C77.7542 79.7299 77.648 79.7959 77.5621 79.7757ZM65.7524 76.8101C65.5807 76.7696 65.5151 76.6632 65.4496 76.5567C65.3185 76.3437 65.4653 76.1053 65.6777 75.9733C66.5725 75.638 67.4673 75.3027 68.3215 75.1399C68.5994 75.1144 68.7509 75.2411 68.8616 75.5403C68.8865 75.8193 68.76 75.9715 68.4617 76.0833C67.6076 76.2461 66.819 76.5153 66.01 76.8708C65.9242 76.8506 65.8383 76.8304 65.7524 76.8101ZM109.565 85.134C109.393 85.0935 109.262 84.8805 109.217 84.6878C109.249 83.7849 109.174 82.9481 109.205 82.0452C109.181 81.7662 109.393 81.6342 109.671 81.6087C109.949 81.5832 110.08 81.7962 110.105 82.0751C110.159 82.9982 110.148 83.8149 110.116 84.7177C110.141 84.9967 109.929 85.1287 109.651 85.1542L109.565 85.134ZM70.9429 75.9398C70.7711 75.8993 70.5542 75.6661 70.5948 75.4937C70.6558 75.2349 70.7823 75.0827 71.0603 75.0572C72.0455 75.1074 72.9043 75.3097 73.7223 75.6846C73.9799 75.7453 74.0907 76.0445 73.9439 76.283C73.8829 76.5417 73.5846 76.6535 73.3473 76.5065C72.6151 76.1519 71.8423 75.9697 70.9429 75.9398ZM109.456 79.8285C109.284 79.788 109.133 79.6613 109.108 79.3823C109.054 78.4592 108.979 77.6224 109.01 76.7195C108.985 76.4405 109.198 76.3085 109.39 76.2628C109.668 76.2373 109.799 76.4502 109.844 76.6429C109.919 77.4798 109.973 78.4029 110.028 79.326C110.053 79.605 109.84 79.737 109.648 79.7827C109.542 79.8487 109.456 79.8285 109.456 79.8285ZM109.089 74.4623C108.917 74.4218 108.766 74.2951 108.721 74.1024C108.666 73.1793 108.592 72.3424 108.431 71.4853C108.406 71.2064 108.533 71.0541 108.811 71.0286C109.089 71.0031 109.24 71.1298 109.265 71.4088C109.34 72.2456 109.394 73.1687 109.534 74.1121C109.559 74.391 109.347 74.523 109.155 74.5688C109.175 74.4826 109.175 74.4826 109.089 74.4623ZM108.596 69.2484C108.424 69.2079 108.273 69.0812 108.227 68.8885C108.087 67.9451 108.033 67.022 107.938 66.2714C107.913 65.9924 108.04 65.8402 108.317 65.8147C108.595 65.7891 108.747 65.9159 108.772 66.1948C108.846 67.0317 109.007 67.8888 109.061 68.8119C109.086 69.0909 108.96 69.2431 108.682 69.2686L108.596 69.2484ZM107.865 63.8875C107.694 63.847 107.542 63.7203 107.497 63.5276C107.447 62.9697 107.377 62.498 107.372 62.1328L107.228 60.8242C107.203 60.5453 107.329 60.393 107.607 60.3675C107.885 60.342 108.037 60.4687 108.061 60.7477L108.206 62.0562C108.211 62.4214 108.281 62.8931 108.351 63.3648C108.376 63.6437 108.249 63.796 107.971 63.8215C108.037 63.928 107.951 63.9077 107.865 63.8875ZM107.286 58.6533C107.114 58.6128 106.963 58.4861 106.918 58.2934C106.863 57.3703 106.789 56.5334 106.734 55.6103C106.709 55.3313 106.922 55.1993 107.114 55.1536C107.392 55.1281 107.523 55.341 107.568 55.5337C107.622 56.4569 107.697 57.2937 107.772 58.1306C107.797 58.4096 107.584 58.5415 107.392 58.5873C107.372 58.6735 107.372 58.6735 107.286 58.6533ZM106.985 53.3936C106.813 53.3531 106.662 53.2264 106.637 52.9475C106.582 52.0243 106.594 51.2077 106.539 50.2846C106.514 50.0057 106.727 49.8737 107.005 49.8481C107.283 49.8226 107.414 50.0356 107.439 50.3145C107.407 51.2174 107.482 52.0543 107.536 52.9774C107.561 53.2563 107.349 53.3883 107.157 53.4341C107.005 53.3074 106.985 53.3936 106.985 53.3936ZM106.982 48.0222C106.81 47.9817 106.679 47.7687 106.634 47.576C106.665 46.6731 106.697 45.7703 106.814 44.8876C106.875 44.6289 107.088 44.4969 107.28 44.4512C107.537 44.5119 107.668 44.7248 107.714 44.9176C107.596 45.8002 107.585 46.6168 107.554 47.5197C107.472 47.8646 107.239 48.0829 106.982 48.0222ZM107.408 42.7519C107.151 42.6912 107.02 42.4782 107.081 42.2195C107.198 41.3369 107.401 40.4745 107.604 39.6121C107.665 39.3534 107.878 39.2214 108.135 39.2821C108.393 39.3428 108.524 39.5558 108.463 39.8145C108.26 40.6769 108.143 41.5595 107.939 42.4219C107.984 42.6146 107.666 42.8126 107.408 42.7519ZM108.628 37.5776C108.37 37.5168 108.259 37.2176 108.3 37.0452C108.589 36.203 108.878 35.3609 109.168 34.5187C109.228 34.26 109.527 34.1482 109.764 34.2952C110.022 34.3559 110.132 34.6551 109.986 34.8936C109.696 35.7357 109.321 36.5576 109.139 37.3338C109.098 37.5063 108.8 37.618 108.628 37.5776ZM110.6 32.6716L110.514 32.6514C110.277 32.5044 110.232 32.3117 110.293 32.053C110.668 31.2311 111.128 30.4294 111.569 29.714C111.716 29.4755 111.994 29.45 112.145 29.5767C112.382 29.7236 112.407 30.0026 112.281 30.1548C111.84 30.8703 111.379 31.6719 111.025 32.4076C110.984 32.5801 110.772 32.7121 110.6 32.6716ZM113.39 28.1405C113.304 28.1203 113.304 28.1203 113.218 28.1001C112.981 27.9531 112.956 27.6742 113.189 27.4559C113.715 26.7607 114.328 26.0858 114.94 25.4108C115.066 25.2586 115.43 25.2533 115.582 25.38C115.733 25.5067 115.758 25.7857 115.611 26.0242C115.019 26.6129 114.407 27.2878 113.88 27.983C113.754 28.1353 113.562 28.181 113.39 28.1405Z" fill="#F7B916"/>
<path d="M113.162 43.3338H53.1622C47.7622 43.3338 43.2622 47.7338 43.2622 53.2338V85.3338C43.2622 90.7338 47.6622 95.2338 53.1622 95.2338H113.162C118.562 95.2338 123.062 90.8338 123.062 85.3338V53.2338C123.062 47.8338 118.662 43.3338 113.162 43.3338Z" fill="white" stroke="#1062AA" stroke-miterlimit="10"/>
<path d="M122.262 88.7338L83.1622 60.0338L44.0623 88.7338" fill="white"/>
<path d="M122.262 88.7338L83.1622 60.0338L44.0623 88.7338" stroke="#1062AA" stroke-miterlimit="10"/>
<path d="M44.0623 49.5338L81.8622 78.3338C82.6622 78.9338 83.7623 78.9338 84.5623 78.3338L122.362 49.5338" fill="white"/>
<path d="M44.0623 49.5338L81.8622 78.3338C82.6622 78.9338 83.7623 78.9338 84.5623 78.3338L122.362 49.5338" stroke="#1062AA" stroke-miterlimit="10"/>
<path d="M23.1711 46.1938C30.716 46.943 37.4397 41.4341 38.1889 33.8892C38.9381 26.3443 33.4292 19.6207 25.8843 18.8714C18.3395 18.1222 11.6158 23.6311 10.8665 31.176C10.1173 38.7209 15.6263 45.4445 23.1711 46.1938Z" fill="#00ADEE"/>
<path d="M24.2472 32.7626C26.5036 32.9866 28.5144 31.3391 28.7385 29.0827C28.9626 26.8263 27.315 24.8155 25.0586 24.5914C22.8022 24.3673 20.7914 26.0149 20.5673 28.2713C20.3432 30.5277 21.9908 32.5385 24.2472 32.7626Z" stroke="white" stroke-miterlimit="10" stroke-linecap="round" stroke-linejoin="round"/>
<path d="M16.3241 39.8408C17.4451 36.342 20.6606 33.8247 24.5288 33.8221C28.3971 33.8194 31.6288 36.3322 32.6909 39.9189" stroke="white" stroke-miterlimit="10" stroke-linecap="round" stroke-linejoin="round"/>
<path d="M83.1623 54.3591C88.7389 54.3591 93.2596 49.8384 93.2596 44.2617C93.2596 38.6851 88.7389 34.1644 83.1623 34.1644C77.5857 34.1644 73.0649 38.6851 73.0649 44.2617C73.0649 49.8384 77.5857 54.3591 83.1623 54.3591Z" fill="#F7B916"/>
<path d="M136.091 125.851C143.673 125.851 149.819 119.705 149.819 112.123C149.819 104.541 143.673 98.3947 136.091 98.3947C128.509 98.3947 122.362 104.541 122.362 112.123C122.362 119.705 128.509 125.851 136.091 125.851Z" fill="#FFE735"/>
<path d="M131.439 113.145C130.417 113.145 129.591 112.774 128.961 112.032C128.331 111.29 128.016 110.324 128.016 109.134C128.016 107.944 128.331 106.978 128.961 106.236C129.591 105.494 130.417 105.123 131.439 105.123C132.461 105.123 133.28 105.494 133.896 106.236C134.526 106.964 134.841 107.93 134.841 109.134C134.841 110.338 134.526 111.311 133.896 112.053C133.28 112.781 132.461 113.145 131.439 113.145ZM140.301 105.249H141.918L131.88 119.949H130.263L140.301 105.249ZM131.439 111.948C132.083 111.948 132.587 111.703 132.951 111.213C133.315 110.709 133.497 110.016 133.497 109.134C133.497 108.252 133.315 107.566 132.951 107.076C132.587 106.572 132.083 106.32 131.439 106.32C130.809 106.32 130.305 106.572 129.927 107.076C129.563 107.58 129.381 108.266 129.381 109.134C129.381 110.002 129.563 110.688 129.927 111.192C130.305 111.696 130.809 111.948 131.439 111.948ZM140.742 120.075C139.72 120.075 138.894 119.711 138.264 118.983C137.648 118.241 137.34 117.268 137.34 116.064C137.34 114.86 137.648 113.894 138.264 113.166C138.894 112.424 139.72 112.053 140.742 112.053C141.764 112.053 142.59 112.424 143.22 113.166C143.85 113.908 144.165 114.874 144.165 116.064C144.165 117.254 143.85 118.22 143.22 118.962C142.59 119.704 141.764 120.075 140.742 120.075ZM140.742 118.878C141.372 118.878 141.869 118.626 142.233 118.122C142.611 117.618 142.8 116.932 142.8 116.064C142.8 115.196 142.611 114.51 142.233 114.006C141.869 113.502 141.372 113.25 140.742 113.25C140.098 113.25 139.594 113.502 139.23 114.006C138.866 114.496 138.684 115.182 138.684 116.064C138.684 116.946 138.866 117.639 139.23 118.143C139.594 118.633 140.098 118.878 140.742 118.878Z" fill="#333333"/>
<path d="M84.1718 37.9617V50.5617H82.8758V39.1137H79.9058V37.9617H84.1718Z" fill="white"/>
<rect x="142.065" y="59.871" width="15.5085" height="14.5128" rx="3" fill="#EBF0FF"/>
<path d="M149.819 59.871L149.819 74.3838" stroke="#1062AA"/>
<path d="M157.573 63.6674H142.065" stroke="#1062AA"/>
<path d="M143.935 56.3024C143.935 56.3024 146.071 57.7451 149.947 57.7451C152.974 57.7451 155.642 56.3024 155.642 56.3024" stroke="#EBF0FF" stroke-linecap="round" stroke-linejoin="round"/>
<path d="M138.109 1.25763L125.371 24.1857L116.534 15.7469L138.109 1.25763Z" stroke="white" stroke-miterlimit="10" stroke-linecap="round" stroke-linejoin="round"/>
<path d="M138.109 1.25763L113.509 12.642L108.016 7.54692L138.109 1.25763Z" stroke="white" stroke-miterlimit="10" stroke-linecap="round" stroke-linejoin="round"/>
<path d="M113.509 12.642L117.887 22.6731L116.534 15.7469L138.108 1.25763L113.509 12.642Z" stroke="white" stroke-miterlimit="10" stroke-linecap="round" stroke-linejoin="round"/>
<path d="M116.534 15.7469L117.887 22.673L120.992 19.9663L116.534 15.7469Z" stroke="white" stroke-miterlimit="10" stroke-linecap="round" stroke-linejoin="round"/>
<path d="M18.9904 99.1688C22.3616 105.525 24.9442 103.414 26.4766 106.304C26.4766 106.304 27.0896 107.459 25.934 108.072L10.9108 116.041C9.75522 116.654 9.14225 115.498 9.14225 115.498C7.60985 112.609 10.8054 111.654 7.4341 105.298C5.74171 102.108 6.95616 98.1482 10.1474 96.4555C13.3387 94.7628 17.298 95.9781 18.9904 99.1688Z" fill="#F7B916"/>
<path d="M11.0666 98.189C12.0239 97.6812 12.3884 96.4935 11.8806 95.5362C11.3728 94.5788 10.1851 94.2144 9.2277 94.7222C8.27035 95.23 7.90591 96.4177 8.41371 97.375C8.9215 98.3324 10.1092 98.6968 11.0666 98.189Z" fill="#F7B916"/>
<path d="M20.2611 115.523C21.5374 114.846 22.0234 113.263 21.3464 111.986L16.7239 114.438C17.4009 115.714 18.9847 116.2 20.2611 115.523Z" fill="#F7B916"/>
</svg>
