<svg width="50" height="50" viewBox="0 0 50 50" fill="none" xmlns="http://www.w3.org/2000/svg">
<path d="M21.8239 0.85V0.964063C21.2953 1.03457 20.8931 1.46878 20.7849 1.90064L20.7845 1.90052L20.7825 1.91238L19.7551 8.06312C18.5567 8.37333 17.4552 8.87045 16.4509 9.46317L11.4189 5.87668C11.1864 5.70312 10.9181 5.6116 10.6439 5.6268C10.3684 5.64207 10.1002 5.76433 9.86866 5.99507C9.86843 5.9953 9.8682 5.99554 9.86796 5.99577L5.79978 9.95102L5.79144 9.95914L5.78444 9.96844C5.44947 10.4141 5.31179 11.0107 5.67902 11.5008L9.27557 16.5251C8.68188 17.6286 8.2763 18.7326 7.87761 19.9213L1.80977 20.9475L1.80976 20.9475L1.80543 20.9483C1.20856 21.0675 0.85 21.5497 0.85 22.1367V27.8633C0.85 28.4503 1.20856 28.9325 1.80542 29.0517L1.80735 29.052L7.86966 30.1798C8.18131 31.3795 8.6812 32.483 9.27498 33.5783L5.68009 38.4977C5.6799 38.498 5.67971 38.4982 5.67952 38.4985C5.31166 38.9887 5.44931 39.5857 5.78444 40.0316L5.79085 40.0401L5.7984 40.0476L9.86796 44.1084C10.0523 44.2923 10.3207 44.4086 10.5974 44.4377C10.8745 44.4668 11.1741 44.4097 11.4183 44.2279L16.5579 40.638C17.6621 41.2296 18.7651 41.6343 19.8578 42.0309L20.8868 48.1917L20.8868 48.1918L20.8877 48.1965C21.0072 48.7926 21.4907 49.15 22.0783 49.15H27.8174C28.405 49.15 28.8885 48.7926 29.008 48.1965L29.0084 48.1941L30.1388 42.0414C31.3382 41.7312 32.4406 41.2337 33.4456 40.6404L38.5817 44.2279C39.0724 44.5935 39.6696 44.4563 40.116 44.1223L40.1245 44.1159L40.132 44.1084L44.2016 40.0476C44.386 39.8637 44.5026 39.5957 44.5318 39.3194C44.561 39.042 44.5034 38.7421 44.3202 38.4981C44.3201 38.4979 44.32 38.4978 44.3199 38.4977L40.6232 33.4771C41.2162 32.4676 41.6213 31.3657 42.0185 30.1815L48.1922 29.0521L48.1946 29.0517C48.7914 28.9325 49.15 28.4503 49.15 27.8633V22.1367C49.15 21.5357 48.6739 21.0678 48.2015 20.9499L48.2016 20.9494L48.1898 20.9475L42.0255 19.9223C41.7145 18.7263 41.2162 17.6271 40.6221 16.6248L44.217 11.5003C44.5838 11.0103 44.4461 10.414 44.1112 9.96844L44.1048 9.95992L44.0973 9.95239L40.0277 5.89165C39.8434 5.70771 39.5749 5.59138 39.2983 5.56232C39.0209 5.53319 38.721 5.5904 38.4768 5.77255C38.4763 5.7729 38.4758 5.77326 38.4753 5.77362L33.4445 9.35924C32.5281 8.82573 31.4639 8.44375 30.4651 8.08524C30.3566 8.04629 30.2489 8.00763 30.1422 7.96907L29.1132 1.80826L29.1132 1.80825L29.1123 1.80349C28.9928 1.2074 28.5093 0.85 27.9217 0.85H21.9739H21.8239ZM27.774 9.14745L27.7736 9.14752L27.7762 9.15793C27.8926 9.62223 28.2412 9.97585 28.6048 10.0968L28.6047 10.097L28.6136 10.0994C30.1679 10.513 31.5095 11.0283 32.8497 11.851C33.036 11.974 33.2744 12.0307 33.5043 12.0307C33.7352 12.0307 33.9747 11.9736 34.1613 11.8494L34.1614 11.8495L34.166 11.8461L38.967 8.38067L41.6046 11.0126L38.2339 15.8031L38.2338 15.803L38.2318 15.806C38.1073 15.9924 38.05 16.2315 38.05 16.462C38.05 16.6916 38.1068 16.9297 38.2302 17.1156C39.0544 18.4526 39.5708 19.7908 39.9852 21.3412C40.1008 21.8011 40.4557 22.1764 40.953 22.1825L46.763 23.0979V26.8002L40.9394 27.8197L40.9393 27.8193L40.9289 27.8219C40.4639 27.9379 40.1095 28.2857 39.9882 28.6488L39.9879 28.6487L39.9855 28.6576C39.5711 30.2085 39.0546 31.547 38.2302 32.8844C38.1068 33.0703 38.05 33.3084 38.05 33.538C38.05 33.7685 38.1073 34.0076 38.2318 34.194L38.2317 34.194L38.2351 34.1987L41.7077 38.9887L39.07 41.6206L34.2687 38.2568L34.2687 38.2567L34.2657 38.2547C34.0791 38.1306 33.8396 38.0734 33.6087 38.0734C33.3778 38.0734 33.1383 38.1306 32.9517 38.2547C31.7199 39.0742 30.2777 39.5896 28.719 40.0044C28.2591 40.1196 27.8829 40.473 27.8762 40.969L26.8567 46.7676H23.1455L22.2264 40.9592L22.227 40.9591L22.2238 40.9462C22.1074 40.4819 21.7588 40.1283 21.3952 40.0073L21.3953 40.0071L21.3864 40.0047C19.8321 39.5911 18.4906 39.0758 17.1503 38.2532C16.964 38.1301 16.7256 38.0734 16.4957 38.0734C16.2648 38.0734 16.0253 38.1306 15.8387 38.2547L15.8386 38.2547L15.8357 38.2568L11.0343 41.6206L8.39628 38.9883L11.7653 34.3023L11.7653 34.3024L11.7682 34.2981C11.8927 34.1118 11.95 33.8726 11.95 33.6421C11.95 33.4125 11.8932 33.1744 11.7698 32.9885C10.9456 31.6515 10.4292 30.3132 10.0148 28.7628C9.89923 28.3034 9.545 27.9285 9.04858 27.9217L3.3413 26.9047V23.2016L9.05853 22.2848L9.05862 22.2853L9.07109 22.2822C9.53607 22.1662 9.89055 21.8184 10.0118 21.4553L10.0121 21.4554L10.0145 21.4465C10.4302 19.8909 10.9468 18.4516 11.7682 17.2222C11.8927 17.0358 11.95 16.7967 11.95 16.5662C11.95 16.3356 11.8927 16.0965 11.7682 15.9102L11.7683 15.9101L11.7646 15.905L8.18829 11.011L10.8256 8.37939L15.627 11.7432L15.6269 11.7433L15.63 11.7453C15.8166 11.8694 16.0561 11.9266 16.287 11.9266C16.5169 11.9266 16.7553 11.8699 16.9416 11.7469C18.2815 10.9244 19.6227 10.4091 21.1765 9.99559C21.6364 9.88045 22.0126 9.52715 22.0195 9.03121L23.0386 3.33655H26.7523L27.774 9.14745Z" fill="#1062AA" stroke="#1062AA" stroke-width="0.3"/>
<circle cx="24.5" cy="25.5" r="8" stroke="#1062AA" stroke-width="3"/>
</svg>
