<svg width="48" height="48" viewBox="0 0 48 48" fill="none" xmlns="http://www.w3.org/2000/svg">
<path d="M29.5497 35.0803C26.5552 35.0803 22.4936 32.8168 18.8339 29.2229C16.5046 26.8278 14.6407 24.2305 13.7076 21.8354C12.6428 19.1723 12.7768 16.977 14.0413 15.7124L16.105 13.6487C16.97 12.7838 18.5002 12.7838 19.4333 13.6487L23.0271 17.2426C23.4925 17.708 23.6923 18.2415 23.6923 18.9067C23.6923 19.5061 23.4267 20.1054 23.0271 20.5708L21.8965 21.7014C22.4301 22.5664 23.1611 23.4314 23.9602 24.2964C24.7594 25.0955 25.6244 25.8266 26.5552 26.3601L27.6858 25.2295C28.5508 24.3645 30.0809 24.3645 31.014 25.2295L34.542 28.7575C35.4729 29.6883 35.4729 31.1527 34.542 32.0857L32.4783 34.1494C31.6792 34.7488 30.7484 35.0803 29.5497 35.0803Z" fill="white" stroke="#1062AA" stroke-width="3"/>
<circle cx="24" cy="24" r="22.5" stroke="#1062AA" stroke-width="3"/>
</svg>
