<svg width="47" height="48" viewBox="0 0 47 48" fill="none" xmlns="http://www.w3.org/2000/svg">
<path d="M29.4937 41.0881H5.02734C3.18398 41.0881 1.67578 39.5684 1.67578 37.711V5.06559C1.67578 3.20818 3.18398 1.68848 5.02734 1.68848H37.4257C39.2691 1.68848 40.7773 3.20818 40.7773 5.06559V30.6191" stroke="#1062AA" stroke-width="3" stroke-miterlimit="10" stroke-linecap="round" stroke-linejoin="round"/>
<path d="M32.655 12.9453H15.2939" stroke="#1062AA" stroke-width="3" stroke-miterlimit="10" stroke-linecap="round" stroke-linejoin="round"/>
<path d="M32.655 18.293H15.2939" stroke="#1062AA" stroke-width="3" stroke-miterlimit="10" stroke-linecap="round" stroke-linejoin="round"/>
<path d="M32.655 23.6514H15.2939" stroke="#1062AA" stroke-width="3" stroke-miterlimit="10" stroke-linecap="round" stroke-linejoin="round"/>
<path d="M24.1532 28.998H15.2939" stroke="#1062AA" stroke-width="3" stroke-miterlimit="10" stroke-linecap="round" stroke-linejoin="round"/>
<path d="M10.5019 30.675C11.4275 30.675 12.1777 29.919 12.1777 28.9864C12.1777 28.0538 11.4275 27.2979 10.5019 27.2979C9.57644 27.2979 8.82617 28.0538 8.82617 28.9864C8.82617 29.919 9.57644 30.675 10.5019 30.675Z" fill="#1062AA"/>
<path d="M10.5019 25.4298C11.4275 25.4298 12.1777 24.6739 12.1777 23.7413C12.1777 22.8087 11.4275 22.0527 10.5019 22.0527C9.57644 22.0527 8.82617 22.8087 8.82617 23.7413C8.82617 24.6739 9.57644 25.4298 10.5019 25.4298Z" fill="#1062AA"/>
<path d="M10.5019 20.1838C11.4275 20.1838 12.1777 19.4278 12.1777 18.4952C12.1777 17.5626 11.4275 16.8066 10.5019 16.8066C9.57644 16.8066 8.82617 17.5626 8.82617 18.4952C8.82617 19.4278 9.57644 20.1838 10.5019 20.1838Z" fill="#1062AA"/>
<path d="M10.5019 14.7804C11.4275 14.7804 12.1777 14.0244 12.1777 13.0919C12.1777 12.1593 11.4275 11.4033 10.5019 11.4033C9.57644 11.4033 8.82617 12.1593 8.82617 13.0919C8.82617 14.0244 9.57644 14.7804 10.5019 14.7804Z" fill="#1062AA"/>
<path d="M37.124 46.3115C41.6528 46.3115 45.3241 42.6121 45.3241 38.0488C45.3241 33.4855 41.6528 29.7861 37.124 29.7861C32.5952 29.7861 28.9238 33.4855 28.9238 38.0488C28.9238 42.6121 32.5952 46.3115 37.124 46.3115Z" stroke="#1062AA" stroke-width="3" stroke-miterlimit="10" stroke-linecap="round" stroke-linejoin="round"/>
<path d="M34.041 38.0488H39.6046" stroke="#1062AA" stroke-width="3" stroke-miterlimit="10" stroke-linecap="round" stroke-linejoin="round"/>
<path d="M36.8232 35.2461V40.8521" stroke="#1062AA" stroke-width="3" stroke-miterlimit="10" stroke-linecap="round" stroke-linejoin="round"/>
</svg>
