<svg width="68" height="46" viewBox="0 0 68 46" fill="none" xmlns="http://www.w3.org/2000/svg">
<g clip-path="url(#clip0)">
<path d="M12.1 36.7C11.7 37.6 11.5 38.6 11.7 39.7C12 42.1 14 44 16.4 44.3C19.7 44.7 22.4 42.1 22.4 38.9C22.4 38.1 22.2 37.3 21.9 36.6C21.6 35.9 22.1 35 22.9 35H32.7V23.5C32.7 22.9 32.1 22.5 31.5 22.8C30.4 23.4 29 23.7 27.6 23.4C25.6 23 24 21.3 23.6 19.3C22.9 15.8 25.5 12.7 28.9 12.7C29.8 12.7 30.7 12.9 31.5 13.4C32 13.7 32.7 13.3 32.7 12.7L32.8 1.5H1.5V12.7C1.5 13.3 2.1 13.7 2.7 13.4C3.8 12.8 5.2 12.5 6.6 12.8C8.6 13.2 10.2 14.9 10.6 16.9C11.3 20.4 8.7 23.5 5.3 23.5C4.4 23.5 3.5 23.3 2.7 22.8C2.2 22.5 1.5 22.9 1.5 23.5V35.1H11C11.9 35.2 12.4 36 12.1 36.7Z" stroke="#1062AA" stroke-width="3" stroke-miterlimit="10" stroke-linecap="round" stroke-linejoin="round"/>
<path d="M31.0997 13.1C30.1997 12.7 29.1997 12.5 28.0997 12.7C25.6997 13 23.7997 15 23.4997 17.4C23.0997 20.7 25.6997 23.4 28.8997 23.4C29.6997 23.4 30.4997 23.2 31.1997 22.9C31.8997 22.6 32.7997 23.1 32.7997 23.9V34.9H44.3997C44.9997 34.9 45.3997 34.3 45.0997 33.7C44.4997 32.6 44.1997 31.2 44.4997 29.8C44.8997 27.8 46.5997 26.2 48.5997 25.8C52.0997 25.1 55.1997 27.7 55.1997 31.1C55.1997 32 54.9997 32.9 54.4997 33.7C54.1997 34.2 54.5997 34.9 55.1997 34.9L66.2997 35V1.5H54.9997C54.3997 1.5 53.9997 2.1 54.2997 2.7C54.8997 3.8 55.1997 5.2 54.8997 6.6C54.4997 8.6 52.7997 10.2 50.7997 10.6C47.2997 11.3 44.1997 8.7 44.1997 5.3C44.1997 4.4 44.3997 3.5 44.8997 2.7C45.1997 2.2 44.7997 1.5 44.1997 1.5H32.5997V12C32.5997 12.9 31.7997 13.5 31.0997 13.1Z" stroke="#1062AA" stroke-width="3" stroke-miterlimit="10" stroke-linecap="round" stroke-linejoin="round"/>
</g>
<defs>
<clipPath id="clip0">
<rect width="67.8" height="45.8" fill="white"/>
</clipPath>
</defs>
</svg>
