<svg width="37" height="39" viewBox="0 0 37 39" fill="none" xmlns="http://www.w3.org/2000/svg">
<path d="M13.6484 1H33.0608C34.4987 1 35.7154 2.30894 35.7154 3.99186V25.6828" stroke="#00ADEE" stroke-width="2" stroke-miterlimit="10" stroke-linecap="round" stroke-linejoin="round"/>
<path d="M35.7152 9.22761V21.6937V28.1137C35.7152 29.7343 34.5537 31.1056 33.0605 31.1056V37.1267L26.6835 31.1056H3.74843C2.31048 31.1056 1.09375 29.7966 1.09375 28.1137V3.99186C1.09375 2.30894 2.25517 1 3.74843 1H13.7035" stroke="#00ADEE" stroke-width="2" stroke-miterlimit="10" stroke-linecap="round" stroke-linejoin="round"/>
<path fill-rule="evenodd" clip-rule="evenodd" d="M9.40625 8.84546H21.4062C22.5108 8.84546 23.4062 9.74089 23.4062 10.8455V12.2274L29.4062 9.22743V22.4635L23.4062 19.4635V20.8455C23.4062 21.95 22.5108 22.8455 21.4062 22.8455H9.40625C8.30168 22.8455 7.40625 21.95 7.40625 20.8455V10.8455C7.40625 9.74089 8.30168 8.84546 9.40625 8.84546ZM23.4062 17.2274L27.4062 19.2274V12.4635L23.4062 14.4635V17.2274ZM9.40625 10.8455V20.8455H21.4062V10.8455H9.40625Z" fill="#1062AA"/>
</svg>
