<svg width="30" height="31" viewBox="0 0 30 31" fill="none" xmlns="http://www.w3.org/2000/svg">
<path d="M18.8564 15.7089C18.8564 16.4933 18.5596 17.1586 17.9659 17.7046C17.3821 18.2507 16.5312 18.5685 15.413 18.6578V20.3408H14.4631V18.6578C13.7408 18.6181 13.0531 18.4841 12.4 18.2557C11.7569 18.0174 11.2423 17.7195 10.8564 17.3621L11.4056 16.2004C11.7618 16.5281 12.212 16.8011 12.7563 17.0195C13.3005 17.2281 13.8694 17.3522 14.4631 17.3919V13.9366C13.7705 13.7678 13.1916 13.5841 12.7266 13.3855C12.2714 13.1869 11.8855 12.894 11.5689 12.5068C11.2621 12.1195 11.1088 11.6132 11.1088 10.9876C11.1088 10.2032 11.3908 9.53798 11.9548 8.99188C12.5287 8.44579 13.3648 8.12805 14.4631 8.03869V6.34082H15.413V8.0238C15.977 8.04366 16.5213 8.13302 17.0457 8.29188C17.58 8.45075 18.0401 8.66422 18.426 8.93231L17.9362 10.1238C17.1347 9.61742 16.2937 9.3394 15.413 9.28976V12.76C16.1354 12.9387 16.729 13.1273 17.1941 13.3259C17.6592 13.5146 18.05 13.8025 18.3666 14.1898C18.6932 14.5671 18.8564 15.0734 18.8564 15.7089ZM12.5633 10.9281C12.5633 11.355 12.7266 11.6876 13.0531 11.9259C13.3796 12.1642 13.8496 12.3628 14.4631 12.5217V9.30465C13.8299 9.38408 13.3549 9.57274 13.0383 9.87061C12.7216 10.1586 12.5633 10.511 12.5633 10.9281ZM15.413 17.377C16.076 17.3174 16.5707 17.1486 16.8973 16.8706C17.2337 16.5827 17.4019 16.2252 17.4019 15.7983C17.4019 15.3614 17.2287 15.0288 16.8824 14.8004C16.546 14.5621 16.0562 14.3536 15.413 14.1749V17.377Z" fill="#00ADEE"/>
<path d="M14.8565 29.3408L1.00008 13.5908L7.92828 13.5908L7.92828 0.84082L21.7847 0.84082L21.7847 13.5908L28.7129 13.5908L14.8565 29.3408Z" stroke="#00ADEE" stroke-width="1.5" stroke-linecap="round" stroke-linejoin="round"/>
</svg>
