<svg width="30" height="24" viewBox="0 0 30 24" fill="none" xmlns="http://www.w3.org/2000/svg">
<path d="M30 7.41203C29.9888 6.06722 27.6555 5.4568 21.6153 5.4568C7.44315 5.4568 3.84757 4.81209 0 0.5C1.61871 3.08917 2.50433 7.94552 17.4839 7.70386C33.1128 7.44744 23.5782 11.9957 20.804 17.1342C25.8071 12.3787 29.9849 9.22469 30 7.41203ZM10.0849 21.2213C10.0844 22.4713 9.11886 23.4997 7.94492 23.5C6.75925 23.5 5.80041 22.479 5.80041 21.2213C5.80041 19.9692 6.76762 18.937 7.94379 18.937C9.12556 18.937 10.0849 19.9584 10.0849 21.2213ZM19.8447 21.2213C19.8441 22.4713 18.8786 23.4997 17.7046 23.5C16.5201 23.5 15.5607 22.479 15.5607 21.2213C15.5607 19.9692 16.5279 18.937 17.7035 18.937C18.8853 18.937 19.8447 19.9584 19.8447 21.2213Z" fill="url(#paint0_linear)"/>
<defs>
<linearGradient id="paint0_linear" x1="-39.8038" y1="23.365" x2="-39.8038" y2="0.50006" gradientUnits="userSpaceOnUse">
<stop stop-color="#04B6F0"/>
<stop offset="1" stop-color="#3ECAF0"/>
</linearGradient>
</defs>
</svg>
