<svg width="26" height="35" viewBox="0 0 26 35" fill="none" xmlns="http://www.w3.org/2000/svg">
<mask id="path-1-inside-1" fill="white">
<path d="M4.33789 28.4825C4.33789 25.1688 7.02418 22.4825 10.3379 22.4825H15.5863C18.9 22.4825 21.5863 25.1688 21.5863 28.4825V33.3408C21.5863 33.8931 21.1386 34.3408 20.5863 34.3408H5.33789C4.78561 34.3408 4.33789 33.8931 4.33789 33.3408V28.4825Z"/>
</mask>
<path d="M4.33789 28.4825C4.33789 25.1688 7.02418 22.4825 10.3379 22.4825H15.5863C18.9 22.4825 21.5863 25.1688 21.5863 28.4825V33.3408C21.5863 33.8931 21.1386 34.3408 20.5863 34.3408H5.33789C4.78561 34.3408 4.33789 33.8931 4.33789 33.3408V28.4825Z" stroke="#00ADEE" stroke-width="3" mask="url(#path-1-inside-1)"/>
<path d="M3.85229 14.9363C3.88274 12.614 4.78395 10.301 6.55591 8.52904C10.1618 4.92315 16.0081 4.92315 19.614 8.52904C21.386 10.301 22.2872 12.614 22.3176 14.9363" stroke="#00ADEE" stroke-width="1.5" stroke-linecap="round" stroke-linejoin="round"/>
<circle cx="12.9624" cy="14.9364" r="5.39013" stroke="#00ADEE" stroke-width="1.5"/>
<rect x="2.18164" y="13.8583" width="3.23408" height="5.39013" rx="1.61704" fill="#00ADEE"/>
<rect x="20.5088" y="13.8583" width="3.23408" height="5.39013" rx="1.61704" fill="#00ADEE"/>
<path d="M13.501 17.0924H21.5862" stroke="#00ADEE" stroke-width="1.5" stroke-linecap="round" stroke-linejoin="round"/>
</svg>
