<svg width="30" height="31" viewBox="0 0 30 31" fill="none" xmlns="http://www.w3.org/2000/svg">
<path d="M2.13211 15.5177C2.13211 20.611 5.09203 25.0125 9.38414 27.0984L3.24615 10.281C2.53219 11.8813 2.13211 13.6523 2.13211 15.5177Z" fill="#00ADEE"/>
<path d="M23.6862 14.8684C23.6862 13.2781 23.115 12.1768 22.625 11.3196C21.9728 10.2597 21.3614 9.36205 21.3614 8.30212C21.3614 7.11928 22.2585 6.01822 23.5221 6.01822C23.5792 6.01822 23.6333 6.02532 23.6889 6.0285C21.3996 3.93117 18.3496 2.65063 14.9996 2.65063C10.5043 2.65063 6.5493 4.95707 4.2485 8.4505C4.5504 8.45956 4.83491 8.46592 5.07657 8.46592C6.42247 8.46592 8.50585 8.30261 8.50585 8.30261C9.1995 8.26172 9.28127 9.28052 8.58836 9.36254C8.58836 9.36254 7.89129 9.44457 7.11563 9.48521L11.8015 23.423L14.6174 14.9776L12.6126 9.48472C11.9197 9.44408 11.2633 9.36205 11.2633 9.36205C10.5699 9.32141 10.6512 8.26123 11.3446 8.30212C11.3446 8.30212 13.4696 8.46544 14.7339 8.46544C16.0796 8.46544 18.1632 8.30212 18.1632 8.30212C18.8574 8.26123 18.9389 9.28003 18.2457 9.36205C18.2457 9.36205 17.5472 9.44408 16.773 9.48472L21.4231 23.3169L22.7066 19.028C23.2628 17.2482 23.6862 15.9699 23.6862 14.8684Z" fill="#00ADEE"/>
<path d="M15.2254 16.6433L11.3647 27.8618C12.5174 28.2007 13.7365 28.386 14.9996 28.386C16.4981 28.386 17.9351 28.127 19.2727 27.6566C19.2381 27.6015 19.2068 27.543 19.1811 27.4794L15.2254 16.6433Z" fill="#00ADEE"/>
<path d="M26.2903 9.34424C26.3456 9.75411 26.377 10.1941 26.377 10.6674C26.377 11.9731 26.1331 13.441 25.3986 15.2763L21.4681 26.6403C25.2936 24.4095 27.8666 20.265 27.8666 15.518C27.8669 13.2808 27.2954 11.1771 26.2903 9.34424Z" fill="#00ADEE"/>
<path d="M14.9996 0.518555C6.72905 0.518555 0 7.24711 0 15.5177C0 23.7893 6.72905 30.5176 14.9996 30.5176C23.27 30.5176 30 23.7893 30 15.5177C29.9998 7.24711 23.27 0.518555 14.9996 0.518555ZM14.9996 29.83C7.10831 29.83 0.687767 23.4095 0.687767 15.5177C0.687767 7.62638 7.10807 1.20632 14.9996 1.20632C22.8907 1.20632 29.3108 7.62638 29.3108 15.5177C29.3108 23.4095 22.8907 29.83 14.9996 29.83Z" fill="#00ADEE"/>
</svg>
