<svg width="33" height="33" viewBox="0 0 33 33" fill="none" xmlns="http://www.w3.org/2000/svg">
<path d="M1 9.4041V24.5315C1 28.1733 3.92037 31.1147 7.53607 31.1147H24.502C28.1177 31.1147 31.0381 28.1733 31.0381 24.5315V7.58321C31.0381 3.94144 28.1177 1 24.502 1H10.5955" stroke="#1062AA" stroke-width="2" stroke-miterlimit="10" stroke-linecap="round" stroke-linejoin="round"/>
<path d="M10.4564 1V9.26403H1L10.4564 1Z" stroke="#1062AA" stroke-width="2" stroke-miterlimit="10" stroke-linecap="round" stroke-linejoin="round"/>
<path d="M22.6941 17.248C22.6941 20.6096 19.9128 23.411 16.5752 23.411C13.2377 23.411 10.4564 20.6096 10.4564 17.248C10.4564 13.8863 13.2377 11.085 16.5752 11.085V17.248H22.6941Z" stroke="#1062AA" stroke-width="2" stroke-miterlimit="10" stroke-linecap="round" stroke-linejoin="round"/>
<path d="M23.9457 13.7462C23.9457 11.6452 22.1379 9.96436 20.0519 9.96436V13.8863L23.9457 13.7462Z" stroke="#1062AA" stroke-width="2" stroke-miterlimit="10" stroke-linecap="round" stroke-linejoin="round"/>
</svg>
