<svg width="41" height="34" viewBox="0 0 41 34" fill="none" xmlns="http://www.w3.org/2000/svg">
<path d="M23.7792 19.293C23.7792 19.9302 23.5107 20.4706 22.9736 20.9142C22.4454 21.3578 21.6756 21.6159 20.6641 21.6885V23.0557H19.8048V21.6885C19.1513 21.6563 18.5292 21.5474 17.9384 21.3619C17.3566 21.1683 16.8911 20.9263 16.542 20.6359L17.0388 19.6923C17.361 19.9584 17.7683 20.1802 18.2607 20.3577C18.753 20.5271 19.2677 20.6279 19.8048 20.6601V17.8533C19.1782 17.7161 18.6545 17.5669 18.2338 17.4056C17.822 17.2443 17.4729 17.0063 17.1865 16.6918C16.909 16.3772 16.7703 15.9659 16.7703 15.4577C16.7703 14.8205 17.0254 14.2801 17.5356 13.8365C18.0548 13.3929 18.8112 13.1348 19.8048 13.0622V11.6829H20.6641V13.0501C21.1743 13.0662 21.6667 13.1388 22.1411 13.2679C22.6245 13.3969 23.0407 13.5703 23.3898 13.7881L22.9467 14.756C22.2217 14.3446 21.4608 14.1188 20.6641 14.0785V16.8975C21.3176 17.0426 21.8547 17.1959 22.2754 17.3572C22.6961 17.5105 23.0497 17.7444 23.3361 18.0589C23.6315 18.3654 23.7792 18.7768 23.7792 19.293ZM18.0861 15.4093C18.0861 15.7561 18.2338 16.0263 18.5292 16.2199C18.8246 16.4135 19.2498 16.5748 19.8048 16.7039V14.0906C19.2319 14.1551 18.8022 14.3083 18.5158 14.5503C18.2293 14.7842 18.0861 15.0706 18.0861 15.4093ZM20.6641 20.648C21.2639 20.5997 21.7114 20.4625 22.0068 20.2367C22.3112 20.0028 22.4633 19.7124 22.4633 19.3656C22.4633 19.0107 22.3067 18.7405 21.9934 18.555C21.6891 18.3614 21.246 18.192 20.6641 18.0468V20.648Z" fill="#00ADEE"/>
<circle cx="20.1611" cy="17.3693" r="8.03804" stroke="#00ADEE" stroke-width="1.5"/>
<path d="M13.6384 4.68627C6.96267 8.54052 4.67539 17.0768 8.52964 23.7525C10.3702 26.9406 13.2786 29.1278 16.5422 30.1232" stroke="#00ADEE" stroke-width="1.5" stroke-linecap="round" stroke-linejoin="round"/>
<path d="M12.5723 10.0774L13.6383 4.68658L8.50596 4.06823" stroke="#00ADEE" stroke-width="1.5" stroke-linecap="round" stroke-linejoin="round"/>
<path d="M27.2493 29.3139C33.925 25.4596 36.2123 16.9233 32.3581 10.2476C30.5174 7.05956 27.6091 4.87235 24.3455 3.87689" stroke="#00ADEE" stroke-width="1.5" stroke-linecap="round" stroke-linejoin="round"/>
<path d="M28.3154 23.9232L27.2494 29.314L32.3817 29.9324" stroke="#00ADEE" stroke-width="1.5" stroke-linecap="round" stroke-linejoin="round"/>
</svg>
