<svg width="32" height="33" viewBox="0 0 32 33" fill="none" xmlns="http://www.w3.org/2000/svg">
<path d="M1 19.2118V7.74031V4.24053C1 2.42584 2.49065 1 4.24054 1H26.8595C28.6742 1 30.1 2.49065 30.1 4.24053V7.74031V19.147" stroke="#1062AA" stroke-width="2" stroke-miterlimit="10" stroke-linecap="round" stroke-linejoin="round"/>
<path d="M26.8595 25.8873H4.24054C2.42584 25.8873 1 24.3967 1 22.6468V19.147C1 17.3323 2.49065 15.9065 4.24054 15.9065H26.8595C28.6742 15.9065 30.1 17.3971 30.1 19.147V22.6468C30.1 24.4615 28.6094 25.8873 26.8595 25.8873Z" stroke="#1062AA" stroke-width="2" stroke-miterlimit="10" stroke-linecap="round" stroke-linejoin="round"/>
<path d="M15.5824 25.8872V31.5905" stroke="#1062AA" stroke-width="2" stroke-miterlimit="10" stroke-linecap="round" stroke-linejoin="round"/>
<path d="M9.10135 31.5906H21.9987" stroke="#1062AA" stroke-width="2" stroke-miterlimit="10" stroke-linecap="round" stroke-linejoin="round"/>
<path d="M6.89781 22.5819C7.72107 22.5819 8.38846 21.9145 8.38846 21.0912C8.38846 20.268 7.72107 19.6006 6.89781 19.6006C6.07455 19.6006 5.40717 20.268 5.40717 21.0912C5.40717 21.9145 6.07455 22.5819 6.89781 22.5819Z" fill="#1062AA"/>
<path d="M11.4346 22.5819C12.2578 22.5819 12.9252 21.9145 12.9252 21.0912C12.9252 20.268 12.2578 19.6006 11.4346 19.6006C10.6113 19.6006 9.94391 20.268 9.94391 21.0912C9.94391 21.9145 10.6113 22.5819 11.4346 22.5819Z" fill="#1062AA"/>
<path d="M15.9064 22.5819C16.7297 22.5819 17.3971 21.9145 17.3971 21.0912C17.3971 20.268 16.7297 19.6006 15.9064 19.6006C15.0832 19.6006 14.4158 20.268 14.4158 21.0912C14.4158 21.9145 15.0832 22.5819 15.9064 22.5819Z" fill="#1062AA"/>
<path d="M24.1375 22.5819C24.9608 22.5819 25.6282 21.9145 25.6282 21.0912C25.6282 20.268 24.9608 19.6006 24.1375 19.6006C23.3143 19.6006 22.6469 20.268 22.6469 21.0912C22.6469 21.9145 23.3143 22.5819 24.1375 22.5819Z" fill="#1062AA"/>
<path d="M12.2771 8.51808C12.2771 8.51808 11.8882 8.84213 11.9531 9.29581L12.0827 10.1383C12.1475 10.5272 11.8882 11.1105 11.2401 11.3049C10.8513 11.4346 10.2032 11.5642 9.74949 11.6938C9.29582 11.7586 8.19404 11.8882 8.19404 11.8882C7.67555 11.953 7.28669 11.6938 7.09226 11.1105C6.96263 10.592 6.83301 10.0087 6.89782 9.42543C6.96263 8.97175 7.02745 8.58289 7.28669 8.25883C7.28669 8.19402 7.3515 8.19403 7.41631 8.12921C7.54593 7.99959 7.67555 7.93478 7.80517 7.86997C8.32366 7.54592 9.23101 7.15705 10.9161 6.63857C12.0179 6.31451 12.99 6.05527 13.8974 5.99046C14.3511 5.92565 14.8695 5.86084 15.4528 5.86084H15.5176H15.5825H15.6473H15.7121C16.2306 5.86084 16.749 5.86084 17.2675 5.92565C18.1749 5.99046 19.147 6.18489 20.2488 6.44414C21.9339 6.89781 22.9061 7.22186 23.4245 7.54592C23.5542 7.61073 23.6838 7.67554 23.8134 7.80516C23.8782 7.86997 23.8782 7.86997 23.943 7.93478C24.2023 8.19402 24.3319 8.58289 24.3967 9.10137C24.4615 9.68467 24.3967 10.268 24.2671 10.7865C24.1375 11.3049 23.6838 11.629 23.2301 11.5642C23.2301 11.5642 22.1931 11.4994 21.6747 11.4346C21.221 11.3697 20.5081 11.2401 20.184 11.1105C19.5359 10.9161 19.2119 10.3976 19.2767 9.94391L19.3415 9.10137C19.4063 8.6477 19.0174 8.38846 19.0174 8.38846C19.0174 8.38846 15.4528 6.50895 12.2771 8.51808Z" stroke="#1062AA" stroke-width="2" stroke-miterlimit="10" stroke-linecap="round" stroke-linejoin="round"/>
</svg>
