<svg width="43" height="32" viewBox="0 0 43 32" fill="none" xmlns="http://www.w3.org/2000/svg">
<path d="M21.4139 19.4751C23.2692 19.4751 24.7731 17.9711 24.7731 16.1158C24.7731 14.2606 23.2692 12.7566 21.4139 12.7566C19.5586 12.7566 18.0547 14.2606 18.0547 16.1158C18.0547 17.9711 19.5586 19.4751 21.4139 19.4751Z" stroke="#1062AA" stroke-width="2" stroke-miterlimit="10" stroke-linecap="round" stroke-linejoin="round"/>
<path d="M15.2122 22.1448C13.6618 20.5944 12.7143 18.4411 12.7143 16.0293C12.7143 13.6175 13.6618 11.4642 15.2122 9.82764" stroke="#1062AA" stroke-width="2" stroke-miterlimit="10" stroke-linecap="round" stroke-linejoin="round"/>
<path d="M27.7878 10C29.252 11.5504 30.1995 13.7038 30.1995 16.0294C30.1995 18.4412 29.252 20.5945 27.7016 22.1449" stroke="#1062AA" stroke-width="2" stroke-miterlimit="10" stroke-linecap="round" stroke-linejoin="round"/>
<path d="M11.4222 25.8488C8.92435 23.3509 7.46007 19.9055 7.46007 16.1156C7.46007 12.2396 9.09662 8.70805 11.6806 6.12402" stroke="#1062AA" stroke-width="2" stroke-miterlimit="10" stroke-linecap="round" stroke-linejoin="round"/>
<path d="M31.5776 6.38232C33.9894 8.88022 35.4537 12.3256 35.4537 16.0294C35.4537 19.9054 33.9032 23.4369 31.3192 25.9348" stroke="#1062AA" stroke-width="2" stroke-miterlimit="10" stroke-linecap="round" stroke-linejoin="round"/>
<path d="M6.68486 30.2416C3.15336 26.5378 1 21.542 1 16.0294C1 10.4307 3.23949 5.34879 6.85713 1.64502" stroke="#1062AA" stroke-width="2" stroke-miterlimit="10" stroke-linecap="round" stroke-linejoin="round"/>
<path d="M36.229 1.81714C39.7605 5.52091 42 10.5167 42 16.0293C42 21.7142 39.6744 26.7961 35.9706 30.4999" stroke="#1062AA" stroke-width="2" stroke-miterlimit="10" stroke-linecap="round" stroke-linejoin="round"/>
</svg>
