<svg width="47" height="46" viewBox="0 0 47 46" fill="none" xmlns="http://www.w3.org/2000/svg">
<path d="M26.6057 16.2302H19.8184V44.643H26.6057V16.2302Z" fill="#F7B916"/>
<path d="M22.5599 15.5121C22.332 15.588 10.2765 15.6019 10.2419 15.2842C9.73156 14.2225 9.16693 13.1878 8.55029 12.184C8.55029 12.184 8.81267 9.56025 8.84719 9.4774C8.88172 9.39454 11.9612 6.39791 11.9612 6.39791L14.799 6.99171L17.2847 8.62812C17.2847 8.62812 17.9752 4.83745 18.0649 4.67864C18.1547 4.51983 20.9097 1.57153 20.9097 1.57153C20.9097 1.57153 23.9132 1.79939 24.0513 1.97891C24.1894 2.15843 26.4058 3.35985 26.4058 3.35985L28.5739 9.06312L32.0262 6.50148C32.0262 6.50148 35.1679 7.34385 35.2714 7.4129C35.375 7.48194 37.1771 10.2507 37.3912 10.4164C37.6052 10.5821 35.4786 15.5535 35.4786 15.5535L22.5599 15.5121Z" fill="#F7B916"/>
<path d="M42.4875 23.6804V36.3574C42.4875 38.5549 41.6145 40.6624 40.0607 42.2162C38.5068 43.7701 36.3994 44.643 34.2019 44.643H12.7973C10.5999 44.643 8.49238 43.7701 6.93852 42.2162C5.38467 40.6624 4.51172 38.5549 4.51172 36.3574V23.6804" stroke="#1062AA" stroke-width="2" stroke-linecap="round" stroke-linejoin="round"/>
<path d="M42.1139 15.968H5.16001C3.02835 15.968 1.30029 17.6945 1.30029 19.8243C1.30029 21.954 3.02835 23.6806 5.16001 23.6806H42.1139C44.2456 23.6806 45.9736 21.954 45.9736 19.8243C45.9736 17.6945 44.2456 15.968 42.1139 15.968Z" stroke="#1062AA" stroke-width="2" stroke-linecap="round" stroke-linejoin="round"/>
<path d="M13.0868 15.9676C12.3023 15.9645 11.5314 15.7631 10.8456 15.3822C10.1599 15.0013 9.58152 14.4532 9.16434 13.7889C8.74715 13.1245 8.50467 12.3655 8.45941 11.5824C8.41416 10.7992 8.5676 10.0174 8.90549 9.3094C9.24338 8.60145 9.75474 7.99039 10.3921 7.53302C11.0294 7.07565 11.772 6.7868 12.5508 6.69332C13.3297 6.59984 14.1196 6.70476 14.847 6.99833C15.5745 7.2919 16.2159 7.76459 16.7117 8.37248" stroke="#1062AA" stroke-width="2" stroke-linecap="round" stroke-linejoin="round"/>
<path d="M16.7114 8.40039L22.9256 15.9679" stroke="#1062AA" stroke-width="2" stroke-linecap="round" stroke-linejoin="round"/>
<path d="M32.7719 15.9676C33.5564 15.9645 34.3273 15.7631 35.0131 15.3822C35.6988 15.0013 36.2772 14.4532 36.6944 13.7889C37.1115 13.1245 37.354 12.3655 37.3993 11.5824C37.4445 10.7992 37.2911 10.0174 36.9532 9.3094C36.6153 8.60145 36.104 7.99039 35.4666 7.53302C34.8293 7.07565 34.0867 6.7868 33.3079 6.69332C32.529 6.59984 31.7391 6.70476 31.0117 6.99833C30.2842 7.2919 29.6428 7.76459 29.147 8.37248" stroke="#1062AA" stroke-width="2" stroke-linecap="round" stroke-linejoin="round"/>
<path d="M29.1474 8.40039L22.9263 15.9679" stroke="#1062AA" stroke-width="2" stroke-linecap="round" stroke-linejoin="round"/>
<path d="M28.0769 9.56702C28.9538 6.80515 27.5315 3.42876 24.811 2.35853C23.8162 1.97358 22.7311 1.88493 21.6869 2.10331C20.6428 2.32168 19.6842 2.83772 18.927 3.5891C18.1697 4.34048 17.6463 5.29505 17.4198 6.33749C17.1934 7.37992 17.2736 8.46563 17.6509 9.46345" stroke="#1062AA" stroke-width="2" stroke-linecap="round" stroke-linejoin="round"/>
<path d="M26.6122 15.968H20.3911V44.6432H26.6122V15.968Z" stroke="#1062AA" stroke-width="2" stroke-linecap="round" stroke-linejoin="round"/>
</svg>
