<svg width="49" height="48" viewBox="0 0 49 48" fill="none" xmlns="http://www.w3.org/2000/svg">
<path d="M21.3231 43.3711L21.3171 43.3755L17.5801 46.143L17.5776 46.1448C16.7185 46.7838 15.4759 46.3028 15.2517 45.3247L15.2511 45.3221L14.2126 40.8287C14.2122 40.8269 14.2118 40.8251 14.2114 40.8233C13.7725 38.8766 12.0567 37.4998 10.1112 37.362L10.0957 37.3609L10.0802 37.3601L5.41247 37.1264C4.43831 37.0527 3.79091 35.9386 4.28245 35.0101L4.28624 35.003L4.28996 34.9958L6.41393 30.8771C6.41481 30.8754 6.41569 30.8737 6.41657 30.872C7.33788 29.1098 6.98751 26.9629 5.48533 25.6046L2.08993 22.4248L2.087 22.422C1.34295 21.729 1.53546 20.4572 2.5447 20.0241L6.84198 18.2447L6.84199 18.2447L6.84841 18.242C8.6945 17.4675 9.7697 15.617 9.55703 13.6487L9.5558 13.6373L9.5544 13.626L8.98795 9.0389C8.87545 7.99272 9.84991 7.17613 10.8784 7.50063L10.8784 7.50069L10.8909 7.50453L15.3376 8.86483L15.3456 8.86727L15.3536 8.86962C17.2247 9.41938 19.3022 8.74578 20.3959 7.02346L22.9394 3.14685C22.94 3.14596 22.9406 3.14506 22.9412 3.14417C23.5436 2.24019 24.8579 2.28588 25.3913 3.12339L25.3913 3.1234L25.3954 3.12969L27.899 7.01758C28.9917 8.74424 31.0718 9.42001 32.9451 8.86962L32.9451 8.86967L32.9569 8.86612L37.447 7.50697C37.4475 7.5068 37.4481 7.50664 37.4486 7.50648C38.4696 7.20163 39.4482 8.06208 39.314 9.05994L39.3129 9.06796L39.3119 9.076L38.7459 13.6594C38.463 15.6775 39.628 17.5696 41.4469 18.3344C41.448 18.3349 41.4491 18.3353 41.4503 18.3358L45.7486 20.1625C46.7187 20.5748 46.9417 21.832 46.1696 22.5578L42.7318 25.6866C42.7305 25.6878 42.7291 25.6891 42.7277 25.6903C41.218 27.0481 40.8644 29.2 41.7874 30.9657C41.7883 30.9674 41.7892 30.9692 41.7901 30.9709L43.9065 35.0749C44.3704 36.0359 43.7051 37.1267 42.6741 37.1721L42.6651 37.1725L37.9819 37.4071L37.9664 37.4078L37.951 37.4089C36.0081 37.5465 34.2944 38.9198 33.8526 40.8622L32.7672 45.3544L32.7651 45.363L32.7632 45.3716C32.5392 46.3487 31.2991 46.8297 30.44 46.1938C30.4391 46.1931 30.4382 46.1924 30.4372 46.1917L26.7173 43.3903C26.7156 43.389 26.7138 43.3876 26.7121 43.3863C25.1219 42.1716 22.9251 42.197 21.3231 43.3711Z" stroke="#1062AA" stroke-width="3"/>
<path d="M18.3103 26.2525C17.0783 26.2525 16.0703 25.8365 15.2863 25.0045C14.5183 24.1565 14.1343 23.0285 14.1343 21.6205C14.1343 20.2125 14.5183 19.0925 15.2863 18.2605C16.0703 17.4125 17.0783 16.9885 18.3103 16.9885C19.5423 16.9885 20.5423 17.4125 21.3103 18.2605C22.0783 19.0925 22.4623 20.2125 22.4623 21.6205C22.4623 23.0285 22.0783 24.1565 21.3103 25.0045C20.5423 25.8365 19.5423 26.2525 18.3103 26.2525ZM28.3183 17.1805H31.1743L19.7023 33.9805H16.8463L28.3183 17.1805ZM18.3103 24.2845C18.8543 24.2845 19.2783 24.0605 19.5823 23.6125C19.9023 23.1645 20.0623 22.5005 20.0623 21.6205C20.0623 20.7405 19.9023 20.0765 19.5823 19.6285C19.2783 19.1805 18.8543 18.9565 18.3103 18.9565C17.7823 18.9565 17.3583 19.1885 17.0383 19.6525C16.7183 20.1005 16.5583 20.7565 16.5583 21.6205C16.5583 22.4845 16.7183 23.1485 17.0383 23.6125C17.3583 24.0605 17.7823 24.2845 18.3103 24.2845ZM29.7103 34.1725C28.9103 34.1725 28.1903 33.9885 27.5503 33.6205C26.9263 33.2365 26.4383 32.6925 26.0863 31.9885C25.7343 31.2845 25.5583 30.4685 25.5583 29.5405C25.5583 28.6125 25.7343 27.7965 26.0863 27.0925C26.4383 26.3885 26.9263 25.8525 27.5503 25.4845C28.1903 25.1005 28.9103 24.9085 29.7103 24.9085C30.9423 24.9085 31.9423 25.3325 32.7103 26.1805C33.4943 27.0125 33.8863 28.1325 33.8863 29.5405C33.8863 30.9485 33.4943 32.0765 32.7103 32.9245C31.9423 33.7565 30.9423 34.1725 29.7103 34.1725ZM29.7103 32.2045C30.2543 32.2045 30.6783 31.9805 30.9823 31.5325C31.3023 31.0685 31.4623 30.4045 31.4623 29.5405C31.4623 28.6765 31.3023 28.0205 30.9823 27.5725C30.6783 27.1085 30.2543 26.8765 29.7103 26.8765C29.1823 26.8765 28.7583 27.1005 28.4383 27.5485C28.1183 27.9965 27.9583 28.6605 27.9583 29.5405C27.9583 30.4205 28.1183 31.0845 28.4383 31.5325C28.7583 31.9805 29.1823 32.2045 29.7103 32.2045Z" fill="#1062AA"/>
</svg>
