<svg width="32" height="34" viewBox="0 0 32 34" fill="none" xmlns="http://www.w3.org/2000/svg">
<path d="M11.1915 27.7275L5.84862 32.3157V27.7275C4.56316 27.7222 3.33195 27.2088 2.42361 26.2992C1.51527 25.3896 1.00352 24.1577 1 22.8722V5.84862C1.00527 4.56431 1.5178 3.33411 2.42596 2.42596C3.33411 1.5178 4.56431 1.00527 5.84862 1H26.1514C27.4357 1.00527 28.6659 1.5178 29.574 2.42596C30.4822 3.33411 30.9947 4.56431 31 5.84862V22.8722C30.9965 24.1577 30.4847 25.3896 29.5764 26.2992C28.6681 27.2088 27.4368 27.7222 26.1514 27.7275H11.1915" stroke="#1062AA" stroke-width="2" stroke-linecap="round" stroke-linejoin="round"/>
<path d="M8.35976 10.1296H19.4795" stroke="#1062AA" stroke-width="2" stroke-linecap="round" stroke-linejoin="round"/>
<path d="M8.35976 15.1853H14.9916" stroke="#1062AA" stroke-width="2" stroke-linecap="round" stroke-linejoin="round"/>
<path d="M8.35976 20.2344H13.736" stroke="#1062AA" stroke-width="2" stroke-linecap="round" stroke-linejoin="round"/>
<path d="M19.4796 18.9587C21.9176 18.9587 23.8941 16.9822 23.8941 14.5442C23.8941 12.1061 21.9176 10.1296 19.4796 10.1296C17.0415 10.1296 15.065 12.1061 15.065 14.5442C15.065 16.9822 17.0415 18.9587 19.4796 18.9587Z" stroke="#1062AA" stroke-width="2" stroke-linecap="round" stroke-linejoin="round"/>
<path d="M22.0374 18.1707C25.0294 19.4062 27.2533 22.7588 27.5605 26.806" stroke="#1062AA" stroke-width="2" stroke-linecap="round" stroke-linejoin="round"/>
<path d="M11.4186 27.3469C11.5655 23.0593 13.8496 19.4595 16.9685 18.1772" stroke="#1062AA" stroke-width="2" stroke-linecap="round" stroke-linejoin="round"/>
</svg>
