<svg width="32" height="32" viewBox="0 0 32 32" fill="none" xmlns="http://www.w3.org/2000/svg">
<path d="M16.7684 27.6593L12.8931 31V27.6593C10.9555 27.6593 9.35193 26.0557 9.35193 24.1181V11.8241C9.35193 9.88652 10.9555 8.28296 12.8931 8.28296H27.5256C29.4632 8.28296 31.0668 9.88652 31.0668 11.8241V24.1181C31.0668 26.0557 29.4632 27.6593 27.5256 27.6593H16.7684Z" stroke="#00ADEE" stroke-width="1.5" stroke-miterlimit="10" stroke-linecap="round" stroke-linejoin="round"/>
<path d="M8.41645 20.3763L4.54119 23.7171V20.3763C2.60356 20.3763 1 18.7728 1 16.8351V4.54119C1 2.60356 2.60356 1 4.54119 1H19.1736C21.1113 1 22.7148 2.60356 22.7148 4.54119V16.8351C22.7148 18.7728 21.1113 20.3763 19.1736 20.3763H8.41645Z" stroke="#00ADEE" stroke-width="1.5" stroke-miterlimit="10" stroke-linecap="round" stroke-linejoin="round"/>
</svg>
