<svg width="41" height="33" viewBox="0 0 41 33" fill="none" xmlns="http://www.w3.org/2000/svg">
<path d="M15.193 28.9208L19.0403 32.2185V28.9208C20.964 28.9208 22.5098 27.3406 22.5098 25.4513V13.188C22.5098 11.2643 20.9296 9.71851 19.0403 9.71851H4.47542C2.55175 9.71851 1.00595 11.2987 1.00595 13.188V25.417C1.00595 27.3406 2.5861 28.8864 4.47542 28.8864L15.193 28.9208Z" stroke="#00ADEE" stroke-width="1.5" stroke-miterlimit="10" stroke-linecap="round" stroke-linejoin="round"/>
<path d="M9.00586 19.2185L12.1309 21.7185L15.5059 17.7185" stroke="#00ADEE" stroke-width="1.5" stroke-linecap="round" stroke-linejoin="round"/>
<path d="M22.5059 20.9208H32.193L36.0403 24.2185V20.9208C37.964 20.9208 39.5098 19.3406 39.5098 17.4513V5.18797C39.5098 3.26431 37.9296 1.71851 36.0403 1.71851H21.4754C19.5518 1.71851 18.006 3.29866 18.006 5.18797V9.71851" stroke="#00ADEE" stroke-width="1.5" stroke-miterlimit="10" stroke-linecap="round" stroke-linejoin="round"/>
<path d="M26.0059 11.2185L29.1309 13.7185L32.5059 9.71851" stroke="#00ADEE" stroke-width="1.5" stroke-linecap="round" stroke-linejoin="round"/>
</svg>
