<svg width="32" height="32" viewBox="0 0 32 32" fill="none" xmlns="http://www.w3.org/2000/svg">
<path d="M13.9587 1.08071V1.16057C13.627 1.22671 13.3801 1.50439 13.311 1.77994L13.3106 1.77982L13.3086 1.79168L12.6725 5.59996C11.9437 5.79264 11.2727 6.09459 10.6598 6.45322L7.54493 4.23317C7.39069 4.1182 7.21044 4.05598 7.02431 4.0663C6.83693 4.07669 6.65675 4.15988 6.50347 4.31253L3.96065 6.78477L3.95231 6.79289L3.94531 6.80219C3.72772 7.09169 3.6292 7.49306 3.87899 7.82695L6.10613 10.9382C5.74705 11.6119 5.49823 12.2861 5.25591 13.0067L1.49673 13.6425L1.49671 13.6424L1.49238 13.6433C1.09117 13.7233 0.85 14.0494 0.85 14.4411V18.0203C0.85 18.412 1.09117 18.7381 1.49238 18.8182L1.4943 18.8185L5.24818 19.5169C5.44204 20.2478 5.74624 20.9216 6.10548 21.5876L3.88009 24.633C3.87989 24.6333 3.87968 24.6335 3.87948 24.6338C3.62907 24.9678 3.72758 25.3695 3.94531 25.6592L3.95172 25.6678L3.95927 25.6753L6.50274 28.2132C6.62838 28.3386 6.80877 28.4159 6.99248 28.4352C7.17665 28.4545 7.37844 28.417 7.54432 28.2938L10.7276 26.0703C11.4011 26.4279 12.0734 26.6761 12.736 26.9167L13.3738 30.7348L13.3737 30.7348L13.3747 30.7396C13.455 31.1404 13.782 31.3807 14.1739 31.3807H17.7609C18.1528 31.3807 18.4798 31.1404 18.5601 30.7396L18.5606 30.7372L19.2606 26.927C19.9904 26.7342 20.6622 26.4319 21.2759 26.0728L24.4557 28.2938C24.7898 28.5422 25.1913 28.4441 25.4812 28.2272L25.4897 28.2208L25.4973 28.2132L28.0407 25.6753C28.1664 25.5499 28.2439 25.3698 28.2633 25.1863C28.2828 25.0017 28.2448 24.7996 28.1204 24.6337C28.1203 24.6335 28.1201 24.6332 28.1199 24.633L25.8317 21.5253C26.1901 20.9068 26.4384 20.2348 26.6793 19.5185L30.5053 18.8186L30.5053 18.8186L30.5076 18.8182C30.9088 18.7381 31.15 18.412 31.15 18.0203V14.4411C31.15 14.0354 30.8305 13.7236 30.5146 13.6448L30.5147 13.6444L30.5029 13.6424L26.6861 13.0076C26.4929 12.2802 26.1902 11.6106 25.8307 10.9988L28.0563 7.82634C28.3055 7.49257 28.2069 7.09151 27.9895 6.80219L27.9831 6.79367L27.9755 6.78614L25.432 4.24818C25.3064 4.12281 25.126 4.04552 24.9423 4.02622C24.7579 4.00685 24.5559 4.04453 24.3899 4.16807L21.2746 6.38844C20.7042 6.06162 20.0468 5.82571 19.4345 5.60597C19.3772 5.58541 19.3203 5.56499 19.2639 5.54465L18.6262 1.72661L18.6263 1.7266L18.6253 1.72184C18.545 1.32098 18.218 1.08071 17.8261 1.08071H14.1087H13.9587ZM17.6784 6.33261L17.678 6.33268L17.6806 6.34309C17.7578 6.65121 17.9891 6.88769 18.2353 6.96958L18.2352 6.96984L18.244 6.9722C19.2114 7.2296 20.0443 7.54972 20.8759 8.06004C21.0034 8.144 21.1636 8.18115 21.3152 8.18115C21.4678 8.18115 21.6291 8.14353 21.757 8.05842L21.7571 8.05852L21.7617 8.05516L24.7235 5.91724L26.3046 7.49497L24.2252 10.4502L24.2251 10.4502L24.2231 10.4532C24.1377 10.581 24.1 10.742 24.1 10.8945C24.1 11.046 24.1373 11.2059 24.2215 11.3333C24.7327 12.1628 25.0534 12.9935 25.3113 13.9582C25.3879 14.262 25.6254 14.5198 25.9658 14.5259L29.5457 15.09V17.3086L25.9524 17.9376L25.9523 17.9372L25.942 17.9398C25.6335 18.0168 25.3964 18.2474 25.3143 18.4934L25.314 18.4933L25.3116 18.5022C25.0537 19.4674 24.7329 20.2984 24.2215 21.1281C24.1373 21.2555 24.1 21.4155 24.1 21.5669C24.1 21.7194 24.1377 21.8804 24.2231 22.0082L24.223 22.0082L24.2264 22.0129L26.3686 24.9677L24.7874 26.5455L21.8252 24.4701L21.8252 24.4701L21.8222 24.4681C21.6943 24.383 21.5331 24.3454 21.3804 24.3454C21.2278 24.3454 21.0666 24.383 20.9387 24.4681C20.1764 24.9752 19.2821 25.2954 18.3103 25.554C18.0068 25.6302 17.7483 25.8664 17.7414 26.206L17.1132 29.7792H14.889L14.3221 26.1964L14.3227 26.1963L14.3194 26.1834C14.2422 25.8753 14.0109 25.6388 13.7647 25.5569L13.7648 25.5567L13.756 25.5543C12.7886 25.2969 11.9557 24.9768 11.1241 24.4665C10.9966 24.3825 10.8364 24.3454 10.6848 24.3454C10.5322 24.3454 10.3709 24.383 10.243 24.4681L10.243 24.468L10.24 24.4701L7.2778 26.5455L5.69628 24.9674L7.77396 22.0775L7.77404 22.0775L7.7769 22.0733C7.86226 21.9455 7.9 21.7845 7.9 21.632C7.9 21.4805 7.86274 21.3206 7.77853 21.1932C7.26732 20.3638 6.94658 19.5331 6.68868 18.5683C6.61224 18.2651 6.37539 18.0075 6.03581 18.0006L2.51957 17.3741V15.1547L6.04549 14.5892L6.04558 14.5898L6.05805 14.5867C6.3665 14.5097 6.60359 14.2791 6.68575 14.0331L6.68602 14.0332L6.68839 14.0243C6.94762 13.0543 7.26857 12.1617 7.7769 11.4008C7.86226 11.2731 7.9 11.112 7.9 10.9596C7.9 10.8071 7.86226 10.6461 7.7769 10.5183L7.77701 10.5182L7.77328 10.5131L5.56656 7.49334L7.14736 5.91596L10.1096 7.99131L10.1096 7.99134L10.1126 7.99335C10.2405 8.07845 10.4017 8.11607 10.5543 8.11607C10.706 8.11607 10.8661 8.07893 10.9937 7.99496C11.825 7.48483 12.6575 7.16476 13.6245 6.90741C13.9279 6.83126 14.1863 6.5951 14.1933 6.25569L14.8212 2.74731H17.048L17.6784 6.33261Z" fill="#00ADEE" stroke="#00ADEE" stroke-width="0.3"/>
<circle cx="16" cy="16.2307" r="4.76923" stroke="#00ADEE" stroke-width="2"/>
</svg>
