<svg width="44" height="34" viewBox="0 0 44 34" fill="none" xmlns="http://www.w3.org/2000/svg">
<path d="M12.2167 0.568506V0.641487C11.929 0.706033 11.7163 0.948865 11.656 1.18964L11.6555 1.18953L11.6536 1.20139L11.1044 4.48917C10.48 4.65566 9.90469 4.91424 9.37873 5.22089L6.68991 3.30447C6.55306 3.20251 6.39238 3.14681 6.22582 3.15605C6.05801 3.16535 5.8974 3.23986 5.7615 3.37516L3.55782 5.51768L3.54947 5.5258L3.54247 5.53511C3.35097 5.7899 3.26115 6.14788 3.48484 6.44707L5.40769 9.13321C5.10071 9.71142 4.88677 10.29 4.67917 10.9066L1.43302 11.4556L1.43301 11.4556L1.42868 11.4564C1.07094 11.5278 0.855859 11.8192 0.855859 12.1675V15.2695C0.855859 15.6178 1.07094 15.9092 1.42867 15.9806L1.4306 15.9809L4.67154 16.5839C4.83915 17.2107 5.09986 17.7889 5.40702 18.3596L3.48595 20.9885C3.48575 20.9887 3.48554 20.989 3.48534 20.9893C3.26102 21.2886 3.35083 21.6469 3.54248 21.9019L3.54888 21.9104L3.55643 21.918L5.76078 24.1175C5.87337 24.2299 6.03419 24.2985 6.19726 24.3156C6.36077 24.3328 6.54082 24.2996 6.68929 24.1894L9.43792 22.2695C10.0156 22.5751 10.5921 22.7885 11.1593 22.9945L11.7101 26.292L11.71 26.292L11.711 26.2968C11.7826 26.6543 12.0748 26.8685 12.4232 26.8685H15.5319C15.8804 26.8685 16.1726 26.6543 16.2442 26.2968L16.2443 26.2968L16.2447 26.2944L16.8491 23.0047C17.4745 22.8381 18.0507 22.5792 18.5773 22.272L21.3224 24.1894C21.6218 24.4118 21.9798 24.3224 22.2349 24.1314L22.2434 24.1251L22.2509 24.1175L24.4553 21.918C24.5679 21.8056 24.6368 21.645 24.6539 21.4821C24.6712 21.3181 24.6376 21.1376 24.5262 20.9891C24.5261 20.9889 24.5259 20.9887 24.5258 20.9885L22.5506 18.3058C22.8568 17.7743 23.0703 17.198 23.2765 16.5855L26.5807 15.981L26.5807 15.981L26.583 15.9806C26.9408 15.9092 27.1559 15.6178 27.1559 15.2695V12.1675C27.1559 11.8052 26.8711 11.5281 26.59 11.458L26.5901 11.4575L26.5783 11.4556L23.2831 10.9076C23.1162 10.2843 22.857 9.7101 22.5495 9.18518L24.4708 6.44644C24.6939 6.14739 24.6041 5.78972 24.4127 5.53511L24.4063 5.52658L24.3988 5.51905L22.1944 3.31948C22.0818 3.20713 21.921 3.13851 21.7579 3.12139C21.5942 3.10419 21.4139 3.13753 21.2653 3.24804L18.576 5.16482C18.0825 4.8839 17.5156 4.68047 16.9891 4.49155C16.9432 4.47507 16.8976 4.4587 16.8524 4.44241L16.3016 1.14499L16.3017 1.14497L16.3008 1.14022C16.2291 0.782742 15.9369 0.568506 15.5885 0.568506H12.3667H12.2167ZM15.4407 5.14361L15.4404 5.14368L15.443 5.15409C15.5115 5.4275 15.7167 5.63796 15.9368 5.71117L15.9367 5.71143L15.9455 5.71379C16.7825 5.93649 17.5023 6.21322 18.2209 6.65414C18.3354 6.72941 18.4781 6.76222 18.6124 6.76222C18.7476 6.76222 18.8914 6.72894 19.0063 6.65251L19.0064 6.6526L19.011 6.64924L21.5641 4.80634L22.9105 6.14979L21.118 8.69726L21.1179 8.69724L21.1159 8.70025C21.0393 8.81499 21.0059 8.95867 21.0059 9.09378C21.0059 9.22793 21.0388 9.37053 21.1143 9.48486C21.556 10.2015 21.8332 10.9194 22.0563 11.7541C22.1242 12.0231 22.3356 12.2548 22.6411 12.261L25.7254 12.7469V14.6359L22.6278 15.1781L22.6278 15.1778L22.6174 15.1803C22.3437 15.2486 22.1327 15.4532 22.0592 15.6732L22.059 15.6731L22.0566 15.6819C21.8334 16.517 21.5561 17.2352 21.1143 17.9522C21.0388 18.0665 21.0059 18.2091 21.0059 18.3432C21.0059 18.4783 21.0393 18.622 21.1159 18.7368L21.1158 18.7368L21.1192 18.7415L22.9657 21.2885L21.6194 22.632L19.0658 20.8429L19.0659 20.8429L19.0629 20.8409C18.948 20.7645 18.8041 20.7312 18.6689 20.7312C18.5337 20.7312 18.3898 20.7645 18.275 20.8409C17.617 21.2786 16.8444 21.5554 16.0031 21.7793C15.7344 21.8468 15.5021 22.0571 15.4951 22.3618L14.9538 25.4405H13.0601L12.5714 22.3523L12.572 22.3522L12.5688 22.3393C12.5003 22.0659 12.295 21.8555 12.0749 21.7822L12.075 21.782L12.0662 21.7796C11.2292 21.5569 10.5094 21.2802 9.79083 20.8393C9.67635 20.764 9.53361 20.7312 9.39934 20.7312C9.2641 20.7312 9.12028 20.7645 9.00539 20.8409L9.00536 20.8409L9.0024 20.8429L6.44887 22.632L5.10214 21.2881L6.89287 18.7974L6.89294 18.7974L6.8958 18.7932C6.97246 18.6784 7.00586 18.5347 7.00586 18.3996C7.00586 18.2655 6.97294 18.1229 6.89744 18.0086C6.45579 17.2919 6.17852 16.574 5.9554 15.7394C5.88765 15.4708 5.67688 15.2394 5.3722 15.2324L2.34282 14.6927V12.803L5.38178 12.3156L5.38187 12.3162L5.39434 12.3131C5.66801 12.2448 5.87902 12.0402 5.95248 11.8203L5.95275 11.8204L5.95512 11.8115C6.17956 10.9716 6.45703 10.2004 6.8958 9.5437C6.97246 9.42896 7.00586 9.28529 7.00586 9.15018C7.00586 9.01507 6.97246 8.87139 6.8958 8.75665L6.89591 8.75658L6.89219 8.75148L4.98981 6.14816L6.33583 4.80506L8.88935 6.59407L8.88933 6.5941L8.89234 6.59611C9.00723 6.67254 9.15106 6.70582 9.28629 6.70582C9.42056 6.70582 9.5633 6.67301 9.67778 6.59774C10.3961 6.15701 11.1156 5.88032 11.9521 5.65767C12.2208 5.59019 12.453 5.38005 12.46 5.07547L13.001 2.05289H14.8973L15.4407 5.14361Z" fill="#00ADEE" stroke="#00ADEE" stroke-width="0.3"/>
<circle cx="14.0059" cy="13.7185" r="4" stroke="#00ADEE" stroke-width="2"/>
<path d="M30.5752 15.9441L30.5904 16.0007C30.4342 16.1028 30.3512 16.2859 30.3538 16.4443L30.3534 16.4443L30.3545 16.4563L30.5482 18.4613C30.2231 18.6526 29.9375 18.8847 29.6853 19.1353L27.8172 18.4376C27.709 18.3947 27.5908 18.3856 27.4789 18.4223C27.3658 18.4595 27.2716 18.5394 27.2061 18.6521L26.2376 20.2763L26.2317 20.2863L26.2273 20.2971C26.1488 20.4921 26.1477 20.7507 26.3556 20.9149L27.8985 22.1823C27.8154 22.5557 27.781 22.9162 27.7567 23.2924L25.9459 24.1215L25.9459 24.1214L25.9419 24.1233C25.7142 24.2358 25.6224 24.4722 25.6845 24.7039L26.1786 26.5478C26.2406 26.7795 26.4383 26.9383 26.6918 26.9219L26.6937 26.9217L28.6801 26.7667C28.8731 27.0942 29.1076 27.3824 29.3648 27.6578L28.655 29.4918C28.6549 29.4922 28.6547 29.4925 28.6546 29.4928C28.556 29.7393 28.6864 29.963 28.852 30.0928L28.8604 30.0993L28.8697 30.1047L30.5303 31.061C30.6282 31.1174 30.7485 31.1338 30.8591 31.1163C30.9702 31.0986 31.0858 31.0445 31.1671 30.9424L32.4721 29.3909C32.8441 29.4731 33.2021 29.5078 33.5506 29.5382L34.3893 31.3799L34.3892 31.38L34.3914 31.3843C34.504 31.6119 34.7409 31.7029 34.9725 31.6408L36.8203 31.1457C37.0519 31.0837 37.2115 30.8865 37.1953 30.633L37.1953 30.633L37.1951 30.6306L37.0334 28.6151C37.3593 28.4234 37.6457 28.1907 37.8984 27.9395L39.8002 28.6292C40.046 28.7261 40.2692 28.5962 40.3991 28.4311L40.4057 28.4227L40.411 28.4135L41.371 26.7549C41.4276 26.6571 41.4442 26.537 41.4267 26.4263C41.4091 26.3147 41.3544 26.1986 41.2511 26.1174C41.2509 26.1172 41.2507 26.1171 41.2505 26.1169L39.6788 24.8606C39.7679 24.5121 39.8024 24.1539 39.8265 23.7817L41.6636 22.9106L41.6636 22.9107L41.6657 22.9096C41.8934 22.7971 41.9852 22.5607 41.9231 22.329L41.4291 20.4852C41.3634 20.24 41.1231 20.1073 40.923 20.1108L40.923 20.1103L40.9111 20.1115L38.9019 20.307C38.7104 19.9826 38.4781 19.6976 38.2271 19.4461L38.92 17.5476C39.0175 17.3018 38.8873 17.0787 38.722 16.9492L38.7136 16.9426L38.7044 16.9373L37.0437 15.9809C36.9458 15.9245 36.8256 15.9082 36.7149 15.9257C36.6036 15.9433 36.4877 15.9977 36.4064 16.1002L35.1368 17.6392C34.8031 17.5564 34.4425 17.5265 34.1121 17.4991C34.0936 17.4976 34.0752 17.4961 34.0569 17.4946L33.2183 15.653L33.2184 15.653L33.2163 15.6486C33.1036 15.421 32.8667 15.3301 32.6352 15.3921L30.7201 15.9052L30.5752 15.9441ZM33.2387 18.2152L33.2383 18.2154L33.2435 18.2248C33.337 18.393 33.5099 18.4972 33.6728 18.5068L33.6728 18.5071L33.682 18.5071C34.2106 18.5062 34.6765 18.5556 35.1669 18.701C35.2598 18.7315 35.3613 18.7271 35.449 18.7036C35.5376 18.6798 35.6287 18.6322 35.694 18.558L35.6941 18.5581L35.6978 18.5536L36.8908 17.0896L37.8205 17.625L37.1775 19.3791L37.1774 19.3791L37.1762 19.3826C37.1445 19.4762 37.1487 19.5789 37.1724 19.6675C37.1959 19.7552 37.2429 19.8452 37.3159 19.9103C37.6871 20.2609 37.9627 20.6383 38.2261 21.095C38.3179 21.2592 38.5021 21.3821 38.7145 21.3317L40.5724 21.1349L40.848 22.1633L39.137 22.9585L39.1369 22.9582L39.1275 22.9634C38.9592 23.0567 38.8545 23.2292 38.8446 23.3922L38.8443 23.3921L38.8443 23.4013C38.8447 23.9289 38.7947 24.394 38.6485 24.8835C38.6178 24.9763 38.6221 25.0778 38.6456 25.1655C38.6693 25.2541 38.7171 25.3451 38.7914 25.4103L38.7913 25.4104L38.7958 25.414L40.2608 26.6029L39.7234 27.5314L37.966 26.8912L37.966 26.8912L37.9626 26.89C37.869 26.8585 37.7662 26.8628 37.6776 26.8865C37.589 26.9103 37.4979 26.9579 37.4325 27.0321C37.1174 27.39 36.7087 27.6738 36.2465 27.9396C36.0826 28.031 35.9592 28.2144 36.0086 28.4263L36.1726 30.29L35.1413 30.5664L34.379 28.8536L34.3795 28.8533L34.3731 28.8417C34.2796 28.6735 34.1067 28.5693 33.9438 28.5596L33.9438 28.5594L33.9347 28.5594C33.406 28.5603 32.9401 28.5109 32.4497 28.3655C32.3569 28.3349 32.2553 28.3394 32.1676 28.3629C32.079 28.3866 31.9879 28.4343 31.9226 28.5085L31.9225 28.5084L31.9202 28.5112L30.7184 29.9443L29.7883 29.4086L30.4386 27.6888L30.4387 27.6888L30.4404 27.6839C30.4721 27.5903 30.468 27.4876 30.4442 27.399C30.4207 27.3113 30.3737 27.2212 30.3007 27.1562C29.9296 26.8056 29.6539 26.4282 29.3906 25.9715C29.299 25.8076 29.1154 25.685 28.9037 25.7344L27.0695 25.8915L26.7938 24.8625L28.4777 24.1088L28.4779 24.1093L28.4891 24.1031C28.6574 24.0098 28.7621 23.8373 28.772 23.6743L28.7723 23.6743L28.7723 23.6651C28.7719 23.1326 28.814 22.6373 28.9672 22.1859C28.999 22.0923 28.9948 21.9896 28.971 21.901C28.9473 21.8124 28.8996 21.7213 28.8252 21.6561L28.8253 21.656L28.8204 21.6521L27.3135 20.4386L27.8507 19.5106L29.608 20.1507L29.608 20.1508L29.6114 20.1519C29.7051 20.1835 29.8078 20.1792 29.8964 20.1554C29.9841 20.1319 30.0743 20.085 30.1395 20.0122C30.4912 19.6413 30.8697 19.3657 31.3275 19.1023C31.4914 19.011 31.6148 18.8277 31.5655 18.6159L31.41 16.7855L32.4438 16.5085L33.2387 18.2152Z" fill="#00ADEE" stroke="#00ADEE" stroke-width="0.3"/>
<circle cx="33.8036" cy="23.5165" r="2.32692" transform="rotate(-15 33.8036 23.5165)" stroke="#00ADEE" stroke-width="1.5"/>
</svg>
