<svg width="50" height="52" viewBox="0 0 50 52" fill="none" xmlns="http://www.w3.org/2000/svg">
<path d="M18.8149 1.98071H44.6073C46.5178 1.98071 48.1344 3.71984 48.1344 5.95587V34.7757" stroke="#1062AA" stroke-width="3" stroke-miterlimit="10" stroke-linecap="round" stroke-linejoin="round"/>
<path d="M48.1343 12.9124V29.4755V38.0056C48.1343 40.1588 46.5911 41.9807 44.6071 41.9807V49.9807L36.1343 41.9807H5.66143C3.75089 41.9807 2.13428 40.2416 2.13428 38.0056V5.95587C2.13428 3.71984 3.67741 1.98071 5.66143 1.98071H18.8883" stroke="#1062AA" stroke-width="3" stroke-miterlimit="10" stroke-linecap="round" stroke-linejoin="round"/>
<path d="M31.5503 25.9087C31.5503 27.2047 31.0703 28.3087 30.1103 29.2207C29.1663 30.1167 27.7903 30.6607 25.9823 30.8527V33.5407H24.0143V30.8767C22.8303 30.7967 21.7103 30.5807 20.6543 30.2287C19.5983 29.8767 18.7583 29.4287 18.1343 28.8847L19.2143 26.4607C19.8063 26.9407 20.5263 27.3487 21.3743 27.6847C22.2223 28.0047 23.1023 28.2047 24.0143 28.2847V23.4847C22.8783 23.2127 21.9263 22.9167 21.1583 22.5967C20.4063 22.2607 19.7743 21.7807 19.2623 21.1567C18.7503 20.5167 18.4943 19.6767 18.4943 18.6367C18.4943 17.3407 18.9663 16.2367 19.9103 15.3247C20.8543 14.4127 22.2223 13.8687 24.0143 13.6927V10.9807H25.9823V13.6447C26.8783 13.6927 27.7503 13.8447 28.5983 14.1007C29.4623 14.3567 30.2143 14.6927 30.8543 15.1087L29.8703 17.5327C28.6543 16.8287 27.3583 16.3967 25.9823 16.2367V21.0847C27.1343 21.3567 28.0863 21.6527 28.8383 21.9727C29.6063 22.2927 30.2463 22.7727 30.7583 23.4127C31.2863 24.0367 31.5503 24.8687 31.5503 25.9087ZM21.5903 18.4927C21.5903 19.0207 21.7983 19.4447 22.2143 19.7647C22.6303 20.0847 23.2303 20.3567 24.0143 20.5807V16.3087C23.1983 16.4367 22.5903 16.6927 22.1903 17.0767C21.7903 17.4607 21.5903 17.9327 21.5903 18.4927ZM25.9823 28.2367C26.8303 28.1087 27.4543 27.8607 27.8543 27.4927C28.2703 27.1247 28.4783 26.6687 28.4783 26.1247C28.4783 25.5807 28.2623 25.1487 27.8303 24.8287C27.3983 24.4927 26.7823 24.2127 25.9823 23.9887V28.2367Z" fill="#1062AA"/>
</svg>
