<svg width="32" height="34" viewBox="0 0 32 34" fill="none" xmlns="http://www.w3.org/2000/svg">
<path d="M11.2074 27.7692L5.85619 32.3646V27.7625C4.56933 27.759 3.33619 27.2462 2.42624 26.3363C1.5163 25.4264 1.00353 24.1932 1 22.9064V5.85619C1.00353 4.56933 1.5163 3.33619 2.42624 2.42624C3.33619 1.5163 4.56933 1.00353 5.85619 1H26.1438C27.4307 1.00353 28.6638 1.5163 29.5738 2.42624C30.4837 3.33619 30.9965 4.56933 31 5.85619V22.9064C30.9965 24.1932 30.4837 25.4264 29.5738 26.3363C28.6638 27.2462 27.4307 27.759 26.1438 27.7625H11.2074" stroke="#1062AA" stroke-width="2" stroke-linecap="round" stroke-linejoin="round"/>
<path d="M12.3244 18.271H8.21742C7.95131 18.271 7.69611 18.3767 7.50795 18.5649C7.31978 18.753 7.21407 19.0082 7.21407 19.2743C7.21407 19.5404 7.31978 19.7956 7.50795 19.9838C7.69611 20.172 7.95131 20.2777 8.21742 20.2777H14.679L12.3244 18.271Z" fill="#1062AA"/>
<path d="M23.9164 18.271H20.3378L18.9398 19.9365C18.8253 20.0612 18.7 20.1753 18.5652 20.2777H23.9164C24.1825 20.2777 24.4377 20.172 24.6259 19.9838C24.814 19.7956 24.9197 19.5404 24.9197 19.2743C24.9197 19.0082 24.814 18.753 24.6259 18.5649C24.4377 18.3767 24.1825 18.271 23.9164 18.271Z" fill="#1062AA"/>
<path d="M19.3144 10.1839L21 8.17725H8.21742C7.95131 8.17725 7.69611 8.28296 7.50795 8.47112C7.31978 8.65928 7.21407 8.91449 7.21407 9.18059C7.21407 9.44669 7.31978 9.7019 7.50795 9.89006C7.69611 10.0782 7.95131 10.1839 8.21742 10.1839H19.3144Z" fill="#1062AA"/>
<path d="M10.9466 12.9866L16.5854 17.8027L24.0369 8.96655" stroke="#1062AA" stroke-width="2" stroke-linecap="round" stroke-linejoin="round"/>
</svg>
