<svg width="39" height="33" viewBox="0 0 39 33" fill="none" xmlns="http://www.w3.org/2000/svg">
<path d="M6.94431 18.1498C8.07637 18.1498 8.99408 17.2321 8.99408 16.1001C8.99408 14.968 8.07637 14.0503 6.94431 14.0503C5.81225 14.0503 4.89453 14.968 4.89453 16.1001C4.89453 17.2321 5.81225 18.1498 6.94431 18.1498Z" stroke="#1062AA" stroke-width="2" stroke-miterlimit="10" stroke-linecap="round" stroke-linejoin="round"/>
<path d="M31.2 18.1498C32.332 18.1498 33.2498 17.2321 33.2498 16.1001C33.2498 14.968 32.332 14.0503 31.2 14.0503C30.0679 14.0503 29.1502 14.968 29.1502 16.1001C29.1502 17.2321 30.0679 18.1498 31.2 18.1498Z" stroke="#1062AA" stroke-width="2" stroke-miterlimit="10" stroke-linecap="round" stroke-linejoin="round"/>
<path d="M8.99408 16.1001H16.9882" stroke="#1062AA" stroke-width="2" stroke-miterlimit="10" stroke-linecap="round" stroke-linejoin="round"/>
<path d="M21.0877 16.1001H29.1502" stroke="#1062AA" stroke-width="2" stroke-miterlimit="10" stroke-linecap="round" stroke-linejoin="round"/>
<path d="M10.7023 9.26743H6.87602H3.04978C1.88824 9.26743 1 8.31087 1 7.21765V3.04978C1 1.95656 1.88824 1 3.04978 1H10.7023C11.7955 1 12.752 1.95656 12.752 3.04978V7.21765C12.752 8.37919 11.8638 9.26743 10.7023 9.26743Z" stroke="#1062AA" stroke-width="2" stroke-miterlimit="10" stroke-linecap="round" stroke-linejoin="round"/>
<path d="M6.94431 14.0504V9.26758" stroke="#1062AA" stroke-width="2" stroke-miterlimit="10" stroke-linecap="round" stroke-linejoin="round"/>
<path d="M34.9579 9.26743H31.1999H27.3737C26.2121 9.26743 25.3239 8.31087 25.3239 7.21765V3.04978C25.3239 1.95656 26.2121 1 27.3737 1H34.9579C36.1194 1 37.0076 1.95656 37.0076 3.04978V7.21765C37.0076 8.37919 36.1194 9.26743 34.9579 9.26743Z" stroke="#1062AA" stroke-width="2" stroke-miterlimit="10" stroke-linecap="round" stroke-linejoin="round"/>
<path d="M31.2 14.0504V9.26758" stroke="#1062AA" stroke-width="2" stroke-miterlimit="10" stroke-linecap="round" stroke-linejoin="round"/>
<path d="M19.0379 18.1498C20.17 18.1498 21.0877 17.2321 21.0877 16.1001C21.0877 14.968 20.17 14.0503 19.0379 14.0503C17.9058 14.0503 16.9881 14.968 16.9881 16.1001C16.9881 17.2321 17.9058 18.1498 19.0379 18.1498Z" stroke="#1062AA" stroke-width="2" stroke-miterlimit="10" stroke-linecap="round" stroke-linejoin="round"/>
<path d="M15.28 22.9326H19.1062H22.9325C24.094 22.9326 24.9823 23.8892 24.9823 24.9824V29.1503C24.9823 30.3118 24.094 31.2 22.9325 31.2H15.28C14.1868 31.2 13.2302 30.3118 13.2302 29.1503V24.9824C13.2302 23.8892 14.1185 22.9326 15.28 22.9326Z" stroke="#1062AA" stroke-width="2" stroke-miterlimit="10" stroke-linecap="round" stroke-linejoin="round"/>
<path d="M19.0379 18.1499V22.9327" stroke="#1062AA" stroke-width="2" stroke-miterlimit="10" stroke-linecap="round" stroke-linejoin="round"/>
<path d="M4.14288 4.34814H9.54063" stroke="#1062AA" stroke-width="2" stroke-miterlimit="10" stroke-linecap="round" stroke-linejoin="round"/>
<path d="M28.467 4.34814H33.933" stroke="#1062AA" stroke-width="2" stroke-miterlimit="10" stroke-linecap="round" stroke-linejoin="round"/>
<path d="M16.3733 28.0571H21.7711" stroke="#1062AA" stroke-width="2" stroke-miterlimit="10" stroke-linecap="round" stroke-linejoin="round"/>
</svg>
