<svg width="38" height="33" viewBox="0 0 38 33" fill="none" xmlns="http://www.w3.org/2000/svg">
<path d="M31.3603 32H6.63969C3.53786 32 1 29.2825 1 25.961V7.03896C1 3.71753 3.53786 1 6.63969 1H31.3603C34.4621 1 37 3.71753 37 7.03896V26.0617C37 29.2825 34.4621 32 31.3603 32Z" stroke="#1062AA" stroke-width="2" stroke-miterlimit="10" stroke-linecap="round" stroke-linejoin="round"/>
<path d="M7 8L7 25" stroke="#1062AA" stroke-width="2" stroke-miterlimit="10" stroke-linecap="round" stroke-linejoin="round"/>
<path d="M22.0886 21.5391C24.5102 21.5391 26.4734 19.576 26.4734 17.1543C26.4734 14.7327 24.5102 12.7695 22.0886 12.7695C19.6669 12.7695 17.7038 14.7327 17.7038 17.1543C17.7038 19.576 19.6669 21.5391 22.0886 21.5391Z" stroke="#1062AA" stroke-width="2" stroke-miterlimit="10" stroke-linecap="round" stroke-linejoin="round"/>
<path d="M22.0885 21.5396V25.5" stroke="#1062AA" stroke-width="2" stroke-miterlimit="10" stroke-linecap="round" stroke-linejoin="round"/>
<path d="M16.9604 16.75L13 16.75" stroke="#1062AA" stroke-width="2" stroke-miterlimit="10" stroke-linecap="round" stroke-linejoin="round"/>
<path d="M22.0885 8V11.9604" stroke="#1062AA" stroke-width="2" stroke-miterlimit="10" stroke-linecap="round" stroke-linejoin="round"/>
<path d="M30.5 16.75L26.5396 16.75" stroke="#1062AA" stroke-width="2" stroke-miterlimit="10" stroke-linecap="round" stroke-linejoin="round"/>
</svg>
