<svg width="40" height="33" viewBox="0 0 40 33" fill="none" xmlns="http://www.w3.org/2000/svg">
<path d="M11.8851 20.5112C13.9895 18.4793 16.8922 17.1731 20.0852 17.1731C21.0286 17.1731 21.972 17.3182 22.9153 17.5359" stroke="#1062AA" stroke-width="2" stroke-miterlimit="10" stroke-linecap="round" stroke-linejoin="round"/>
<path d="M7.02295 15.504C10.4336 12.2384 15.0054 10.2065 20.1577 10.2065C22.6975 10.2065 25.1648 10.7145 27.3418 11.6579" stroke="#1062AA" stroke-width="2" stroke-miterlimit="10" stroke-linecap="round" stroke-linejoin="round"/>
<path d="M1 9.11793C5.93459 4.32848 12.6834 1.42578 20.0852 1.42578C25.2375 1.42578 30.027 2.80456 34.0908 5.27186" stroke="#1062AA" stroke-width="2" stroke-miterlimit="10" stroke-linecap="round" stroke-linejoin="round"/>
<path d="M19.9187 31.4686C21.9367 31.4686 23.5726 29.8327 23.5726 27.8148C23.5726 25.7968 21.9367 24.1609 19.9187 24.1609C17.9008 24.1609 16.2649 25.7968 16.2649 27.8148C16.2649 29.8327 17.9008 31.4686 19.9187 31.4686Z" stroke="#1062AA" stroke-width="2" stroke-miterlimit="10" stroke-linecap="round" stroke-linejoin="round"/>
<path d="M22.7606 24.9728L39 8.7334" stroke="#1062AA" stroke-width="2" stroke-miterlimit="10" stroke-linecap="round" stroke-linejoin="round"/>
</svg>
