<svg width="50" height="50" viewBox="0 0 50 50" fill="none" xmlns="http://www.w3.org/2000/svg">
<g clip-path="url(#clip0)">
<path d="M27.8433 8.41406C38.9419 8.41406 48.002 17.4404 48.002 28.6664C48.002 39.8924 38.9419 48.8429 27.8433 48.8429C16.7447 48.8429 7.68457 39.8165 7.68457 28.6664" stroke="#1062AA" stroke-width="3" stroke-miterlimit="10" stroke-linecap="round" stroke-linejoin="round"/>
<path d="M23.3887 8.86918C24.8232 8.56578 26.3332 8.33822 27.8432 8.33822V2.11841" stroke="#1062AA" stroke-width="3" stroke-linecap="round" stroke-linejoin="round"/>
<path d="M8.59033 22.8259C9.04334 21.3847 9.64734 19.9435 10.4024 18.6541" stroke="#1062AA" stroke-width="3" stroke-linecap="round" stroke-linejoin="round"/>
<path d="M14.7812 13.2686C15.9138 12.2826 17.1973 11.4482 18.5563 10.6897" stroke="#1062AA" stroke-width="3" stroke-linecap="round" stroke-linejoin="round"/>
<path d="M1.2666 33.9759L7.83517 28.5146L14.5547 33.9759" stroke="#1062AA" stroke-width="3" stroke-miterlimit="10" stroke-linecap="round" stroke-linejoin="round"/>
<path d="M30.1079 33.7484C30.1079 33.7484 30.9384 33.8243 31.3159 33.2933L32.1464 32.2314C32.5239 31.7005 33.5054 31.3971 34.4869 31.928C35.0154 32.2314 35.997 32.8382 36.5255 33.2175C37.1295 33.6726 38.413 34.7345 38.413 34.7345C39.017 35.2655 39.168 36.024 38.7905 36.8584C38.3375 37.6169 37.809 38.3754 37.054 38.9822C36.45 39.5132 35.846 39.7407 35.3174 39.8166C35.2419 39.8166 35.1664 39.8166 35.0909 39.8166C34.8644 39.8166 34.5624 39.8166 34.3359 39.6649C33.4299 39.4373 31.9954 38.7546 29.5039 37.3893C27.9184 36.4791 26.5594 35.5689 25.4269 34.6587C24.8228 34.2036 24.2188 33.6726 23.6148 33.0658L23.5393 32.9899L23.4638 32.9141L23.3883 32.8382L23.3128 32.7624C22.7088 32.1556 22.1803 31.5488 21.7273 30.9419C20.8213 29.8042 19.9153 28.4388 19.0093 26.846C17.6503 24.3429 17.0463 22.9017 16.7443 21.9915C16.6688 21.7639 16.5933 21.4605 16.5933 21.233C16.5933 21.1571 16.5933 21.0813 16.5933 21.0054C16.6688 20.3986 16.9708 19.8676 17.4238 19.2608C18.1033 18.5023 18.7828 17.9714 19.5378 17.5162C20.3683 17.0611 21.1233 17.2128 21.6518 17.8955C21.6518 17.8955 22.7088 19.185 23.1618 19.7918C23.6148 20.3986 24.2188 21.3088 24.4453 21.8398C24.9738 22.8258 24.6718 23.7361 24.1433 24.1912L23.0863 25.0255C22.5578 25.4806 22.6333 26.2392 22.6333 26.2392C22.6333 26.2392 24.2943 32.3073 30.1079 33.7484Z" stroke="#1062AA" stroke-width="3" stroke-miterlimit="10" stroke-linecap="round" stroke-linejoin="round"/>
<path d="M19.9155 2.11841H35.7707" stroke="#1062AA" stroke-width="3" stroke-miterlimit="10" stroke-linecap="round" stroke-linejoin="round"/>
</g>
<defs>
<clipPath id="clip0">
<rect width="49" height="49" fill="white" transform="translate(0.134277 0.980713)"/>
</clipPath>
</defs>
</svg>
