<svg width="44" height="33" viewBox="0 0 44 33" fill="none" xmlns="http://www.w3.org/2000/svg">
<path d="M9.20125 28.3058L4.91591 32.0001V28.3058C2.77324 28.3058 1 26.5326 1 24.3899V10.7951C1 8.65239 2.77324 6.87915 4.91591 6.87915H21.0968C23.2394 6.87915 25.0127 8.65239 25.0127 10.7951V24.3899C25.0127 26.5326 23.2394 28.3058 21.0968 28.3058H9.20125Z" stroke="#1062AA" stroke-width="2" stroke-miterlimit="10" stroke-linecap="round" stroke-linejoin="round"/>
<path d="M42.0211 12.5382C42.0211 6.50335 35.7647 1.24414 27.5397 1.24414C19.3146 1.24414 13.0582 6.50335 13.0582 12.5382C13.0582 18.5731 19.3146 23.8323 27.5397 23.8323C28.5458 23.8323 29.5266 23.7427 30.4816 23.5847C31.1802 23.4691 31.8841 23.7214 32.353 24.2407C33.8224 25.868 35.9324 27.5054 38.9167 28.487C38.9142 28.4783 38.9099 28.4685 38.9031 28.4575C37.6515 26.4324 36.9415 24.5127 36.5378 22.9812C36.3132 22.1295 36.6968 21.3042 37.3311 20.8491C40.2622 18.7462 42.0211 15.7712 42.0211 12.5382Z" fill="white" stroke="#1062AA" stroke-width="2"/>
<path d="M26.9867 14.6197C26.0707 14.6197 25.328 13.8771 25.328 12.961C25.328 12.0449 26.0707 11.3022 26.9867 11.3022C27.9028 11.3022 28.6455 12.0449 28.6455 12.961C28.6455 13.8771 27.9028 14.6197 26.9867 14.6197Z" fill="#1062AA"/>
<path d="M21.4576 14.6197C20.5415 14.6197 19.7989 13.8771 19.7989 12.961C19.7989 12.0449 20.5415 11.3022 21.4576 11.3022C22.3737 11.3022 23.1164 12.0449 23.1164 12.961C23.1164 13.8771 22.3737 14.6197 21.4576 14.6197Z" fill="#1062AA"/>
<path d="M33.6217 14.6197C32.7056 14.6197 31.9629 13.8771 31.9629 12.961C31.9629 12.0449 32.7056 11.3022 33.6217 11.3022C34.5378 11.3022 35.2804 12.0449 35.2804 12.961C35.2804 13.8771 34.5378 14.6197 33.6217 14.6197Z" fill="#1062AA"/>
</svg>
